<svg xmlns="http://www.w3.org/2000/svg" xmlns:xlink="http://www.w3.org/1999/xlink" width="375" height="400" fill="none" xmlns:v="https://vecta.io/nano"><style><![CDATA[.B{fill:#444835}.C{fill:#fbfcfa}.D{fill:#f2f5ed}.E{fill:#e6eae1}.F{fill:#dbdcd7}.G{fill:#c8c7bf}.H{fill:#ababa4}.I{fill:#818075}.J{fill:#fdfffa}.K{fill:#2d2910}]]></style><g clip-path="url(#A)"><g class="J"><path d="M0 0h375v400H0z"/><path d="M20 0h17.632v21H20z"/></g><path d="M37.632 0h17.632v21H37.632z" class="C"/><path d="M55.263 0h17.632v21H55.263z" class="D"/><path d="M72.895 0h17.632v21H72.895z" class="E"/><path d="M90.526 0h17.632v21H90.526z" class="F"/><use xlink:href="#B" class="G"/><path d="M125.789 0h17.632v21h-17.632z" class="H"/><path d="M143.421 0h17.632v21h-17.632z" class="I"/><path d="M161.053 0h17.632v21h-17.632z" class="B"/><path d="M178.685 0h17.632v21h-17.632z" class="K"/><path d="M196.315 0h17.632v21h-17.632z" class="B"/><path d="M213.947 0h17.632v21h-17.632z" class="I"/><path d="M231.579 0h17.632v21h-17.632z" class="H"/><path d="M249.211 0h17.632v21h-17.632z" class="G"/><path d="M266.842 0h17.632v21h-17.632z" class="F"/><path d="M284.474 0h17.632v21h-17.632z" class="E"/><path d="M302.105 0h17.632v21h-17.632z" class="D"/><path d="M319.737 0h17.632v21h-17.632z" class="C"/><g class="J"><path d="M337.368 0H355v21h-17.632zM0 379v-18.789h21V379z"/></g><use xlink:href="#C" class="C"/><path d="M0 341.421v-18.789h21v18.789z" class="D"/><path d="M0 322.632v-18.789h21v18.789z" class="E"/><path d="M0 303.842v-18.789h21v18.789z" class="F"/><path d="M0 285.053v-18.789h21v18.789z" class="G"/><path d="M0 266.263v-18.789h21v18.789z" class="H"/><path d="M0 247.474v-18.789h21v18.789z" class="I"/><path d="M0 228.685v-18.789h21v18.789z" class="B"/><path d="M0 209.895v-18.789h21v18.789z" class="K"/><path d="M0 191.105v-18.789h21v18.789z" class="B"/><path d="M0 172.315v-18.789h21v18.789z" class="I"/><path d="M0 153.526v-18.789h21v18.789z" class="H"/><path d="M0 134.737v-18.789h21v18.789z" class="G"/><path d="M0 115.947V97.158h21v18.789z" class="F"/><path d="M0 97.158V78.369h21v18.789z" class="E"/><path d="M0 78.368V59.579h21v18.789z" class="D"/><path d="M0 59.579V40.79h21v18.789z" class="C"/><g class="J"><path d="M0 40.789V22h21v18.789zM354 380v-18.895h21V380z"/></g><path d="M354 361.105V342.21h21v18.895z" class="C"/><use xlink:href="#D" class="D"/><path d="M354 323.315V304.42h21v18.895z" class="E"/><path d="M354 304.421v-18.895h21v18.895z" class="F"/><path d="M354 285.526v-18.895h21v18.895z" class="G"/><path d="M354 266.632v-18.895h21v18.895z" class="H"/><path d="M354 247.737v-18.895h21v18.895z" class="I"/><path d="M354 228.842v-18.895h21v18.895z" class="B"/><path d="M354 209.947v-18.895h21v18.895z" class="K"/><path d="M354 191.053v-18.895h21v18.895z" class="B"/><path d="M354 172.158v-18.895h21v18.895z" class="I"/><path d="M354 153.263v-18.895h21v18.895z" class="H"/><path d="M354 134.368v-18.895h21v18.895z" class="G"/><path d="M354 115.474V96.579h21v18.895z" class="F"/><path d="M354 96.579V77.684h21v18.895z" class="E"/><path d="M354 77.685V58.79h21v18.895z" class="D"/><path d="M354 58.789V39.894h21v18.895z" class="C"/><g class="J"><path d="M354 39.894V21h21v18.895zM21 379h17.526v21H21z"/></g><path d="M38.526 379h17.526v21H38.526z" class="C"/><path d="M56.053 379h17.526v21H56.053z" class="D"/><path d="M73.579 379h17.526v21H73.579z" class="E"/><path d="M91.105 379h17.526v21H91.105z" class="F"/><use xlink:href="#E" class="G"/><path d="M126.158 379h17.526v21h-17.526z" class="H"/><path d="M143.685 379h17.526v21h-17.526z" class="I"/><path d="M161.211 379h17.526v21h-17.526z" class="B"/><path d="M178.737 379h17.526v21h-17.526z" class="K"/><path d="M196.263 379h17.526v21h-17.526z" class="B"/><path d="M213.789 379h17.526v21h-17.526z" class="I"/><path d="M231.315 379h17.526v21h-17.526z" class="H"/><path d="M248.842 379h17.526v21h-17.526z" class="G"/><path d="M266.368 379h17.526v21h-17.526z" class="F"/><path d="M283.895 379h17.526v21h-17.526z" class="E"/><path d="M301.421 379h17.526v21h-17.526z" class="D"/><path d="M318.947 379h17.526v21h-17.526z" class="C"/><path d="M336.474 379H354v21h-17.526z" class="J"/><g class="B"><path d="M72.64 149V73.4h33.264c5.688 0 10.908.936 15.66 2.808s8.892 4.5 12.42 7.884c3.528 3.312 6.228 7.272 8.1 11.88 1.944 4.608 2.916 9.684 2.916 15.228 0 5.472-.972 10.548-2.916 15.228-1.872 4.608-4.572 8.604-8.1 11.988-3.528 3.312-7.668 5.904-12.42 7.776S111.592 149 105.904 149H72.64zm23.328-14.364l-3.996-5.508h13.392c2.376 0 4.536-.432 6.48-1.296a16.42 16.42 0 0 0 5.076-3.78c1.44-1.584 2.556-3.456 3.348-5.616.792-2.232 1.188-4.644 1.188-7.236s-.396-4.968-1.188-7.128c-.792-2.232-1.908-4.14-3.348-5.724s-3.132-2.808-5.076-3.672c-1.944-.936-4.104-1.404-6.48-1.404H91.648l4.32-5.292v46.656zm91.264 15.336c-4.824 0-9.108-1.26-12.852-3.78-3.744-2.592-6.696-6.12-8.856-10.584-2.16-4.536-3.24-9.72-3.24-15.552 0-5.904 1.044-11.088 3.132-15.552 2.16-4.536 5.112-8.064 8.856-10.584 3.816-2.592 8.208-3.888 13.176-3.888 2.592 0 4.968.36 7.128 1.08s4.068 1.728 5.724 3.024a21.53 21.53 0 0 1 4.32 4.536c1.224 1.656 2.268 3.456 3.132 5.4l-4.428-.108V91.22h21.492V149h-22.032v-14.148l4.86.432a22.46 22.46 0 0 1-3.024 5.832c-1.224 1.8-2.7 3.348-4.428 4.644s-3.672 2.34-5.832 3.132c-2.16.72-4.536 1.08-7.128 1.08zm6.264-17.82c2.088 0 3.852-.468 5.292-1.404 1.512-.936 2.628-2.304 3.348-4.104.792-1.8 1.188-3.996 1.188-6.588s-.396-4.788-1.188-6.588c-.72-1.872-1.836-3.276-3.348-4.212-1.44-.936-3.204-1.404-5.292-1.404s-3.852.468-5.292 1.404-2.556 2.34-3.348 4.212c-.72 1.8-1.08 3.996-1.08 6.588s.36 4.788 1.08 6.588c.792 1.8 1.908 3.168 3.348 4.104s3.204 1.404 5.292 1.404zm60.371 41.688l14.364-33.912.216 8.856-27.108-57.564h24.408l7.992 19.224c.864 2.016 1.584 3.924 2.16 5.724.648 1.8 1.116 3.492 1.404 5.076l-2.16 1.944 1.296-3.672 1.944-5.94 7.56-22.356h24.408L285.187 149l-10.152 24.84h-21.168zM137.356 294.708v-61.344l3.996 13.824-17.172 7.344-3.132-20.952 22.464-10.26h16.416v71.388h-22.572zM122.128 300v-19.872h53.352V300h-53.352zm102.106 1.08c-6.696 0-12.6-1.296-17.712-3.888-5.04-2.664-9.54-7.344-13.5-14.04l16.308-10.476c1.368 2.376 2.88 4.248 4.536 5.616s3.384 2.376 5.184 3.024c1.8.576 3.672.864 5.616.864 1.656 0 3.168-.324 4.536-.972s2.448-1.548 3.24-2.7c.864-1.224 1.296-2.664 1.296-4.32 0-1.8-.432-3.276-1.296-4.428-.792-1.224-1.944-2.124-3.456-2.7-1.512-.648-3.348-.972-5.508-.972-.936 0-1.98.108-3.132.324s-2.34.54-3.564.972a27.2 27.2 0 0 0-3.672 1.62l-4.644-12.204 14.688-15.768 7.02 2.268-30.996-1.08v-18.9h48.816l4.212 8.424-25.272 26.244-5.4-6.804c.576-.288 1.512-.54 2.808-.756 1.368-.288 2.808-.432 4.32-.432 3.456 0 6.732.648 9.828 1.944 3.168 1.224 5.976 2.952 8.424 5.184a23.04 23.04 0 0 1 5.724 7.668c1.44 2.952 2.16 6.156 2.16 9.612 0 5.112-1.368 9.684-4.104 13.716-2.664 3.96-6.336 7.128-11.016 9.504-4.608 2.304-9.756 3.456-15.444 3.456zM153.438 346c-.05 0-.085-.017-.106-.051s-.031-.086-.031-.156v-.086c0-.073.01-.125.031-.156s.056-.051.106-.051h1.207v-3.746l-1.227.211c-.044 0-.079-.039-.106-.117a.87.87 0 0 1-.035-.239c0-.036.011-.063.032-.082s.053-.036.097-.047l1.606-.359c.054 0 .104.016.148.047s.07.062.07.102v4.23h1.028c.094 0 .14.069.14.207v.086c0 .138-.046.207-.14.207h-2.82zm5.848.039a1.29 1.29 0 0 1-.793-.266c-.237-.177-.427-.45-.57-.82s-.211-.832-.211-1.387.071-1.013.211-1.382.333-.644.57-.821.502-.269.793-.269a1.3 1.3 0 0 1 .797.269c.242.177.435.451.578.821s.215.83.215 1.382-.071 1.017-.215 1.387-.336.643-.578.82a1.3 1.3 0 0 1-.797.266zm0-.5c.18 0 .344-.066.493-.199s.273-.347.367-.641.14-.672.14-1.133-.046-.834-.14-1.128-.216-.508-.367-.641-.313-.203-.493-.203a.73.73 0 0 0-.492.199c-.148.133-.268.348-.359.645s-.137.67-.137 1.128.046.839.137 1.133.211.508.359.641a.73.73 0 0 0 .492.199zm4.439.5c-.292 0-.556-.088-.793-.266s-.427-.45-.57-.82-.211-.832-.211-1.387.07-1.013.211-1.382.333-.644.57-.821.501-.269.793-.269a1.3 1.3 0 0 1 .797.269c.242.177.435.451.578.821s.215.83.215 1.382-.072 1.017-.215 1.387-.336.643-.578.82-.505.266-.797.266zm0-.5c.18 0 .344-.066.492-.199s.274-.347.368-.641.14-.672.14-1.133-.047-.834-.14-1.128-.217-.508-.368-.641a.71.71 0 0 0-.492-.203.73.73 0 0 0-.492.199c-.148.133-.268.348-.359.645s-.137.67-.137 1.128.045.839.137 1.133.211.508.359.641a.73.73 0 0 0 .492.199zm5.866.461c-.073 0-.126-.017-.16-.051s-.051-.086-.051-.156v-4.445c0-.073.017-.125.051-.157s.087-.05.16-.05h1.402c.651 0 1.172.192 1.563.578s.586 1.001.586 1.847c0 .852-.196 1.47-.586 1.856s-.912.578-1.563.578h-1.402zm1.355-.527c.469 0 .847-.153 1.133-.457s.43-.791.43-1.45c0-.442-.068-.804-.203-1.086s-.321-.489-.555-.617-.503-.195-.805-.195h-.953v3.805h.953zm4.838.566c-.355 0-.641-.087-.86-.262s-.328-.433-.328-.777c0-.362.111-.634.332-.816s.491-.304.809-.356a7.82 7.82 0 0 1 1.164-.094v-.328c0-.174-.06-.314-.18-.418s-.311-.16-.582-.16c-.206 0-.387.025-.543.074a2.83 2.83 0 0 0-.433.172c-.058.029-.093.043-.106.043-.031 0-.066-.022-.105-.066s-.069-.099-.098-.156-.039-.099-.039-.125c0-.06.061-.125.183-.196s.288-.129.489-.176a2.8 2.8 0 0 1 .629-.07c.435 0 .772.095 1.011.285s.36.457.36.801v1.559c0 .302.013.52.039.656l.043.219c0 .057-.045.099-.133.125s-.167.035-.242.035c-.063 0-.11-.035-.141-.106s-.057-.172-.086-.304l-.015-.078c-.144.158-.313.285-.508.378a1.51 1.51 0 0 1-.66.141zm.031-.504c.229 0 .424-.042.586-.125s.328-.202.5-.355v-.821l-.848.043c-.221.026-.415.093-.582.2s-.25.266-.25.488c0 .185.05.327.149.426s.25.144.445.144zm3.923 1.91c-.151 0-.227-.037-.227-.113 0-.018.011-.056.032-.113l.582-1.414-1.215-3.243-.012-.042c-.005-.021-.008-.037-.008-.047 0-.037.025-.065.075-.086s.125-.032.226-.032h.055c.156 0 .248.037.277.11l.707 1.883c.063.164.137.397.223.699h.012l.082-.258.066-.199.086-.242.691-1.883c.024-.073.119-.11.285-.11h.024c.182 0 .273.04.273.118a.38.38 0 0 1-.019.093l-1.781 4.735c-.042.096-.151.144-.329.144h-.105zm4.439-1.379a1.92 1.92 0 0 1-.547-.074c-.169-.049-.305-.109-.406-.18s-.149-.136-.149-.191c0-.026.013-.068.039-.125a.67.67 0 0 1 .098-.152c.037-.044.074-.071.105-.071.008 0 .032.013.071.039.104.068.213.126.328.172a1.13 1.13 0 0 0 .418.071c.453 0 .679-.188.679-.563a.51.51 0 0 0-.066-.269c-.042-.073-.113-.137-.215-.192a2.15 2.15 0 0 0-.41-.164c-.25-.073-.445-.156-.586-.25s-.236-.203-.293-.328-.086-.281-.086-.461a.95.95 0 0 1 .145-.519 1 1 0 0 1 .41-.36 1.35 1.35 0 0 1 .598-.129 2.26 2.26 0 0 1 .441.043c.143.029.258.067.344.114s.133.091.133.14c0 .037-.014.086-.04.149a.68.68 0 0 1-.089.16c-.036.047-.069.066-.098.066a.63.63 0 0 1-.098-.047 1.07 1.07 0 0 0-.23-.09c-.091-.028-.193-.043-.305-.043-.177 0-.324.041-.441.122a.36.36 0 0 0-.172.316c0 .156.042.281.125.375s.221.171.414.23c.297.092.523.183.68.274s.267.203.332.336.101.302.101.515c0 .204-.054.388-.164.555a1.15 1.15 0 0 1-.445.391 1.37 1.37 0 0 1-.621.14zm6.623-.027c-.523 0-.923-.156-1.199-.469s-.41-.772-.41-1.371.139-1.06.418-1.383.676-.488 1.191-.488.901.162 1.172.484.406.783.406 1.387-.134 1.059-.402 1.371-.657.469-1.176.469zm-.019-.5c.338 0 .588-.109.75-.328s.242-.563.242-1.023-.081-.806-.242-1.028-.412-.332-.75-.332-.584.111-.742.332-.239.561-.239 1.028.078.804.235 1.023.407.328.746.328zm3.728.473c-.097 0-.167-.012-.211-.035s-.067-.066-.067-.118v-2.992h-.277c-.094 0-.141-.069-.141-.207v-.086c0-.138.047-.207.141-.207h.277v-.66c0-.365.09-.615.27-.75a1.02 1.02 0 0 1 .625-.207c.338 0 .508.07.508.211 0 .023-.007.062-.02.117a.51.51 0 0 1-.051.141c-.024.042-.045.062-.074.062-.016 0-.048-.005-.098-.015a.98.98 0 0 0-.203-.016c-.078 0-.144.012-.199.035s-.095.073-.129.149-.047.184-.047.328v.605h.606c.049 0 .084.017.105.051s.035.083.035.156v.086c0 .073-.011.126-.035.16s-.056.047-.105.047h-.606v2.992c0 .052-.022.092-.066.118s-.113.035-.207.035h-.031zm5.225-.012c-.073 0-.127-.017-.16-.051s-.051-.086-.051-.156v-4.445c0-.073.017-.125.051-.157s.087-.05.16-.05h1.402c.651 0 1.172.192 1.563.578s.586 1.001.586 1.847c0 .852-.196 1.47-.586 1.856s-.912.578-1.563.578h-1.402zm1.355-.527c.469 0 .847-.153 1.133-.457s.43-.791.43-1.45c0-.442-.068-.804-.203-1.086s-.321-.489-.555-.617-.503-.195-.805-.195h-.953v3.805h.953zm5.396.566c-.576 0-1.004-.15-1.285-.449s-.418-.763-.418-1.383.137-1.081.41-1.398.676-.481 1.207-.481c.474 0 .831.154 1.07.461s.364.758.364 1.352c0 .026-.015.062-.043.109s-.059.085-.098.121-.068.051-.094.051h-2.191c.029.388.127.672.297.851s.429.266.773.266c.193 0 .358-.023.496-.07s.276-.104.407-.172a.75.75 0 0 0 .058-.027c.026-.013.044-.02.055-.02.028 0 .061.023.097.07a.59.59 0 0 1 .098.153c.029.054.043.095.043.121 0 .057-.057.121-.172.191a1.73 1.73 0 0 1-.461.18c-.193.05-.394.074-.613.074zm.727-2.117c0-.729-.278-1.094-.832-1.094-.597 0-.921.365-.973 1.094h1.805zm3.005 2.144a1.92 1.92 0 0 1-.547-.074c-.169-.049-.305-.109-.406-.18s-.149-.136-.149-.191c0-.026.013-.068.039-.125a.67.67 0 0 1 .098-.152c.037-.044.074-.071.105-.071.008 0 .032.013.071.039.104.068.213.126.328.172a1.13 1.13 0 0 0 .418.071c.453 0 .679-.188.679-.563a.51.51 0 0 0-.066-.269c-.042-.073-.113-.137-.215-.192a2.15 2.15 0 0 0-.41-.164c-.25-.073-.445-.156-.586-.25s-.236-.203-.293-.328-.086-.281-.086-.461a.95.95 0 0 1 .145-.519 1 1 0 0 1 .41-.36 1.35 1.35 0 0 1 .598-.129 2.26 2.26 0 0 1 .441.043c.143.029.258.067.344.114s.133.091.133.14c0 .037-.014.086-.04.149a.68.68 0 0 1-.089.16c-.036.047-.069.066-.098.066a.63.63 0 0 1-.098-.047 1.07 1.07 0 0 0-.23-.09c-.091-.028-.193-.043-.305-.043-.177 0-.324.041-.441.122a.36.36 0 0 0-.172.316c0 .156.042.281.125.375s.221.171.414.23c.297.092.523.183.68.274s.267.203.332.336.101.302.101.515c0 .204-.054.388-.164.555a1.15 1.15 0 0 1-.445.391 1.37 1.37 0 0 1-.621.14zm3.122-4.574c-.185 0-.277-.051-.277-.152v-.41c0-.102.092-.153.277-.153h.082c.188 0 .281.051.281.153v.41c0 .101-.093.152-.281.152h-.082zm.027 4.52c-.184 0-.277-.051-.277-.153v-3.351c0-.102.093-.153.277-.153h.028c.187 0 .281.051.281.153v3.351c0 .102-.094.153-.281.153h-.028zm3.412 1.461c-.443 0-.793-.069-1.051-.207a.69.69 0 0 1-.387-.653c0-.203.059-.38.176-.531a1.08 1.08 0 0 1 .457-.34l.008-.015c-.091-.071-.162-.151-.211-.243s-.07-.199-.07-.324c0-.302.13-.544.39-.726-.195-.094-.343-.226-.445-.395a1.11 1.11 0 0 1-.152-.578c0-.214.052-.406.156-.578a1.09 1.09 0 0 1 .469-.406c.205-.099.453-.149.742-.149a1.95 1.95 0 0 1 .41.039h1.262c.049 0 .084.017.105.051s.035.083.035.156v.086c0 .073-.011.126-.035.16s-.056.047-.105.047a5.6 5.6 0 0 1-.485-.019l-.007.011a.88.88 0 0 1 .132.282c.032.101.047.208.047.32 0 .213-.053.406-.16.578a1.08 1.08 0 0 1-.465.406 1.68 1.68 0 0 1-.742.149c-.219.008-.384.048-.496.121s-.164.193-.164.359c0 .123.039.216.117.281s.181.111.301.137.286.051.5.074l.203.024a2.9 2.9 0 0 1 .543.117.78.78 0 0 1 .359.246c.097.115.145.272.145.473 0 .336-.134.594-.402.773s-.662.274-1.18.274zm.074-3.34c.255 0 .458-.052.609-.156s.227-.275.227-.512c0-.448-.279-.672-.836-.672-.549 0-.824.224-.824.672 0 .237.074.407.222.512s.352.156.602.156zm0 2.867c.323 0 .563-.043.719-.129a.41.41 0 0 0 .234-.383c0-.112-.042-.199-.125-.261s-.186-.103-.308-.129a5.52 5.52 0 0 0-.477-.067l-.336-.043c-.086-.013-.165-.031-.238-.054-.308.13-.461.319-.461.566 0 .333.331.5.992.5zm3.564-.988c-.099 0-.171-.012-.215-.035s-.066-.066-.066-.118v-2.437a3.51 3.51 0 0 0-.043-.652l-.043-.223c0-.057.043-.098.128-.121a.89.89 0 0 1 .25-.039c.066 0 .114.035.145.105s.053.142.066.215l.032.141a1.58 1.58 0 0 1 .504-.383c.192-.091.386-.137.582-.137.354 0 .63.1.828.301s.301.471.301.82v2.41a.13.13 0 0 1-.067.118c-.044.023-.114.035-.211.035h-.031c-.094 0-.163-.012-.207-.035a.13.13 0 0 1-.067-.118v-2.351c0-.214-.062-.379-.187-.496s-.296-.18-.52-.18a.96.96 0 0 0-.472.133 1.28 1.28 0 0 0-.406.355v2.539a.13.13 0 0 1-.067.118c-.044.023-.113.035-.207.035h-.027z"/></g><path stroke="#818075" stroke-width=".5" d="M152 350.75h72"/><g stroke="#0f699b" stroke-width="8"><path d="M20 375h334m-4-2V27M20 23h334"/><path d="M24 373V27"/></g></g><defs><clipPath id="A"><path fill="#fff" d="M0 0h375v400H0z"/></clipPath><path id="B" d="M108.158 0h17.632v21h-17.632z"/><path id="C" d="M0 360.211v-18.789h21v18.789z"/><path id="D" d="M354 342.211v-18.895h21v18.895z"/><path id="E" d="M108.632 379h17.526v21h-17.526z"/></defs></svg>