<svg xmlns="http://www.w3.org/2000/svg" xmlns:xlink="http://www.w3.org/1999/xlink" width="375" height="400" fill="none" xmlns:v="https://vecta.io/nano"><g clip-path="url(#F)"><path fill="#fdfffa" d="M0 0h375v400H0z"/><path d="M35 200.5c0-20.027 3.944-39.857 11.608-58.359a152.5 152.5 0 0 1 33.058-49.475c14.161-14.161 30.973-25.394 49.475-33.058S167.473 48 187.5 48v152.5H35z" fill="url(#A)" style="mix-blend-mode:multiply"/><path d="M340 200.5a152.51 152.51 0 0 0-11.608-58.359c-7.664-18.502-18.897-35.314-33.058-49.475s-30.973-25.394-49.475-33.058S207.527 48 187.5 48v152.5H340z" fill="url(#B)" style="mix-blend-mode:multiply"/><path d="M340 200.5a152.51 152.51 0 0 1-11.608 58.359c-7.664 18.502-18.897 35.314-33.058 49.475s-30.973 25.394-49.475 33.058a152.51 152.51 0 0 1-116.718 0c-18.502-7.664-35.314-18.897-49.475-33.058s-25.394-30.973-33.058-49.475S35 220.527 35 200.5h152.5H340z" fill="url(#C)" style="mix-blend-mode:multiply"/><path d="M339.5 353a152.51 152.51 0 0 1-58.359-11.608c-18.502-7.664-35.314-18.897-49.475-33.058s-25.394-30.973-33.058-49.475A152.51 152.51 0 0 1 187 200.5h152.5V353z" fill="url(#D)" style="mix-blend-mode:color-burn"/><path d="M34.5 48a152.5 152.5 0 0 1 58.359 11.608c18.502 7.664 35.314 18.897 49.475 33.058s25.394 30.973 33.058 49.475A152.51 152.51 0 0 1 187 200.5H34.5V48z" fill="url(#E)" style="mix-blend-mode:color-burn"/><g fill="#8fd3fa"><path d="M18.276 17.818V28h-.93v-9.207h-.06L14.9 20.379v-.964l2.406-1.596h.97zm8.634 10.321c-.716 0-1.327-.205-1.835-.616s-.892-1.012-1.163-1.795-.403-1.722-.403-2.819.134-2.03.403-2.809.661-1.38 1.168-1.795 1.12-.626 1.829-.626 1.317.209 1.825.626.9 1.013 1.168 1.795.408 1.715.408 2.809-.136 2.037-.408 2.819-.656 1.38-1.163 1.795-1.114.616-1.83.616zm0-.835c.785 0 1.399-.383 1.84-1.148s.661-1.851.661-3.246c0-.928-.101-1.72-.303-2.376s-.486-1.163-.86-1.511a1.89 1.89 0 0 0-1.337-.522c-.779 0-1.39.388-1.835 1.163s-.666 1.854-.666 3.246c0 .928.1 1.72.298 2.376s.489 1.157.86 1.501a1.91 1.91 0 0 0 1.342.517zm10.966.835c-.716 0-1.327-.205-1.834-.616s-.892-1.012-1.163-1.795-.403-1.722-.403-2.819.134-2.03.403-2.809.661-1.38 1.168-1.795 1.12-.626 1.83-.626 1.317.209 1.825.626.9 1.013 1.168 1.795.408 1.715.408 2.809-.136 2.037-.408 2.819-.656 1.38-1.163 1.795-1.114.616-1.83.616zm0-.835c.785 0 1.399-.383 1.84-1.148s.661-1.851.661-3.246c0-.928-.101-1.72-.303-2.376s-.486-1.163-.86-1.511a1.89 1.89 0 0 0-1.337-.522c-.779 0-1.39.388-1.834 1.163s-.666 1.854-.666 3.246c0 .928.099 1.72.298 2.376s.489 1.157.86 1.501a1.91 1.91 0 0 0 1.342.517zM55.199 28h-2.983V17.818h3.162c.971 0 1.801.202 2.491.607s1.223.984 1.591 1.74.552 1.662.552 2.719c0 1.067-.189 1.984-.567 2.749a3.99 3.99 0 0 1-1.641 1.755c-.72.408-1.584.612-2.605.612zm-2.053-.835h1.999c.875 0 1.608-.172 2.197-.517a3.23 3.23 0 0 0 1.327-1.477c.295-.64.443-1.402.443-2.287-.003-.878-.149-1.634-.437-2.267s-.709-1.119-1.273-1.457-1.253-.507-2.078-.507h-2.178v8.511zm13.448 1.009c-.461 0-.882-.09-1.263-.268a2.21 2.21 0 0 1-.91-.785c-.225-.345-.338-.762-.338-1.253 0-.378.071-.696.214-.955a1.74 1.74 0 0 1 .607-.636c.262-.166.572-.297.93-.393a8.64 8.64 0 0 1 1.183-.224l1.084-.139c.298-.04.525-.103.681-.189a.44.44 0 0 0 .234-.418v-.179c0-.52-.156-.93-.467-1.228s-.752-.452-1.332-.452c-.55 0-.999.121-1.347.363s-.587.527-.726.855l-.84-.303c.172-.418.411-.751.716-.999a2.88 2.88 0 0 1 1.024-.542c.378-.109.761-.169 1.148-.169a3.86 3.86 0 0 1 .91.114 2.6 2.6 0 0 1 .885.398c.272.186.492.446.661.781s.254.752.254 1.263V28h-.885v-1.208h-.055a2.4 2.4 0 0 1-.472.656 2.46 2.46 0 0 1-.785.522c-.314.136-.684.204-1.109.204zm.119-.81c.471 0 .878-.104 1.223-.313a2.15 2.15 0 0 0 .795-.83c.189-.348.283-.731.283-1.148v-1.104c-.066.063-.177.119-.333.169a4.6 4.6 0 0 1-.532.134l-.597.095-.537.07a5 5 0 0 0-1.104.248c-.305.112-.539.268-.701.467s-.244.447-.244.756c0 .464.166.824.497 1.079s.747.378 1.248.378zm8.264 3.5a2.31 2.31 0 0 1-.492-.05 2.01 2.01 0 0 1-.363-.109l.239-.78c.302.093.57.126.805.099a.99.99 0 0 0 .626-.318c.182-.186.345-.471.487-.855l.278-.776-2.809-7.711h.959l2.267 6.468h.07l2.267-6.468h.96l-3.232 8.845a3.22 3.22 0 0 1-.502.92c-.199.249-.429.433-.691.552a2.07 2.07 0 0 1-.87.184zm14.537-8.824l-.81.229a2.13 2.13 0 0 0-.338-.622 1.53 1.53 0 0 0-.572-.442c-.235-.109-.52-.164-.865-.164-.517 0-.941.123-1.273.368a1.13 1.13 0 0 0-.497.95c0 .328.113.595.338.8s.58.363 1.054.482l1.153.283c.64.156 1.119.403 1.437.741s.482.762.482 1.273c0 .431-.119.814-.358 1.148s-.572.598-.999.79-.916.283-1.477.283c-.746 0-1.361-.167-1.844-.502s-.794-.825-.93-1.462l.85-.209c.109.454.323.797.641 1.029s.744.348 1.268.348c.587 0 1.056-.131 1.407-.393s.527-.597.527-.994a1.06 1.06 0 0 0-.308-.776c-.206-.212-.517-.368-.935-.467l-1.248-.298c-.663-.159-1.153-.411-1.472-.756s-.477-.772-.477-1.283a1.85 1.85 0 0 1 .343-1.109c.229-.322.544-.573.945-.756s.858-.273 1.372-.273c.699 0 1.258.159 1.675.477s.724.749.91 1.303zm13.712 6.12c-.659 0-1.243-.167-1.75-.502s-.898-.797-1.183-1.387-.428-1.278-.428-2.053c0-.782.142-1.47.428-2.063s.679-1.061 1.183-1.392 1.091-.502 1.75-.502 1.242.167 1.745.502a3.39 3.39 0 0 1 1.184 1.392c.288.593.432 1.281.432 2.063 0 .776-.142 1.46-.427 2.053s-.682 1.052-1.189 1.387-1.085.502-1.745.502zm0-.81c.531 0 .98-.143 1.348-.428a2.65 2.65 0 0 0 .835-1.139c.192-.474.288-.996.288-1.566a4.17 4.17 0 0 0-.288-1.571 2.68 2.68 0 0 0-.835-1.148c-.368-.288-.817-.433-1.348-.433s-.976.144-1.347.433-.648.671-.84 1.148a4.23 4.23 0 0 0-.284 1.571c0 .57.095 1.092.284 1.566s.472.853.84 1.139.817.428 1.347.428zm10.826-6.985v.771h-3.754v-.771h3.754zM111.472 28v-8.755c0-.411.094-.757.283-1.039s.442-.495.751-.641a2.26 2.26 0 0 1 .979-.219c.232 0 .424.02.577.06a2.63 2.63 0 0 1 .368.109l-.259.776-.244-.07a1.39 1.39 0 0 0-.362-.04c-.385 0-.682.108-.89.323s-.314.524-.314.925L112.356 28h-.884zm16.21 0h-2.983V17.818h3.162c.971 0 1.802.202 2.491.607s1.223.984 1.591 1.74.552 1.662.552 2.719c0 1.067-.189 1.984-.567 2.749a3.98 3.98 0 0 1-1.641 1.755c-.715.408-1.584.611-2.605.611zm-2.053-.835h1.999c.875 0 1.607-.172 2.197-.517s1.033-.837 1.328-1.477.442-1.402.442-2.287c-.003-.878-.149-1.634-.438-2.267s-.709-1.119-1.272-1.457-1.253-.507-2.078-.507h-2.178v8.511zm14.403.994c-.713 0-1.329-.166-1.85-.497s-.923-.797-1.208-1.387-.422-1.276-.422-2.048.14-1.452.422-2.048.678-1.069 1.178-1.407 1.086-.512 1.745-.512c.415 0 .814.076 1.199.229s.729.38 1.034.691a3.34 3.34 0 0 1 .73 1.168c.179.47.269 1.021.269 1.66v.438h-5.966v-.78h5.061a2.87 2.87 0 0 0-.298-1.322 2.32 2.32 0 0 0-.821-.935c-.348-.229-.75-.343-1.208-.343a2.16 2.16 0 0 0-1.277.388 2.66 2.66 0 0 0-.865 1.024c-.208.424-.31.888-.314 1.392v.467c0 .607.105 1.137.314 1.591s.512.8.899 1.049.847.373 1.378.373c.361 0 .677-.056.949-.169a2.03 2.03 0 0 0 .691-.452 2.01 2.01 0 0 0 .428-.631l.84.273c-.116.322-.307.618-.572.89a2.93 2.93 0 0 1-.984.656c-.394.165-.842.244-1.352.244zm12.558-6.12l-.811.229a2.12 2.12 0 0 0-.338-.622c-.146-.186-.336-.333-.571-.442s-.521-.164-.866-.164c-.517 0-.941.123-1.272.368s-.497.562-.497.95a1.03 1.03 0 0 0 .338.8c.228.202.58.363 1.054.482l1.153.283c.64.156 1.119.403 1.437.741s.482.762.482 1.273c0 .431-.119.814-.358 1.148s-.572.598-.999.79-.917.283-1.477.283c-.745 0-1.36-.167-1.844-.502s-.794-.825-.93-1.462l.85-.209c.11.454.323.797.642 1.029s.744.348 1.267.348c.587 0 1.056-.131 1.407-.393s.527-.597.527-.994a1.06 1.06 0 0 0-.308-.776c-.205-.212-.517-.368-.935-.467l-1.247-.298c-.663-.159-1.154-.411-1.472-.756s-.477-.772-.477-1.283a1.85 1.85 0 0 1 .343-1.109 2.32 2.32 0 0 1 .944-.756c.401-.183.859-.273 1.372-.273.7 0 1.258.159 1.676.477s.724.749.91 1.303zM157.027 28v-7.636h.89V28h-.89zm.452-8.949a.65.65 0 0 1-.467-.184.61.61 0 0 1-.194-.452.59.59 0 0 1 .194-.447.66.66 0 0 1 .467-.189c.182 0 .338.063.467.189a.59.59 0 0 1 .194.447c0 .176-.064.326-.194.452a.64.64 0 0 1-.467.184zm8.071 11.972c-.52 0-.976-.068-1.367-.204s-.721-.315-.989-.547a2.65 2.65 0 0 1-.627-.78l.726-.477a2.79 2.79 0 0 0 .438.567 2.19 2.19 0 0 0 .721.462c.298.123.664.184 1.098.184.676 0 1.222-.169 1.636-.507s.626-.863.626-1.576v-1.72h-.079c-.103.232-.25.464-.443.696a2.25 2.25 0 0 1-.755.572c-.311.153-.691.229-1.149.229a2.96 2.96 0 0 1-1.625-.453c-.471-.302-.842-.732-1.114-1.293s-.403-1.235-.403-2.014c0-.772.131-1.452.393-2.038s.635-1.044 1.109-1.372 1.025-.492 1.655-.492c.468 0 .855.083 1.164.249s.555.365.74.607.337.477.443.706h.089v-1.457h.865V28.2c0 .646-.137 1.178-.412 1.596s-.65.726-1.124.925-1.012.303-1.616.303zm-.059-3.913c.49 0 .909-.118 1.258-.353s.614-.58.8-1.024.278-.973.278-1.586c0-.597-.091-1.125-.273-1.586s-.448-.829-.796-1.094-.767-.403-1.267-.403c-.511 0-.942.138-1.293.413s-.616.646-.795 1.114a4.31 4.31 0 0 0-.269 1.556c0 .583.091 1.099.274 1.546s.449.792.8 1.044.779.373 1.283.373zm8.819-3.883V28h-.885v-7.636h.86v1.198h.08a2.14 2.14 0 0 1 .835-.94c.378-.236.852-.358 1.412-.358.514 0 .964.108 1.352.323s.695.525.91.94.328.923.328 1.526V28h-.885v-4.892c0-.626-.175-1.122-.527-1.487s-.815-.547-1.402-.547c-.401 0-.757.086-1.069.259s-.558.421-.74.746-.269.704-.269 1.148zM19.83 56h-4.839V42.909h4.832c1.334 0 2.482.262 3.445.786a5.42 5.42 0 0 1 2.237 2.25c.524.98.786 2.143.786 3.503s-.262 2.535-.786 3.516a5.39 5.39 0 0 1-2.231 2.256c-.967.524-2.116.78-3.445.78zm-1.675-2.697h1.553c.733 0 1.353-.124 1.86-.371s.897-.658 1.157-1.221.396-1.321.396-2.263-.132-1.692-.396-2.25-.654-.967-1.17-1.215-1.142-.377-1.892-.377h-1.509v7.696zm12.752 2.864c-.626 0-1.183-.104-1.668-.313a2.6 2.6 0 0 1-1.144-.959c-.277-.43-.416-.969-.416-1.617 0-.546.096-1.006.288-1.381a2.46 2.46 0 0 1 .793-.914 3.73 3.73 0 0 1 1.163-.53 7.48 7.48 0 0 1 1.406-.249l1.349-.16c.341-.06.588-.143.741-.249s.237-.266.237-.467v-.032c0-.328-.113-.582-.339-.761s-.531-.269-.914-.269c-.413 0-.746.09-.997.269s-.411.426-.479.741l-2.883-.102a3.41 3.41 0 0 1 .658-1.598c.358-.473.848-.844 1.47-1.112s1.378-.409 2.256-.409c.626 0 1.204.075 1.732.224s.989.358 1.381.639a2.89 2.89 0 0 1 1.234 2.41V56h-2.94v-1.368h-.077a2.79 2.79 0 0 1-.671.844c-.273.23-.586.403-.952.518s-.771.173-1.227.173zm.965-2.046c.337 0 .639-.068.908-.204s.49-.324.652-.562.243-.524.243-.844v-.933a1.85 1.85 0 0 1-.326.128l-.409.109-.46.09-.454.07c-.294.047-.545.119-.754.217a1.16 1.16 0 0 0-.473.384.94.94 0 0 0-.16.55c0 .324.115.571.345.741s.531.256.889.256zm8.374 5.561a6 6 0 0 1-1.061-.09c-.332-.055-.618-.13-.857-.224l.69-2.269c.307.102.584.162.831.179s.467-.023.646-.121.324-.262.422-.505l.122-.294-3.49-10.176h3.273l1.809 7.006h.102l1.835-7.006h3.292L44.158 56.94a4.54 4.54 0 0 1-.761 1.419 3.32 3.32 0 0 1-1.259.972c-.515.235-1.142.352-1.892.352zM52.899 56v-2.276l4.775-4.18.914-.888c.251-.273.443-.545.575-.818s.198-.578.198-.901c0-.362-.079-.671-.237-.927s-.375-.46-.652-.601-.595-.211-.953-.211-.68.075-.952.224a1.55 1.55 0 0 0-.639.633c-.149.277-.224.614-.224 1.01h-2.998c0-.891.2-1.66.601-2.307a3.95 3.95 0 0 1 1.688-1.496c.729-.354 1.575-.531 2.538-.531.993 0 1.856.166 2.589.499s1.3.797 1.7 1.393.607 1.281.607 2.065a3.89 3.89 0 0 1-.3 1.483c-.2.49-.56 1.031-1.08 1.624s-1.249 1.302-2.199 2.129l-1.566 1.445v.083h5.305V56h-9.69zm11.479 0v-2.276l4.775-4.18.914-.888c.251-.273.443-.545.575-.818s.198-.578.198-.901c0-.362-.079-.671-.236-.927a1.61 1.61 0 0 0-.652-.601c-.277-.141-.594-.211-.952-.211a1.97 1.97 0 0 0-.953.224 1.55 1.55 0 0 0-.639.633c-.149.277-.224.614-.224 1.01h-2.998c0-.891.2-1.66.601-2.307a3.95 3.95 0 0 1 1.688-1.496c.729-.354 1.575-.531 2.538-.531.993 0 1.856.166 2.589.499s1.3.797 1.7 1.393.607 1.281.607 2.065a3.89 3.89 0 0 1-.3 1.483c-.2.49-.56 1.031-1.08 1.624s-1.249 1.302-2.199 2.129l-1.566 1.445v.083h5.305V56h-9.69z" style="mix-blend-mode:darken"/></g></g><defs><linearGradient id="A" x1="187.999" y1="201" x2="187.999" y2="47.953" xlink:href="#G"><stop stop-color="#a9deef"/><stop offset="1" stop-color="#8dd3f0"/></linearGradient><linearGradient id="B" x1="188" y1="48" x2="188" y2="353" xlink:href="#G"><stop stop-color="#fff"/><stop offset="1" stop-color="#8dd3f0" stop-opacity="0"/></linearGradient><linearGradient id="C" x1="341.046" y1="201" x2="34.953" y2="201" xlink:href="#G"><stop stop-color="#fff"/><stop offset="1" stop-color="#8dd3f0"/></linearGradient><linearGradient id="D" x1="339.5" y1="353" x2="339" y2="353" xlink:href="#G"><stop stop-color="#99ee70" stop-opacity="0"/><stop offset="1" stop-color="#99ee70"/></linearGradient><linearGradient id="E" x1="34.499" y1="353" x2="187.047" y2="353" xlink:href="#G"><stop stop-color="#eb92ad" stop-opacity="0"/><stop offset="1" stop-color="#eb92ad"/></linearGradient><clipPath id="F"><path fill="#fff" d="M0 0h375v400H0z"/></clipPath><linearGradient id="G" gradientUnits="userSpaceOnUse"/></defs></svg>