<svg xmlns="http://www.w3.org/2000/svg" width="375" height="400" fill="none" xmlns:v="https://vecta.io/nano"><g clip-path="url(#A)"><path fill="#fdfffa" d="M0 0h375v400H0z"/><path d="M184.969 195.492c0 12.625 3.035 23.351 9.106 32.178 5.972 8.733 14.099 15.377 24.38 19.933 10.183 4.556 21.687 6.835 34.514 6.835s24.38-2.279 34.661-6.835 18.407-11.2 24.38-19.933c5.972-8.827 8.959-19.553 8.959-32.178 0-8.258-1.616-15.804-4.847-22.638-3.329-6.929-7.98-12.957-13.952-18.082-6.071-5.126-13.219-9.065-21.443-11.818-8.323-2.847-17.477-4.271-27.465-4.271-13.12 0-24.82 2.468-35.101 7.404-10.281 4.84-18.359 11.532-24.233 20.075-5.973 8.543-8.959 18.32-8.959 29.33zm27.317-.569c0-7.689 1.714-14.475 5.141-20.361 3.427-5.979 8.224-10.631 14.393-13.953s13.316-4.983 21.442-4.983c8.323 0 15.52 1.661 21.59 4.983 5.973 3.322 10.624 7.974 13.953 13.953 3.329 5.886 4.993 12.672 4.993 20.361 0 7.973-1.615 14.807-4.847 20.502-3.329 5.601-8.028 9.92-14.099 12.957-6.168 2.943-13.463 4.414-21.883 4.414s-15.666-1.471-21.737-4.414c-6.07-3.037-10.721-7.356-13.952-12.957-3.329-5.695-4.994-12.529-4.994-20.502zm-22.324-96.676c0 10.061 2.742 19.126 8.225 27.195s12.973 14.427 22.471 19.078 20.268 6.977 32.311 6.977c12.239 0 23.156-2.326 32.751-6.977 9.498-4.651 16.939-11.01 22.324-19.078s8.078-17.134 8.078-27.195c0-12.055-2.692-22.306-8.078-30.754-5.483-8.448-12.973-14.902-22.47-19.364s-20.317-6.692-32.458-6.692c-12.239 0-23.108 2.231-32.605 6.692s-16.939 10.916-22.324 19.364c-5.483 8.448-8.225 18.699-8.225 30.754zm27.171.427c0-6.929 1.518-13.051 4.553-18.367s7.245-9.492 12.63-12.529c5.386-3.132 11.652-4.698 18.8-4.698s13.414 1.471 18.799 4.414c5.287 2.848 9.448 6.929 12.484 12.245 2.937 5.316 4.406 11.628 4.406 18.936 0 7.119-1.469 13.336-4.406 18.652-3.036 5.315-7.246 9.444-12.631 12.387s-11.652 4.414-18.799 4.414-13.365-1.472-18.653-4.414c-5.385-2.943-9.595-7.072-12.63-12.387s-4.553-11.533-4.553-18.652z" fill="#0f699b"/><g fill="#efefea"><path d="M184.969 395.867c0 12.625 3.035 23.351 9.106 32.178 5.972 8.733 14.099 15.377 24.38 19.933 10.183 4.556 21.687 6.834 34.514 6.834s24.38-2.278 34.661-6.834 18.407-11.2 24.38-19.933c5.972-8.827 8.959-19.553 8.959-32.178 0-8.258-1.616-15.804-4.847-22.638-3.329-6.929-7.98-12.957-13.952-18.082-6.071-5.126-13.219-9.065-21.443-11.818-8.323-2.847-17.477-4.271-27.465-4.271-13.12 0-24.82 2.468-35.101 7.404-10.281 4.84-18.359 11.532-24.233 20.075-5.973 8.543-8.959 18.32-8.959 29.33zm27.317-.569c0-7.689 1.714-14.475 5.141-20.36 3.427-5.98 8.224-10.632 14.393-13.954s13.316-4.983 21.442-4.983c8.323 0 15.52 1.661 21.59 4.983a35.32 35.32 0 0 1 13.953 13.954c3.329 5.885 4.993 12.671 4.993 20.36 0 7.973-1.615 14.807-4.847 20.502-3.329 5.601-8.028 9.92-14.099 12.957-6.168 2.943-13.463 4.414-21.883 4.414s-15.666-1.471-21.737-4.414c-6.07-3.037-10.721-7.356-13.952-12.957-3.329-5.695-4.994-12.529-4.994-20.502zm-22.324-96.676c0 10.061 2.742 19.126 8.225 27.195s12.973 14.427 22.471 19.078 20.268 6.977 32.311 6.977c12.239 0 23.156-2.326 32.751-6.977 9.498-4.651 16.939-11.01 22.324-19.078s8.078-17.134 8.078-27.195c0-12.055-2.692-22.306-8.078-30.754-5.483-8.448-12.973-14.902-22.47-19.364s-20.317-6.692-32.458-6.692c-12.239 0-23.108 2.231-32.605 6.692s-16.939 10.916-22.324 19.364c-5.483 8.448-8.225 18.699-8.225 30.754zm27.171.427c0-6.929 1.518-13.051 4.553-18.367s7.245-9.492 12.63-12.529c5.386-3.133 11.652-4.699 18.8-4.699s13.414 1.471 18.799 4.414c5.287 2.848 9.448 6.929 12.484 12.245 2.937 5.315 4.406 11.627 4.406 18.936 0 7.119-1.469 13.336-4.406 18.652-3.036 5.315-7.246 9.444-12.631 12.387s-11.652 4.414-18.799 4.414-13.365-1.472-18.653-4.414c-5.385-2.943-9.595-7.072-12.63-12.387s-4.553-11.533-4.553-18.652zM63.5-4.883c0 12.624 3.035 23.35 9.106 32.178 5.973 8.733 14.099 15.377 24.38 19.933 10.183 4.556 21.688 6.834 34.514 6.834s24.38-2.278 34.661-6.834 18.407-11.201 24.38-19.933c5.973-8.827 8.959-19.553 8.959-32.178 0-8.258-1.616-15.804-4.847-22.638-3.329-6.929-7.979-12.957-13.952-18.082-6.071-5.126-13.218-9.065-21.443-11.818-8.322-2.848-17.477-4.271-27.464-4.271-13.12 0-24.821 2.468-35.102 7.404-10.281 4.841-18.359 11.533-24.233 20.076C66.486-25.67 63.5-15.893 63.5-4.883zm27.317-.57c0-7.688 1.714-14.475 5.14-20.36 3.427-5.98 8.225-10.631 14.393-13.953s13.316-4.983 21.443-4.983c8.322 0 15.519 1.661 21.589 4.983a35.32 35.32 0 0 1 13.953 13.953c3.329 5.885 4.993 12.672 4.993 20.36 0 7.973-1.615 14.807-4.846 20.503-3.329 5.6-8.029 9.919-14.1 12.957-6.168 2.942-13.463 4.414-21.883 4.414s-15.666-1.471-21.737-4.414c-6.07-3.037-10.721-7.356-13.952-12.957-3.329-5.695-4.994-12.529-4.994-20.503zm-22.324-96.676c0 10.061 2.742 19.126 8.225 27.195s12.973 14.428 22.471 19.079 20.268 6.977 32.311 6.977c12.239 0 23.156-2.326 32.752-6.977 9.497-4.651 16.938-11.011 22.324-19.079s8.077-17.133 8.077-27.195c0-12.055-2.692-22.306-8.077-30.754-5.483-8.448-12.974-14.902-22.471-19.364s-20.317-6.692-32.458-6.692c-12.239 0-23.107 2.231-32.605 6.692s-16.939 10.916-22.324 19.364c-5.483 8.448-8.225 18.699-8.225 30.754zm27.171.427c0-6.929 1.518-13.051 4.553-18.367s7.246-9.492 12.631-12.529c5.385-3.133 11.651-4.699 18.799-4.699s13.414 1.471 18.799 4.414c5.287 2.848 9.449 6.929 12.484 12.245 2.937 5.315 4.406 11.627 4.406 18.936 0 7.119-1.469 13.336-4.406 18.652a31.86 31.86 0 0 1-12.631 12.387c-5.385 2.942-11.651 4.414-18.799 4.414s-13.365-1.471-18.652-4.414a31.86 31.86 0 0 1-12.631-12.387c-3.035-5.315-4.553-11.533-4.553-18.652z"/><path d="M63.5 195.492c0 12.625 3.035 23.351 9.106 32.178 5.973 8.733 14.099 15.377 24.38 19.933 10.183 4.556 21.688 6.835 34.514 6.835s24.38-2.279 34.661-6.835 18.407-11.2 24.38-19.933c5.973-8.827 8.959-19.553 8.959-32.178 0-8.258-1.616-15.804-4.847-22.638-3.329-6.929-7.979-12.957-13.952-18.082-6.071-5.126-13.218-9.065-21.443-11.818-8.322-2.847-17.477-4.271-27.464-4.271-13.12 0-24.821 2.468-35.102 7.404-10.281 4.84-18.359 11.532-24.233 20.075-5.973 8.543-8.959 18.32-8.959 29.33zm27.317-.569c0-7.689 1.714-14.475 5.14-20.361 3.427-5.979 8.225-10.631 14.393-13.953s13.316-4.983 21.443-4.983c8.322 0 15.519 1.661 21.589 4.983 5.973 3.322 10.624 7.974 13.953 13.953 3.329 5.886 4.993 12.672 4.993 20.361 0 7.973-1.615 14.807-4.846 20.502-3.329 5.601-8.029 9.92-14.1 12.957-6.168 2.943-13.463 4.414-21.883 4.414s-15.666-1.471-21.737-4.414c-6.07-3.037-10.721-7.356-13.952-12.957-3.329-5.695-4.994-12.529-4.994-20.502zM68.494 98.247c0 10.061 2.742 19.126 8.225 27.195s12.973 14.427 22.471 19.078 20.268 6.977 32.311 6.977c12.239 0 23.156-2.326 32.752-6.977 9.497-4.651 16.938-11.01 22.324-19.078s8.077-17.134 8.077-27.195c0-12.055-2.692-22.306-8.077-30.754-5.483-8.448-12.974-14.902-22.471-19.364s-20.317-6.692-32.458-6.692c-12.239 0-23.107 2.231-32.605 6.692S82.103 59.045 76.718 67.493c-5.483 8.448-8.225 18.699-8.225 30.754zm27.171.427c0-6.929 1.518-13.051 4.553-18.367s7.246-9.492 12.631-12.529c5.385-3.132 11.651-4.698 18.799-4.698s13.414 1.471 18.799 4.414c5.287 2.848 9.449 6.929 12.484 12.245 2.937 5.316 4.406 11.628 4.406 18.936 0 7.119-1.469 13.336-4.406 18.652-3.035 5.315-7.246 9.444-12.631 12.387s-11.651 4.414-18.799 4.414-13.365-1.472-18.652-4.414c-5.385-2.943-9.596-7.072-12.631-12.387s-4.553-11.533-4.553-18.652z"/><path d="M63.5 395.867c0 12.625 3.035 23.351 9.106 32.178 5.973 8.733 14.099 15.377 24.38 19.933 10.183 4.556 21.688 6.834 34.514 6.834s24.38-2.278 34.661-6.834 18.407-11.2 24.38-19.933c5.973-8.827 8.959-19.553 8.959-32.178 0-8.258-1.616-15.804-4.847-22.638-3.329-6.929-7.979-12.957-13.952-18.082-6.071-5.126-13.218-9.065-21.443-11.818-8.322-2.847-17.477-4.271-27.464-4.271-13.12 0-24.821 2.468-35.102 7.404-10.281 4.84-18.359 11.532-24.233 20.075-5.973 8.543-8.959 18.32-8.959 29.33zm27.317-.569c0-7.689 1.714-14.475 5.14-20.36 3.427-5.98 8.225-10.632 14.393-13.954s13.316-4.983 21.443-4.983c8.322 0 15.519 1.661 21.589 4.983a35.32 35.32 0 0 1 13.953 13.954c3.329 5.885 4.993 12.671 4.993 20.36 0 7.973-1.615 14.807-4.846 20.502-3.329 5.601-8.029 9.92-14.1 12.957-6.168 2.943-13.463 4.414-21.883 4.414s-15.666-1.471-21.737-4.414c-6.07-3.037-10.721-7.356-13.952-12.957-3.329-5.695-4.994-12.529-4.994-20.502zm-22.324-96.676c0 10.061 2.742 19.126 8.225 27.195s12.973 14.427 22.471 19.078 20.268 6.977 32.311 6.977c12.239 0 23.156-2.326 32.752-6.977 9.497-4.651 16.938-11.01 22.324-19.078s8.077-17.134 8.077-27.195c0-12.055-2.692-22.306-8.077-30.754-5.483-8.448-12.974-14.902-22.471-19.364s-20.317-6.692-32.458-6.692c-12.239 0-23.107 2.231-32.605 6.692s-16.939 10.916-22.324 19.364c-5.483 8.448-8.225 18.699-8.225 30.754zm27.171.427c0-6.929 1.518-13.051 4.553-18.367s7.246-9.492 12.631-12.529c5.385-3.133 11.651-4.699 18.799-4.699s13.414 1.471 18.799 4.414c5.287 2.848 9.449 6.929 12.484 12.245 2.937 5.315 4.406 11.627 4.406 18.936 0 7.119-1.469 13.336-4.406 18.652-3.035 5.315-7.246 9.444-12.631 12.387s-11.651 4.414-18.799 4.414-13.365-1.472-18.652-4.414c-5.385-2.943-9.596-7.072-12.631-12.387s-4.553-11.533-4.553-18.652zM-57.969-4.883c0 12.624 3.035 23.35 9.106 32.178 5.973 8.733 14.099 15.377 24.38 19.933 10.183 4.556 21.688 6.834 34.514 6.834s24.38-2.278 34.661-6.834 18.408-11.2 24.38-19.933c5.973-8.827 8.959-19.553 8.959-32.178 0-8.258-1.615-15.804-4.847-22.638-3.329-6.929-7.98-12.957-13.952-18.082-6.071-5.126-13.218-9.065-21.443-11.818-8.322-2.848-17.477-4.271-27.464-4.271-13.12 0-24.821 2.468-35.101 7.404-10.281 4.841-18.359 11.533-24.233 20.076-5.973 8.543-8.959 18.319-8.959 29.33zm27.318-.57c0-7.688 1.713-14.475 5.14-20.36 3.427-5.98 8.225-10.631 14.393-13.953s13.316-4.983 21.443-4.983c8.323 0 15.519 1.661 21.59 4.983 5.973 3.322 10.624 7.973 13.953 13.953 3.329 5.885 4.993 12.672 4.993 20.36 0 7.973-1.615 14.807-4.847 20.503-3.329 5.6-8.029 9.919-14.099 12.957-6.168 2.942-13.463 4.414-21.883 4.414s-15.666-1.471-21.736-4.414c-6.071-3.037-10.721-7.356-13.952-12.957-3.329-5.695-4.994-12.529-4.994-20.503zm-22.324-96.676c0 10.061 2.742 19.126 8.225 27.195s12.973 14.428 22.471 19.079 20.268 6.977 32.311 6.977c12.239 0 23.156-2.326 32.752-6.977 9.497-4.651 16.939-11.011 22.324-19.079s8.078-17.133 8.078-27.195c0-12.055-2.693-22.306-8.078-30.754-5.483-8.448-12.973-14.902-22.471-19.364s-20.317-6.692-32.458-6.692c-12.239 0-23.107 2.231-32.605 6.692s-16.939 10.916-22.324 19.364c-5.483 8.448-8.225 18.699-8.225 30.754zm27.171.427c0-6.929 1.518-13.051 4.553-18.367s7.246-9.492 12.631-12.529c5.385-3.133 11.652-4.699 18.799-4.699s13.414 1.471 18.799 4.414c5.287 2.848 9.449 6.929 12.484 12.245 2.937 5.315 4.406 11.627 4.406 18.936 0 7.119-1.469 13.336-4.406 18.652A31.86 31.86 0 0 1 28.83-70.662c-5.385 2.942-11.652 4.414-18.799 4.414S-3.334-67.72-8.621-70.662a31.86 31.86 0 0 1-12.631-12.387c-3.035-5.315-4.553-11.533-4.553-18.652z"/><path d="M-57.969 195.492c0 12.625 3.035 23.351 9.106 32.178 5.973 8.733 14.099 15.377 24.38 19.933 10.183 4.556 21.688 6.835 34.514 6.835s24.38-2.279 34.661-6.835 18.407-11.2 24.38-19.933c5.973-8.827 8.959-19.553 8.959-32.178 0-8.258-1.615-15.804-4.847-22.638-3.329-6.929-7.98-12.957-13.952-18.082-6.071-5.126-13.218-9.065-21.443-11.818-8.322-2.847-17.477-4.271-27.464-4.271-13.12 0-24.821 2.468-35.101 7.404-10.281 4.84-18.359 11.532-24.233 20.075-5.973 8.543-8.959 18.32-8.959 29.33zm27.318-.569c0-7.689 1.713-14.475 5.14-20.361 3.427-5.979 8.225-10.631 14.393-13.953s13.316-4.983 21.443-4.983c8.323 0 15.519 1.661 21.59 4.983 5.973 3.322 10.624 7.974 13.953 13.953 3.329 5.886 4.993 12.672 4.993 20.361 0 7.973-1.615 14.807-4.847 20.502-3.329 5.601-8.029 9.92-14.099 12.957-6.168 2.943-13.463 4.414-21.883 4.414s-15.666-1.471-21.736-4.414c-6.071-3.037-10.721-7.356-13.952-12.957-3.329-5.695-4.994-12.529-4.994-20.502zm-22.324-96.676c0 10.061 2.742 19.126 8.225 27.195s12.973 14.427 22.471 19.078 20.268 6.977 32.311 6.977c12.239 0 23.156-2.326 32.752-6.977 9.497-4.651 16.939-11.01 22.324-19.078s8.078-17.134 8.078-27.195c0-12.055-2.693-22.306-8.078-30.754-5.483-8.448-12.973-14.902-22.471-19.364s-20.317-6.692-32.458-6.692c-12.239 0-23.107 2.231-32.605 6.692s-16.939 10.916-22.324 19.364c-5.483 8.448-8.225 18.699-8.225 30.754zm27.171.427c0-6.929 1.518-13.051 4.553-18.367s7.246-9.492 12.631-12.529c5.385-3.132 11.652-4.698 18.799-4.698s13.414 1.471 18.799 4.414c5.287 2.848 9.449 6.929 12.484 12.245 2.937 5.316 4.406 11.628 4.406 18.936 0 7.119-1.469 13.336-4.406 18.652-3.035 5.315-7.245 9.444-12.631 12.387s-11.652 4.414-18.799 4.414-13.365-1.472-18.652-4.414c-5.385-2.943-9.595-7.072-12.631-12.387s-4.553-11.533-4.553-18.652z"/><path d="M-57.969 395.867c0 12.625 3.035 23.351 9.106 32.178 5.973 8.733 14.099 15.377 24.38 19.933 10.183 4.556 21.688 6.834 34.514 6.834s24.38-2.278 34.661-6.834 18.407-11.2 24.38-19.933c5.973-8.827 8.959-19.553 8.959-32.178 0-8.258-1.615-15.804-4.847-22.638-3.329-6.929-7.98-12.957-13.952-18.082-6.071-5.126-13.218-9.065-21.443-11.818-8.322-2.847-17.477-4.271-27.464-4.271-13.12 0-24.821 2.468-35.101 7.404-10.281 4.84-18.359 11.532-24.233 20.075-5.973 8.543-8.959 18.32-8.959 29.33zm27.318-.569c0-7.689 1.713-14.475 5.14-20.36 3.427-5.98 8.225-10.632 14.393-13.954s13.316-4.983 21.443-4.983c8.323 0 15.519 1.661 21.59 4.983a35.32 35.32 0 0 1 13.953 13.954c3.329 5.885 4.993 12.671 4.993 20.36 0 7.973-1.615 14.807-4.847 20.502-3.329 5.601-8.029 9.92-14.099 12.957-6.168 2.943-13.463 4.414-21.883 4.414s-15.666-1.471-21.736-4.414c-6.071-3.037-10.721-7.356-13.952-12.957-3.329-5.695-4.994-12.529-4.994-20.502zm-22.324-96.676c0 10.061 2.742 19.126 8.225 27.195s12.973 14.427 22.471 19.078 20.268 6.977 32.311 6.977c12.239 0 23.156-2.326 32.752-6.977 9.497-4.651 16.939-11.01 22.324-19.078s8.078-17.134 8.078-27.195c0-12.055-2.693-22.306-8.078-30.754-5.483-8.448-12.973-14.902-22.471-19.364s-20.317-6.692-32.458-6.692c-12.239 0-23.107 2.231-32.605 6.692s-16.939 10.916-22.324 19.364c-5.483 8.448-8.225 18.699-8.225 30.754zm27.171.427c0-6.929 1.518-13.051 4.553-18.367s7.246-9.492 12.631-12.529c5.385-3.133 11.652-4.699 18.799-4.699s13.414 1.471 18.799 4.414c5.287 2.848 9.449 6.929 12.484 12.245 2.937 5.315 4.406 11.627 4.406 18.936 0 7.119-1.469 13.336-4.406 18.652a31.86 31.86 0 0 1-12.631 12.387c-5.386 2.943-11.652 4.414-18.799 4.414s-13.365-1.472-18.652-4.414c-5.385-2.943-9.595-7.072-12.631-12.387s-4.553-11.533-4.553-18.652zM306.438-4.883c0 12.624 3.035 23.35 9.105 32.178 5.973 8.733 14.1 15.377 24.38 19.933 10.183 4.556 21.688 6.834 34.515 6.834s24.38-2.278 34.66-6.834 18.408-11.201 24.381-19.933c5.972-8.827 8.959-19.553 8.959-32.178 0-8.258-1.616-15.804-4.847-22.638-3.329-6.929-7.98-12.957-13.953-18.082-6.07-5.126-13.218-9.065-21.442-11.818-8.323-2.848-17.478-4.271-27.465-4.271-13.12 0-24.821 2.468-35.101 7.404-10.281 4.841-18.359 11.533-24.234 20.076-5.972 8.543-8.958 18.319-8.958 29.33zm27.317-.57c0-7.688 1.713-14.475 5.14-20.36 3.427-5.98 8.225-10.631 14.393-13.953s13.317-4.983 21.443-4.983c8.323 0 15.519 1.661 21.59 4.983 5.973 3.322 10.623 7.973 13.952 13.953 3.329 5.885 4.994 12.672 4.994 20.36 0 7.973-1.616 14.807-4.847 20.503-3.329 5.6-8.029 9.919-14.099 12.957-6.169 2.942-13.463 4.414-21.883 4.414s-15.666-1.471-21.737-4.414c-6.071-3.037-10.721-7.356-13.952-12.957-3.329-5.695-4.994-12.529-4.994-20.503zm-22.324-96.676c0 10.061 2.742 19.126 8.225 27.195s12.973 14.428 22.47 19.079 20.268 6.977 32.312 6.977c12.239 0 23.156-2.326 32.751-6.977 9.498-4.651 16.939-11.011 22.324-19.079s8.078-17.133 8.078-27.195c0-12.055-2.693-22.306-8.078-30.754-5.483-8.448-12.973-14.902-22.471-19.364s-20.317-6.692-32.458-6.692c-12.239 0-23.107 2.231-32.604 6.692s-16.939 10.916-22.324 19.364c-5.483 8.448-8.225 18.699-8.225 30.754zm27.171.427c0-6.929 1.517-13.051 4.553-18.367s7.245-9.492 12.63-12.529c5.385-3.133 11.652-4.699 18.799-4.699s13.414 1.471 18.8 4.414c5.287 2.848 9.448 6.929 12.483 12.245 2.938 5.315 4.406 11.627 4.406 18.936 0 7.119-1.468 13.336-4.406 18.652-3.035 5.316-7.245 9.444-12.63 12.387s-11.652 4.414-18.799 4.414-13.366-1.471-18.653-4.414c-5.385-2.943-9.595-7.071-12.63-12.387s-4.553-11.533-4.553-18.652z"/><path d="M306.438 195.492c0 12.625 3.035 23.351 9.105 32.178 5.973 8.733 14.1 15.377 24.38 19.933 10.183 4.556 21.688 6.835 34.515 6.835s24.38-2.279 34.66-6.835 18.408-11.2 24.381-19.933c5.972-8.827 8.959-19.553 8.959-32.178 0-8.258-1.616-15.804-4.847-22.638-3.329-6.929-7.98-12.957-13.953-18.082-6.07-5.126-13.218-9.065-21.442-11.818-8.323-2.847-17.478-4.271-27.465-4.271-13.12 0-24.821 2.468-35.101 7.404-10.281 4.84-18.359 11.532-24.234 20.075-5.972 8.543-8.958 18.32-8.958 29.33zm27.317-.569c0-7.689 1.713-14.475 5.14-20.361 3.427-5.979 8.225-10.631 14.393-13.953s13.317-4.983 21.443-4.983c8.323 0 15.519 1.661 21.59 4.983 5.973 3.322 10.623 7.974 13.952 13.953 3.329 5.886 4.994 12.672 4.994 20.361 0 7.973-1.616 14.807-4.847 20.502-3.329 5.601-8.029 9.92-14.099 12.957-6.169 2.943-13.463 4.414-21.883 4.414s-15.666-1.471-21.737-4.414c-6.071-3.037-10.721-7.356-13.952-12.957-3.329-5.695-4.994-12.529-4.994-20.502zm-22.324-96.676c0 10.061 2.742 19.126 8.225 27.195s12.973 14.427 22.47 19.078 20.268 6.977 32.312 6.977c12.239 0 23.156-2.326 32.751-6.977 9.498-4.651 16.939-11.01 22.324-19.078s8.078-17.134 8.078-27.195c0-12.055-2.693-22.306-8.078-30.754-5.483-8.448-12.973-14.902-22.471-19.364s-20.317-6.692-32.458-6.692c-12.239 0-23.107 2.231-32.604 6.692s-16.939 10.916-22.324 19.364c-5.483 8.448-8.225 18.699-8.225 30.754zm27.171.427c0-6.929 1.517-13.051 4.553-18.367s7.245-9.492 12.63-12.529c5.385-3.132 11.652-4.698 18.799-4.698s13.414 1.471 18.8 4.414c5.287 2.848 9.448 6.929 12.483 12.245 2.938 5.316 4.406 11.628 4.406 18.936 0 7.119-1.468 13.336-4.406 18.652-3.035 5.315-7.245 9.444-12.63 12.387s-11.652 4.414-18.799 4.414-13.366-1.472-18.653-4.414c-5.385-2.943-9.595-7.072-12.63-12.387s-4.553-11.533-4.553-18.652z"/><path d="M306.438 395.867c0 12.625 3.035 23.351 9.105 32.178 5.973 8.733 14.1 15.377 24.38 19.933 10.183 4.556 21.688 6.834 34.515 6.834s24.38-2.278 34.66-6.834 18.408-11.2 24.381-19.933c5.972-8.827 8.959-19.553 8.959-32.178 0-8.258-1.616-15.804-4.847-22.638-3.329-6.929-7.98-12.957-13.953-18.082-6.07-5.126-13.218-9.065-21.442-11.818-8.323-2.847-17.478-4.271-27.465-4.271-13.12 0-24.821 2.468-35.101 7.404-10.281 4.84-18.359 11.532-24.234 20.075-5.972 8.543-8.958 18.32-8.958 29.33zm27.317-.569c0-7.689 1.713-14.475 5.14-20.36 3.427-5.98 8.225-10.632 14.393-13.954s13.317-4.983 21.443-4.983c8.323 0 15.519 1.661 21.59 4.983 5.973 3.322 10.623 7.974 13.952 13.954 3.329 5.885 4.994 12.671 4.994 20.36 0 7.973-1.616 14.807-4.847 20.502-3.329 5.601-8.029 9.92-14.099 12.957-6.169 2.943-13.463 4.414-21.883 4.414s-15.666-1.471-21.737-4.414c-6.071-3.037-10.721-7.356-13.952-12.957-3.329-5.695-4.994-12.529-4.994-20.502zm-22.324-96.676c0 10.061 2.742 19.126 8.225 27.195s12.973 14.427 22.47 19.078 20.268 6.977 32.312 6.977c12.239 0 23.156-2.326 32.751-6.977 9.498-4.651 16.939-11.01 22.324-19.078s8.078-17.134 8.078-27.195c0-12.055-2.693-22.306-8.078-30.754-5.483-8.448-12.973-14.902-22.471-19.364s-20.317-6.692-32.458-6.692c-12.239 0-23.107 2.231-32.604 6.692s-16.939 10.916-22.324 19.364c-5.483 8.448-8.225 18.699-8.225 30.754zm27.171.427c0-6.929 1.517-13.051 4.553-18.367s7.245-9.492 12.63-12.529c5.385-3.133 11.652-4.699 18.799-4.699s13.414 1.471 18.8 4.414c5.287 2.848 9.448 6.929 12.483 12.245 2.938 5.315 4.406 11.627 4.406 18.936 0 7.119-1.468 13.336-4.406 18.652-3.035 5.315-7.245 9.444-12.63 12.387s-11.652 4.414-18.799 4.414-13.366-1.472-18.653-4.414c-5.385-2.943-9.595-7.072-12.63-12.387s-4.553-11.533-4.553-18.652zM184.969-4.883c0 12.624 3.035 23.35 9.106 32.178 5.972 8.733 14.099 15.377 24.38 19.933 10.183 4.556 21.687 6.834 34.514 6.834s24.38-2.278 34.661-6.834 18.407-11.201 24.38-19.933c5.972-8.827 8.959-19.553 8.959-32.178 0-8.258-1.616-15.804-4.847-22.638-3.329-6.929-7.98-12.957-13.952-18.082-6.071-5.126-13.219-9.065-21.443-11.818-8.323-2.848-17.477-4.271-27.465-4.271-13.12 0-24.82 2.468-35.101 7.404-10.281 4.841-18.359 11.533-24.233 20.076-5.973 8.543-8.959 18.319-8.959 29.33zm27.317-.57c0-7.688 1.714-14.475 5.141-20.36 3.427-5.98 8.224-10.631 14.393-13.953s13.316-4.983 21.442-4.983c8.323 0 15.52 1.661 21.59 4.983a35.32 35.32 0 0 1 13.953 13.953c3.329 5.885 4.993 12.672 4.993 20.36 0 7.973-1.615 14.807-4.847 20.503-3.329 5.6-8.028 9.919-14.099 12.957-6.168 2.942-13.463 4.414-21.883 4.414s-15.666-1.471-21.737-4.414c-6.07-3.037-10.721-7.356-13.952-12.957-3.329-5.695-4.994-12.529-4.994-20.503zm-22.324-96.676c0 10.061 2.742 19.126 8.225 27.195s12.973 14.428 22.471 19.079 20.268 6.977 32.311 6.977c12.239 0 23.156-2.326 32.751-6.977 9.498-4.651 16.939-11.011 22.324-19.079s8.078-17.133 8.078-27.195c0-12.055-2.692-22.306-8.078-30.754-5.483-8.448-12.973-14.902-22.47-19.364s-20.317-6.692-32.458-6.692c-12.239 0-23.108 2.231-32.605 6.692s-16.939 10.916-22.324 19.364c-5.483 8.448-8.225 18.699-8.225 30.754zm27.171.427c0-6.929 1.518-13.051 4.553-18.367s7.245-9.492 12.63-12.529c5.386-3.133 11.652-4.699 18.8-4.699s13.414 1.471 18.799 4.414c5.287 2.848 9.448 6.929 12.484 12.245 2.937 5.315 4.406 11.627 4.406 18.936 0 7.119-1.469 13.336-4.406 18.652-3.036 5.316-7.246 9.444-12.631 12.387s-11.652 4.414-18.799 4.414-13.365-1.471-18.653-4.414c-5.385-2.943-9.595-7.071-12.63-12.387s-4.553-11.533-4.553-18.652z"/></g><path fill="#fdfffa" d="M0 314h374v86H0z"/><path d="M162.398 372.902V390h-3.375v-13.207l-4.054 1.289v-2.66l7.066-2.52h.363zm17.04 7.067v2.953c0 1.281-.137 2.387-.411 3.316-.273.922-.668 1.68-1.183 2.274a4.67 4.67 0 0 1-1.817 1.3c-.703.282-1.484.422-2.343.422-.688 0-1.329-.086-1.922-.257-.594-.18-1.129-.457-1.606-.832-.468-.375-.875-.848-1.218-1.418-.336-.579-.594-1.266-.774-2.063s-.269-1.711-.269-2.742v-2.953c0-1.281.136-2.379.41-3.293.281-.922.675-1.676 1.183-2.262.516-.586 1.125-1.016 1.828-1.289.704-.281 1.485-.422 2.344-.422.688 0 1.324.09 1.91.27.594.172 1.129.441 1.606.808s.883.84 1.219 1.418c.335.571.593 1.254.773 2.051.18.789.27 1.695.27 2.719zm-3.387 3.398v-3.855c0-.617-.035-1.157-.106-1.617-.062-.461-.16-.852-.293-1.172-.132-.328-.297-.594-.492-.797s-.418-.352-.668-.446a2.37 2.37 0 0 0-.832-.14c-.383 0-.722.074-1.019.222-.289.149-.536.387-.739.715-.203.321-.359.75-.468 1.289-.102.532-.153 1.18-.153 1.946v3.855c0 .617.031 1.16.094 1.629.07.469.172.871.305 1.207.14.328.304.598.492.809.195.203.418.351.668.445.258.094.539.141.844.141.375 0 .707-.075.996-.223a1.95 1.95 0 0 0 .75-.727c.211-.336.367-.773.468-1.312s.153-1.195.153-1.969zm17.168-3.398v2.953c0 1.281-.137 2.387-.41 3.316-.274.922-.668 1.68-1.184 2.274-.508.586-1.113 1.019-1.816 1.3s-1.485.422-2.344.422c-.688 0-1.328-.086-1.922-.257-.594-.18-1.129-.457-1.605-.832-.469-.375-.876-.848-1.219-1.418-.336-.579-.594-1.266-.774-2.063s-.269-1.711-.269-2.742v-2.953c0-1.281.136-2.379.41-3.293.281-.922.676-1.676 1.184-2.262.515-.586 1.125-1.016 1.828-1.289.703-.281 1.484-.422 2.343-.422a6.48 6.48 0 0 1 1.911.27c.593.172 1.128.441 1.605.808a4.81 4.81 0 0 1 1.219 1.418c.336.571.594 1.254.773 2.051.18.789.27 1.695.27 2.719zm-3.387 3.398v-3.855c0-.617-.035-1.157-.105-1.617-.063-.461-.161-.852-.293-1.172-.133-.328-.297-.594-.493-.797s-.418-.352-.668-.446a2.37 2.37 0 0 0-.832-.14c-.382 0-.722.074-1.019.222-.289.149-.535.387-.738.715-.204.321-.36.75-.469 1.289-.102.532-.153 1.18-.153 1.946v3.855a12.56 12.56 0 0 0 .094 1.629c.071.469.172.871.305 1.207.141.328.305.598.492.809.195.203.418.351.668.445.258.094.539.141.844.141.375 0 .707-.075.996-.223a1.95 1.95 0 0 0 .75-.727c.211-.336.367-.773.469-1.312s.152-1.195.152-1.969zm17.25 6.633h-3.715l.024-2.742h3.691c.922 0 1.699-.207 2.332-.621.633-.422 1.109-1.035 1.43-1.84.328-.805.492-1.777.492-2.918v-.832c0-.875-.094-1.645-.281-2.309-.18-.664-.45-1.222-.809-1.676s-.801-.792-1.324-1.019c-.524-.234-1.125-.352-1.805-.352h-3.82v-2.753h3.82c1.141 0 2.184.195 3.129.585.953.383 1.777.934 2.473 1.653s1.23 1.578 1.605 2.578c.383.992.574 2.098.574 3.316v.809c0 1.211-.191 2.316-.574 3.316-.375 1-.91 1.86-1.605 2.578-.688.711-1.512 1.262-2.473 1.653-.953.383-2.008.574-3.164.574zm-1.723-17.062V390h-3.515v-17.062h3.515zm18.727 14.203v-5.649c0-.406-.066-.754-.199-1.043-.133-.297-.34-.527-.621-.691-.274-.164-.629-.246-1.067-.246-.375 0-.699.066-.972.199-.274.125-.485.309-.633.551-.149.234-.223.511-.223.832h-3.375a3.3 3.3 0 0 1 .375-1.535c.25-.485.613-.911 1.09-1.278.477-.375 1.043-.668 1.699-.879.664-.211 1.406-.316 2.227-.316.984 0 1.859.164 2.625.492s1.367.82 1.804 1.477c.446.656.668 1.476.668 2.461v5.425c0 .696.043 1.266.129 1.711.086.438.211.821.375 1.149V390h-3.41c-.164-.344-.289-.773-.375-1.289-.078-.523-.117-1.047-.117-1.57zm.445-4.864l.024 1.911h-1.887c-.445 0-.832.05-1.16.152s-.598.246-.809.433c-.211.18-.367.391-.469.633-.093.242-.14.508-.14.797a1.56 1.56 0 0 0 .199.785 1.41 1.41 0 0 0 .574.539c.25.125.543.188.879.188.508 0 .949-.102 1.324-.305s.664-.453.868-.75c.211-.297.32-.578.328-.844l.89 1.43c-.125.32-.297.652-.515.996-.211.344-.481.668-.809.973-.328.297-.723.543-1.183.738-.461.188-1.008.281-1.641.281-.805 0-1.535-.16-2.192-.48-.648-.328-1.164-.777-1.546-1.348-.375-.578-.563-1.234-.563-1.968 0-.665.125-1.254.375-1.77a3.45 3.45 0 0 1 1.102-1.301c.492-.359 1.105-.629 1.84-.808.734-.188 1.585-.282 2.554-.282h1.957zm9.129 6.293l3.363-11.25h3.622l-5.098 14.59c-.109.32-.258.664-.445 1.031a4.16 4.16 0 0 1-.739 1.043c-.304.336-.691.61-1.16.821-.461.211-1.027.316-1.699.316-.32 0-.582-.019-.785-.059l-.727-.164v-2.472h.27l.269.012c.446 0 .809-.051 1.09-.153a1.52 1.52 0 0 0 .68-.469c.172-.203.308-.468.41-.796l.949-2.45zm-1.406-11.25l2.754 9.188.48 3.574-2.297.246-4.558-13.008h3.621zm16.594 9.176a1.1 1.1 0 0 0-.211-.656c-.141-.195-.403-.375-.785-.539-.375-.172-.918-.328-1.629-.469-.641-.141-1.239-.316-1.793-.527-.547-.219-1.024-.481-1.43-.785-.398-.305-.711-.665-.938-1.079a3 3 0 0 1-.339-1.441 3.41 3.41 0 0 1 .339-1.5c.235-.469.567-.883.997-1.242.437-.367.968-.653 1.593-.856.633-.211 1.344-.316 2.133-.316 1.102 0 2.047.176 2.836.527.797.352 1.406.836 1.828 1.453a3.53 3.53 0 0 1 .645 2.086h-3.375c0-.328-.071-.621-.211-.879a1.4 1.4 0 0 0-.633-.621c-.281-.156-.648-.234-1.102-.234-.375 0-.699.066-.972.199-.274.125-.485.297-.633.516-.141.211-.211.445-.211.703 0 .195.039.371.117.527.086.149.223.285.41.41a3.5 3.5 0 0 0 .727.352c.305.102.68.195 1.125.281.914.188 1.73.434 2.449.739.719.296 1.289.703 1.711 1.218.422.508.633 1.176.633 2.004 0 .563-.125 1.078-.375 1.547s-.609.879-1.078 1.231c-.469.343-1.031.613-1.688.808-.648.188-1.379.281-2.191.281-1.18 0-2.18-.211-3-.632-.813-.422-1.43-.957-1.852-1.606-.414-.656-.621-1.328-.621-2.016h3.199c.016.461.133.832.352 1.114.227.281.512.484.855.609.352.125.731.188 1.137.188.438 0 .801-.059 1.09-.176.289-.125.508-.289.656-.492.157-.211.235-.453.235-.727zm10.91-2.707v-.246c0-.93.133-1.785.398-2.566.266-.789.653-1.473 1.16-2.051a5.2 5.2 0 0 1 1.875-1.348c.743-.328 1.594-.492 2.555-.492s1.816.164 2.566.492c.75.32 1.379.77 1.887 1.348.516.578.906 1.262 1.172 2.051.266.781.399 1.636.399 2.566v.246c0 .922-.133 1.777-.399 2.566-.266.782-.656 1.465-1.172 2.051a5.2 5.2 0 0 1-1.875 1.348c-.742.32-1.594.48-2.554.48s-1.817-.16-2.567-.48c-.742-.32-1.371-.77-1.887-1.348-.507-.586-.894-1.269-1.16-2.051a8.01 8.01 0 0 1-.398-2.566zm3.375-.246v.246a7.52 7.52 0 0 0 .14 1.488c.094.461.243.868.446 1.219.211.344.484.613.82.809s.746.293 1.231.293c.468 0 .871-.098 1.207-.293a2.24 2.24 0 0 0 .808-.809 4 4 0 0 0 .445-1.219 6.88 6.88 0 0 0 .153-1.488v-.246a6.6 6.6 0 0 0-.153-1.453 3.82 3.82 0 0 0-.457-1.219 2.27 2.27 0 0 0-.808-.844c-.336-.203-.742-.304-1.219-.304s-.883.101-1.219.304a2.4 2.4 0 0 0-.808.844c-.203.352-.352.758-.446 1.219-.093.453-.14.937-.14 1.453zM278.145 390h-3.399v-13.805c0-.961.188-1.769.563-2.425.382-.665.918-1.165 1.605-1.5.695-.344 1.52-.516 2.473-.516.312 0 .613.023.902.07l.844.153-.035 2.543a2.78 2.78 0 0 0-.469-.082c-.164-.016-.356-.024-.574-.024-.407 0-.754.07-1.043.211-.282.133-.496.332-.645.598s-.222.589-.222.972V390zm2.531-12.68v2.391h-7.817v-2.391h7.817zM293.871 390h-3.715l.024-2.742h3.691c.922 0 1.699-.207 2.332-.621.633-.422 1.109-1.035 1.43-1.84.328-.805.492-1.777.492-2.918v-.832c0-.875-.094-1.645-.281-2.309-.18-.664-.449-1.222-.809-1.676s-.801-.792-1.324-1.019c-.523-.234-1.125-.352-1.805-.352h-3.82v-2.753h3.82c1.141 0 2.184.195 3.129.585.953.383 1.777.934 2.473 1.653s1.23 1.578 1.605 2.578c.383.992.575 2.098.575 3.316v.809c0 1.211-.192 2.316-.575 3.316-.375 1-.91 1.86-1.605 2.578-.688.711-1.512 1.262-2.473 1.653-.953.383-2.008.574-3.164.574zm-1.723-17.062V390h-3.515v-17.062h3.515zm17.719 17.296c-.984 0-1.867-.156-2.648-.468-.781-.321-1.446-.762-1.992-1.325-.539-.562-.954-1.214-1.243-1.957-.289-.75-.433-1.546-.433-2.39v-.469c0-.961.137-1.84.41-2.637s.664-1.488 1.172-2.074c.515-.586 1.14-1.035 1.875-1.348.734-.32 1.562-.48 2.484-.48.899 0 1.696.148 2.391.445a4.69 4.69 0 0 1 1.746 1.266c.476.547.836 1.203 1.078 1.969.242.757.363 1.601.363 2.531v1.406h-10.078v-2.25h6.762v-.258c0-.468-.086-.886-.258-1.254a1.99 1.99 0 0 0-.75-.89c-.336-.219-.766-.328-1.289-.328-.445 0-.828.097-1.148.293s-.582.468-.786.82c-.195.352-.343.766-.445 1.242-.094.469-.14.984-.14 1.547v.469c0 .508.07.976.21 1.406a3.42 3.42 0 0 0 .622 1.113c.273.313.601.555.984.727.391.172.832.258 1.324.258a4.11 4.11 0 0 0 1.699-.352c.532-.242.989-.605 1.371-1.09l1.641 1.782c-.266.382-.629.75-1.09 1.101-.453.352-1 .641-1.64.867-.641.219-1.371.328-2.192.328zm13.981-3.738a1.1 1.1 0 0 0-.211-.656c-.141-.195-.403-.375-.785-.539-.375-.172-.918-.328-1.629-.469-.641-.141-1.239-.316-1.793-.527-.547-.219-1.024-.481-1.43-.785-.398-.305-.711-.665-.938-1.079a3 3 0 0 1-.339-1.441 3.41 3.41 0 0 1 .339-1.5c.235-.469.567-.883.997-1.242.437-.367.968-.653 1.593-.856.633-.211 1.344-.316 2.133-.316 1.102 0 2.047.176 2.836.527.797.352 1.406.836 1.828 1.453a3.53 3.53 0 0 1 .645 2.086h-3.375c0-.328-.071-.621-.211-.879a1.4 1.4 0 0 0-.633-.621c-.281-.156-.648-.234-1.102-.234-.375 0-.699.066-.972.199-.274.125-.485.297-.633.516-.141.211-.211.445-.211.703 0 .195.039.371.117.527.086.149.223.285.41.41a3.5 3.5 0 0 0 .727.352c.305.102.68.195 1.125.281.914.188 1.73.434 2.449.739.719.296 1.289.703 1.711 1.218.422.508.633 1.176.633 2.004 0 .563-.125 1.078-.375 1.547s-.609.879-1.078 1.231c-.469.343-1.031.613-1.688.808-.648.188-1.379.281-2.191.281-1.18 0-2.18-.211-3-.632-.813-.422-1.43-.957-1.852-1.606-.414-.656-.621-1.328-.621-2.016h3.199c.016.461.133.832.352 1.114.227.281.512.484.855.609.352.125.731.188 1.137.188.438 0 .801-.059 1.09-.176.289-.125.508-.289.656-.492.157-.211.235-.453.235-.727zm9.035-9.176V390h-3.387v-12.68h3.387zm-3.598-3.304a1.59 1.59 0 0 1 .516-1.219c.344-.32.804-.481 1.383-.481.57 0 1.027.161 1.371.481.351.32.527.726.527 1.219s-.176.898-.527 1.218c-.344.321-.801.481-1.371.481-.579 0-1.039-.16-1.383-.481a1.59 1.59 0 0 1-.516-1.218zm14.414 3.304h3.059v12.258c0 1.156-.258 2.137-.774 2.942-.507.812-1.218 1.425-2.132 1.839-.914.422-1.977.633-3.188.633-.531 0-1.094-.07-1.687-.211-.586-.14-1.149-.359-1.688-.656a4.46 4.46 0 0 1-1.336-1.125l1.488-1.992c.391.453.844.804 1.36 1.054.515.258 1.086.387 1.711.387.609 0 1.125-.113 1.547-.34.421-.218.746-.543.972-.972.227-.422.34-.934.34-1.535v-9.352l.328-2.93zm-8.531 6.492v-.246c0-.968.117-1.847.352-2.636.242-.797.582-1.481 1.019-2.051.445-.57.984-1.012 1.617-1.324s1.348-.469 2.145-.469c.844 0 1.551.156 2.121.469s1.039.757 1.406 1.336c.367.57.652 1.246.856 2.027.211.773.375 1.621.492 2.543V384c-.117.883-.293 1.703-.528 2.461s-.543 1.422-.925 1.992c-.383.563-.86 1-1.43 1.313-.563.312-1.234.468-2.016.468s-1.488-.16-2.121-.48c-.625-.32-1.16-.77-1.605-1.348s-.789-1.258-1.031-2.039c-.235-.781-.352-1.633-.352-2.555zm3.375-.246v.246c0 .524.051 1.012.152 1.465s.258.856.469 1.207a2.49 2.49 0 0 0 .809.809c.328.187.715.281 1.16.281.617 0 1.121-.129 1.512-.386.39-.266.683-.629.878-1.09s.309-.993.34-1.594v-1.535a5.16 5.16 0 0 0-.199-1.324c-.117-.399-.281-.739-.492-1.02s-.484-.5-.82-.656-.735-.235-1.196-.235c-.445 0-.832.102-1.16.305-.32.195-.59.465-.808.809-.211.343-.372.75-.481 1.218a6.51 6.51 0 0 0-.164 1.5zm14.145-3.539V390h-3.376v-12.68h3.165l.211 2.707zm-.493 3.188h-.914c0-.938.121-1.781.364-2.531.242-.758.582-1.403 1.019-1.934.438-.539.957-.949 1.559-1.23.609-.29 1.289-.434 2.039-.434.593 0 1.136.086 1.629.258s.914.445 1.265.82c.36.375.633.871.821 1.488.195.618.293 1.371.293 2.262V390h-3.399v-8.098c0-.562-.078-1-.234-1.312s-.387-.531-.692-.656c-.297-.133-.664-.2-1.101-.2-.453 0-.848.09-1.184.27a2.36 2.36 0 0 0-.82.75c-.211.312-.371.68-.481 1.101a5.42 5.42 0 0 0-.164 1.36z" fill="#443038"/><path fill="#fdfffa" d="M0 0h374v35H0z"/><path d="M16.484 27h-2.453l.016-1.687h2.438c.661 0 1.216-.146 1.664-.437.448-.297.787-.721 1.016-1.273.229-.557.344-1.224.344-2v-.586c0-.599-.065-1.128-.195-1.586s-.323-.844-.578-1.156c-.25-.312-.56-.549-.93-.711s-.794-.242-1.274-.242h-2.547v-1.695h2.547c.761 0 1.453.128 2.078.383a4.64 4.64 0 0 1 1.633 1.102c.463.474.818 1.042 1.063 1.703.25.662.375 1.401.375 2.219v.57c0 .813-.125 1.552-.375 2.219-.245.662-.599 1.229-1.062 1.703-.458.474-1.005.839-1.641 1.094S17.26 27 16.484 27zm-1.25-11.375V27h-2.149V15.625h2.149zm12.773 9.578v-3.898c0-.287-.049-.534-.148-.742s-.25-.37-.453-.484-.461-.172-.773-.172c-.276 0-.518.047-.727.141a1.07 1.07 0 0 0-.469.398 1.03 1.03 0 0 0-.164.578h-2.07a2.08 2.08 0 0 1 .25-.992c.167-.318.404-.599.711-.844.313-.25.685-.445 1.117-.586.438-.141.927-.211 1.469-.211.641 0 1.211.109 1.711.328a2.6 2.6 0 0 1 1.188.969c.292.432.438.977.438 1.633v3.688c0 .422.026.784.078 1.086a3 3 0 0 0 .25.773V27h-2.102c-.099-.213-.174-.484-.227-.812a6.38 6.38 0 0 1-.078-.984zm.289-3.351l.016 1.226h-1.305c-.323 0-.607.034-.852.102-.245.063-.445.156-.601.281a1.14 1.14 0 0 0-.352.438 1.33 1.33 0 0 0-.117.57c0 .208.047.396.141.562.099.167.239.3.422.399a1.45 1.45 0 0 0 .656.141c.365 0 .682-.073.953-.219.271-.151.482-.333.633-.547s.232-.417.242-.609l.594.891c-.073.214-.182.44-.328.68a3.06 3.06 0 0 1-.562.672c-.229.208-.505.38-.828.516s-.698.203-1.125.203c-.547 0-1.036-.109-1.469-.328s-.774-.518-1.024-.898-.375-.812-.375-1.297c0-.448.083-.844.25-1.187s.414-.633.742-.867c.328-.24.734-.419 1.219-.539.489-.125 1.049-.187 1.68-.187h1.391zm6 4.211l2.266-7.516h2.211l-3.391 9.734c-.078.208-.18.435-.305.68a2.89 2.89 0 0 1-.484.695 2.32 2.32 0 0 1-.766.547c-.302.141-.669.211-1.102.211a2.87 2.87 0 0 1-.5-.039l-.461-.102v-1.547a1.83 1.83 0 0 0 .18.008l.188.008c.302 0 .552-.037.75-.109.198-.068.357-.18.477-.336.125-.151.229-.349.313-.594l.625-1.641zm-1.117-7.516l1.914 6.226.336 2.18-1.422.258-3.055-8.664h2.227zm18.016 5.344c0 .708-.167 1.307-.5 1.797-.328.484-.779.852-1.352 1.102-.568.245-1.214.367-1.938.367-.719 0-1.367-.122-1.945-.367-.573-.25-1.029-.617-1.367-1.102-.333-.49-.5-1.088-.5-1.797 0-.474.094-.904.281-1.289.193-.386.458-.716.797-.992.338-.281.74-.495 1.203-.641.464-.151.969-.227 1.516-.227.729 0 1.38.133 1.953.398.578.26 1.031.628 1.359 1.102.328.469.492 1.018.492 1.648zm-2.078-.125c0-.365-.073-.68-.219-.945a1.48 1.48 0 0 0-.602-.625c-.26-.146-.562-.219-.906-.219a1.84 1.84 0 0 0-.914.219c-.255.146-.456.354-.602.625-.141.266-.211.581-.211.945 0 .37.07.688.211.953.146.26.349.461.609.601s.568.211.922.211.659-.07.914-.211a1.42 1.42 0 0 0 .586-.601c.141-.266.211-.583.211-.953zm1.828-5.141c0 .573-.151 1.083-.453 1.531-.302.443-.721.789-1.258 1.039-.531.25-1.141.375-1.828.375s-1.302-.125-1.844-.375c-.536-.25-.958-.596-1.266-1.039-.302-.448-.453-.958-.453-1.531 0-.677.154-1.25.461-1.719a2.92 2.92 0 0 1 1.258-1.078c.536-.245 1.146-.367 1.828-.367.693 0 1.307.122 1.844.367s.956.604 1.258 1.078c.302.469.453 1.042.453 1.719zm-2.062.086c0-.323-.06-.604-.18-.844-.12-.245-.292-.435-.516-.57-.219-.135-.484-.203-.797-.203-.302 0-.562.065-.781.195a1.3 1.3 0 0 0-.508.563c-.12.239-.18.526-.18.859 0 .328.06.615.18.859s.289.438.508.578a1.51 1.51 0 0 0 .797.203c.307 0 .57-.068.789-.203.219-.141.388-.333.508-.578s.18-.531.18-.859z" fill="#443038"/></g><defs><clipPath id="A"><path fill="#fff" d="M0 0h375v400H0z"/></clipPath></defs></svg>