<svg xmlns="http://www.w3.org/2000/svg" width="375" height="400" fill="none" xmlns:v="https://vecta.io/nano"><g clip-path="url(#A)"><path fill="#fdfffa" d="M0 0h375v400H0z"/><g fill="#443038"><path d="M46.572 70.765l-28.897-11.51c-2.261-.9-4.524-3.034-5.054-4.765L-7.953-12.639c-.531-1.731.872-2.405 3.133-1.504L24.742-2.368c9.666 3.85 18.419 8.627 26.26 14.33 7.865 5.692 14.506 12.018 19.923 18.979s9.293 14.252 11.629 21.874c2.343 7.646 2.471 13.465.384 17.458-2.055 4.006-6.166 6.07-12.333 6.194-6.135.136-14.146-1.765-24.034-5.703zM26.731 50.01c.531 1.731 2.793 3.865 5.054 4.765L42.19 58.92c6.782 2.701 12.153 4.023 16.114 3.964 3.953-.082 6.5-1.533 7.639-4.351 1.132-2.842.838-7.071-.883-12.685s-4.29-10.728-7.706-15.34c-3.424-4.636-7.652-8.764-12.685-12.384-5.008-3.631-10.808-6.759-17.399-9.385L16.342 4.386c-2.261-.901-3.663-.227-3.133 1.504l13.522 44.12zm97.517 15.385c-4.627-1.843-8.985-4.124-13.074-6.843-4.064-2.731-7.551-5.756-10.46-9.075-2.878-3.307-4.869-6.764-5.975-10.372-.952-3.106-.978-5.371-.08-6.796s2.477-2.223 4.734-2.394 4.938.09 8.043.781c3.13.68 6.426 1.584 9.888 2.711l10.136 3.251c2.574.774 4.375 1.114 5.404 1.02 1.053-.105 1.389-.779 1.008-2.021l-.066-.215c-.827-2.7-2.53-5.213-5.107-7.54s-5.863-4.286-9.856-5.876c-4.215-1.679-7.346-2.318-9.393-1.917-1.154.237-2.023.659-2.607 1.267-.747.778-2.273.968-4.272-.01l-8.319-4.071c-2.551-1.248-4.749-3.789-4.194-5.078.612-1.42 1.633-2.478 3.063-3.175 2.22-1.108 5.265-1.385 9.136-.829 3.863.532 8.346 1.814 13.449 3.847 3.517 1.401 7.114 3.107 10.791 5.116a78.3 78.3 0 0 1 10.499 6.888c3.316 2.558 6.219 5.403 8.709 8.534 2.522 3.144 4.343 6.544 5.463 10.199l10.331 33.707c.53 1.731-.872 2.405-3.133 1.504l-8.356-3.328c-2.261-.901-4.524-3.034-5.054-4.765l-1.274-4.155c-.046-.15-.242-.336-.438-.414-.133-.053-.236-.044-.272.02-.587 1.061-1.602 1.872-3.046 2.435-1.467.569-3.502.692-6.106.368-2.579-.335-5.77-1.26-9.572-2.775zm1.546-7.753c3.455 1.376 6.292 2.055 8.512 2.038 2.214-.041 3.738-.651 4.573-1.828.868-1.165.99-2.763.368-4.794l-1.277-4.166c-.285-.931-2.094-2.28-3.183-2.488a49.44 49.44 0 0 1-4.048-.952l-4.53-1.301-3.909-1.179c-2.486-.76-4.652-1.245-6.497-1.455s-3.19-.012-4.033.596c-.85.584-1.019 1.713-.506 3.385.732 2.389 2.441 4.654 5.128 6.794s5.821 3.923 9.402 5.35zm83.133 26.684l-6.644-3.024-1.142-.593c-2.181-1.153-3.744-3.221-3.606-4.533l.39-3.705c.145-1.382 2.114-1.384 4.402-.27l2.804 1.237c1.958.759 3.542.981 4.754.666 1.25-.278 2.079-1.248 2.488-2.91l.357-1.517c.132-.562-.096-1.33-.644-2.167L172.5 7.051c-1.589-2.427-.273-3.795 2.563-2.665l9.409 3.748c1.794.715 3.653 2.24 4.586 3.764l27.802 45.39c.118.192.352.385.578.475s.392.057.408-.081l3.888-32.77c.13-1.099 1.44-1.361 3.233-.647l9.448 3.763c2.839 1.131 5.478 4.078 5.137 5.736l-9.619 46.659c-.469 2.372-1.51 4.149-3.123 5.332-1.606 1.206-3.872 1.709-6.8 1.508-2.888-.165-6.582-1.143-11.083-2.936zm87.906 54.494c-4.466-.841-7.397-5.761-5.396-9.06l54.797-90.35a.57.57 0 0 0 .081-.31c-.004-.394-.352-.778-.777-.858l-63.359-11.923c-3.297-.62-5.996-3.601-6.028-6.657l-.089-8.545c-.032-3.056 2.616-5.031 5.914-4.41l84.783 15.955c3.297.621 5.996 3.601 6.028 6.657l.137 13.191c.009.875-.206 1.695-.627 2.393L315.383 139.3c-1.001 1.66-3.043 2.439-5.286 2.017l-13.264-2.496z"/></g><g stroke="#443038"><path d="M187.499 74c0 6.714.899 11.375 2.61 14.397.86 1.52 1.929 2.631 3.194 3.373s2.694 1.099 4.257 1.152c3.107.106 6.781-.991 10.834-2.73 4.061-1.743 8.566-4.161 13.344-6.752l.916-.498c9.342-5.07 19.694-10.69 30.019-13.38 10.643-2.773 21.184-2.415 30.52 4.833 9.353 7.261 12.939 17.169 13.722 28.265.747 10.589-1.062 22.204-2.832 33.561l-.265 1.702c-1.84 11.855-3.499 23.378-1.881 32.911.811 4.779 2.448 9.083 5.315 12.688s6.945 6.486 12.584 8.45c22.111 7.702 42.003 27.971 49.325 46.276 3.662 9.156 4.136 17.703.334 23.937-3.791 6.215-11.95 10.315-25.995 10.315-56.661 0-113.274 30.082-176.764 69.575-31.711 19.726-56.341 20.946-69.84 9.913s-16.222-34.599-3.435-65.296c12.892-30.948 4.951-57.749-9.436-79.902-11.855-18.255-28.118-33.4-40.728-45.142l-7.452-7.008c-12.774-12.283-11.064-29.596.675-40.119 11.734-10.517 33.614-14.315 61.237.917 14.063 7.754 27.437 5.629 39.522-1.019 12.06-6.635 22.874-17.791 31.91-28.177l7.531-8.872 4.652-5.513c3.588-4.186 6.637-7.49 9.104-9.315 1.237-.915 2.269-1.412 3.106-1.505.784-.087 1.435.174 1.997.921.59.783 1.078 2.102 1.413 4.105.334 1.992.507 4.608.507 7.937z" fill="#fffa98"/><path d="M187.107 108.492c3.298 7.152 8.092 10.574 13.79 12.091 5.57 1.483 11.996 1.14 18.646.785l.282-.016c13.564-.723 28.188-1.4 39.792 12.469 11.687 13.969 14.169 27.352 15.119 39.062l.417 6.305c.205 3.506.4 6.838.824 9.92.677 4.908 1.946 9.299 4.823 12.965 2.843 3.624 6.309 6.361 9.76 8.766l3.506 2.368c2.223 1.478 4.344 2.888 6.226 4.413 2.834 2.296 5.038 4.789 6.095 8.02s.992 7.266-.86 12.699c-3.682 10.8-12.023 16.47-21.903 20.342-4.943 1.937-10.25 3.415-15.533 4.861l-.731.2c-5.026 1.376-10.015 2.74-14.581 4.459-19.056 7.174-51.852 20.832-65.413 26.585s-31.899 12.185-49.745 7.729c-8.918-2.227-14.657-6.375-17.52-12.377-2.868-6.016-2.901-14.005-.15-24.031 4.569-10.52 6.74-20.629 3.424-31.177s-12.081-21.427-29.156-33.573c-16.931-12.043-24.871-27.686-26.347-40.271-.739-6.298.144-11.796 2.288-15.699 2.134-3.884 5.509-6.186 9.84-6.186 7.077 0 10.313.942 13.012 1.727.736.214 1.432.417 2.154.585 3.452.806 7.326.775 18.221-2.331 5.542-1.58 12.167-6.07 19.134-11.398l8.569-6.742 12.913-9.993c7.122-5.169 13.885-9.201 19.635-10.231 2.859-.512 5.434-.275 7.674.904s4.21 3.333 5.795 6.77z" fill="#fd7d94"/><path d="M188.184 153.887c8.446 6.911 17.316 5.401 25.598 3.909l.247-.044c8.249-1.487 15.84-2.855 22.418 3.457 6.703 6.431 8.415 16.225 8.812 25.334.138 3.168.116 6.224.097 9.014l-.011 3.49c.009 1.808.056 3.448.202 4.841.145 1.384.392 2.572.83 3.452.808 1.624 1.825 3.218 2.879 4.848l.232.359c.987 1.523 1.999 3.086 2.927 4.771 1.995 3.624 3.585 7.791 3.585 13.182 0 5.362-1.804 9.429-6.054 12.493-4.293 3.094-11.121 5.196-21.235 6.466-20.381 2.558-31.462 9.104-42.044 17.114-10.345 7.831-21.075 5.919-26.459 3.472-5.353-2.433-13.367-10.389-16.277-21.959-.723-2.873-.837-5.212-.913-7.544l-.015-.461c-.069-2.181-.139-4.398-.694-7.019-1.19-5.621-4.591-13.038-14.801-26.251-10.151-13.136-11.96-22.272-10.67-28.46s5.717-9.592 8.416-11.181c2.645-1.558 5.933-2.031 10.408-2.606l.497-.064c4.363-.559 9.744-1.248 16.479-3.171 3.556-1.016 6.567-2.853 9.321-4.794.914-.644 1.793-1.294 2.653-1.93 1.758-1.301 3.437-2.543 5.167-3.55 2.551-1.486 5.127-2.405 8.049-2.162 2.928.243 6.278 1.658 10.356 4.994z" fill="#443038"/><path d="M209.501 228.507l-.028.005-.028.007c-2.008.579-4.833 1.652-8.039 2.869l-.026.01c-3.227 1.225-6.856 2.603-10.486 3.799s-7.247 2.207-10.447 2.701c-3.217.498-5.931.46-7.811-.357-3.749-1.627-4.719-5.25-5.006-9.432-.085-1.232-.109-2.46-.133-3.682l-.072-2.6c-.091-2.024-.303-3.963-.966-5.523-.64-1.508-1.564-3.083-2.533-4.671l-.568-.927c-.795-1.294-1.593-2.594-2.293-3.898-1.745-3.256-2.758-6.346-1.604-9.116 1.191-2.858 2.921-4.167 5.092-4.956 1.104-.402 2.326-.67 3.672-.93l.957-.181c1.066-.2 2.198-.413 3.37-.692 1.552-.37 2.903-.871 4.153-1.379l1.161-.482c.817-.342 1.596-.669 2.394-.952 2.288-.813 4.635-1.234 7.917-.392 1.785.457 3.757.431 5.745.242 1.175-.112 2.396-.286 3.597-.458l2.376-.323c3.942-.476 7.278-.415 9.298 2.122 2.061 2.59 1.839 5.78 1.326 9.561l-.138.993c-.489 3.472-1.032 7.34.14 11.278.537 1.803 1.231 3.588 1.887 5.276l.341.878c.755 1.957 1.404 3.747 1.676 5.315s.151 2.819-.525 3.77-1.998 1.723-4.399 2.125z" fill="#fdfffa"/></g><path d="M341.869 321.818V332h-.929v-9.207h-.06l-2.386 1.586v-.965l2.406-1.596h.969zm6.255 10.321c-.716 0-1.328-.205-1.835-.616s-.892-1.013-1.163-1.795-.403-1.722-.403-2.819.134-2.03.403-2.809.661-1.38 1.168-1.795 1.12-.626 1.83-.626 1.317.209 1.824.626.9 1.013 1.168 1.795.408 1.715.408 2.809-.136 2.037-.408 2.819-.656 1.38-1.163 1.795-1.114.616-1.829.616zm0-.835c.785 0 1.398-.383 1.839-1.148s.661-1.852.661-3.247c0-.928-.101-1.72-.303-2.376s-.486-1.164-.86-1.512-.817-.522-1.337-.522c-.779 0-1.391.388-1.835 1.164s-.666 1.854-.666 3.246c0 .928.099 1.72.298 2.377s.489 1.156.86 1.501.822.517 1.343.517zm8.586.835c-.716 0-1.328-.205-1.835-.616s-.892-1.013-1.163-1.795-.403-1.722-.403-2.819.134-2.03.403-2.809.661-1.38 1.168-1.795 1.12-.626 1.83-.626 1.317.209 1.824.626.9 1.013 1.168 1.795.408 1.715.408 2.809-.136 2.037-.408 2.819-.656 1.38-1.163 1.795-1.114.616-1.829.616zm0-.835c.785 0 1.398-.383 1.839-1.148s.661-1.852.661-3.247c0-.928-.101-1.72-.303-2.376s-.486-1.164-.86-1.512-.817-.522-1.337-.522c-.779 0-1.391.388-1.835 1.164s-.666 1.854-.666 3.246c0 .928.099 1.72.298 2.377s.489 1.156.86 1.501.822.517 1.343.517zM329.009 349h-2.983v-10.182h3.162c.971 0 1.801.202 2.491.607a3.97 3.97 0 0 1 1.591 1.74c.368.755.552 1.662.552 2.719 0 1.067-.189 1.984-.567 2.75s-.922 1.347-1.641 1.754-1.584.612-2.605.612zm-2.053-.835h1.998c.875 0 1.608-.173 2.198-.517s1.032-.837 1.327-1.477.443-1.402.443-2.287c-.004-.878-.149-1.634-.438-2.267s-.709-1.118-1.273-1.456-1.252-.508-2.078-.508h-2.177v8.512zm11.068 1.009c-.461 0-.882-.089-1.263-.268s-.684-.445-.91-.786-.338-.762-.338-1.253c0-.378.071-.696.214-.954s.345-.471.606-.637.572-.296.93-.392a8.53 8.53 0 0 1 1.183-.224l1.084-.139c.298-.04.526-.103.681-.189s.234-.226.234-.418v-.179c0-.52-.156-.93-.467-1.228s-.753-.452-1.333-.452c-.55 0-.999.121-1.347.363s-.587.527-.726.855l-.84-.304a2.48 2.48 0 0 1 .716-.999 2.83 2.83 0 0 1 1.024-.542c.378-.112.761-.169 1.148-.169.292 0 .595.038.91.115s.613.208.885.397.492.446.661.781.254.752.254 1.263V349h-.885v-1.208h-.055a2.4 2.4 0 0 1-.472.656c-.209.212-.471.386-.786.522s-.684.204-1.108.204zm.119-.81c.471 0 .878-.105 1.223-.314s.61-.485.796-.83.283-.731.283-1.148v-1.104c-.066.063-.177.119-.333.169a4.42 4.42 0 0 1-.532.134l-.597.095-.537.069c-.43.053-.798.136-1.103.249s-.539.268-.701.467-.244.448-.244.756c0 .464.166.824.497 1.079s.748.378 1.248.378zm5.884 3.5c-.176 0-.34-.017-.492-.05a1.96 1.96 0 0 1-.363-.109l.239-.781c.301.093.57.126.805.099s.444-.129.626-.318.345-.47.488-.855l.278-.775-2.809-7.711h.96l2.267 6.468h.069l2.267-6.468h.96l-3.232 8.844c-.136.368-.303.675-.502.92s-.429.432-.691.552-.549.184-.87.184zm12.157-8.825l-.811.229a2.12 2.12 0 0 0-.338-.622 1.53 1.53 0 0 0-.571-.442c-.232-.11-.521-.164-.865-.164-.518 0-.942.122-1.273.368s-.497.561-.497.949c0 .328.112.595.338.801s.58.363 1.054.482l1.153.283c.64.156 1.119.403 1.437.741s.482.762.482 1.273c0 .431-.119.813-.358 1.148s-.572.598-.999.791-.917.283-1.477.283c-.745 0-1.36-.167-1.844-.502s-.794-.825-.93-1.462l.85-.208c.11.454.323.797.642 1.029s.744.348 1.267.348c.587 0 1.056-.131 1.407-.393s.527-.597.527-.994a1.06 1.06 0 0 0-.308-.776c-.205-.212-.517-.368-.935-.467l-1.247-.299c-.663-.159-1.154-.411-1.472-.755s-.477-.773-.477-1.283a1.85 1.85 0 0 1 .343-1.109c.228-.321.543-.573.944-.755s.859-.274 1.373-.274c.699 0 1.257.159 1.675.478.421.314.724.749.91 1.302zm-8.165 23.12c-.659 0-1.243-.167-1.75-.502s-.898-.797-1.183-1.387-.428-1.278-.428-2.053c0-.783.143-1.47.428-2.064s.679-1.06 1.183-1.392a3.11 3.11 0 0 1 1.75-.502c.66 0 1.241.168 1.745.502s.898.799 1.183 1.392.433 1.281.433 2.064c0 .775-.143 1.46-.428 2.053s-.681 1.052-1.188 1.387-1.085.502-1.745.502zm0-.81c.53 0 .98-.143 1.347-.428s.647-.664.836-1.138.288-.996.288-1.566a4.17 4.17 0 0 0-.288-1.571c-.189-.478-.468-.86-.836-1.149s-.817-.432-1.347-.432-.976.144-1.347.432-.648.671-.84 1.149a4.23 4.23 0 0 0-.284 1.571c0 .57.095 1.092.284 1.566s.472.853.84 1.138.817.428 1.347.428zm8.446-6.985v.77h-3.754v-.77h3.754zM353.884 366v-8.755c0-.411.095-.757.284-1.039s.442-.496.751-.641.634-.219.979-.219c.232 0 .424.02.577.06s.278.072.368.109l-.259.775-.244-.069a1.37 1.37 0 0 0-.363-.04c-.384 0-.681.108-.889.323s-.314.524-.314.925l-.005 8.571h-.885zm-33.666 17h-2.983v-10.182h3.162c.971 0 1.801.202 2.491.607s1.223.984 1.591 1.74.552 1.662.552 2.719c0 1.067-.189 1.984-.567 2.75s-.922 1.347-1.641 1.754-1.584.612-2.605.612zm-2.053-.835h1.998c.875 0 1.608-.173 2.198-.517s1.032-.837 1.327-1.477.443-1.402.443-2.287c-.004-.878-.149-1.634-.438-2.267s-.709-1.118-1.273-1.456-1.252-.508-2.078-.508h-2.177v8.512zm12.022.994c-.712 0-1.329-.166-1.849-.497s-.923-.797-1.208-1.387-.423-1.276-.423-2.048.141-1.452.423-2.049a3.43 3.43 0 0 1 1.178-1.407 3.04 3.04 0 0 1 1.745-.512 3.21 3.21 0 0 1 1.198.229c.385.149.729.379 1.034.691s.552.698.731 1.168.269 1.021.269 1.661v.437h-5.966v-.78h5.061c0-.491-.1-.932-.299-1.323s-.468-.706-.82-.934-.751-.343-1.208-.343a2.17 2.17 0 0 0-1.278.387c-.368.259-.656.6-.865 1.025a3.2 3.2 0 0 0-.313 1.392v.467c0 .606.105 1.137.313 1.591a2.45 2.45 0 0 0 .9 1.049c.388.248.847.373 1.377.373.362 0 .678-.057.95-.169s.505-.264.691-.453.331-.402.428-.631l.84.273c-.116.322-.307.618-.572.89a2.9 2.9 0 0 1-.984.656c-.392.163-.842.244-1.353.244zm10.178-6.12l-.81.229a2.14 2.14 0 0 0-.338-.622c-.146-.185-.336-.333-.572-.442s-.52-.164-.865-.164c-.517 0-.941.122-1.273.368a1.13 1.13 0 0 0-.497.949c0 .328.113.595.338.801s.58.363 1.054.482l1.154.283c.639.156 1.118.403 1.437.741s.482.762.482 1.273a1.93 1.93 0 0 1-.358 1.148c-.239.335-.572.598-.999.791s-.917.283-1.477.283c-.746 0-1.361-.167-1.844-.502s-.794-.825-.93-1.462l.85-.208c.109.454.323.797.641 1.029s.744.348 1.268.348c.587 0 1.056-.131 1.407-.393s.527-.597.527-.994c0-.309-.103-.567-.308-.776s-.517-.368-.935-.467l-1.248-.299c-.663-.159-1.153-.411-1.471-.755s-.478-.773-.478-1.283c0-.421.115-.79.343-1.109s.544-.573.945-.755.858-.274 1.372-.274c.7 0 1.258.159 1.676.478.421.314.724.749.909 1.302zm2.057 5.961v-7.636h.89V383h-.89zm.453-8.949c-.182 0-.338-.061-.468-.184a.61.61 0 0 1-.193-.452c0-.176.064-.325.193-.448a.65.65 0 0 1 .468-.189c.182 0 .338.063.467.189s.194.272.194.448a.61.61 0 0 1-.194.452.65.65 0 0 1-.467.184zm5.691 11.972c-.52 0-.976-.068-1.367-.204s-.721-.315-.989-.547a2.61 2.61 0 0 1-.627-.781l.726-.477c.109.192.255.381.437.567s.426.34.721.462.665.184 1.099.184c.676 0 1.221-.169 1.636-.507s.626-.863.626-1.576v-1.72h-.079a3.03 3.03 0 0 1-.443.696c-.192.229-.444.419-.756.572s-.691.228-1.148.228c-.61 0-1.152-.15-1.626-.452s-.842-.732-1.113-1.293-.403-1.234-.403-2.013c0-.772.131-1.452.393-2.038s.634-1.044 1.108-1.373 1.026-.492 1.656-.492c.467 0 .855.083 1.163.249s.555.364.741.606.336.478.442.706h.09v-1.456h.865v7.835c0 .646-.138 1.178-.413 1.596a2.44 2.44 0 0 1-1.123.924c-.474.203-1.013.304-1.616.304zm-.06-3.913c.491 0 .91-.118 1.258-.353s.615-.58.801-1.024.278-.973.278-1.586c0-.597-.091-1.125-.273-1.586s-.448-.829-.796-1.094-.767-.402-1.268-.402c-.51 0-.941.137-1.292.412s-.617.647-.796 1.114-.268.983-.268 1.556c0 .583.091 1.099.273 1.546s.449.792.801 1.044.779.373 1.282.373zm6.44-3.883V383h-.885v-7.636h.86v1.198h.08c.179-.391.457-.705.835-.94s.852-.358 1.412-.358c.513 0 .964.108 1.352.323s.694.526.91.94.328.923.328 1.526V383h-.885v-4.892c0-.626-.176-1.122-.527-1.487s-.815-.546-1.402-.546c-.401 0-.757.086-1.069.258s-.558.421-.741.746-.268.704-.268 1.148z" fill="#443038"/></g><defs><clipPath id="A"><path fill="#fff" d="M0 0h375v400H0z"/></clipPath></defs></svg>