<svg xmlns="http://www.w3.org/2000/svg" width="375" height="400" fill="none" xmlns:v="https://vecta.io/nano"><g clip-path="url(#A)"><path fill="#fdfffa" d="M0 0h375v400H0z"/><path fill="#461ca0" d="M0 390h374v40H0z"/><path d="M34.864 172.128c-16.384 0-23.296-.256-34.048-1.792V226.4c13.568-1.28 21.504-1.792 43.264-1.792v124.16c0 16.128-.512 28.672-2.048 41.984h66.304c-1.536-13.312-2.048-25.6-2.048-41.984v-136.96c0-17.92.512-27.136 1.792-40.704-9.984.768-14.336 1.024-35.328 1.024H34.864zm152.972 169.728c6.4 15.616 10.496 22.528 17.664 29.952 15.36 16.128 37.888 24.576 66.048 24.576 34.816 0 60.416-12.032 78.336-36.864 13.568-18.688 21.504-48.64 21.504-80.64 0-20.224-3.328-39.424-9.728-56.576-3.84-11.008-10.496-21.248-19.456-30.208-16.896-16.896-40.192-25.6-67.584-25.6-27.904 0-53.76 9.472-70.144 25.856-14.08 14.08-21.248 32.256-21.248 53.76 0 43.52 31.488 72.704 78.592 72.704 12.032 0 23.04-1.792 33.024-5.632 5.888-2.304 8.96-4.096 14.592-8.704-1.024 13.312-2.56 19.712-7.168 26.88-6.144 9.984-15.36 15.104-27.136 15.104-13.312 0-21.76-5.632-26.112-17.664l-61.184 13.056zm87.552-70.912c-19.2 0-31.488-11.008-31.488-28.16 0-16.384 12.544-27.136 31.488-27.136 18.688 0 31.232 10.752 31.232 26.88 0 16.896-12.544 28.416-31.232 28.416z" fill="#000"/><path fill="#d33c5a" d="M0 69h145v80H0z"/><g fill="#000"><path d="M2.24 131V88.312h11.84c4.011 0 7.573.448 10.688 1.344 3.157.896 5.803 2.24 7.936 4.032 2.176 1.792 3.819 4.032 4.928 6.72 1.152 2.645 1.728 5.717 1.728 9.216s-.576 6.592-1.728 9.28c-1.109 2.645-2.752 4.864-4.928 6.656-2.133 1.792-4.779 3.157-7.936 4.096-3.115.896-6.677 1.344-10.688 1.344H2.24zm13.632-12.16c3.2 0 5.675-.747 7.424-2.24 1.749-1.536 2.624-3.861 2.624-6.976s-.875-5.419-2.624-6.912-4.224-2.24-7.424-2.24v18.368zm40.625-30.528h10.24L82.929 131h-13.44l-1.408-3.84H55.153L53.745 131h-13.44l16.192-42.688zm8 29.44l-2.88-7.488-2.88 7.488h5.76zm22.079-5.12l-13.248-24.32h15.168l4.928 9.024 4.864-9.024h15.169l-13.249 24.32V131H86.576v-18.368zm37.544-17.691c.053.445.167.762.343.949.31.334.885.501 1.723.501.492 0 .881-.073 1.168-.22.293-.146.44-.366.44-.659a.71.71 0 0 0-.352-.642c-.234-.147-1.104-.398-2.61-.756-1.084-.27-1.849-.606-2.294-1.011-.445-.398-.668-.973-.668-1.723 0-.885.346-1.644 1.037-2.276.697-.639 1.676-.958 2.936-.958 1.195 0 2.168.24 2.918.721.756.475 1.189 1.298 1.301 2.47h-2.505c-.036-.322-.126-.577-.273-.765-.275-.34-.744-.51-1.406-.51-.545 0-.935.085-1.169.255s-.343.369-.343.598c0 .287.123.495.369.624.246.135 1.117.366 2.611.694.996.234 1.743.589 2.241 1.064.492.48.738 1.081.738 1.802 0 .949-.354 1.726-1.063 2.329-.703.598-1.793.896-3.27.896-1.506 0-2.619-.316-3.34-.949-.714-.639-1.072-1.45-1.072-2.435h2.54z"/></g><path fill="#edf060" d="M145 89h231v48H145z"/><g fill="#000"><path d="M148.66 93.536c-.256 0-.508.044-.756.132a1.98 1.98 0 0 0-.648.36c-.192.152-.348.34-.468.564-.112.224-.168.48-.168.768s.056.544.168.768c.12.224.276.416.468.576.192.152.408.272.648.36a2.45 2.45 0 0 0 .756.12c.256 0 .504-.04.744-.12.248-.088.468-.208.66-.36.192-.16.344-.352.456-.576a1.6 1.6 0 0 0 .18-.768 1.6 1.6 0 0 0-.18-.768 1.65 1.65 0 0 0-.456-.564 1.96 1.96 0 0 0-.66-.36c-.24-.088-.488-.132-.744-.132zm0-.888c.44 0 .852.056 1.236.168a2.97 2.97 0 0 1 1.02.504 2.39 2.39 0 0 1 .684.852c.168.336.252.732.252 1.188s-.084.856-.252 1.2a2.42 2.42 0 0 1-.684.84c-.288.224-.628.388-1.02.492-.384.096-.796.144-1.236.144a5.23 5.23 0 0 1-1.248-.144c-.384-.104-.72-.268-1.008-.492a2.42 2.42 0 0 1-.684-.84c-.168-.344-.252-.744-.252-1.2s.084-.852.252-1.188a2.39 2.39 0 0 1 .684-.852c.288-.224.624-.392 1.008-.504.392-.112.808-.168 1.248-.168zm9.604 1.128c0-.04-.028-.076-.084-.108-.056-.04-.152-.06-.288-.06h-3.252v1.272h2.112c.136 0 .22-.012.252-.036.032-.032.052-.08.06-.144h.216v1.26h-.216c-.008-.064-.028-.112-.06-.144s-.116-.048-.252-.048h-2.112v1.836c0 .064.028.112.084.144.056.024.12.036.192.036V98h-1.656v-.216c.152 0 .228-.06.228-.18v-4.488c0-.12-.084-.18-.252-.18v-.216h4.656c.136 0 .232-.02.288-.06s.084-.092.084-.156h.216v1.272h-.216zm3.296 44.064c0 2.064-.264 3.816-.792 5.256-.504 1.44-1.212 2.616-2.124 3.528-.888.888-1.956 1.536-3.204 1.944-1.224.408-2.556.612-3.996.612-1.488 0-2.988-.18-4.5-.54v-21.6c1.512-.36 3.012-.54 4.5-.54 1.44 0 2.772.204 3.996.612 1.248.408 2.316 1.068 3.204 1.98.912.912 1.62 2.088 2.124 3.528.528 1.44.792 3.18.792 5.22zm-11.664 8.676a15.4 15.4 0 0 0 1.836.108c1.08 0 2.04-.156 2.88-.468a5.24 5.24 0 0 0 2.124-1.548c.576-.72 1.02-1.632 1.332-2.736.312-1.128.468-2.472.468-4.032 0-3.024-.588-5.244-1.764-6.66-1.152-1.416-2.868-2.124-5.148-2.124l-.936.036c-.288 0-.552.024-.792.072v17.352zm22.428-14.616c2.256 0 3.996.708 5.22 2.124 1.224 1.392 1.836 3.516 1.836 6.372v1.044h-11.952c.12 1.728.684 3.048 1.692 3.96 1.032.888 2.472 1.332 4.32 1.332 1.056 0 1.956-.084 2.7-.252s1.308-.348 1.692-.54l.396 2.52c-.36.192-1.008.396-1.944.612s-1.992.324-3.168.324c-1.44 0-2.712-.216-3.816-.648-1.08-.456-1.98-1.068-2.7-1.836s-1.26-1.68-1.62-2.736c-.36-1.08-.54-2.244-.54-3.492 0-1.488.228-2.784.684-3.888s1.056-2.016 1.8-2.736 1.584-1.26 2.52-1.62a7.96 7.96 0 0 1 2.88-.54zm4.032 7.128c0-1.416-.372-2.532-1.116-3.348-.744-.84-1.728-1.26-2.952-1.26-.696 0-1.332.132-1.908.396-.552.264-1.032.612-1.44 1.044s-.732.924-.972 1.476-.396 1.116-.468 1.692h8.856zm17.28 5.796c0-.6-.252-1.092-.756-1.476-.48-.384-1.092-.72-1.836-1.008l-2.376-.828c-.864-.288-1.668-.636-2.412-1.044-.72-.408-1.332-.912-1.836-1.512-.48-.6-.72-1.38-.72-2.34 0-1.344.54-2.46 1.62-3.348 1.104-.912 2.82-1.368 5.148-1.368a18.92 18.92 0 0 1 2.808.216c.984.12 1.824.288 2.52.504l-.54 2.664a4.75 4.75 0 0 0-.792-.288c-.336-.12-.72-.216-1.152-.288-.432-.096-.9-.168-1.404-.216l-1.404-.072c-2.592 0-3.888.708-3.888 2.124 0 .504.24.936.72 1.296.504.336 1.128.648 1.872.936l2.412.9a12.93 12.93 0 0 1 2.412 1.08c.744.432 1.356.96 1.836 1.584.504.6.756 1.368.756 2.304 0 1.512-.588 2.688-1.764 3.528-1.176.816-3.036 1.224-5.58 1.224-1.152 0-2.208-.096-3.168-.288s-1.872-.48-2.736-.864l.576-2.7c.84.384 1.716.708 2.628.972.936.24 1.932.36 2.988.36 2.712 0 4.068-.684 4.068-2.052zm12.888-15.12c-.624 0-1.164-.216-1.62-.648s-.684-1.02-.684-1.764.228-1.332.684-1.764.996-.648 1.62-.648c.648 0 1.188.216 1.62.648.456.432.684 1.02.684 1.764s-.228 1.332-.684 1.764c-.432.432-.972.648-1.62.648zm-.756 5.076h-4.824v-2.484h7.776v10.26c0 1.656.228 2.772.684 3.348.456.552 1.14.828 2.052.828.696 0 1.332-.084 1.908-.252.6-.168 1.068-.348 1.404-.54l.432 2.52-.612.288-.936.288a10.52 10.52 0 0 1-1.152.252c-.408.072-.84.108-1.296.108-1.056 0-1.932-.144-2.628-.432s-1.26-.72-1.692-1.296c-.408-.576-.696-1.284-.864-2.124-.168-.864-.252-1.86-.252-2.988v-7.776zm23.688 12.672c-.336.192-.852.396-1.548.612s-1.5.324-2.412.324a8.1 8.1 0 0 1-2.772-.468c-.84-.336-1.584-.828-2.232-1.476-.624-.672-1.128-1.512-1.512-2.52-.36-1.032-.54-2.244-.54-3.636 0-1.224.168-2.34.504-3.348.36-1.032.864-1.92 1.512-2.664.672-.744 1.488-1.32 2.448-1.728.96-.432 2.052-.648 3.276-.648 1.44 0 2.664.108 3.672.324l2.592.576v14.904c0 2.592-.66 4.464-1.98 5.616-1.296 1.152-3.264 1.728-5.904 1.728-1.08 0-2.064-.084-2.952-.252-.864-.168-1.632-.372-2.304-.612l.54-2.628c.624.264 1.332.48 2.124.648.816.168 1.704.252 2.664.252 1.728 0 2.964-.348 3.708-1.044s1.116-1.824 1.116-3.384v-.576zm0-12.528c-.288-.096-.684-.18-1.188-.252-.504-.096-1.188-.144-2.052-.144-1.536 0-2.712.528-3.528 1.584-.792 1.056-1.188 2.46-1.188 4.212 0 .96.108 1.788.324 2.484.24.672.552 1.236.936 1.692.408.432.864.756 1.368.972.504.192 1.044.288 1.62.288.744 0 1.44-.108 2.088-.324.672-.216 1.212-.468 1.62-.756v-9.756zm8.1-2.16c1.08-.264 2.148-.468 3.204-.612 1.08-.144 2.088-.216 3.024-.216 2.232 0 3.912.576 5.04 1.728 1.152 1.152 1.728 3 1.728 5.544V149H247.6v-9.252c0-1.08-.096-1.956-.288-2.628s-.468-1.188-.828-1.548c-.336-.384-.756-.648-1.26-.792-.48-.144-1.008-.216-1.584-.216a12.01 12.01 0 0 0-1.548.108l-1.548.216V149h-2.988v-16.236zM12.641 75H2.109v-1.109l1.453-.125 1.375-.219c.323-.104.568-.271.734-.5.177-.24.266-.594.266-1.062V61.016h-3.89v-1.312h.859c1.125 0 2.13-.208 3.016-.625.896-.417 1.536-.865 1.922-1.344h1.297l-.094 2.375L9 62.547v9.266a2.05 2.05 0 0 0 .234.984 1.52 1.52 0 0 0 .703.625c.271.115.713.219 1.328.313l1.375.156V75zm17.636-14.594c.667.802 1.161 1.745 1.484 2.828.333 1.073.5 2.198.5 3.375 0 1.417-.203 2.688-.609 3.813-.406 1.115-.964 2.042-1.672 2.781a7.07 7.07 0 0 1-2.594 1.719c-1 .385-2.114.578-3.344.578-1.344 0-2.542-.224-3.594-.672s-1.906-1.062-2.562-1.844c-.687-.812-1.203-1.76-1.547-2.844-.333-1.094-.5-2.271-.5-3.531 0-1.24.161-2.38.484-3.422a8.43 8.43 0 0 1 1.547-2.828c.667-.812 1.526-1.453 2.578-1.922s2.255-.703 3.609-.703c1.427 0 2.651.24 3.672.719s1.87 1.13 2.547 1.953zm-1.469 6.203c0-2.479-.427-4.401-1.281-5.766-.844-1.365-1.995-2.047-3.453-2.047-1.479 0-2.646.682-3.5 2.047s-1.281 3.286-1.281 5.766c0 2.354.406 4.25 1.219 5.688.823 1.427 2 2.141 3.531 2.141s2.708-.713 3.531-2.141c.823-1.437 1.234-3.333 1.234-5.687zm21.605-6.203c.667.802 1.161 1.745 1.484 2.828a11.31 11.31 0 0 1 .5 3.375c0 1.417-.203 2.688-.609 3.813-.406 1.115-.964 2.042-1.672 2.781a7.08 7.08 0 0 1-2.594 1.719c-1 .386-2.115.578-3.344.578-1.344 0-2.542-.224-3.594-.672s-1.906-1.062-2.562-1.844c-.687-.812-1.203-1.76-1.547-2.844-.333-1.094-.5-2.271-.5-3.531 0-1.24.161-2.38.484-3.422a8.42 8.42 0 0 1 1.547-2.828c.667-.812 1.526-1.453 2.578-1.922s2.255-.703 3.609-.703c1.427 0 2.651.24 3.672.719s1.87 1.13 2.547 1.953zm-1.469 6.203c0-2.479-.427-4.401-1.281-5.766-.844-1.365-1.995-2.047-3.453-2.047-1.479 0-2.646.682-3.5 2.047s-1.281 3.286-1.281 5.766c0 2.354.406 4.25 1.219 5.688.823 1.427 2 2.141 3.531 2.141s2.708-.713 3.531-2.141c.823-1.437 1.234-3.333 1.234-5.687z"/></g></g><defs><clipPath id="A"><path fill="#fff" d="M0 0h375v400H0z"/></clipPath></defs></svg>