<svg xmlns="http://www.w3.org/2000/svg" width="375" height="400" fill="none" xmlns:v="https://vecta.io/nano"><g clip-path="url(#A)"><path fill="#fdfffa" d="M0 0h375v400H0z"/><circle cx="346" cy="148" r="60" fill="#fd7d94"/><g fill="#3d324b"><path d="M0 308h375v92H0zm0-62h375v34H0zm0-38h375v20H0zm0-27h375v11H0zm0-18h375v7H0zm0-12h375v4H0zm0-7h375v2H0zm0-3h375v1H0z"/></g><path d="M204.957 369.909V383h-1.585v-11.429h-.077l-3.196 2.122v-1.611l3.273-2.173h1.585zm8.035 13.27c-.963 0-1.783-.262-2.461-.786s-1.195-1.294-1.553-2.295c-.358-1.006-.537-2.22-.537-3.643 0-1.415.179-2.623.537-3.625s.882-1.772 1.56-2.301 1.5-.799 2.454-.799 1.771.266 2.448.799c.682.529 1.202 1.296 1.56 2.301s.543 2.21.543 3.625c0 1.423-.179 2.637-.537 3.643-.358 1.001-.875 1.766-1.553 2.295s-1.498.786-2.461.786zm0-1.406c.955 0 1.696-.461 2.225-1.381s.792-2.233.792-3.937c0-1.134-.121-2.099-.364-2.896s-.584-1.404-1.036-1.822-.986-.626-1.617-.626c-.946 0-1.685.466-2.218 1.4-.533.929-.799 2.243-.799 3.944 0 1.133.119 2.096.358 2.889s.582 1.395 1.029 1.809a2.33 2.33 0 0 0 1.63.62zm11.25 1.406c-.963 0-1.783-.262-2.461-.786s-1.195-1.294-1.553-2.295c-.358-1.006-.537-2.22-.537-3.643 0-1.415.179-2.623.537-3.625s.882-1.772 1.56-2.301 1.5-.799 2.454-.799 1.771.266 2.448.799c.682.529 1.202 1.296 1.56 2.301s.543 2.21.543 3.625c0 1.423-.179 2.637-.537 3.643-.358 1.001-.875 1.766-1.553 2.295s-1.498.786-2.461.786zm0-1.406c.955 0 1.696-.461 2.225-1.381s.792-2.233.792-3.937c0-1.134-.121-2.099-.364-2.896s-.584-1.404-1.036-1.822-.986-.626-1.617-.626c-.946 0-1.685.466-2.218 1.4-.533.929-.799 2.243-.799 3.944 0 1.133.119 2.096.358 2.889s.582 1.395 1.029 1.809a2.33 2.33 0 0 0 1.63.62zM240.555 383h-4.04v-13.091h4.219c1.27 0 2.356.262 3.26.786s1.595 1.268 2.077 2.244.722 2.135.722 3.49c0 1.364-.243 2.538-.728 3.522s-1.194 1.734-2.123 2.263-2.058.786-3.387.786zm-2.455-1.406h2.352c1.083 0 1.98-.209 2.691-.627s1.243-1.012 1.592-1.783.524-1.69.524-2.755c0-1.057-.172-1.967-.518-2.729s-.86-1.356-1.546-1.765-1.541-.62-2.564-.62H238.1v10.279zm14.037 1.636c-.622 0-1.187-.117-1.694-.351-.507-.239-.91-.582-1.208-1.03s-.447-.997-.447-1.636c0-.562.11-1.018.332-1.368s.518-.631.889-.831a4.66 4.66 0 0 1 1.227-.447l1.361-.243 1.451-.173c.375-.042.648-.113.818-.211s.263-.268.263-.511v-.051c0-.631-.173-1.121-.518-1.47s-.859-.524-1.553-.524c-.721 0-1.285.157-1.694.473s-.697.652-.863 1.009l-1.432-.511c.256-.596.596-1.061 1.023-1.393s.899-.571 1.406-.703 1.014-.205 1.508-.205c.316 0 .678.038 1.087.115a3.47 3.47 0 0 1 1.195.454c.388.23.71.577.966 1.042s.383 1.086.383 1.866V383h-1.508v-1.33h-.077c-.102.214-.273.442-.512.684s-.556.45-.952.62-.88.256-1.451.256zm.23-1.355c.597 0 1.1-.117 1.509-.352a2.39 2.39 0 0 0 .933-.907c.213-.371.32-.761.32-1.17v-1.381c-.064.077-.205.147-.422.211a7.08 7.08 0 0 1-.742.16l-.812.115-.632.077c-.392.051-.759.134-1.1.249a1.9 1.9 0 0 0-.818.505c-.205.222-.307.524-.307.908 0 .524.194.92.582 1.189s.888.396 1.489.396zm7.643 4.807a3.27 3.27 0 0 1-.683-.064c-.201-.038-.339-.077-.416-.115l.384-1.33c.366.094.69.128.971.103s.531-.152.748-.378.424-.581.607-1.08l.282-.767-3.631-9.869h1.636l2.71 7.824h.103l2.71-7.824h1.636l-4.167 11.25c-.188.507-.42.927-.697 1.259-.277.337-.599.586-.965.748s-.772.243-1.228.243zm16.003-11.301l-1.355.383a2.51 2.51 0 0 0-.377-.658 1.83 1.83 0 0 0-.665-.537c-.281-.141-.641-.211-1.08-.211-.601 0-1.102.138-1.502.415s-.595.62-.595 1.042c0 .375.136.672.409.889s.699.398 1.279.543l1.457.358c.878.213 1.532.539 1.962.978s.646.995.646 1.681a2.49 2.49 0 0 1-.486 1.509c-.319.443-.767.792-1.342 1.048s-1.245.384-2.007.384c-1.002 0-1.831-.218-2.487-.652s-1.072-1.07-1.246-1.905l1.432-.358c.136.528.394.924.773 1.189s.884.396 1.502.396c.703 0 1.262-.149 1.675-.447s.626-.665.626-1.087a1.14 1.14 0 0 0-.358-.857c-.238-.234-.605-.409-1.099-.524l-1.636-.383c-.9-.213-1.56-.544-1.982-.991s-.626-1.016-.626-1.694c0-.554.155-1.044.466-1.47.316-.426.744-.761 1.285-1.004s1.163-.364 1.854-.364c.971 0 1.734.213 2.288.639s.955.989 1.189 1.688zm11.501 7.824c-.887 0-1.664-.211-2.333-.633s-1.185-1.012-1.56-1.771-.556-1.645-.556-2.659c0-1.023.185-1.915.556-2.678s.895-1.355 1.56-1.777 1.446-.633 2.333-.633 1.662.211 2.327.633 1.188 1.014 1.559 1.777.563 1.655.563 2.678c0 1.014-.188 1.901-.563 2.659s-.89 1.349-1.559 1.771-1.441.633-2.327.633zm0-1.356c.673 0 1.227-.172 1.662-.517s.756-.799.965-1.362.313-1.172.313-1.828-.104-1.268-.313-1.834-.531-1.025-.965-1.375-.989-.524-1.662-.524-1.227.175-1.662.524-.756.808-.965 1.375-.313 1.178-.313 1.834.104 1.266.313 1.828.53 1.017.965 1.362.989.517 1.662.517zm11.124-8.667v1.278h-5.293v-1.278h5.293zM294.93 383v-11.173c0-.563.132-1.032.397-1.407a2.45 2.45 0 0 1 1.029-.843c.422-.188.867-.282 1.336-.282.37 0 .673.03.907.09s.409.115.524.166l-.434 1.304-.32-.096c-.132-.038-.307-.057-.524-.057-.499 0-.859.125-1.08.377s-.326.62-.326 1.106V383h-1.509zm15.129 0h-4.04v-13.091h4.219c1.269 0 2.356.262 3.26.786s1.595 1.268 2.077 2.244.722 2.135.722 3.49c0 1.364-.243 2.538-.728 3.522s-1.194 1.734-2.123 2.263-2.058.786-3.387.786zm-2.455-1.406h2.352c1.083 0 1.98-.209 2.691-.627s1.243-1.012 1.592-1.783.524-1.69.524-2.755c0-1.057-.172-1.967-.518-2.729s-.86-1.356-1.546-1.765-1.541-.62-2.564-.62h-2.531v10.279zm15.264 1.611c-.946 0-1.762-.209-2.448-.627s-1.208-1.01-1.579-1.764c-.366-.759-.549-1.641-.549-2.646s.183-1.892.549-2.659.887-1.373 1.547-1.803c.665-.435 1.44-.652 2.327-.652.511 0 1.016.085 1.515.256s.952.447 1.361.831c.409.379.735.882.978 1.508s.365 1.398.365 2.314v.639h-7.569v-1.304h6.035c0-.554-.111-1.048-.333-1.483s-.528-.777-.933-1.029-.874-.377-1.419-.377c-.601 0-1.121.149-1.56.448a2.94 2.94 0 0 0-1.003 1.15 3.37 3.37 0 0 0-.352 1.521v.87c0 .741.128 1.37.384 1.885s.62.902 1.08 1.17.995.396 1.604.396c.397 0 .755-.055 1.074-.166a2.29 2.29 0 0 0 .837-.511 2.32 2.32 0 0 0 .544-.857l1.457.409c-.153.495-.411.929-.773 1.304s-.81.661-1.343.87c-.532.204-1.131.307-1.796.307zm13.315-7.824l-1.355.383a2.51 2.51 0 0 0-.377-.658 1.83 1.83 0 0 0-.665-.537c-.281-.141-.641-.211-1.08-.211-.601 0-1.102.138-1.503.415-.396.273-.594.62-.594 1.042 0 .375.136.672.409.889s.699.398 1.279.543l1.457.358c.878.213 1.532.539 1.962.978s.646.995.646 1.681a2.49 2.49 0 0 1-.486 1.509c-.32.443-.767.792-1.342 1.048s-1.245.384-2.007.384c-1.002 0-1.831-.218-2.487-.652s-1.072-1.07-1.246-1.905l1.431-.358c.137.528.395.924.774 1.189s.884.396 1.502.396c.703 0 1.261-.149 1.675-.447s.626-.665.626-1.087a1.14 1.14 0 0 0-.358-.857c-.238-.234-.605-.409-1.099-.524l-1.637-.383c-.899-.213-1.559-.544-1.981-.991s-.627-1.016-.627-1.694c0-.554.156-1.044.467-1.47s.744-.761 1.285-1.004 1.163-.364 1.854-.364c.971 0 1.734.213 2.288.639s.955.989 1.189 1.688zm2.45 7.619v-9.818h1.508V383h-1.508zm.767-11.455c-.294 0-.548-.1-.761-.3s-.313-.441-.313-.722.104-.522.313-.723.467-.3.761-.3a1.05 1.05 0 0 1 .754.3c.213.201.32.441.32.723s-.107.522-.32.722a1.05 1.05 0 0 1-.754.3zm7.467 15.341c-.729 0-1.355-.093-1.879-.281s-.961-.426-1.31-.729a3.97 3.97 0 0 1-.825-.958l1.202-.844a9.89 9.89 0 0 0 .517.614c.209.234.495.436.857.607s.846.262 1.438.262c.793 0 1.447-.192 1.963-.575s.773-.985.773-1.803v-1.994h-.128a8.03 8.03 0 0 1-.473.664c-.2.26-.49.493-.869.697s-.882.301-1.521.301c-.793 0-1.505-.188-2.135-.563s-1.123-.92-1.49-1.636-.543-1.586-.543-2.608c0-1.006.177-1.882.53-2.627s.846-1.33 1.477-1.739 1.359-.62 2.186-.62c.639 0 1.146.107 1.521.32.38.208.669.447.87.715l.473.652h.153v-1.559h1.458v10.099c0 .844-.192 1.53-.576 2.058s-.89.923-1.534 1.17-1.351.377-2.135.377zm-.051-5.395c.605 0 1.117-.138 1.534-.415s.735-.675.953-1.195.326-1.142.326-1.867c0-.707-.107-1.331-.32-1.873s-.528-.965-.946-1.272-.933-.46-1.547-.46c-.639 0-1.172.162-1.598.486s-.739.758-.952 1.304-.314 1.15-.314 1.815c0 .682.107 1.285.32 1.809s.537.929.959 1.227.954.441 1.585.441zm8.565-4.397V383h-1.508v-9.818h1.457v1.534h.128c.23-.499.58-.899 1.048-1.202s1.074-.46 1.816-.46c.665 0 1.246.136 1.745.409s.886.678 1.163 1.227.416 1.236.416 2.071V383h-1.509v-6.136c0-.772-.2-1.373-.601-1.803s-.95-.652-1.649-.652a2.63 2.63 0 0 0-1.291.313 2.25 2.25 0 0 0-.889.914c-.217.401-.326.887-.326 1.458z" fill="#fdfffa"/><path d="M25.906 29.758c.008.055.016.148.024.281l.023.422.024.41.023.27.059.48a2.98 2.98 0 0 0 .106.457 1.58 1.58 0 0 0 .199.398c.094.117.211.219.352.305h.504.48a.86.86 0 0 1 .094-.035l.152-.047.152-.047.094-.047a1.25 1.25 0 0 0 .129-.012l.199-.023.199-.023.117-.012c.25-.047.473-.113.668-.199.195-.094.379-.199.551-.316a5.17 5.17 0 0 0 .516-.41l.563-.469.223-.164.199-.129.188-.141a1.2 1.2 0 0 0 .199-.199c.016-.016.031-.043.047-.082.023-.047.035-.078.035-.094.016-.023.063-.074.141-.152l.258-.246.258-.258.152-.152c.008-.016.027-.043.059-.082l.094-.117a1.41 1.41 0 0 0 .105-.117l.07-.094c.086-.133.133-.269.141-.41.016-.141.051-.273.105-.398a1.54 1.54 0 0 1 .047-.082.73.73 0 0 0 .082-.129l.082-.117.047-.082a2.5 2.5 0 0 0 .141-.445c.047-.172.082-.348.106-.527.031-.187.051-.367.059-.539l.023-.469c0-.031-.004-.078-.012-.141v-.176c0-.062-.004-.113-.012-.152v-.082a.32.32 0 0 0-.047-.105.5.5 0 0 1-.035-.117V25a1.07 1.07 0 0 1 .047-.316c.039-.102.059-.207.059-.316 0-.195-.043-.379-.129-.551-.086-.18-.187-.352-.305-.516l-.328-.504c-.109-.172-.187-.352-.234-.539-.008 0-.016-.02-.023-.059l-.024-.117a.66.66 0 0 0-.012-.129v-.094l-.105-.152c-.039-.07-.086-.145-.141-.223l-.152-.223a1.05 1.05 0 0 0-.105-.141c-.273-.07-.504-.187-.691-.352s-.391-.316-.609-.457c-.023-.008-.059-.023-.105-.047l-.141-.07a.61.61 0 0 0-.106-.07c-.031-.023-.051-.035-.058-.035-.109-.086-.227-.191-.352-.316-.117-.125-.242-.215-.375-.269l-.141-.047-.234-.07-.234-.082-.141-.047c-.016 0-.051-.012-.105-.035l-.176-.082-.176-.082-.094-.035h-.281-.715c-.008 0-.059-.012-.152-.035l-.164-.035c-.016 0-.031-.004-.047-.012-.031-.016-.059-.023-.082-.023-.117 0-.242.012-.375.035a1.08 1.08 0 0 0-.352.105.93.93 0 0 0-.293.199.64.64 0 0 0-.152.328.83.83 0 0 0-.023.141l-.023.234-.023.246-.012.188c0 .016-.004.035-.012.059-.008.016-.012.031-.012.047 0 .023.004.039.012.047 0 .016.004.027.012.035 0 .008.008.043.023.105.024.063.043.102.059.117l-.035 2.203v.41L26 25.469c.039.047.063.094.07.141a1.01 1.01 0 0 1 .012.164c0 .172-.027.348-.082.527-.047.172-.078.348-.094.527v.258.551a4.15 4.15 0 0 1-.023.434c-.008.141-.023.266-.047.375a.53.53 0 0 1-.023.105l-.059.164-.059.152-.023.082v.105a1 1 0 0 0 .07.375l.164.328zm-2.355 4.137l-.281.012c-.078.008-.168.039-.27.094h-1.664c-.008 0-.031-.004-.07-.012-.031-.016-.07-.031-.117-.047l-.117-.07-.094-.059a.38.38 0 0 1-.129-.211l-.012-.246v-.105-.129c.008-.047.031-.086.07-.117.016-.008.07-.027.164-.059.094-.039.149-.066.164-.082l.059-.059a1.28 1.28 0 0 0 .094-.105l.105-.105c.031-.031.055-.051.07-.059h.164a.74.74 0 0 1 .234.035c.07.023.145.035.223.035l.422-.012.434-.059c.211-.039.359-.129.445-.27a1.29 1.29 0 0 0 .188-.539c0-.016.004-.07.012-.164a3.78 3.78 0 0 0 .035-.34l.023-.387.024-.328v-.094c0-.055-.004-.094-.012-.117a.37.37 0 0 0-.082-.129v-.609-.609c0-.031.008-.113.023-.246l.07-.445.059-.434.023-.246v-1.57l.012-.047.024-.105.023-.105.012-.059v-.023-.059l-.164-.855a4.55 4.55 0 0 1-.082-.891v-.609c0-.008.004-.027.012-.059l.023-.105a.83.83 0 0 0 .035-.105c.016-.031.024-.051.024-.059v-.832-.293a1.6 1.6 0 0 1 .012-.141l.023-.234.035-.234.012-.141v-.75-.633l-.047-.141a1.11 1.11 0 0 0-.07-.211l-.07-.223c-.023-.07-.047-.117-.07-.141-.047-.016-.129-.031-.246-.047l-.375-.047a3.07 3.07 0 0 0-.363-.047l-.234-.035a4.37 4.37 0 0 0-.457-.023c-.148 0-.289-.016-.422-.047-.125-.039-.23-.105-.316-.199-.078-.102-.117-.258-.117-.469v-.07c0-.039.004-.074.012-.106.008-.039.035-.059.082-.059l.211-.047.316-.082c.117-.031.227-.055.328-.07l.223-.047h.328c.031 0 .066-.004.105-.012a.66.66 0 0 1 .129-.012.64.64 0 0 1 .176.023c.055.016.098.043.129.082l.445.035.668.047.656.047.445.035h.082c.266 0 .52-.02.762-.059l.773-.105h.024.059l.433.035.668.047.668.047.445.035c.008 0 .043.012.105.035.063.016.102.031.117.047h.094.082c.016 0 .066-.012.152-.035.086-.031.145-.047.176-.047l.023-.024c.02.012.027.012.035.012.008.008.016.012.023.012a.41.41 0 0 1 .117.047c.07.023.113.035.129.035.031 0 .109.012.234.035l.41.07.41.07.234.047c.016.016.055.035.117.059l.129.035c.008 0 .027.008.059.024a.61.61 0 0 1 .094.059l.094.059c.031.016.051.023.059.023.031.016.09.035.176.059l.176.023c.008.016.043.043.105.082.07.031.113.059.129.082.016.008.047.031.094.07a1.21 1.21 0 0 1 .152.129l.152.141c.047.039.078.063.094.07a.79.79 0 0 0 .316.152c.117.023.227.086.328.188a3.24 3.24 0 0 1 .199.188l.281.27.258.258.152.152c.023.023.07.086.141.188l.223.305.234.305.141.176c.016.016.043.047.082.094.047.039.078.07.094.094.094.117.164.238.211.363a2.18 2.18 0 0 1 .105.387l.082.387c.023.133.055.266.094.398 0 .008.008.027.023.059l.047.105.047.105c.016.031.023.051.023.059.016.016.031.055.047.117l.047.106c.063.164.121.297.176.398l.164.293a1.25 1.25 0 0 1 .105.316c.031.109.047.262.047.457 0 .109-.02.211-.059.305l-.105.281-.117.293a.92.92 0 0 0-.047.293c0 .18.012.356.035.527.031.172.047.348.047.527v.328l-.023.047-.059.105a.46.46 0 0 0-.059.106c-.016.031-.023.051-.023.059v.141.352c-.008.016-.035.059-.082.129l-.094.117a1.83 1.83 0 0 0-.187.527 3.95 3.95 0 0 1-.141.527 1.27 1.27 0 0 1-.316.551c-.156.156-.285.324-.387.504-.18.297-.391.59-.633.879s-.5.535-.773.738c-.008.016-.035.035-.082.059l-.152.082-.152.07c-.047.023-.074.039-.082.047a2.51 2.51 0 0 0-.363.258c-.109.094-.238.164-.387.211-.266.125-.535.234-.809.328a1.89 1.89 0 0 0-.727.422l-.363.035-.539.047-.539.047-.363.035c-.016 0-.066.016-.152.047-.086.024-.145.035-.176.035-.055.008-.16.016-.316.023l-.516.023-.516.023-.351.012h-1.055-.996c-.266-.016-.531-.051-.797-.105s-.539-.082-.82-.082zm17.391-2.871c0 .164.055.293.164.387a1.34 1.34 0 0 0 .41.199c.156.047.32.082.492.105.172.016.313.039.422.07h.012a1.03 1.03 0 0 0 .492-.141c.172-.102.293-.207.363-.316l.094-.164.105-.211.094-.187c.031-.055.047-.09.047-.105v-1.547l-.07-.164h-.105c-.047-.008-.082-.012-.105-.012-.211 0-.406.055-.586.164-.18.101-.355.215-.527.34a1.8 1.8 0 0 0-.164.117l-.211.152-.176.152c-.047.039-.074.059-.082.059-.008.008-.027.031-.059.07l-.105.141-.094.152-.082.129a.25.25 0 0 0-.047.082c-.008.039-.012.066-.012.082-.016.008-.039.027-.07.059l-.082.105a1.22 1.22 0 0 0-.07.105c-.024.031-.039.055-.047.07v.105zm2.496 1.734a.37.37 0 0 0-.199.059 1.47 1.47 0 0 0-.187.141l-.164.176c-.047.055-.094.102-.141.141-.008 0-.031.008-.07.023s-.074.035-.105.059a2.84 2.84 0 0 0-.41.199l-.399.211a3.38 3.38 0 0 1-.422.164 1.36 1.36 0 0 1-.434.07h-.363c-.016-.016-.059-.031-.129-.047-.062-.023-.102-.043-.117-.059h-.07l-.129-.023-.141-.023c-.039-.008-.062-.02-.07-.035l-.187-.035-.152-.023c-.094-.062-.195-.168-.305-.316a3.75 3.75 0 0 1-.305-.492c-.094-.18-.176-.359-.246-.539-.062-.18-.094-.332-.094-.457a1.53 1.53 0 0 1 .094-.527 3.26 3.26 0 0 0 .141-.504c.234-.352.465-.656.691-.914s.52-.492.879-.703c0-.008.02-.02.059-.035.039-.023.078-.043.117-.059l.129-.059.094-.035c.078-.039.16-.09.246-.152l.258-.199a2.1 2.1 0 0 1 .246-.176.66.66 0 0 1 .211-.105c.016-.008.055-.016.117-.023l.211-.023.211-.023a.79.79 0 0 0 .129-.023c.008 0 .043-.027.106-.082s.101-.082.117-.082c.024-.008.082-.035.176-.082l.316-.152.305-.152.188-.105c.078-.047.141-.113.188-.199s.078-.176.094-.269c.023-.094.035-.187.035-.281l.012-.258a3.21 3.21 0 0 0-.152-1.02c-.094-.305-.266-.605-.516-.902-.016-.039-.059-.086-.129-.141-.062-.055-.102-.082-.117-.082h-.703a1.76 1.76 0 0 1-.328.234c-.125.063-.211.145-.258.246l-.293.551c-.094.195-.16.391-.199.586-.023.024-.07.063-.141.117l-.223.141-.211.141-.152.082c-.008 0-.031.004-.07.012h-.141c-.047 0-.098.004-.152.012h-.129-.094a.93.93 0 0 0-.152-.012h-.152c-.047-.008-.082-.012-.105-.012l-.246-.164-.234-.211c-.07-.078-.129-.16-.176-.246-.047-.094-.07-.195-.07-.305 0-.117.012-.219.035-.305.031-.086.066-.168.105-.246.047-.078.102-.152.164-.223l.199-.246.141-.211c.039-.062.102-.125.188-.187.047-.039.09-.062.129-.07.039-.016.078-.023.117-.023l.141-.023a1.21 1.21 0 0 0 .176-.047c.031-.008.102-.039.211-.094l.351-.187.363-.187.211-.117c.016-.008.047-.012.094-.012l.141-.023c.055-.008.105-.012.152-.012l.094-.012a3.86 3.86 0 0 0 .621-.211 1.52 1.52 0 0 1 .645-.141h.141l1.043.223a2.69 2.69 0 0 1 .984.445l.105.105c.055.039.105.086.152.141l.141.152c.039.039.063.07.07.094.008.008.016.035.023.082a.87.87 0 0 1 .035.152.93.93 0 0 1 .012.152l.012.082c0 .023.012.07.035.141l.094.234.082.234c.031.07.047.117.047.141v.199l.012.469.023.551.023.457v.059.047c-.016.023-.027.047-.035.07-.016.047-.024.078-.024.094-.016.016-.035.059-.059.129l-.023.105c-.008.023-.016.098-.023.223l-.023.387-.023.387-.012.223a.37.37 0 0 1-.047.129l-.047.117-.047.375-.023.305-.012.305v.351.609l.082.211.094.199a.56.56 0 0 0 .258.293 2.11 2.11 0 0 0 .41.129l.469.058c.156.016.301.043.434.082.133.031.242.09.328.176s.129.211.129.375c0 .125-.062.273-.187.445-.117.172-.262.336-.434.492a3.2 3.2 0 0 1-.539.398c-.187.109-.348.164-.48.164h-.223c-.016 0-.062-.016-.141-.047l-.117-.035a.89.89 0 0 0-.152-.023l-.258-.023a2.61 2.61 0 0 1-.258-.012.89.89 0 0 1-.152-.023c-.125-.047-.258-.137-.398-.27l-.422-.422a4.38 4.38 0 0 0-.399-.375c-.125-.117-.238-.176-.34-.176zm5.484 6.07c0-.398.07-.695.211-.891s.406-.293.797-.293h.188c.07 0 .145.004.223.012a.57.57 0 0 1 .223.07l.199.129.164.105c.055.031.113.055.176.07a1.27 1.27 0 0 0 .27.023c.078 0 .164-.023.258-.07a1.31 1.31 0 0 0 .281-.176 1.26 1.26 0 0 0 .223-.234.83.83 0 0 0 .129-.246c.008-.016.012-.055.012-.117l.023-.211a1.91 1.91 0 0 0 .012-.211l.012-.129c.023-.024.043-.066.059-.129l.023-.094.129-.129.141-.117.07-.117.094-.164a1.63 1.63 0 0 0 .105-.141c.031-.039.047-.062.047-.07v-.316c0-.023.008-.09.023-.199l.047-.34.047-.352.023-.187.047-.082a.85.85 0 0 0-.059-.328c-.039-.102-.09-.195-.152-.281a2.64 2.64 0 0 0-.187-.258c-.07-.086-.133-.176-.187-.27-.016-.016-.035-.055-.059-.117-.016-.063-.023-.105-.023-.129a1.62 1.62 0 0 1-.035-.152l-.059-.258a2.12 2.12 0 0 0-.059-.258l-.035-.141a1.87 1.87 0 0 0-.293-.527 2.77 2.77 0 0 1-.328-.539c-.016-.016-.035-.066-.059-.152-.016-.094-.031-.145-.047-.152-.055-.219-.133-.406-.234-.562l-.316-.492-.07-.105-.082-.152-.07-.152-.035-.105a.36.36 0 0 0-.012-.059c0-.031-.004-.062-.012-.094a.26.26 0 0 0-.035-.094c-.008-.031-.016-.051-.023-.059-.008-.016-.027-.047-.059-.094-.031-.055-.066-.109-.105-.164l-.105-.152-.059-.094-.164-.281-.082-.246-.059-.234a1.39 1.39 0 0 0-.094-.293 1.75 1.75 0 0 0-.187-.363 2.78 2.78 0 0 0-.211-.316l-.234-.305-.27-.328-.082-.164-.07-.164c-.07-.094-.16-.176-.27-.246l-.305-.223c-.094-.078-.176-.16-.246-.246a.6.6 0 0 1-.094-.34l.012-.34c.016-.102.066-.203.152-.305h.539a2.75 2.75 0 0 1 .516.047 3.74 3.74 0 0 0 .527.035l.938-.035.926-.047a1.91 1.91 0 0 1 .352.035c.125.023.238.063.34.117a.65.65 0 0 1 .27.211.5.5 0 0 1 .105.328c0 .156-.02.258-.059.305-.031.039-.078.059-.141.059h-.199-.094c-.031 0-.062.004-.094.012-.094.024-.172.094-.234.211-.055.117-.098.246-.129.387-.023.133-.039.266-.047.398l-.012.27c0 .086.008.141.023.164a1.27 1.27 0 0 1 .082.199 1.5 1.5 0 0 0 .047.164l.07.199a1.46 1.46 0 0 1 .07.188l.035.094a.5.5 0 0 0 .035.117l.094.211.105.234c.039.078.066.141.082.188.023.016.043.043.059.082.008.023.016.043.023.059a2.32 2.32 0 0 1 .094.105 1.99 1.99 0 0 1 .164.188l.164.176.082.106c.023.039.059.117.105.234a4.17 4.17 0 0 1 .152.375c.055.125.102.25.141.375l.094.246a.88.88 0 0 0 .188.164c.07.039.156.059.258.059.172 0 .336-.031.492-.094a2.75 2.75 0 0 0 .457-.223l.047-.176.094-.293.105-.305c.031-.094.059-.16.082-.199a.49.49 0 0 1 .023-.082l.07-.152.082-.152a.45.45 0 0 1 .047-.082c.008-.016.02-.047.035-.094a1.38 1.38 0 0 1 .059-.164l.059-.164c.016-.047.027-.074.035-.082.016-.055.055-.121.117-.199.07-.086.105-.172.105-.258a.44.44 0 0 0-.047-.199c-.023-.062-.035-.129-.035-.199a2.38 2.38 0 0 1 .082-.621c.063-.211.094-.422.094-.633 0-.141-.02-.234-.059-.281-.031-.055-.078-.09-.141-.105-.055-.016-.121-.027-.199-.035a.57.57 0 0 1-.246-.094c-.016 0-.043-.012-.082-.035l-.117-.082c-.039-.039-.082-.074-.129-.105-.039-.031-.066-.059-.082-.082l-.234-.223c-.07-.078-.105-.172-.105-.281a.3.3 0 0 1 .105-.234.7.7 0 0 1 .246-.141 1.47 1.47 0 0 1 .305-.082c.102-.016.18-.023.234-.023l.34-.012.598-.023.598-.035.352-.012c.008 0 .031-.004.07-.012s.078-.012.117-.012l.129-.023.094-.012a3.39 3.39 0 0 0 .164-.023l.234-.024c.055 0 .129.008.223.024l.188.023h.281a2.07 2.07 0 0 1 .316.024c.102.016.207.055.316.117 0 .008.004.016.012.023.008 0 .016.008.023.023s.016.027.023.035v.586l-.023.023-.035.035a.79.79 0 0 1-.129.094l-.176.129-.176.117a.55.55 0 0 1-.117.07c-.016.016-.035.027-.059.035-.039.024-.07.035-.094.035l-.41.176a1.07 1.07 0 0 0-.328.234l-.187.211-.211.234c-.086.086-.168.18-.246.281-.016.023-.031.074-.047.152l-.047.258-.047.27c-.008.078-.016.125-.023.141l-.094.176-.082.164c0 .008-.004.031-.012.07l-.023.129-.023.141-.012.07a1.27 1.27 0 0 1-.199.363 1.27 1.27 0 0 0-.199.363l-.363.867a7.37 7.37 0 0 0-.305.855c0 .016-.016.07-.047.164-.023.086-.035.141-.035.164-.008.016-.02.07-.035.164l-.047.316-.047.316-.012.176c-.055.227-.137.457-.246.691a4.91 4.91 0 0 0-.27.68l-.105.469c-.024.164-.062.305-.117.422-.008.016-.027.047-.059.094a1.08 1.08 0 0 1-.082.117l-.07.129-.047.07c-.094.164-.164.336-.211.516l-.117.563v.141l-.047.094a1.6 1.6 0 0 1-.082.164l-.07.164-.023.082a.5.5 0 0 0-.047.07l-.059.152-.047.164a.53.53 0 0 0-.023.105 1.06 1.06 0 0 0-.129.105l-.141.117a.99.99 0 0 1-.012.106c0 .063-.004.125-.012.188l-.023.188c0 .055-.004.09-.012.105l-.117.504c-.047.188-.125.348-.234.48l-.527.574c-.18.203-.375.387-.586.551s-.437.297-.68.398c-.242.109-.5.164-.773.164a1.52 1.52 0 0 1-.75-.176c-.203-.109-.395-.266-.574-.469-.024-.023-.051-.059-.082-.105s-.066-.094-.105-.141a1.28 1.28 0 0 0-.094-.105c-.023-.031-.035-.051-.035-.059v-.117zm20.262-4.934c-.164 0-.332.02-.504.059a2.75 2.75 0 0 1-.492.047 5.02 5.02 0 0 1-1.031-.105c-.328-.07-.66-.117-.996-.141-.07-.078-.106-.164-.106-.258 0-.016.004-.031.012-.047 0-.008.004-.02.012-.035.039-.07.109-.141.211-.211l.269-.199c.016 0 .043-.008.082-.023.039-.023.066-.035.082-.035l.316-.117a3.21 3.21 0 0 0 .328-.152 1.02 1.02 0 0 0 .258-.223c.078-.086.129-.191.152-.316l.07-.562.012-.551a2.94 2.94 0 0 0-.047-.527c-.023-.172-.035-.348-.035-.527v-.211c0-.008.008-.035.023-.082s.035-.094.059-.141l.059-.152.023-.082c.008-.125-.02-.242-.082-.352a.8.8 0 0 1-.082-.34c0-.32.031-.625.094-.914s.094-.594.094-.914a1.59 1.59 0 0 0-.012-.164v-.223a1.34 1.34 0 0 0-.012-.187v-.094a2.43 2.43 0 0 0-.012-.211l-.023-.258-.023-.223c-.008-.07-.016-.109-.023-.117l-.082-.059a1.65 1.65 0 0 0-.211-.059c-.094-.031-.199-.059-.316-.082l-.328-.07c-.102-.023-.168-.043-.199-.059-.062-.024-.145-.047-.246-.07a1.82 1.82 0 0 1-.293-.094c-.094-.047-.176-.098-.246-.152s-.106-.125-.106-.211a.88.88 0 0 1 .152-.457c.109-.172.242-.277.398-.316.102-.031.242-.051.422-.059l.633-.012.738.012.773.023.715.024.551.012c.023 0 .086-.004.188-.012l.328-.012.328-.023.223-.012h.07a.61.61 0 0 1 .469.223c.133.141.199.289.199.445 0 .07-.023.137-.07.199a.7.7 0 0 1-.152.152c-.055.047-.117.09-.187.129l-.176.07c-.039 0-.121-.004-.246-.012l-.352-.012h-.141c-.039 0-.066.008-.082.023a1.35 1.35 0 0 0-.223.082c-.078.039-.156.09-.234.152-.07.055-.133.121-.187.199s-.082.156-.082.234v.059c.008.023.019.047.035.07l.047.07a.43.43 0 0 1 .023.105l.023.188.023.211a.87.87 0 0 0 .035.176v.012a.97.97 0 0 1-.059.328 1.23 1.23 0 0 0-.047.34c0 .164.016.32.047.469.039.149.059.305.059.469v.223a.96.96 0 0 0-.07.188l-.082.316-.07.316-.047.176v.539l-.012.246-.035.328-.023.316-.012.188c0 .016-.012.055-.035.117a.53.53 0 0 0-.023.105c-.016.016-.027.043-.035.082v.105.082c.008.039.019.059.035.059a3.27 3.27 0 0 0 .012.211l.047.328.047.328.035.211c.094.156.195.274.305.352a1.61 1.61 0 0 0 .375.164c.133.039.27.07.41.094a2.63 2.63 0 0 1 .457.117c.016 0 .055.027.117.082s.102.082.117.082a.64.64 0 0 0 .176.023.75.75 0 0 1 .188 0c.063.008.113.027.152.059s.059.09.059.176a.28.28 0 0 1-.07.188.7.7 0 0 1-.152.152 1.02 1.02 0 0 1-.199.117l-.152.094h-.504a4.42 4.42 0 0 1-.726-.059L69.664 34c-.031-.016-.094-.031-.187-.047-.086-.023-.137-.043-.152-.059h-.141z" fill="#443038"/></g><defs><clipPath id="A"><path fill="#fff" d="M0 0h375v400H0z"/></clipPath></defs></svg>