<svg xmlns="http://www.w3.org/2000/svg" width="375" height="400" fill="none" xmlns:v="https://vecta.io/nano"><g clip-path="url(#A)"><path fill="#fdfffa" d="M0 0h375v400H0z"/><g clip-path="url(#B)"><path fill="#fd7d94" d="M-73.223 117.654L254.199-65.158l194.024 347.503-327.421 182.812z"/><g clip-path="url(#C)"><path fill="#fdfffa" d="M-49.087 198.053L174.195-36.222l249.893 238.168-223.282 234.275z"/><path fill="#443038" d="M-14.839 287.364L87.277 3.713l302.562 108.924-102.116 283.651z"/><path d="M137.615 40.399l-2.877 8.24-.997-.348 2.511-7.194-.049-.017-2.478.634.354-1.014 2.538-.649.998.348zm2.141 10.118c-.606-.212-1.064-.557-1.376-1.035s-.468-1.077-.473-1.786.15-1.515.462-2.411c.311-.89.689-1.612 1.134-2.163s.945-.922 1.488-1.106 1.119-.173 1.72.036 1.056.557 1.366 1.041.471 1.079.476 1.791-.144 1.51-.455 2.401c-.312.896-.692 1.621-1.138 2.175s-.939.919-1.482 1.103-1.115.166-1.722-.046zm.309-.885c.601.21 1.169.083 1.704-.38s.989-1.231 1.364-2.304c.249-.714.384-1.348.407-1.903s-.059-1.012-.252-1.374-.483-.611-.88-.75c-.596-.208-1.163-.077-1.704.394s-.996 1.237-1.369 2.307c-.249.713-.386 1.346-.41 1.897s.06 1.006.251 1.365a1.55 1.55 0 0 0 .889.748zm6.773 3.357c-.607-.212-1.065-.557-1.377-1.035s-.468-1.077-.473-1.786.15-1.515.462-2.411c.311-.891.689-1.612 1.134-2.163s.945-.922 1.488-1.106 1.119-.173 1.72.036 1.056.557 1.366 1.041.471 1.079.476 1.791-.144 1.51-.455 2.401c-.312.896-.692 1.621-1.138 2.175s-.939.919-1.482 1.103-1.115.166-1.721-.046zm.308-.885c.601.21 1.169.083 1.704-.38s.989-1.231 1.364-2.304c.249-.713.385-1.348.407-1.903s-.059-1.012-.252-1.374-.483-.611-.88-.75c-.596-.208-1.163-.077-1.704.394s-.996 1.237-1.369 2.307c-.249.714-.386 1.346-.41 1.897s.06 1.006.251 1.365a1.55 1.55 0 0 0 .889.748zm9.998 4.356l-2.542-.888 2.876-8.24 2.655.927c.799.279 1.426.683 1.879 1.211a3.43 3.43 0 0 1 .815 1.869c.09.717-.015 1.502-.312 2.355-.3.858-.711 1.544-1.233 2.057a3.46 3.46 0 0 1-1.833.958c-.699.126-1.468.043-2.305-.249zm-1.236-1.424l1.481.517c.681.238 1.292.303 1.831.197a2.57 2.57 0 0 0 1.394-.773c.389-.409.701-.948.935-1.619.232-.665.324-1.276.274-1.832s-.244-1.042-.586-1.45-.834-.729-1.477-.953l-1.594-.556-2.258 6.469zm8.476 4.114a2.66 2.66 0 0 1-.989-.593 1.93 1.93 0 0 1-.534-.913c-.089-.35-.063-.726.078-1.128.123-.354.293-.617.509-.788a1.57 1.57 0 0 1 .742-.328c.278-.045.568-.049.871-.012l.91.146.952.21c.245.056.432.071.561.047s.224-.111.277-.264l.011-.032c.139-.397.138-.743-.003-1.039s-.425-.519-.862-.671c-.453-.158-.843-.183-1.17-.075s-.582.257-.765.446l-.789-.636c.292-.319.609-.537.95-.652s.691-.162 1.039-.134.684.094.995.203c.198.069.418.173.659.311s.461.319.652.548.32.519.379.868.003.768-.169 1.259l-1.421 4.072-.95-.331.293-.837-.049-.017c-.111.112-.268.218-.472.318s-.449.161-.736.181-.61-.032-.969-.158zm.443-.802c.375.131.717.168 1.026.11s.574-.179.787-.366a1.54 1.54 0 0 0 .458-.666l.304-.869c-.057.034-.161.048-.312.04a4.75 4.75 0 0 1-.502-.062l-.536-.106-.415-.091c-.258-.054-.507-.082-.747-.085s-.445.042-.626.138-.308.262-.393.504c-.115.33-.08.622.105.876s.472.445.851.577zm3.754 4.705c-.161-.056-.299-.12-.416-.191a1.19 1.19 0 0 1-.236-.164l.533-.753c.21.139.407.232.589.278s.367.021.554-.073.395-.273.619-.547l.346-.421-.117-7.01 1.03.359-.013 5.52.064.022 3.425-4.329 1.03.359-5.095 6.165c-.229.278-.468.491-.715.64a1.74 1.74 0 0 1-.772.259c-.263.022-.539-.017-.826-.117zm12.556-3.597l-.938-.056a1.7 1.7 0 0 0-.092-.497c-.054-.172-.155-.334-.301-.484s-.357-.274-.633-.37c-.379-.132-.724-.155-1.037-.069s-.511.26-.603.525c-.083.236-.062.452.062.649s.352.404.685.623l.839.545c.506.327.846.676 1.02 1.047s.188.768.037 1.2a1.66 1.66 0 0 1-.637.843c-.298.209-.657.33-1.075.365s-.867-.032-1.348-.2c-.63-.22-1.104-.539-1.421-.957s-.44-.909-.366-1.473l.979.089c-.03.363.045.669.226.918s.469.444.858.579c.443.154.827.183 1.153.086s.54-.281.633-.546c.075-.215.062-.42-.037-.618s-.291-.39-.577-.571l-.946-.601c-.519-.332-.862-.685-1.029-1.059s-.171-.777-.023-1.204c.122-.349.328-.623.617-.823s.635-.315 1.029-.349.813.026 1.247.178c.612.213 1.045.515 1.3.905s.384.832.378 1.323zm5.52 7.451c-.558-.195-1.001-.498-1.33-.911a2.86 2.86 0 0 1-.592-1.457c-.067-.559.011-1.158.234-1.796.224-.644.537-1.165.938-1.564s.861-.656 1.372-.776 1.05-.081 1.608.114.999.498 1.325.91.526.899.592 1.461-.01 1.166-.235 1.809c-.223.638-.535 1.155-.938 1.55s-.857.653-1.371.772-1.045.082-1.603-.113zm.297-.853c.424.148.811.161 1.16.039s.652-.337.907-.645.454-.669.599-1.082.212-.821.206-1.224a2.06 2.06 0 0 0-.306-1.077c-.197-.316-.507-.547-.931-.695s-.811-.16-1.161-.035a2.06 2.06 0 0 0-.91.653c-.256.311-.456.673-.6 1.086s-.212.82-.204 1.219.11.756.308 1.069.509.543.932.691zm8.906-3.012l-.281.805-3.331-1.163.281-.805 3.331 1.163zm-4.49 5.365l2.454-7.033c.124-.354.31-.62.559-.798s.526-.28.833-.305a2.17 2.17 0 0 1 .903.117c.233.081.417.167.551.256s.232.162.294.22l-.56.725-.18-.131a1.3 1.3 0 0 0-.318-.151c-.314-.11-.568-.11-.763 0s-.341.319-.448.624l-2.376 6.807-.949-.331zm9.139 3.334c-.515-.18-.924-.468-1.228-.866s-.482-.878-.537-1.433.031-1.164.26-1.819c.226-.649.534-1.173.923-1.573s.828-.66 1.316-.782.992-.092 1.512.09c.402.141.697.318.883.534s.318.427.382.639l.151.513.08.028 1.062-3.042.949.331-2.876 8.24-.917-.32.331-.95-.112-.039c-.109.088-.258.196-.447.323s-.424.211-.71.262-.625.003-1.022-.136zm.426-.808c.381.133.738.146 1.07.039s.63-.317.89-.623.474-.697.636-1.164c.161-.461.235-.888.222-1.281s-.116-.736-.312-1.021-.485-.499-.871-.633c-.402-.141-.774-.154-1.114-.041s-.633.319-.89.624-.456.672-.607 1.106c-.154.44-.226.863-.218 1.269a2.09 2.09 0 0 0 .306 1.064c.195.303.491.524.888.662zm6.868 3.354c-.595-.208-1.063-.519-1.403-.932s-.539-.901-.606-1.457.014-1.153.235-1.786.531-1.151.93-1.553.86-.669 1.37-.795 1.05-.094 1.608.101c.322.112.621.277.897.494s.501.491.675.822.268.717.284 1.164-.078.96-.279 1.537l-.141.402-4.763-1.663.286-.821 3.798 1.326c.122-.349.161-.684.117-1.007s-.162-.606-.362-.853-.467-.429-.81-.549c-.378-.132-.738-.152-1.08-.061a1.96 1.96 0 0 0-.884.504 2.25 2.25 0 0 0-.556.88l-.191.547c-.163.467-.22.89-.173 1.271a1.84 1.84 0 0 0 .423.974 2.11 2.11 0 0 0 .923.602c.249.087.487.131.712.131.23-.001.443-.047.64-.138s.375-.233.53-.42l.827.578c-.205.277-.463.494-.773.651s-.655.238-1.036.252-.779-.055-1.198-.201zm10.1-1.999l-.938-.056a1.67 1.67 0 0 0-.092-.497 1.22 1.22 0 0 0-.301-.484c-.146-.15-.357-.274-.633-.37-.378-.132-.724-.155-1.037-.069s-.51.26-.603.525c-.083.236-.062.452.062.649s.353.404.685.623l.839.546c.506.327.846.676 1.02 1.047s.188.768.037 1.2a1.66 1.66 0 0 1-.637.843c-.298.209-.657.33-1.075.365s-.867-.032-1.348-.2c-.63-.22-1.104-.539-1.421-.957s-.44-.909-.366-1.473l.979.089c-.03.363.045.669.226.918s.47.444.858.58c.443.154.827.183 1.153.086s.54-.281.633-.546c.075-.215.062-.421-.037-.618s-.291-.39-.577-.571l-.946-.601c-.519-.332-.862-.685-1.029-1.059s-.171-.777-.022-1.204c.121-.349.327-.623.616-.823s.635-.315 1.029-.349.813.026 1.247.178c.612.213 1.045.515 1.3.905s.384.832.378 1.323zm-.132 5.334l2.157-6.18.949.331-2.157 6.18-.949-.331zm2.999-7.041c-.185-.065-.323-.183-.413-.356s-.1-.346-.038-.523a.64.64 0 0 1 .356-.386c.178-.079.359-.087.544-.022a.7.7 0 0 1 .409.355.64.64 0 0 1-.317.909.7.7 0 0 1-.541.023zm1.33 11.297c-.459-.16-.832-.357-1.121-.59s-.511-.479-.665-.747-.254-.525-.308-.785l.942-.267a6.11 6.11 0 0 0 .191.5c.08.193.215.383.405.57s.475.351.848.481c.499.174.953.197 1.362.069s.703-.45.882-.965l.439-1.255-.081-.028c-.109.088-.257.193-.444.315s-.416.202-.7.248-.621-.005-1.024-.145c-.498-.174-.905-.448-1.22-.823s-.504-.826-.578-1.357.007-1.117.231-1.761c.221-.633.525-1.145.911-1.537s.825-.651 1.312-.77.992-.092 1.512.09c.402.14.698.319.887.535s.323.429.39.642l.155.514.096.034.343-.982.917.32-2.219 6.357c-.185.531-.456.921-.814 1.169s-.763.385-1.222.399-.934-.059-1.427-.232zm1.153-3.407c.381.133.733.158 1.057.076a1.72 1.72 0 0 0 .862-.543c.251-.279.456-.647.615-1.103.156-.445.226-.862.21-1.249s-.12-.724-.316-1.008-.486-.495-.872-.63c-.402-.14-.773-.156-1.113-.045s-.632.315-.886.612-.449.655-.596 1.074c-.149.429-.215.832-.196 1.209a1.85 1.85 0 0 0 .334.983c.204.279.504.487.901.626zm6.357-.886l-1.297 3.718-.95-.331 2.157-6.18.918.32-.337.966.08.028c.254-.263.562-.439.924-.526s.777-.054 1.244.109c.418.146.754.36 1.008.641s.409.621.463 1.028-.01.869-.194 1.395l-1.37 3.927-.95-.331 1.348-3.862c.17-.486.176-.908.018-1.267s-.455-.619-.895-.773c-.303-.106-.597-.135-.881-.087s-.535.176-.76.38-.4.486-.526.846z" fill="#fdfffa"/></g></g><g fill="#fffa98"><path d="M277.247 356.218l-2.108-2.001-3.308-13.189 1.725-1.817 2.918 2.769-1.021 1.076 2.109 8.337.099.094 7.13-7.51 2.144 2.036-9.688 10.205zm7.993-3.963l-2.867-2.723-.887-.936-8.857-8.409 2.383-2.509 12.658 12.018-2.43 2.559zm-248.4-72.327l-4.477-4.271 12.047-12.63 4.514 4.306c1.27 1.212 2.123 2.508 2.557 3.888a7.07 7.07 0 0 1 .05 4.182c-.401 1.416-1.226 2.78-2.477 4.092s-2.582 2.209-3.982 2.68-2.797.524-4.204.147-2.746-1.171-4.029-2.394zm.376-4.012l1.696 1.618c.789.753 1.587 1.246 2.392 1.481.813.234 1.638.184 2.474-.149.844-.334 1.715-.971 2.613-1.913.89-.933 1.48-1.827 1.769-2.682s.304-1.673.032-2.466-.803-1.567-1.592-2.319l-1.702-1.624-7.682 8.054zm10.263 14.501c-.604-.576-1.043-1.195-1.316-1.856a3.55 3.55 0 0 1-.222-2.014c.129-.678.491-1.33 1.087-1.954.502-.527 1.02-.877 1.555-1.05s1.072-.21 1.613-.11a5.27 5.27 0 0 1 1.605.589c.533.297 1.056.646 1.568 1.048l1.485 1.11c.388.268.707.423.957.466s.471-.038.664-.239l.035-.037c.373-.391.537-.81.495-1.26s-.282-.881-.73-1.308c-.473-.451-.949-.705-1.428-.762s-.908.021-1.296.247l-2.242-2.515c.672-.458 1.389-.724 2.151-.798s1.542.042 2.329.361c.795.319 1.571.839 2.328 1.56a8.35 8.35 0 0 1 1.334 1.627 5.46 5.46 0 0 1 .742 1.803c.131.619.112 1.237-.059 1.852-.166.61-.518 1.197-1.056 1.761l-6.094 6.389-2.492-2.377 1.253-1.313-.074-.071c-.434.151-.887.218-1.358.201s-.94-.139-1.419-.352c-.475-.218-.947-.551-1.416-.998zm2.482-1.095c.387.368.8.618 1.241.748a2.51 2.51 0 0 0 1.297.036 2.25 2.25 0 0 0 1.106-.653l.959-1.006c-.133-.025-.293-.083-.48-.175l-.587-.336-.619-.413-.546-.391a4.49 4.49 0 0 0-1.014-.555c-.324-.121-.631-.158-.919-.111s-.544.188-.779.434c-.341.358-.472.755-.394 1.191.087.436.331.846.734 1.231zm2.956 12.725a7.21 7.21 0 0 1-.861-.975 4.7 4.7 0 0 1-.533-.873l2.463-1.397c.218.389.447.705.685.949s.514.395.812.445.653-.014 1.05-.2l.537-.254 5.896-12.985 2.763 2.635-4.674 8.828.099.094 8.615-5.069 2.781 2.653-13.694 6.985c-.663.341-1.327.556-1.992.644-.665.096-1.325.027-1.982-.207s-1.315-.654-1.965-1.273z"/></g></g><defs><clipPath id="A"><path fill="#fff" d="M0 0h375v400H0z"/></clipPath><clipPath id="B"><path fill="#fff" transform="matrix(.873124 -.487499 .487499 .873124 -73.2227 117.654)" d="M0 0h375v398H0z"/></clipPath><clipPath id="C"><path fill="#fff" transform="matrix(.68992 -.723885 .723885 .68992 -49.0869 198.053)" d="M0 0h323.635v345.211H0z"/></clipPath></defs></svg>