<svg xmlns="http://www.w3.org/2000/svg" width="375" height="400" fill="none" xmlns:v="https://vecta.io/nano"><g clip-path="url(#F)"><path fill="#fffa98" d="M0 0h375v400H0z"/><mask id="A" maskUnits="userSpaceOnUse" x="27.987" y="265.216" width="158.357" height="127.534" fill="#000"><path fill="#fff" d="M27.987 265.216h158.357V392.75H27.987z"/><path d="M62.599 381.852l-13.281 8.46-18.428-42.548 13.391-8.53c3.768-2.4 7.381-3.615 10.839-3.644 3.451-.042 6.596 1.056 9.433 3.296 2.849 2.232 5.231 5.557 7.144 9.975 1.92 4.432 2.831 8.711 2.735 12.836-.084 4.118-1.129 7.903-3.135 11.354-1.994 3.444-4.893 6.378-8.699 8.801zm-8.698-4.293l5.031-3.205c2.342-1.491 4.107-3.217 5.297-5.176 1.196-1.981 1.764-4.225 1.706-6.732-.053-2.529-.766-5.38-2.14-8.551-1.362-3.144-2.883-5.453-4.564-6.927-1.669-1.482-3.506-2.185-5.511-2.109s-4.179.859-6.521 2.351l-5.049 3.216 11.752 27.133zm41.023-15.528c-1.793 1.142-3.543 1.806-5.252 1.993-1.714.174-3.283-.179-4.706-1.058-1.417-.9-2.581-2.402-3.493-4.507-.768-1.773-1.126-3.445-1.075-5.015a10.64 10.64 0 0 1 1.082-4.4c.67-1.363 1.552-2.632 2.646-3.806 1.106-1.182 2.322-2.292 3.646-3.33l3.717-3.057c.922-.817 1.534-1.542 1.835-2.176s.305-1.29.011-1.968l-.054-.125c-.57-1.316-1.377-2.101-2.42-2.355-1.031-.262-2.212.031-3.541.877-1.403.894-2.365 1.958-2.889 3.192-.529 1.221-.7 2.443-.513 3.667l-7.496 3.926c-.474-2.172-.48-4.306-.019-6.403.455-2.11 1.366-4.086 2.731-5.927 1.371-1.864 3.179-3.51 5.423-4.939 1.561-.994 3.145-1.738 4.752-2.232 1.619-.501 3.172-.669 4.66-.503 1.5.158 2.87.717 4.11 1.676 1.234.946 2.263 2.367 3.084 4.265l9.322 21.523-7.39 4.708-1.917-4.425-.219.139c-.02 1.285-.242 2.549-.669 3.792-.432 1.23-1.085 2.397-1.96 3.503-.881 1.091-2.017 2.079-3.407 2.965zm-.414-7.53c1.146-.73 2.048-1.631 2.704-2.703.65-1.085 1.033-2.23 1.149-3.435a6.97 6.97 0 0 0-.555-3.491l-1.467-3.386c-.166.335-.429.715-.79 1.139l-1.238 1.292-1.438 1.314-1.328 1.138c-.849.735-1.543 1.486-2.082 2.253s-.875 1.556-1.007 2.364c-.138.795-.027 1.608.333 2.439.522 1.205 1.305 1.881 2.349 2.029 1.05.126 2.173-.191 3.368-.953zm31.01 2.54c-.988.629-1.953 1.13-2.897 1.501-.926.378-1.726.614-2.401.708l-1.105-7.726c1.052-.264 1.95-.615 2.694-1.053a4.09 4.09 0 0 0 1.669-1.805c.369-.765.508-1.755.418-2.97l-.128-1.642-24.297-26.405 8.196-5.22 15.967 19.729.293-.186-4.278-27.175 8.25-5.256 4.394 42.317c.219 2.051.154 4.002-.197 5.851-.332 1.855-1.031 3.564-2.097 5.126-1.06 1.577-2.554 2.979-4.481 4.206zm32.04-35.676l-2.807-6.482 7.262-22.518 1.396-5.184c.348-1.494.517-2.847.506-4.06a9.13 9.13 0 0 0-.755-3.521c-.54-1.247-1.255-2.161-2.145-2.743-.896-.595-1.882-.86-2.958-.793-1.082.053-2.171.429-3.269 1.128-1.146.73-2.033 1.631-2.658 2.701a7.28 7.28 0 0 0-.995 3.523c-.038 1.278.238 2.596.825 3.954l-7.518 4.789c-1.206-2.784-1.698-5.555-1.476-8.311s1.09-5.333 2.604-7.729 3.577-4.425 6.186-6.088c2.684-1.709 5.253-2.656 7.709-2.842 2.462-.208 4.658.284 6.59 1.475s3.428 3.011 4.49 5.463c.696 1.606 1.102 3.371 1.219 5.293.129 1.915-.1 4.278-.686 7.091-.593 2.799-1.6 6.347-3.022 10.645l-2.833 9.572.126.291 15.732-10.022 3.185 7.355-26.708 17.013z"/></mask><g fill="#fd7d94"><path d="M62.599 381.852l-13.281 8.46-18.428-42.548 13.391-8.53c3.768-2.4 7.381-3.615 10.839-3.644 3.451-.042 6.596 1.056 9.433 3.296 2.849 2.232 5.231 5.557 7.144 9.975 1.92 4.432 2.831 8.711 2.735 12.836-.084 4.118-1.129 7.903-3.135 11.354-1.994 3.444-4.893 6.378-8.699 8.801zm-8.698-4.293l5.031-3.205c2.342-1.491 4.107-3.217 5.297-5.176 1.196-1.981 1.764-4.225 1.706-6.732-.053-2.529-.766-5.38-2.14-8.551-1.362-3.144-2.883-5.453-4.564-6.927-1.669-1.482-3.506-2.185-5.511-2.109s-4.179.859-6.521 2.351l-5.049 3.216 11.752 27.133zm41.023-15.528c-1.793 1.142-3.543 1.806-5.252 1.993-1.714.174-3.283-.179-4.706-1.058-1.417-.9-2.581-2.402-3.493-4.507-.768-1.773-1.126-3.445-1.075-5.015a10.64 10.64 0 0 1 1.082-4.4c.67-1.363 1.552-2.632 2.646-3.806 1.106-1.182 2.322-2.292 3.646-3.33l3.717-3.057c.922-.817 1.534-1.542 1.835-2.176s.305-1.29.011-1.968l-.054-.125c-.57-1.316-1.377-2.101-2.42-2.355-1.031-.262-2.212.031-3.541.877-1.403.894-2.365 1.958-2.889 3.192-.529 1.221-.7 2.443-.513 3.667l-7.496 3.926c-.474-2.172-.48-4.306-.019-6.403.455-2.11 1.366-4.086 2.731-5.927 1.371-1.864 3.179-3.51 5.423-4.939 1.561-.994 3.145-1.738 4.752-2.232 1.619-.501 3.172-.669 4.66-.503 1.5.158 2.87.717 4.11 1.676 1.234.946 2.263 2.367 3.084 4.265l9.322 21.523-7.39 4.708-1.917-4.425-.219.139c-.02 1.285-.242 2.549-.669 3.792-.432 1.23-1.085 2.397-1.96 3.503-.881 1.091-2.017 2.079-3.407 2.965zm-.414-7.53c1.146-.73 2.048-1.631 2.704-2.703.65-1.085 1.033-2.23 1.149-3.435a6.97 6.97 0 0 0-.555-3.491l-1.467-3.386c-.166.335-.429.715-.79 1.139l-1.238 1.292-1.438 1.314-1.328 1.138c-.849.735-1.543 1.486-2.082 2.253s-.875 1.556-1.007 2.364c-.138.795-.027 1.608.333 2.439.522 1.205 1.305 1.881 2.349 2.029 1.05.126 2.173-.191 3.368-.953zm31.01 2.54c-.988.629-1.953 1.13-2.897 1.501-.926.378-1.726.614-2.401.708l-1.105-7.726c1.052-.264 1.95-.615 2.694-1.053a4.09 4.09 0 0 0 1.669-1.805c.369-.765.508-1.755.418-2.97l-.128-1.642-24.297-26.405 8.196-5.22 15.967 19.729.293-.186-4.278-27.175 8.25-5.256 4.394 42.317c.219 2.051.154 4.002-.197 5.851-.332 1.855-1.031 3.564-2.097 5.126-1.06 1.577-2.554 2.979-4.481 4.206zm32.04-35.676l-2.807-6.482 7.262-22.518 1.396-5.184c.348-1.494.517-2.847.506-4.06a9.13 9.13 0 0 0-.755-3.521c-.54-1.247-1.255-2.161-2.145-2.743-.896-.595-1.882-.86-2.958-.793-1.082.053-2.171.429-3.269 1.128-1.146.73-2.033 1.631-2.658 2.701a7.28 7.28 0 0 0-.995 3.523c-.038 1.278.238 2.596.825 3.954l-7.518 4.789c-1.206-2.784-1.698-5.555-1.476-8.311s1.09-5.333 2.604-7.729 3.577-4.425 6.186-6.088c2.684-1.709 5.253-2.656 7.709-2.842 2.462-.208 4.658.284 6.59 1.475s3.428 3.011 4.49 5.463c.696 1.606 1.102 3.371 1.219 5.293.129 1.915-.1 4.278-.686 7.091-.593 2.799-1.6 6.347-3.022 10.645l-2.833 9.572.126.291 15.732-10.022 3.185 7.355-26.708 17.013z"/></g><path d="M62.599 381.852l-13.281 8.46-18.428-42.548 13.391-8.53c3.768-2.4 7.381-3.615 10.839-3.644 3.451-.042 6.596 1.056 9.433 3.296 2.849 2.232 5.231 5.557 7.144 9.975 1.92 4.432 2.831 8.711 2.735 12.836-.084 4.118-1.129 7.903-3.135 11.354-1.994 3.444-4.893 6.378-8.699 8.801zm-8.698-4.293l5.031-3.205c2.342-1.491 4.107-3.217 5.297-5.176 1.196-1.981 1.764-4.225 1.706-6.732-.053-2.529-.766-5.38-2.14-8.551-1.362-3.144-2.883-5.453-4.564-6.927-1.669-1.482-3.506-2.185-5.511-2.109s-4.179.859-6.521 2.351l-5.049 3.216 11.752 27.133zm41.023-15.528c-1.793 1.142-3.543 1.806-5.252 1.993-1.714.174-3.283-.179-4.706-1.058-1.417-.9-2.581-2.402-3.493-4.507-.768-1.773-1.126-3.445-1.075-5.015a10.64 10.64 0 0 1 1.082-4.4c.67-1.363 1.552-2.632 2.646-3.806 1.106-1.182 2.322-2.292 3.646-3.33l3.717-3.057c.922-.817 1.534-1.542 1.835-2.176s.305-1.29.011-1.968l-.054-.125c-.57-1.316-1.377-2.101-2.42-2.355-1.031-.262-2.212.031-3.541.877-1.403.894-2.365 1.958-2.889 3.192-.529 1.221-.7 2.443-.513 3.667l-7.496 3.926c-.474-2.172-.48-4.306-.019-6.403.455-2.11 1.366-4.086 2.731-5.927 1.371-1.864 3.179-3.51 5.423-4.939 1.561-.994 3.145-1.738 4.752-2.232 1.619-.501 3.172-.669 4.66-.503 1.5.158 2.87.717 4.11 1.676 1.234.946 2.263 2.367 3.084 4.265l9.322 21.523-7.39 4.708-1.917-4.425-.219.139c-.02 1.285-.242 2.549-.669 3.792-.432 1.23-1.085 2.397-1.96 3.503-.881 1.091-2.017 2.079-3.407 2.965zm-.414-7.53c1.146-.73 2.048-1.631 2.704-2.703.65-1.085 1.033-2.23 1.149-3.435a6.97 6.97 0 0 0-.555-3.491l-1.467-3.386c-.166.335-.429.715-.79 1.139l-1.238 1.292-1.438 1.314-1.328 1.138c-.849.735-1.543 1.486-2.082 2.253s-.875 1.556-1.007 2.364c-.138.795-.027 1.608.333 2.439.522 1.205 1.305 1.881 2.349 2.029 1.05.126 2.173-.191 3.368-.953zm31.01 2.54c-.988.629-1.953 1.13-2.897 1.501-.926.378-1.726.614-2.401.708l-1.105-7.726c1.052-.264 1.95-.615 2.694-1.053a4.09 4.09 0 0 0 1.669-1.805c.369-.765.508-1.755.418-2.97l-.128-1.642-24.297-26.405 8.196-5.22 15.967 19.729.293-.186-4.278-27.175 8.25-5.256 4.394 42.317c.219 2.051.154 4.002-.197 5.851-.332 1.855-1.031 3.564-2.097 5.126-1.06 1.577-2.554 2.979-4.481 4.206zm32.04-35.676l-2.807-6.482 7.262-22.518 1.396-5.184c.348-1.494.517-2.847.506-4.06a9.13 9.13 0 0 0-.755-3.521c-.54-1.247-1.255-2.161-2.145-2.743-.896-.595-1.882-.86-2.958-.793-1.082.053-2.171.429-3.269 1.128-1.146.73-2.033 1.631-2.658 2.701a7.28 7.28 0 0 0-.995 3.523c-.038 1.278.238 2.596.825 3.954l-7.518 4.789c-1.206-2.784-1.698-5.555-1.476-8.311s1.09-5.333 2.604-7.729 3.577-4.425 6.186-6.088c2.684-1.709 5.253-2.656 7.709-2.842 2.462-.208 4.658.284 6.59 1.475s3.428 3.011 4.49 5.463c.696 1.606 1.102 3.371 1.219 5.293.129 1.915-.1 4.278-.686 7.091-.593 2.799-1.6 6.347-3.022 10.645l-2.833 9.572.126.291 15.732-10.022 3.185 7.355-26.708 17.013z" stroke="#fd7d94" stroke-width="2" mask="url(#A)"/><g fill="#fdfffa"><path d="M0 0v400L375 65.924V0H0z"/><path d="M375 220L0 400H375V220Z"/></g><path d="M20.276 19.818V30h-.93v-9.207h-.06L16.9 22.379v-.964l2.406-1.596h.97zm6.254 10.321c-.716 0-1.327-.205-1.835-.616s-.892-1.012-1.163-1.795-.403-1.722-.403-2.819.134-2.03.403-2.809.661-1.38 1.168-1.795 1.12-.626 1.83-.626 1.317.209 1.825.626.9 1.013 1.168 1.795.408 1.715.408 2.809-.136 2.037-.408 2.819-.656 1.38-1.163 1.795-1.114.616-1.83.616zm0-.835c.785 0 1.399-.383 1.839-1.148s.661-1.851.661-3.246c0-.928-.101-1.72-.303-2.376s-.486-1.163-.86-1.511-.817-.522-1.337-.522c-.779 0-1.39.388-1.835 1.163s-.666 1.854-.666 3.246c0 .928.099 1.72.298 2.376s.489 1.157.86 1.501.822.517 1.342.517zm8.586.835c-.716 0-1.327-.205-1.835-.616s-.892-1.012-1.163-1.795-.403-1.722-.403-2.819.134-2.03.403-2.809.661-1.38 1.168-1.795 1.12-.626 1.83-.626 1.317.209 1.825.626.9 1.013 1.168 1.795.408 1.715.408 2.809-.136 2.037-.408 2.819-.656 1.38-1.163 1.795-1.114.616-1.83.616zm0-.835c.785 0 1.399-.383 1.84-1.148s.661-1.851.661-3.246c0-.928-.101-1.72-.303-2.376s-.486-1.163-.86-1.511-.817-.522-1.337-.522c-.779 0-1.39.388-1.835 1.163s-.666 1.854-.666 3.246c0 .928.099 1.72.298 2.376s.489 1.157.86 1.501.822.517 1.342.517zM47.679 30h-2.983V19.818h3.162c.971 0 1.801.202 2.491.607s1.223.984 1.591 1.74.552 1.662.552 2.719c0 1.067-.189 1.984-.567 2.749s-.921 1.347-1.641 1.755S48.7 30 47.679 30zm-2.053-.835h1.999c.875 0 1.608-.172 2.197-.517a3.23 3.23 0 0 0 1.327-1.477c.295-.64.443-1.402.443-2.287-.003-.878-.149-1.634-.437-2.267s-.709-1.119-1.273-1.457-1.253-.507-2.078-.507h-2.178v8.511zm11.068 1.009c-.461 0-.882-.09-1.263-.268a2.21 2.21 0 0 1-.91-.785c-.225-.345-.338-.762-.338-1.253 0-.378.071-.696.214-.955a1.74 1.74 0 0 1 .607-.636c.262-.166.572-.297.93-.393a8.64 8.64 0 0 1 1.183-.224l1.084-.139c.298-.04.525-.103.681-.189a.44.44 0 0 0 .234-.418v-.179c0-.52-.156-.93-.467-1.228s-.752-.452-1.332-.452c-.55 0-.999.121-1.347.363s-.587.527-.726.855l-.84-.303c.172-.418.411-.751.716-.999s.646-.433 1.024-.542.761-.169 1.148-.169a3.86 3.86 0 0 1 .91.114c.318.076.613.209.885.398s.492.446.661.781.254.752.254 1.263V30h-.885v-1.208h-.055c-.106.225-.264.444-.472.656s-.471.386-.785.522-.684.204-1.109.204zm.119-.81c.471 0 .878-.104 1.223-.313a2.15 2.15 0 0 0 .795-.83c.189-.348.283-.731.283-1.148v-1.104c-.066.063-.177.119-.333.169a4.6 4.6 0 0 1-.532.134l-.597.095-.537.07c-.431.053-.799.136-1.104.248s-.539.268-.701.467-.244.447-.244.756c0 .464.166.824.497 1.079s.747.378 1.248.378zm5.884 3.5a2.31 2.31 0 0 1-.492-.05c-.152-.033-.273-.07-.363-.109l.239-.781c.302.093.57.126.805.099a.99.99 0 0 0 .627-.318c.182-.186.345-.471.487-.855l.278-.776-2.809-7.711h.96l2.267 6.468h.07l2.267-6.468h.96l-3.232 8.845a3.22 3.22 0 0 1-.502.92c-.199.249-.429.433-.691.552s-.548.184-.87.184zm12.157-8.824l-.81.229a2.13 2.13 0 0 0-.338-.622c-.146-.186-.337-.333-.572-.442s-.52-.164-.865-.164c-.517 0-.941.123-1.273.368a1.13 1.13 0 0 0-.497.95c0 .328.113.595.338.8s.58.363 1.054.482l1.153.283c.64.156 1.119.403 1.437.741s.482.762.482 1.273c0 .431-.119.814-.358 1.148s-.572.598-.999.79-.916.283-1.477.283c-.746 0-1.361-.167-1.844-.502s-.794-.825-.93-1.462l.85-.209c.109.454.323.797.641 1.029s.744.348 1.268.348c.587 0 1.056-.131 1.407-.393s.527-.597.527-.994c0-.308-.103-.567-.308-.776s-.517-.368-.935-.467l-1.248-.298c-.663-.159-1.153-.411-1.472-.756s-.477-.772-.477-1.283a1.85 1.85 0 0 1 .343-1.109c.229-.322.544-.573.945-.756s.858-.273 1.372-.273c.699 0 1.258.159 1.675.477s.724.749.91 1.303zm8.953 6.12c-.66 0-1.243-.167-1.75-.502s-.898-.797-1.183-1.387-.428-1.278-.428-2.053c0-.782.142-1.47.428-2.063s.679-1.061 1.183-1.392 1.09-.502 1.75-.502 1.241.167 1.745.502.898.799 1.183 1.392.433 1.281.433 2.063c0 .776-.142 1.46-.428 2.053s-.681 1.052-1.188 1.387-1.085.502-1.745.502zm0-.81c.53 0 .979-.143 1.347-.428s.646-.665.835-1.139a4.13 4.13 0 0 0 .288-1.566c0-.57-.096-1.094-.288-1.571s-.467-.86-.835-1.148-.817-.433-1.347-.433-.976.144-1.347.433-.648.671-.84 1.148-.283 1.001-.283 1.571.094 1.092.283 1.566.472.853.84 1.139.817.428 1.347.428zm8.446-6.985v.771h-3.754v-.771h3.754zM89.672 30v-8.755c0-.411.095-.757.283-1.039a1.85 1.85 0 0 1 .751-.641 2.26 2.26 0 0 1 .979-.219c.232 0 .424.02.577.06s.278.073.368.109l-.258.776-.244-.07c-.096-.026-.217-.04-.363-.04-.385 0-.681.108-.89.323s-.313.524-.313.925L90.557 30h-.885zm11.451 0h-2.983V19.818h3.162c.971 0 1.802.202 2.491.607s1.223.984 1.591 1.74.552 1.662.552 2.719c0 1.067-.189 1.984-.567 2.749a3.98 3.98 0 0 1-1.641 1.755c-.715.408-1.584.611-2.605.611zm-2.053-.835h1.999c.875 0 1.607-.172 2.197-.517s1.033-.837 1.328-1.477.442-1.402.442-2.287c-.003-.878-.149-1.634-.438-2.267s-.709-1.119-1.272-1.457-1.253-.507-2.078-.507h-2.178v8.511zm12.023.994c-.713 0-1.329-.166-1.85-.497s-.923-.797-1.208-1.387-.422-1.276-.422-2.048.14-1.452.422-2.048.678-1.069 1.178-1.407 1.086-.512 1.745-.512c.415 0 .814.076 1.199.229s.729.38 1.034.691.551.698.73 1.168.269 1.021.269 1.66v.438h-5.966v-.78h5.061c0-.491-.099-.931-.298-1.322a2.32 2.32 0 0 0-.821-.935c-.348-.229-.75-.343-1.208-.343-.484 0-.909.129-1.277.388s-.657.6-.865 1.024-.31.888-.314 1.392v.467c0 .607.105 1.137.314 1.591s.512.8.899 1.049.847.373 1.378.373c.361 0 .677-.056.949-.169a2.03 2.03 0 0 0 .691-.452 2.01 2.01 0 0 0 .428-.631l.84.273c-.116.322-.307.618-.572.89s-.59.491-.984.656-.842.244-1.352.244zm10.178-6.12l-.811.229c-.079-.229-.192-.436-.338-.622s-.336-.333-.571-.442-.521-.164-.866-.164c-.517 0-.941.123-1.272.368s-.497.562-.497.95a1.03 1.03 0 0 0 .338.8c.228.202.58.363 1.054.482l1.153.283c.64.156 1.119.403 1.437.741s.482.762.482 1.273c0 .431-.119.814-.358 1.148s-.572.598-.999.79-.917.283-1.477.283c-.745 0-1.36-.167-1.844-.502s-.794-.825-.93-1.462l.85-.209c.11.454.323.797.642 1.029s.744.348 1.267.348c.587 0 1.056-.131 1.407-.393s.527-.597.527-.994a1.06 1.06 0 0 0-.308-.776c-.205-.212-.517-.368-.935-.467l-1.247-.298c-.663-.159-1.154-.411-1.472-.756s-.477-.772-.477-1.283c0-.421.114-.79.343-1.109s.543-.573.944-.756.859-.273 1.372-.273c.7 0 1.258.159 1.676.477s.724.749.91 1.303zM123.327 30v-7.636h.89V30h-.89zm.452-8.949c-.182 0-.338-.061-.467-.184a.61.61 0 0 1-.194-.452c0-.176.065-.325.194-.447s.285-.189.467-.189.338.063.467.189a.59.59 0 0 1 .194.447c0 .176-.064.326-.194.452s-.285.184-.467.184zm5.691 11.972c-.52 0-.976-.068-1.367-.204s-.721-.315-.989-.547-.477-.492-.627-.78l.726-.477c.11.192.255.381.438.567a2.19 2.19 0 0 0 .721.462c.298.123.664.184 1.098.184.676 0 1.222-.169 1.636-.507s.626-.863.626-1.576v-1.72h-.079c-.103.232-.25.464-.443.696s-.444.419-.755.572-.691.229-1.149.229a2.96 2.96 0 0 1-1.625-.453c-.471-.302-.842-.732-1.114-1.293s-.403-1.235-.403-2.014c0-.772.131-1.452.393-2.038s.635-1.044 1.109-1.372 1.025-.492 1.655-.492c.468 0 .855.083 1.164.249s.555.365.74.607.337.477.443.706h.089v-1.457h.865v7.835c0 .646-.137 1.178-.412 1.596s-.65.726-1.124.925-1.012.303-1.616.303zm-.059-3.913c.49 0 .909-.118 1.258-.353s.614-.58.8-1.024.278-.973.278-1.586c0-.597-.091-1.125-.273-1.586s-.448-.829-.796-1.094-.767-.403-1.267-.403c-.511 0-.942.138-1.293.413s-.616.646-.795 1.114-.269.983-.269 1.556c0 .583.091 1.099.274 1.546s.449.792.8 1.044.779.373 1.283.373zm6.439-3.883V30h-.885v-7.636h.86v1.198h.08c.179-.391.457-.704.835-.94s.852-.358 1.412-.358c.514 0 .964.108 1.352.323s.695.525.91.94.328.923.328 1.526V30h-.885v-4.892c0-.626-.175-1.122-.527-1.487s-.815-.547-1.402-.547c-.401 0-.757.086-1.069.259s-.558.421-.74.746-.269.704-.269 1.148z" fill="#443038"/><mask id="B" maskUnits="userSpaceOnUse" x="0" y="0" width="375" height="400" mask-type="alpha"><path d="M0 0v400L375 65.924V0H0z" fill="#fffa98"/></mask><g mask="url(#B)"><mask id="C" maskUnits="userSpaceOnUse" x="27.987" y="265.216" width="158.357" height="127.534" fill="#000"><path fill="#fff" d="M27.987 265.216h158.357V392.75H27.987z"/><path d="M62.599 381.852l-13.281 8.46-18.428-42.548 13.391-8.53c3.768-2.4 7.381-3.615 10.839-3.644 3.451-.042 6.596 1.056 9.433 3.296 2.849 2.232 5.231 5.557 7.144 9.975 1.92 4.432 2.831 8.711 2.735 12.836-.084 4.118-1.129 7.903-3.135 11.354-1.994 3.444-4.893 6.378-8.699 8.801zm-8.698-4.293l5.031-3.205c2.342-1.491 4.107-3.217 5.297-5.176 1.196-1.981 1.764-4.225 1.706-6.732-.053-2.529-.766-5.38-2.14-8.551-1.362-3.144-2.883-5.453-4.564-6.927-1.669-1.482-3.506-2.185-5.511-2.109s-4.179.859-6.521 2.351l-5.049 3.216 11.752 27.133zm41.023-15.528c-1.793 1.142-3.543 1.806-5.252 1.993-1.714.174-3.283-.179-4.706-1.058-1.417-.9-2.581-2.402-3.493-4.507-.768-1.773-1.126-3.445-1.075-5.015s.412-3.037 1.082-4.4 1.552-2.632 2.646-3.806c1.106-1.182 2.322-2.292 3.646-3.33l3.717-3.057c.922-.817 1.534-1.542 1.835-2.176s.305-1.29.011-1.968l-.054-.125c-.57-1.316-1.377-2.101-2.42-2.355-1.031-.262-2.212.031-3.541.877-1.403.894-2.365 1.958-2.889 3.192-.529 1.221-.7 2.443-.513 3.667l-7.496 3.926c-.474-2.172-.48-4.306-.019-6.403.455-2.11 1.366-4.086 2.731-5.927 1.371-1.864 3.179-3.51 5.423-4.939 1.561-.994 3.145-1.738 4.752-2.232 1.619-.501 3.172-.669 4.66-.503 1.5.158 2.87.717 4.11 1.676 1.234.946 2.263 2.367 3.084 4.265l9.322 21.523-7.39 4.708-1.917-4.425-.219.139c-.02 1.285-.242 2.549-.669 3.792-.432 1.23-1.085 2.397-1.96 3.503-.881 1.091-2.017 2.079-3.407 2.965zm-.414-7.53c1.146-.73 2.048-1.631 2.704-2.703.65-1.085 1.033-2.23 1.149-3.435a6.97 6.97 0 0 0-.555-3.491l-1.467-3.386c-.166.335-.429.715-.79 1.139-.355.403-.767.834-1.238 1.292l-1.438 1.314-1.328 1.138c-.849.735-1.543 1.486-2.082 2.253s-.875 1.556-1.007 2.364c-.138.795-.027 1.608.333 2.439.522 1.205 1.305 1.881 2.349 2.029 1.05.126 2.173-.191 3.368-.953zm31.01 2.54c-.988.629-1.953 1.13-2.897 1.501-.926.378-1.726.614-2.401.708l-1.105-7.726c1.052-.264 1.95-.615 2.694-1.053a4.09 4.09 0 0 0 1.669-1.805c.369-.765.508-1.755.418-2.97l-.128-1.642-24.297-26.405 8.196-5.22 15.967 19.729.293-.186-4.278-27.175 8.25-5.256 4.394 42.317c.219 2.051.154 4.002-.197 5.851-.332 1.855-1.031 3.564-2.097 5.126-1.06 1.577-2.554 2.979-4.481 4.206zm32.04-35.676l-2.807-6.482 7.262-22.518c.594-1.969 1.059-3.697 1.396-5.184.348-1.494.517-2.847.506-4.06a9.13 9.13 0 0 0-.755-3.521c-.54-1.247-1.255-2.161-2.145-2.743-.896-.595-1.882-.86-2.958-.793-1.082.053-2.171.429-3.269 1.128-1.146.73-2.033 1.631-2.658 2.701a7.28 7.28 0 0 0-.995 3.523c-.038 1.278.238 2.596.825 3.954l-7.518 4.789c-1.206-2.784-1.698-5.555-1.476-8.311s1.09-5.333 2.604-7.729 3.577-4.425 6.186-6.088c2.684-1.709 5.253-2.656 7.709-2.842 2.462-.208 4.658.284 6.59 1.475s3.428 3.011 4.49 5.463c.696 1.606 1.102 3.371 1.219 5.293.129 1.915-.1 4.278-.686 7.091-.593 2.799-1.6 6.347-3.022 10.645l-2.833 9.572.126.291 15.732-10.022 3.185 7.355-26.708 17.013z"/></mask><path d="M62.599 381.852l-13.281 8.46-18.428-42.548 13.391-8.53c3.768-2.4 7.381-3.615 10.839-3.644 3.451-.042 6.596 1.056 9.433 3.296 2.849 2.232 5.231 5.557 7.144 9.975 1.92 4.432 2.831 8.711 2.735 12.836-.084 4.118-1.129 7.903-3.135 11.354-1.994 3.444-4.893 6.378-8.699 8.801zm-8.698-4.293l5.031-3.205c2.342-1.491 4.107-3.217 5.297-5.176 1.196-1.981 1.764-4.225 1.706-6.732-.053-2.529-.766-5.38-2.14-8.551-1.362-3.144-2.883-5.453-4.564-6.927-1.669-1.482-3.506-2.185-5.511-2.109s-4.179.859-6.521 2.351l-5.049 3.216 11.752 27.133zm41.023-15.528c-1.793 1.142-3.543 1.806-5.252 1.993-1.714.174-3.283-.179-4.706-1.058-1.417-.9-2.581-2.402-3.493-4.507-.768-1.773-1.126-3.445-1.075-5.015s.412-3.037 1.082-4.4 1.552-2.632 2.646-3.806c1.106-1.182 2.322-2.292 3.646-3.33l3.717-3.057c.922-.817 1.534-1.542 1.835-2.176s.305-1.29.011-1.968l-.054-.125c-.57-1.316-1.377-2.101-2.42-2.355-1.031-.262-2.212.031-3.541.877-1.403.894-2.365 1.958-2.889 3.192-.529 1.221-.7 2.443-.513 3.667l-7.496 3.926c-.474-2.172-.48-4.306-.019-6.403.455-2.11 1.366-4.086 2.731-5.927 1.371-1.864 3.179-3.51 5.423-4.939 1.561-.994 3.145-1.738 4.752-2.232 1.619-.501 3.172-.669 4.66-.503 1.5.158 2.87.717 4.11 1.676 1.234.946 2.263 2.367 3.084 4.265l9.322 21.523-7.39 4.708-1.917-4.425-.219.139c-.02 1.285-.242 2.549-.669 3.792-.432 1.23-1.085 2.397-1.96 3.503-.881 1.091-2.017 2.079-3.407 2.965zm-.414-7.53c1.146-.73 2.048-1.631 2.704-2.703.65-1.085 1.033-2.23 1.149-3.435a6.97 6.97 0 0 0-.555-3.491l-1.467-3.386c-.166.335-.429.715-.79 1.139-.355.403-.767.834-1.238 1.292l-1.438 1.314-1.328 1.138c-.849.735-1.543 1.486-2.082 2.253s-.875 1.556-1.007 2.364c-.138.795-.027 1.608.333 2.439.522 1.205 1.305 1.881 2.349 2.029 1.05.126 2.173-.191 3.368-.953zm31.01 2.54c-.988.629-1.953 1.13-2.897 1.501-.926.378-1.726.614-2.401.708l-1.105-7.726c1.052-.264 1.95-.615 2.694-1.053a4.09 4.09 0 0 0 1.669-1.805c.369-.765.508-1.755.418-2.97l-.128-1.642-24.297-26.405 8.196-5.22 15.967 19.729.293-.186-4.278-27.175 8.25-5.256 4.394 42.317c.219 2.051.154 4.002-.197 5.851-.332 1.855-1.031 3.564-2.097 5.126-1.06 1.577-2.554 2.979-4.481 4.206zm32.04-35.676l-2.807-6.482 7.262-22.518c.594-1.969 1.059-3.697 1.396-5.184.348-1.494.517-2.847.506-4.06a9.13 9.13 0 0 0-.755-3.521c-.54-1.247-1.255-2.161-2.145-2.743-.896-.595-1.882-.86-2.958-.793-1.082.053-2.171.429-3.269 1.128-1.146.73-2.033 1.631-2.658 2.701a7.28 7.28 0 0 0-.995 3.523c-.038 1.278.238 2.596.825 3.954l-7.518 4.789c-1.206-2.784-1.698-5.555-1.476-8.311s1.09-5.333 2.604-7.729 3.577-4.425 6.186-6.088c2.684-1.709 5.253-2.656 7.709-2.842 2.462-.208 4.658.284 6.59 1.475s3.428 3.011 4.49 5.463c.696 1.606 1.102 3.371 1.219 5.293.129 1.915-.1 4.278-.686 7.091-.593 2.799-1.6 6.347-3.022 10.645l-2.833 9.572.126.291 15.732-10.022 3.185 7.355-26.708 17.013z" stroke="#fd7d94" stroke-width="2" mask="url(#C)"/></g><mask id="D" maskUnits="userSpaceOnUse" x="0" y="220" width="375" height="180" mask-type="alpha"><path d="M375 220L0 400H375V220Z" fill="#fffa98"/></mask><g mask="url(#D)"><mask id="E" maskUnits="userSpaceOnUse" x="27.987" y="265.216" width="158.357" height="127.534" fill="#000"><path fill="#fff" d="M27.987 265.216h158.357V392.75H27.987z"/><path d="M62.599 381.852l-13.281 8.46-18.428-42.548 13.391-8.53c3.768-2.4 7.381-3.615 10.839-3.644 3.451-.042 6.596 1.056 9.433 3.296 2.849 2.232 5.231 5.557 7.144 9.975 1.92 4.432 2.831 8.711 2.735 12.836-.084 4.118-1.129 7.903-3.135 11.354-1.994 3.444-4.893 6.378-8.699 8.801zm-8.698-4.293l5.031-3.205c2.342-1.491 4.107-3.217 5.297-5.176 1.196-1.981 1.764-4.225 1.706-6.732-.053-2.529-.766-5.38-2.14-8.551-1.362-3.144-2.883-5.453-4.564-6.927-1.669-1.482-3.506-2.185-5.511-2.109s-4.179.859-6.521 2.351l-5.049 3.216 11.752 27.133zm41.023-15.528c-1.793 1.142-3.543 1.806-5.252 1.993-1.714.174-3.283-.179-4.706-1.058-1.417-.9-2.581-2.402-3.493-4.507-.768-1.773-1.126-3.445-1.075-5.015s.412-3.037 1.082-4.4 1.552-2.632 2.646-3.806c1.106-1.182 2.322-2.292 3.646-3.33l3.717-3.057c.922-.817 1.534-1.542 1.835-2.176s.305-1.29.011-1.968l-.054-.125c-.57-1.316-1.377-2.101-2.42-2.355-1.031-.262-2.212.031-3.541.877-1.403.894-2.365 1.958-2.889 3.192-.529 1.221-.7 2.443-.513 3.667l-7.496 3.926c-.474-2.172-.48-4.306-.019-6.403.455-2.11 1.366-4.086 2.731-5.927 1.371-1.864 3.179-3.51 5.423-4.939 1.561-.994 3.145-1.738 4.752-2.232 1.619-.501 3.172-.669 4.66-.503 1.5.158 2.87.717 4.11 1.676 1.234.946 2.263 2.367 3.084 4.265l9.322 21.523-7.39 4.708-1.917-4.425-.219.139c-.02 1.285-.242 2.549-.669 3.792-.432 1.23-1.085 2.397-1.96 3.503-.881 1.091-2.017 2.079-3.407 2.965zm-.414-7.53c1.146-.73 2.048-1.631 2.704-2.703.65-1.085 1.033-2.23 1.149-3.435a6.97 6.97 0 0 0-.555-3.491l-1.467-3.386c-.166.335-.429.715-.79 1.139-.355.403-.767.834-1.238 1.292l-1.438 1.314-1.328 1.138c-.849.735-1.543 1.486-2.082 2.253s-.875 1.556-1.007 2.364c-.138.795-.027 1.608.333 2.439.522 1.205 1.305 1.881 2.349 2.029 1.05.126 2.173-.191 3.368-.953zm31.01 2.54c-.988.629-1.953 1.13-2.897 1.501-.926.378-1.726.614-2.401.708l-1.105-7.726c1.052-.264 1.95-.615 2.694-1.053a4.09 4.09 0 0 0 1.669-1.805c.369-.765.508-1.755.418-2.97l-.128-1.642-24.297-26.405 8.196-5.22 15.967 19.729.293-.186-4.278-27.175 8.25-5.256 4.394 42.317c.219 2.051.154 4.002-.197 5.851-.332 1.855-1.031 3.564-2.097 5.126-1.06 1.577-2.554 2.979-4.481 4.206zm32.04-35.676l-2.807-6.482 7.262-22.518c.594-1.969 1.059-3.697 1.396-5.184.348-1.494.517-2.847.506-4.06a9.13 9.13 0 0 0-.755-3.521c-.54-1.247-1.255-2.161-2.145-2.743-.896-.595-1.882-.86-2.958-.793-1.082.053-2.171.429-3.269 1.128-1.146.73-2.033 1.631-2.658 2.701a7.28 7.28 0 0 0-.995 3.523c-.038 1.278.238 2.596.825 3.954l-7.518 4.789c-1.206-2.784-1.698-5.555-1.476-8.311s1.09-5.333 2.604-7.729 3.577-4.425 6.186-6.088c2.684-1.709 5.253-2.656 7.709-2.842 2.462-.208 4.658.284 6.59 1.475s3.428 3.011 4.49 5.463c.696 1.606 1.102 3.371 1.219 5.293.129 1.915-.1 4.278-.686 7.091-.593 2.799-1.6 6.347-3.022 10.645l-2.833 9.572.126.291 15.732-10.022 3.185 7.355-26.708 17.013z"/></mask><path d="M62.599 381.852l-13.281 8.46-18.428-42.548 13.391-8.53c3.768-2.4 7.381-3.615 10.839-3.644 3.451-.042 6.596 1.056 9.433 3.296 2.849 2.232 5.231 5.557 7.144 9.975 1.92 4.432 2.831 8.711 2.735 12.836-.084 4.118-1.129 7.903-3.135 11.354-1.994 3.444-4.893 6.378-8.699 8.801zm-8.698-4.293l5.031-3.205c2.342-1.491 4.107-3.217 5.297-5.176 1.196-1.981 1.764-4.225 1.706-6.732-.053-2.529-.766-5.38-2.14-8.551-1.362-3.144-2.883-5.453-4.564-6.927-1.669-1.482-3.506-2.185-5.511-2.109s-4.179.859-6.521 2.351l-5.049 3.216 11.752 27.133zm41.023-15.528c-1.793 1.142-3.543 1.806-5.252 1.993-1.714.174-3.283-.179-4.706-1.058-1.417-.9-2.581-2.402-3.493-4.507-.768-1.773-1.126-3.445-1.075-5.015s.412-3.037 1.082-4.4 1.552-2.632 2.646-3.806c1.106-1.182 2.322-2.292 3.646-3.33l3.717-3.057c.922-.817 1.534-1.542 1.835-2.176s.305-1.29.011-1.968l-.054-.125c-.57-1.316-1.377-2.101-2.42-2.355-1.031-.262-2.212.031-3.541.877-1.403.894-2.365 1.958-2.889 3.192-.529 1.221-.7 2.443-.513 3.667l-7.496 3.926c-.474-2.172-.48-4.306-.019-6.403.455-2.11 1.366-4.086 2.731-5.927 1.371-1.864 3.179-3.51 5.423-4.939 1.561-.994 3.145-1.738 4.752-2.232 1.619-.501 3.172-.669 4.66-.503 1.5.158 2.87.717 4.11 1.676 1.234.946 2.263 2.367 3.084 4.265l9.322 21.523-7.39 4.708-1.917-4.425-.219.139c-.02 1.285-.242 2.549-.669 3.792-.432 1.23-1.085 2.397-1.96 3.503-.881 1.091-2.017 2.079-3.407 2.965zm-.414-7.53c1.146-.73 2.048-1.631 2.704-2.703.65-1.085 1.033-2.23 1.149-3.435a6.97 6.97 0 0 0-.555-3.491l-1.467-3.386c-.166.335-.429.715-.79 1.139-.355.403-.767.834-1.238 1.292l-1.438 1.314-1.328 1.138c-.849.735-1.543 1.486-2.082 2.253s-.875 1.556-1.007 2.364c-.138.795-.027 1.608.333 2.439.522 1.205 1.305 1.881 2.349 2.029 1.05.126 2.173-.191 3.368-.953zm31.01 2.54c-.988.629-1.953 1.13-2.897 1.501-.926.378-1.726.614-2.401.708l-1.105-7.726c1.052-.264 1.95-.615 2.694-1.053a4.09 4.09 0 0 0 1.669-1.805c.369-.765.508-1.755.418-2.97l-.128-1.642-24.297-26.405 8.196-5.22 15.967 19.729.293-.186-4.278-27.175 8.25-5.256 4.394 42.317c.219 2.051.154 4.002-.197 5.851-.332 1.855-1.031 3.564-2.097 5.126-1.06 1.577-2.554 2.979-4.481 4.206zm32.04-35.676l-2.807-6.482 7.262-22.518c.594-1.969 1.059-3.697 1.396-5.184.348-1.494.517-2.847.506-4.06a9.13 9.13 0 0 0-.755-3.521c-.54-1.247-1.255-2.161-2.145-2.743-.896-.595-1.882-.86-2.958-.793-1.082.053-2.171.429-3.269 1.128-1.146.73-2.033 1.631-2.658 2.701a7.28 7.28 0 0 0-.995 3.523c-.038 1.278.238 2.596.825 3.954l-7.518 4.789c-1.206-2.784-1.698-5.555-1.476-8.311s1.09-5.333 2.604-7.729 3.577-4.425 6.186-6.088c2.684-1.709 5.253-2.656 7.709-2.842 2.462-.208 4.658.284 6.59 1.475s3.428 3.011 4.49 5.463c.696 1.606 1.102 3.371 1.219 5.293.129 1.915-.1 4.278-.686 7.091-.593 2.799-1.6 6.347-3.022 10.645l-2.833 9.572.126.291 15.732-10.022 3.185 7.355-26.708 17.013z" stroke="#fd7d94" stroke-width="2" mask="url(#E)"/></g></g><defs><clipPath id="F"><path fill="#fff" d="M0 0h375v400H0z"/></clipPath></defs></svg>