<svg xmlns="http://www.w3.org/2000/svg" xmlns:xlink="http://www.w3.org/1999/xlink" width="376" height="449" fill="none" xmlns:v="https://vecta.io/nano"><path fill="#fdfffa" d="M0 0h375v400H0z"/><g fill="#0d0c0e"><path d="M265.704 198v-6.264l-1.26.204v-1.356l2.88-.432V198h-1.62zm6.24.312c-.848 0-1.528-.16-2.04-.48s-.884-.784-1.116-1.392c-.224-.616-.336-1.352-.336-2.208 0-.864.112-1.6.336-2.208.232-.608.604-1.072 1.116-1.392s1.192-.48 2.04-.48 1.528.16 2.04.48.88.784 1.104 1.392c.232.608.348 1.344.348 2.208 0 .856-.116 1.592-.348 2.208-.224.608-.592 1.072-1.104 1.392s-1.192.48-2.04.48zm0-1.392c.696 0 1.176-.232 1.44-.696.272-.464.408-1.128.408-1.992s-.136-1.528-.408-1.992c-.264-.464-.744-.696-1.44-.696s-1.18.232-1.452.696c-.264.464-.396 1.128-.396 1.992s.132 1.528.396 1.992c.272.464.756.696 1.452.696zm7.875 1.392c-.848 0-1.528-.16-2.04-.48s-.884-.784-1.116-1.392c-.224-.616-.336-1.352-.336-2.208 0-.864.112-1.6.336-2.208.232-.608.604-1.072 1.116-1.392s1.192-.48 2.04-.48 1.528.16 2.04.48.88.784 1.104 1.392c.232.608.348 1.344.348 2.208 0 .856-.116 1.592-.348 2.208-.224.608-.592 1.072-1.104 1.392s-1.192.48-2.04.48zm0-1.392c.696 0 1.176-.232 1.44-.696.272-.464.408-1.128.408-1.992s-.136-1.528-.408-1.992c-.264-.464-.744-.696-1.44-.696s-1.18.232-1.452.696c-.264.464-.396 1.128-.396 1.992s.132 1.528.396 1.992c.272.464.756.696 1.452.696zm7.26 1.08v-7.728h3.24c1.16 0 2.032.3 2.616.9.592.592.888 1.592.888 3 0 1.328-.292 2.3-.876 2.916-.576.608-1.452.912-2.628.912h-3.24zm1.62-1.248h1.392c.456 0 .84-.068 1.152-.204.312-.144.544-.4.696-.768.16-.376.24-.912.24-1.608s-.072-1.228-.216-1.596-.368-.62-.672-.756-.704-.204-1.2-.204h-1.392v5.136zm7.867 1.368a2.63 2.63 0 0 1-1.008-.192c-.304-.136-.552-.332-.744-.588-.184-.264-.276-.592-.276-.984 0-.56.196-1.008.588-1.344.4-.336.988-.504 1.764-.504h1.68v-.156c0-.352-.1-.6-.3-.744-.192-.144-.584-.216-1.176-.216a5.88 5.88 0 0 0-1.872.3v-1.14c.264-.104.584-.188.96-.252.384-.072.8-.108 1.248-.108.856 0 1.516.176 1.98.528.472.344.708.9.708 1.668V198h-1.404l-.084-.516a2.38 2.38 0 0 1-.828.468c-.328.112-.74.168-1.236.168zm.444-1.068c.36 0 .672-.06.936-.18s.472-.272.624-.456v-.9h-1.644c-.632 0-.948.26-.948.78 0 .504.344.756 1.032.756zm5.361 3.06a4.05 4.05 0 0 1-.66-.048 2.34 2.34 0 0 1-.564-.144v-1.14c.136.048.26.08.372.096a2.72 2.72 0 0 0 .36.024c.328 0 .58-.076.756-.228.184-.152.368-.408.552-.768l-2.544-5.592h1.692l1.668 3.864 1.656-3.864h1.68l-2.244 5.292c-.208.496-.436.932-.684 1.308-.24.384-.524.68-.852.888s-.724.312-1.188.312zm7.337-1.992c-.424 0-.828-.032-1.212-.096a4.52 4.52 0 0 1-.924-.216v-1.344c.28.112.596.2.948.264a6.22 6.22 0 0 0 .972.084c.4 0 .68-.024.84-.072.168-.048.252-.156.252-.324 0-.192-.128-.332-.384-.42l-1.116-.372c-.52-.176-.92-.388-1.2-.636s-.42-.616-.42-1.104c0-.544.196-.96.588-1.248.4-.296 1.04-.444 1.92-.444.352 0 .684.028.996.084.312.048.576.108.792.18v1.332a2.8 2.8 0 0 0-.744-.228c-.28-.056-.54-.084-.78-.084a3.82 3.82 0 0 0-.828.072c-.2.048-.3.152-.3.312 0 .176.108.3.324.372l1.032.324c.456.136.812.284 1.068.444s.436.352.54.576c.104.216.156.488.156.816 0 1.152-.84 1.728-2.52 1.728zm9.125 0c-1.064 0-1.844-.256-2.34-.768-.496-.52-.744-1.252-.744-2.196s.248-1.672.744-2.184c.504-.52 1.284-.78 2.34-.78 1.064 0 1.844.26 2.34.78.504.512.756 1.24.756 2.184s-.248 1.676-.744 2.196c-.496.512-1.28.768-2.352.768zm0-1.38c.52 0 .892-.116 1.116-.348.224-.24.336-.652.336-1.236s-.112-.992-.336-1.224c-.224-.24-.596-.36-1.116-.36-.512 0-.88.12-1.104.36-.224.232-.336.64-.336 1.224s.112.996.336 1.236c.224.232.592.348 1.104.348zm4.522 1.26v-4.44h-.792v-1.248h.792v-.576c0-.592.168-1.076.504-1.452s.832-.564 1.488-.564a3.77 3.77 0 0 1 .708.06 3.03 3.03 0 0 1 .576.168v1.116c-.12-.04-.236-.072-.348-.096a1.78 1.78 0 0 0-.372-.036c-.344 0-.588.064-.732.192-.136.12-.204.332-.204.636v.552h1.44l-.072 1.248h-1.368V198h-1.62zm6.79 0v-7.728h3.24c1.16 0 2.032.3 2.616.9.592.592.888 1.592.888 3 0 1.328-.292 2.3-.876 2.916-.576.608-1.452.912-2.628.912h-3.24zm1.62-1.248h1.392c.456 0 .84-.068 1.152-.204.312-.144.544-.4.696-.768.16-.376.24-.912.24-1.608s-.072-1.228-.216-1.596-.368-.62-.672-.756-.704-.204-1.2-.204h-1.392v5.136zm9.219 1.368c-.984 0-1.764-.244-2.34-.732-.576-.496-.864-1.244-.864-2.244 0-.904.24-1.62.72-2.148.488-.536 1.212-.804 2.172-.804.88 0 1.552.232 2.016.696.472.456.708 1.056.708 1.8v1.032h-4.116c.088.456.296.768.624.936.336.168.808.252 1.416.252.304 0 .612-.028.924-.084.32-.056.592-.128.816-.216v1.152c-.264.12-.572.208-.924.264a6.45 6.45 0 0 1-1.152.096zm-1.704-3.396h2.7v-.312c0-.328-.096-.584-.288-.768-.192-.192-.516-.288-.972-.288-.536 0-.912.108-1.128.324-.208.216-.312.564-.312 1.044zm7.189 3.396c-.424 0-.828-.032-1.212-.096a4.52 4.52 0 0 1-.924-.216v-1.344c.28.112.596.2.948.264a6.22 6.22 0 0 0 .972.084c.4 0 .68-.024.84-.072.168-.048.252-.156.252-.324 0-.192-.128-.332-.384-.42l-1.116-.372c-.52-.176-.92-.388-1.2-.636s-.42-.616-.42-1.104c0-.544.196-.96.588-1.248.4-.296 1.04-.444 1.92-.444.352 0 .684.028.996.084.312.048.576.108.792.18v1.332a2.8 2.8 0 0 0-.744-.228c-.28-.056-.54-.084-.78-.084a3.82 3.82 0 0 0-.828.072c-.2.048-.3.152-.3.312 0 .176.108.3.324.372l1.032.324c.456.136.812.284 1.068.444s.436.352.54.576c.104.216.156.488.156.816 0 1.152-.84 1.728-2.52 1.728zm4.041-6.852v-1.272h1.764v1.272h-1.764zm.132 6.732v-4.488h-.852l.144-1.2h2.328V198h-1.62zm5.399 2.112c-.424 0-.86-.028-1.308-.084-.44-.056-.812-.136-1.116-.24v-1.212c.32.104.696.184 1.128.24.432.064.836.096 1.212.096.552 0 .952-.032 1.2-.096.248-.056.372-.16.372-.312 0-.128-.056-.216-.168-.264-.104-.048-.328-.072-.672-.072h-1.548c-1.016 0-1.524-.376-1.524-1.128a1.12 1.12 0 0 1 .192-.636c.128-.192.332-.344.612-.456-.648-.328-.972-.88-.972-1.656 0-.736.228-1.268.684-1.596.456-.336 1.132-.504 2.028-.504.184 0 .384.016.6.048l.504.072h2.136l-.036 1.02h-.9c.248.232.372.556.372.972 0 .584-.184 1.052-.552 1.404-.368.344-.912.516-1.632.516-.128 0-.252-.004-.372-.012l-.348-.048c-.24.032-.444.088-.612.168-.16.08-.24.188-.24.324 0 .184.164.276.492.276h1.608c.576 0 1.02.132 1.332.396.312.256.468.632.468 1.128 0 .56-.252.976-.756 1.248s-1.232.408-2.184.408zm.132-4.8c.48 0 .812-.08.996-.24.192-.168.288-.448.288-.84s-.096-.676-.288-.852c-.184-.176-.516-.264-.996-.264-.456 0-.784.088-.984.264-.2.168-.3.452-.3.852 0 .368.092.64.276.816.192.176.528.264 1.008.264zm3.902 2.688v-5.688h1.5l.06.54c.232-.176.524-.328.876-.456.36-.136.736-.204 1.128-.204.752 0 1.3.176 1.644.528s.516.896.516 1.632V198h-1.62v-3.564c0-.384-.08-.656-.24-.816-.152-.16-.44-.24-.864-.24-.248 0-.5.056-.756.168-.248.112-.456.252-.624.42V198h-1.62zm-94.371 45v-6.264l-1.26.204v-1.356l2.88-.432V243h-1.62zm6.24.312c-.848 0-1.528-.16-2.04-.48s-.884-.784-1.116-1.392c-.224-.616-.336-1.352-.336-2.208 0-.864.112-1.6.336-2.208.232-.608.604-1.072 1.116-1.392s1.192-.48 2.04-.48 1.528.16 2.04.48.88.784 1.104 1.392c.232.608.348 1.344.348 2.208 0 .856-.116 1.592-.348 2.208-.224.608-.592 1.072-1.104 1.392s-1.192.48-2.04.48zm0-1.392c.696 0 1.176-.232 1.44-.696.272-.464.408-1.128.408-1.992s-.136-1.528-.408-1.992c-.264-.464-.744-.696-1.44-.696s-1.18.232-1.452.696c-.264.464-.396 1.128-.396 1.992s.132 1.528.396 1.992c.272.464.756.696 1.452.696zm7.875 1.392c-.848 0-1.528-.16-2.04-.48s-.884-.784-1.116-1.392c-.224-.616-.336-1.352-.336-2.208 0-.864.112-1.6.336-2.208.232-.608.604-1.072 1.116-1.392s1.192-.48 2.04-.48 1.528.16 2.04.48.88.784 1.104 1.392c.232.608.348 1.344.348 2.208 0 .856-.116 1.592-.348 2.208-.224.608-.592 1.072-1.104 1.392s-1.192.48-2.04.48zm0-1.392c.696 0 1.176-.232 1.44-.696.272-.464.408-1.128.408-1.992s-.136-1.528-.408-1.992c-.264-.464-.744-.696-1.44-.696s-1.18.232-1.452.696c-.264.464-.396 1.128-.396 1.992s.132 1.528.396 1.992c.272.464.756.696 1.452.696zm7.26 1.08v-7.728h3.24c1.16 0 2.032.3 2.616.9.592.592.888 1.592.888 3 0 1.328-.292 2.3-.876 2.916-.576.608-1.452.912-2.628.912h-3.24zm1.62-1.248h1.392c.456 0 .84-.068 1.152-.204.312-.144.544-.4.696-.768.16-.376.24-.912.24-1.608s-.072-1.228-.216-1.596-.368-.62-.672-.756-.704-.204-1.2-.204h-1.392v5.136zm7.867 1.368a2.63 2.63 0 0 1-1.008-.192c-.304-.136-.552-.332-.744-.588-.184-.264-.276-.592-.276-.984 0-.56.196-1.008.588-1.344.4-.336.988-.504 1.764-.504h1.68v-.156c0-.352-.1-.6-.3-.744-.192-.144-.584-.216-1.176-.216a5.88 5.88 0 0 0-1.872.3v-1.14c.264-.104.584-.188.96-.252.384-.072.8-.108 1.248-.108.856 0 1.516.176 1.98.528.472.344.708.9.708 1.668V243h-1.404l-.084-.516a2.38 2.38 0 0 1-.828.468c-.328.112-.74.168-1.236.168zm.444-1.068c.36 0 .672-.06.936-.18s.472-.272.624-.456v-.9h-1.644c-.632 0-.948.26-.948.78 0 .504.344.756 1.032.756zm5.361 3.06a4.05 4.05 0 0 1-.66-.048 2.34 2.34 0 0 1-.564-.144v-1.14c.136.048.26.08.372.096a2.72 2.72 0 0 0 .36.024c.328 0 .58-.076.756-.228.184-.152.368-.408.552-.768l-2.544-5.592h1.692l1.668 3.864 1.656-3.864h1.68l-2.244 5.292c-.208.496-.436.932-.684 1.308-.24.384-.524.68-.852.888s-.724.312-1.188.312zm7.337-1.992c-.424 0-.828-.032-1.212-.096a4.52 4.52 0 0 1-.924-.216v-1.344c.28.112.596.2.948.264a6.22 6.22 0 0 0 .972.084c.4 0 .68-.024.84-.072.168-.048.252-.156.252-.324 0-.192-.128-.332-.384-.42l-1.116-.372c-.52-.176-.92-.388-1.2-.636s-.42-.616-.42-1.104c0-.544.196-.96.588-1.248.4-.296 1.04-.444 1.92-.444.352 0 .684.028.996.084.312.048.576.108.792.18v1.332a2.8 2.8 0 0 0-.744-.228c-.28-.056-.54-.084-.78-.084a3.82 3.82 0 0 0-.828.072c-.2.048-.3.152-.3.312 0 .176.108.3.324.372l1.032.324c.456.136.812.284 1.068.444s.436.352.54.576c.104.216.156.488.156.816 0 1.152-.84 1.728-2.52 1.728zm9.125 0c-1.064 0-1.844-.256-2.34-.768-.496-.52-.744-1.252-.744-2.196s.248-1.672.744-2.184c.504-.52 1.284-.78 2.34-.78 1.064 0 1.844.26 2.34.78.504.512.756 1.24.756 2.184s-.248 1.676-.744 2.196c-.496.512-1.28.768-2.352.768zm0-1.38c.52 0 .892-.116 1.116-.348.224-.24.336-.652.336-1.236s-.112-.992-.336-1.224c-.224-.24-.596-.36-1.116-.36-.512 0-.88.12-1.104.36-.224.232-.336.64-.336 1.224s.112.996.336 1.236c.224.232.592.348 1.104.348zm4.522 1.26v-4.44h-.792v-1.248h.792v-.576c0-.592.168-1.076.504-1.452s.832-.564 1.488-.564a3.77 3.77 0 0 1 .708.06 3.03 3.03 0 0 1 .576.168v1.116c-.12-.04-.236-.072-.348-.096a1.78 1.78 0 0 0-.372-.036c-.344 0-.588.064-.732.192-.136.12-.204.332-.204.636v.552h1.44l-.072 1.248h-1.368V243h-1.62zm6.79 0v-7.728h3.24c1.16 0 2.032.3 2.616.9.592.592.888 1.592.888 3 0 1.328-.292 2.3-.876 2.916-.576.608-1.452.912-2.628.912h-3.24zm1.62-1.248h1.392c.456 0 .84-.068 1.152-.204.312-.144.544-.4.696-.768.16-.376.24-.912.24-1.608s-.072-1.228-.216-1.596-.368-.62-.672-.756-.704-.204-1.2-.204h-1.392v5.136zm9.219 1.368c-.984 0-1.764-.244-2.34-.732-.576-.496-.864-1.244-.864-2.244 0-.904.24-1.62.72-2.148.488-.536 1.212-.804 2.172-.804.88 0 1.552.232 2.016.696.472.456.708 1.056.708 1.8v1.032h-4.116c.088.456.296.768.624.936.336.168.808.252 1.416.252.304 0 .612-.028.924-.084.32-.056.592-.128.816-.216v1.152c-.264.12-.572.208-.924.264a6.45 6.45 0 0 1-1.152.096zm-1.704-3.396h2.7v-.312c0-.328-.096-.584-.288-.768-.192-.192-.516-.288-.972-.288-.536 0-.912.108-1.128.324-.208.216-.312.564-.312 1.044zm7.189 3.396c-.424 0-.828-.032-1.212-.096a4.52 4.52 0 0 1-.924-.216v-1.344c.28.112.596.2.948.264a6.22 6.22 0 0 0 .972.084c.4 0 .68-.024.84-.072.168-.048.252-.156.252-.324 0-.192-.128-.332-.384-.42l-1.116-.372c-.52-.176-.92-.388-1.2-.636s-.42-.616-.42-1.104c0-.544.196-.96.588-1.248.4-.296 1.04-.444 1.92-.444.352 0 .684.028.996.084.312.048.576.108.792.18v1.332a2.8 2.8 0 0 0-.744-.228c-.28-.056-.54-.084-.78-.084a3.82 3.82 0 0 0-.828.072c-.2.048-.3.152-.3.312 0 .176.108.3.324.372l1.032.324c.456.136.812.284 1.068.444s.436.352.54.576c.104.216.156.488.156.816 0 1.152-.84 1.728-2.52 1.728zm4.041-6.852v-1.272h1.764v1.272h-1.764zm.132 6.732v-4.488h-.852l.144-1.2h2.328V243h-1.62zm5.399 2.112c-.424 0-.86-.028-1.308-.084-.44-.056-.812-.136-1.116-.24v-1.212c.32.104.696.184 1.128.24.432.064.836.096 1.212.096.552 0 .952-.032 1.2-.096.248-.056.372-.16.372-.312 0-.128-.056-.216-.168-.264-.104-.048-.328-.072-.672-.072h-1.548c-1.016 0-1.524-.376-1.524-1.128a1.12 1.12 0 0 1 .192-.636c.128-.192.332-.344.612-.456-.648-.328-.972-.88-.972-1.656 0-.736.228-1.268.684-1.596.456-.336 1.132-.504 2.028-.504.184 0 .384.016.6.048l.504.072h2.136l-.036 1.02h-.9c.248.232.372.556.372.972 0 .584-.184 1.052-.552 1.404-.368.344-.912.516-1.632.516-.128 0-.252-.004-.372-.012l-.348-.048c-.24.032-.444.088-.612.168-.16.08-.24.188-.24.324 0 .184.164.276.492.276h1.608c.576 0 1.02.132 1.332.396.312.256.468.632.468 1.128 0 .56-.252.976-.756 1.248s-1.232.408-2.184.408zm.132-4.8c.48 0 .812-.08.996-.24.192-.168.288-.448.288-.84s-.096-.676-.288-.852c-.184-.176-.516-.264-.996-.264-.456 0-.784.088-.984.264-.2.168-.3.452-.3.852 0 .368.092.64.276.816.192.176.528.264 1.008.264zm3.902 2.688v-5.688h1.5l.06.54c.232-.176.524-.328.876-.456.36-.136.736-.204 1.128-.204.752 0 1.3.176 1.644.528s.516.896.516 1.632V243h-1.62v-3.564c0-.384-.08-.656-.24-.816-.152-.16-.44-.24-.864-.24-.248 0-.5.056-.756.168-.248.112-.456.252-.624.42V243h-1.62z"/><path d="M265.704 288v-6.264l-1.26.204v-1.356l2.88-.432V288h-1.62zm6.24.312c-.848 0-1.528-.16-2.04-.48s-.884-.784-1.116-1.392c-.224-.616-.336-1.352-.336-2.208 0-.864.112-1.6.336-2.208.232-.608.604-1.072 1.116-1.392s1.192-.48 2.04-.48 1.528.16 2.04.48.88.784 1.104 1.392c.232.608.348 1.344.348 2.208 0 .856-.116 1.592-.348 2.208-.224.608-.592 1.072-1.104 1.392s-1.192.48-2.04.48zm0-1.392c.696 0 1.176-.232 1.44-.696.272-.464.408-1.128.408-1.992s-.136-1.528-.408-1.992c-.264-.464-.744-.696-1.44-.696s-1.18.232-1.452.696c-.264.464-.396 1.128-.396 1.992s.132 1.528.396 1.992c.272.464.756.696 1.452.696zm7.875 1.392c-.848 0-1.528-.16-2.04-.48s-.884-.784-1.116-1.392c-.224-.616-.336-1.352-.336-2.208 0-.864.112-1.6.336-2.208.232-.608.604-1.072 1.116-1.392s1.192-.48 2.04-.48 1.528.16 2.04.48.88.784 1.104 1.392c.232.608.348 1.344.348 2.208 0 .856-.116 1.592-.348 2.208-.224.608-.592 1.072-1.104 1.392s-1.192.48-2.04.48zm0-1.392c.696 0 1.176-.232 1.44-.696.272-.464.408-1.128.408-1.992s-.136-1.528-.408-1.992c-.264-.464-.744-.696-1.44-.696s-1.18.232-1.452.696c-.264.464-.396 1.128-.396 1.992s.132 1.528.396 1.992c.272.464.756.696 1.452.696zm7.26 1.08v-7.728h3.24c1.16 0 2.032.3 2.616.9.592.592.888 1.592.888 3 0 1.328-.292 2.3-.876 2.916-.576.608-1.452.912-2.628.912h-3.24zm1.62-1.248h1.392c.456 0 .84-.068 1.152-.204.312-.144.544-.4.696-.768.16-.376.24-.912.24-1.608s-.072-1.228-.216-1.596-.368-.62-.672-.756-.704-.204-1.2-.204h-1.392v5.136zm7.867 1.368a2.63 2.63 0 0 1-1.008-.192c-.304-.136-.552-.332-.744-.588-.184-.264-.276-.592-.276-.984 0-.56.196-1.008.588-1.344.4-.336.988-.504 1.764-.504h1.68v-.156c0-.352-.1-.6-.3-.744-.192-.144-.584-.216-1.176-.216a5.88 5.88 0 0 0-1.872.3v-1.14c.264-.104.584-.188.96-.252.384-.072.8-.108 1.248-.108.856 0 1.516.176 1.98.528.472.344.708.9.708 1.668V288h-1.404l-.084-.516a2.38 2.38 0 0 1-.828.468c-.328.112-.74.168-1.236.168zm.444-1.068c.36 0 .672-.06.936-.18s.472-.272.624-.456v-.9h-1.644c-.632 0-.948.26-.948.78 0 .504.344.756 1.032.756zm5.361 3.06a4.05 4.05 0 0 1-.66-.048 2.34 2.34 0 0 1-.564-.144v-1.14c.136.048.26.08.372.096a2.72 2.72 0 0 0 .36.024c.328 0 .58-.076.756-.228.184-.152.368-.408.552-.768l-2.544-5.592h1.692l1.668 3.864 1.656-3.864h1.68l-2.244 5.292c-.208.496-.436.932-.684 1.308-.24.384-.524.68-.852.888s-.724.312-1.188.312zm7.337-1.992c-.424 0-.828-.032-1.212-.096a4.52 4.52 0 0 1-.924-.216v-1.344c.28.112.596.2.948.264a6.22 6.22 0 0 0 .972.084c.4 0 .68-.024.84-.072.168-.048.252-.156.252-.324 0-.192-.128-.332-.384-.42l-1.116-.372c-.52-.176-.92-.388-1.2-.636s-.42-.616-.42-1.104c0-.544.196-.96.588-1.248.4-.296 1.04-.444 1.92-.444.352 0 .684.028.996.084.312.048.576.108.792.18v1.332a2.8 2.8 0 0 0-.744-.228c-.28-.056-.54-.084-.78-.084a3.82 3.82 0 0 0-.828.072c-.2.048-.3.152-.3.312 0 .176.108.3.324.372l1.032.324c.456.136.812.284 1.068.444s.436.352.54.576c.104.216.156.488.156.816 0 1.152-.84 1.728-2.52 1.728zm9.125 0c-1.064 0-1.844-.256-2.34-.768-.496-.52-.744-1.252-.744-2.196s.248-1.672.744-2.184c.504-.52 1.284-.78 2.34-.78 1.064 0 1.844.26 2.34.78.504.512.756 1.24.756 2.184s-.248 1.676-.744 2.196c-.496.512-1.28.768-2.352.768zm0-1.38c.52 0 .892-.116 1.116-.348.224-.24.336-.652.336-1.236s-.112-.992-.336-1.224c-.224-.24-.596-.36-1.116-.36-.512 0-.88.12-1.104.36-.224.232-.336.64-.336 1.224s.112.996.336 1.236c.224.232.592.348 1.104.348zm4.522 1.26v-4.44h-.792v-1.248h.792v-.576c0-.592.168-1.076.504-1.452s.832-.564 1.488-.564a3.77 3.77 0 0 1 .708.06 3.03 3.03 0 0 1 .576.168v1.116c-.12-.04-.236-.072-.348-.096a1.78 1.78 0 0 0-.372-.036c-.344 0-.588.064-.732.192-.136.12-.204.332-.204.636v.552h1.44l-.072 1.248h-1.368V288h-1.62zm6.79 0v-7.728h3.24c1.16 0 2.032.3 2.616.9.592.592.888 1.592.888 3 0 1.328-.292 2.3-.876 2.916-.576.608-1.452.912-2.628.912h-3.24zm1.62-1.248h1.392c.456 0 .84-.068 1.152-.204.312-.144.544-.4.696-.768.16-.376.24-.912.24-1.608s-.072-1.228-.216-1.596-.368-.62-.672-.756-.704-.204-1.2-.204h-1.392v5.136zm9.219 1.368c-.984 0-1.764-.244-2.34-.732-.576-.496-.864-1.244-.864-2.244 0-.904.24-1.62.72-2.148.488-.536 1.212-.804 2.172-.804.88 0 1.552.232 2.016.696.472.456.708 1.056.708 1.8v1.032h-4.116c.088.456.296.768.624.936.336.168.808.252 1.416.252.304 0 .612-.028.924-.084.32-.056.592-.128.816-.216v1.152c-.264.12-.572.208-.924.264a6.45 6.45 0 0 1-1.152.096zm-1.704-3.396h2.7v-.312c0-.328-.096-.584-.288-.768-.192-.192-.516-.288-.972-.288-.536 0-.912.108-1.128.324-.208.216-.312.564-.312 1.044zm7.189 3.396c-.424 0-.828-.032-1.212-.096a4.52 4.52 0 0 1-.924-.216v-1.344c.28.112.596.2.948.264a6.22 6.22 0 0 0 .972.084c.4 0 .68-.024.84-.072.168-.048.252-.156.252-.324 0-.192-.128-.332-.384-.42l-1.116-.372c-.52-.176-.92-.388-1.2-.636s-.42-.616-.42-1.104c0-.544.196-.96.588-1.248.4-.296 1.04-.444 1.92-.444.352 0 .684.028.996.084.312.048.576.108.792.18v1.332a2.8 2.8 0 0 0-.744-.228c-.28-.056-.54-.084-.78-.084a3.82 3.82 0 0 0-.828.072c-.2.048-.3.152-.3.312 0 .176.108.3.324.372l1.032.324c.456.136.812.284 1.068.444s.436.352.54.576c.104.216.156.488.156.816 0 1.152-.84 1.728-2.52 1.728zm4.041-6.852v-1.272h1.764v1.272h-1.764zm.132 6.732v-4.488h-.852l.144-1.2h2.328V288h-1.62zm5.399 2.112c-.424 0-.86-.028-1.308-.084-.44-.056-.812-.136-1.116-.24v-1.212c.32.104.696.184 1.128.24.432.064.836.096 1.212.096.552 0 .952-.032 1.2-.096.248-.056.372-.16.372-.312 0-.128-.056-.216-.168-.264-.104-.048-.328-.072-.672-.072h-1.548c-1.016 0-1.524-.376-1.524-1.128a1.12 1.12 0 0 1 .192-.636c.128-.192.332-.344.612-.456-.648-.328-.972-.88-.972-1.656 0-.736.228-1.268.684-1.596.456-.336 1.132-.504 2.028-.504.184 0 .384.016.6.048l.504.072h2.136l-.036 1.02h-.9c.248.232.372.556.372.972 0 .584-.184 1.052-.552 1.404-.368.344-.912.516-1.632.516-.128 0-.252-.004-.372-.012l-.348-.048c-.24.032-.444.088-.612.168-.16.08-.24.188-.24.324 0 .184.164.276.492.276h1.608c.576 0 1.02.132 1.332.396.312.256.468.632.468 1.128 0 .56-.252.976-.756 1.248s-1.232.408-2.184.408zm.132-4.8c.48 0 .812-.08.996-.24.192-.168.288-.448.288-.84s-.096-.676-.288-.852c-.184-.176-.516-.264-.996-.264-.456 0-.784.088-.984.264-.2.168-.3.452-.3.852 0 .368.092.64.276.816.192.176.528.264 1.008.264zm3.902 2.688v-5.688h1.5l.06.54c.232-.176.524-.328.876-.456.36-.136.736-.204 1.128-.204.752 0 1.3.176 1.644.528s.516.896.516 1.632V288h-1.62v-3.564c0-.384-.08-.656-.24-.816-.152-.16-.44-.24-.864-.24-.248 0-.5.056-.756.168-.248.112-.456.252-.624.42V288h-1.62z"/><use xlink:href="#B"/><use xlink:href="#B" x="126"/><use xlink:href="#C"/><use xlink:href="#C" x="126"/><path d="M265.704 206v-6.264l-1.26.204v-1.356l2.88-.432V206h-1.62zm6.24.312c-.848 0-1.528-.16-2.04-.48s-.884-.784-1.116-1.392c-.224-.616-.336-1.352-.336-2.208 0-.864.112-1.6.336-2.208.232-.608.604-1.072 1.116-1.392s1.192-.48 2.04-.48 1.528.16 2.04.48.88.784 1.104 1.392c.232.608.348 1.344.348 2.208 0 .856-.116 1.592-.348 2.208-.224.608-.592 1.072-1.104 1.392s-1.192.48-2.04.48zm0-1.392c.696 0 1.176-.232 1.44-.696.272-.464.408-1.128.408-1.992s-.136-1.528-.408-1.992c-.264-.464-.744-.696-1.44-.696s-1.18.232-1.452.696c-.264.464-.396 1.128-.396 1.992s.132 1.528.396 1.992c.272.464.756.696 1.452.696zm7.875 1.392c-.848 0-1.528-.16-2.04-.48s-.884-.784-1.116-1.392c-.224-.616-.336-1.352-.336-2.208 0-.864.112-1.6.336-2.208.232-.608.604-1.072 1.116-1.392s1.192-.48 2.04-.48 1.528.16 2.04.48.88.784 1.104 1.392c.232.608.348 1.344.348 2.208 0 .856-.116 1.592-.348 2.208-.224.608-.592 1.072-1.104 1.392s-1.192.48-2.04.48zm0-1.392c.696 0 1.176-.232 1.44-.696.272-.464.408-1.128.408-1.992s-.136-1.528-.408-1.992c-.264-.464-.744-.696-1.44-.696s-1.18.232-1.452.696c-.264.464-.396 1.128-.396 1.992s.132 1.528.396 1.992c.272.464.756.696 1.452.696zm7.26 1.08v-7.728h3.24c1.16 0 2.032.3 2.616.9.592.592.888 1.592.888 3 0 1.328-.292 2.3-.876 2.916-.576.608-1.452.912-2.628.912h-3.24zm1.62-1.248h1.392c.456 0 .84-.068 1.152-.204.312-.144.544-.4.696-.768.16-.376.24-.912.24-1.608s-.072-1.228-.216-1.596-.368-.62-.672-.756-.704-.204-1.2-.204h-1.392v5.136zm7.867 1.368a2.63 2.63 0 0 1-1.008-.192c-.304-.136-.552-.332-.744-.588-.184-.264-.276-.592-.276-.984 0-.56.196-1.008.588-1.344.4-.336.988-.504 1.764-.504h1.68v-.156c0-.352-.1-.6-.3-.744-.192-.144-.584-.216-1.176-.216a5.88 5.88 0 0 0-1.872.3v-1.14c.264-.104.584-.188.96-.252.384-.072.8-.108 1.248-.108.856 0 1.516.176 1.98.528.472.344.708.9.708 1.668V206h-1.404l-.084-.516a2.38 2.38 0 0 1-.828.468c-.328.112-.74.168-1.236.168zm.444-1.068c.36 0 .672-.06.936-.18s.472-.272.624-.456v-.9h-1.644c-.632 0-.948.26-.948.78 0 .504.344.756 1.032.756zm5.361 3.06a4.05 4.05 0 0 1-.66-.048 2.34 2.34 0 0 1-.564-.144v-1.14c.136.048.26.08.372.096a2.72 2.72 0 0 0 .36.024c.328 0 .58-.076.756-.228.184-.152.368-.408.552-.768l-2.544-5.592h1.692l1.668 3.864 1.656-3.864h1.68l-2.244 5.292c-.208.496-.436.932-.684 1.308-.24.384-.524.68-.852.888s-.724.312-1.188.312zm7.337-1.992c-.424 0-.828-.032-1.212-.096a4.52 4.52 0 0 1-.924-.216v-1.344c.28.112.596.2.948.264a6.22 6.22 0 0 0 .972.084c.4 0 .68-.024.84-.072.168-.048.252-.156.252-.324 0-.192-.128-.332-.384-.42l-1.116-.372c-.52-.176-.92-.388-1.2-.636s-.42-.616-.42-1.104c0-.544.196-.96.588-1.248.4-.296 1.04-.444 1.92-.444.352 0 .684.028.996.084.312.048.576.108.792.18v1.332a2.8 2.8 0 0 0-.744-.228c-.28-.056-.54-.084-.78-.084a3.82 3.82 0 0 0-.828.072c-.2.048-.3.152-.3.312 0 .176.108.3.324.372l1.032.324c.456.136.812.284 1.068.444s.436.352.54.576c.104.216.156.488.156.816 0 1.152-.84 1.728-2.52 1.728zm9.125 0c-1.064 0-1.844-.256-2.34-.768-.496-.52-.744-1.252-.744-2.196s.248-1.672.744-2.184c.504-.52 1.284-.78 2.34-.78 1.064 0 1.844.26 2.34.78.504.512.756 1.24.756 2.184s-.248 1.676-.744 2.196c-.496.512-1.28.768-2.352.768zm0-1.38c.52 0 .892-.116 1.116-.348.224-.24.336-.652.336-1.236s-.112-.992-.336-1.224c-.224-.24-.596-.36-1.116-.36-.512 0-.88.12-1.104.36-.224.232-.336.64-.336 1.224s.112.996.336 1.236c.224.232.592.348 1.104.348zm4.522 1.26v-4.44h-.792v-1.248h.792v-.576c0-.592.168-1.076.504-1.452s.832-.564 1.488-.564a3.77 3.77 0 0 1 .708.06 3.03 3.03 0 0 1 .576.168v1.116c-.12-.04-.236-.072-.348-.096a1.78 1.78 0 0 0-.372-.036c-.344 0-.588.064-.732.192-.136.12-.204.332-.204.636v.552h1.44l-.072 1.248h-1.368V206h-1.62zm6.79 0v-7.728h3.24c1.16 0 2.032.3 2.616.9.592.592.888 1.592.888 3 0 1.328-.292 2.3-.876 2.916-.576.608-1.452.912-2.628.912h-3.24zm1.62-1.248h1.392c.456 0 .84-.068 1.152-.204.312-.144.544-.4.696-.768.16-.376.24-.912.24-1.608s-.072-1.228-.216-1.596-.368-.62-.672-.756-.704-.204-1.2-.204h-1.392v5.136zm9.219 1.368c-.984 0-1.764-.244-2.34-.732-.576-.496-.864-1.244-.864-2.244 0-.904.24-1.62.72-2.148.488-.536 1.212-.804 2.172-.804.88 0 1.552.232 2.016.696.472.456.708 1.056.708 1.8v1.032h-4.116c.088.456.296.768.624.936.336.168.808.252 1.416.252.304 0 .612-.028.924-.084.32-.056.592-.128.816-.216v1.152c-.264.12-.572.208-.924.264a6.45 6.45 0 0 1-1.152.096zm-1.704-3.396h2.7v-.312c0-.328-.096-.584-.288-.768-.192-.192-.516-.288-.972-.288-.536 0-.912.108-1.128.324-.208.216-.312.564-.312 1.044zm7.189 3.396c-.424 0-.828-.032-1.212-.096a4.52 4.52 0 0 1-.924-.216v-1.344c.28.112.596.2.948.264a6.22 6.22 0 0 0 .972.084c.4 0 .68-.024.84-.072.168-.048.252-.156.252-.324 0-.192-.128-.332-.384-.42l-1.116-.372c-.52-.176-.92-.388-1.2-.636s-.42-.616-.42-1.104c0-.544.196-.96.588-1.248.4-.296 1.04-.444 1.92-.444.352 0 .684.028.996.084.312.048.576.108.792.18v1.332a2.8 2.8 0 0 0-.744-.228c-.28-.056-.54-.084-.78-.084a3.82 3.82 0 0 0-.828.072c-.2.048-.3.152-.3.312 0 .176.108.3.324.372l1.032.324c.456.136.812.284 1.068.444s.436.352.54.576c.104.216.156.488.156.816 0 1.152-.84 1.728-2.52 1.728zm4.041-6.852v-1.272h1.764v1.272h-1.764zm.132 6.732v-4.488h-.852l.144-1.2h2.328V206h-1.62zm5.399 2.112c-.424 0-.86-.028-1.308-.084-.44-.056-.812-.136-1.116-.24v-1.212c.32.104.696.184 1.128.24.432.064.836.096 1.212.096.552 0 .952-.032 1.2-.096.248-.056.372-.16.372-.312 0-.128-.056-.216-.168-.264-.104-.048-.328-.072-.672-.072h-1.548c-1.016 0-1.524-.376-1.524-1.128a1.12 1.12 0 0 1 .192-.636c.128-.192.332-.344.612-.456-.648-.328-.972-.88-.972-1.656 0-.736.228-1.268.684-1.596.456-.336 1.132-.504 2.028-.504.184 0 .384.016.6.048l.504.072h2.136l-.036 1.02h-.9c.248.232.372.556.372.972 0 .584-.184 1.052-.552 1.404-.368.344-.912.516-1.632.516-.128 0-.252-.004-.372-.012l-.348-.048c-.24.032-.444.088-.612.168-.16.08-.24.188-.24.324 0 .184.164.276.492.276h1.608c.576 0 1.02.132 1.332.396.312.256.468.632.468 1.128 0 .56-.252.976-.756 1.248s-1.232.408-2.184.408zm.132-4.8c.48 0 .812-.08.996-.24.192-.168.288-.448.288-.84s-.096-.676-.288-.852c-.184-.176-.516-.264-.996-.264-.456 0-.784.088-.984.264-.2.168-.3.452-.3.852 0 .368.092.64.276.816.192.176.528.264 1.008.264zm3.902 2.688v-5.688h1.5l.06.54c.232-.176.524-.328.876-.456.36-.136.736-.204 1.128-.204.752 0 1.3.176 1.644.528s.516.896.516 1.632V206h-1.62v-3.564c0-.384-.08-.656-.24-.816-.152-.16-.44-.24-.864-.24-.248 0-.5.056-.756.168-.248.112-.456.252-.624.42V206h-1.62zm-94.371 43v-6.264l-1.26.204v-1.356l2.88-.432V249h-1.62zm6.24.312c-.848 0-1.528-.16-2.04-.48s-.884-.784-1.116-1.392c-.224-.616-.336-1.352-.336-2.208 0-.864.112-1.6.336-2.208.232-.608.604-1.072 1.116-1.392s1.192-.48 2.04-.48 1.528.16 2.04.48.88.784 1.104 1.392c.232.608.348 1.344.348 2.208 0 .856-.116 1.592-.348 2.208-.224.608-.592 1.072-1.104 1.392s-1.192.48-2.04.48zm0-1.392c.696 0 1.176-.232 1.44-.696.272-.464.408-1.128.408-1.992s-.136-1.528-.408-1.992c-.264-.464-.744-.696-1.44-.696s-1.18.232-1.452.696c-.264.464-.396 1.128-.396 1.992s.132 1.528.396 1.992c.272.464.756.696 1.452.696zm7.875 1.392c-.848 0-1.528-.16-2.04-.48s-.884-.784-1.116-1.392c-.224-.616-.336-1.352-.336-2.208 0-.864.112-1.6.336-2.208.232-.608.604-1.072 1.116-1.392s1.192-.48 2.04-.48 1.528.16 2.04.48.88.784 1.104 1.392c.232.608.348 1.344.348 2.208 0 .856-.116 1.592-.348 2.208-.224.608-.592 1.072-1.104 1.392s-1.192.48-2.04.48zm0-1.392c.696 0 1.176-.232 1.44-.696.272-.464.408-1.128.408-1.992s-.136-1.528-.408-1.992c-.264-.464-.744-.696-1.44-.696s-1.18.232-1.452.696c-.264.464-.396 1.128-.396 1.992s.132 1.528.396 1.992c.272.464.756.696 1.452.696zm7.26 1.08v-7.728h3.24c1.16 0 2.032.3 2.616.9.592.592.888 1.592.888 3 0 1.328-.292 2.3-.876 2.916-.576.608-1.452.912-2.628.912h-3.24zm1.62-1.248h1.392c.456 0 .84-.068 1.152-.204.312-.144.544-.4.696-.768.16-.376.24-.912.24-1.608s-.072-1.228-.216-1.596-.368-.62-.672-.756-.704-.204-1.2-.204h-1.392v5.136zm7.867 1.368a2.63 2.63 0 0 1-1.008-.192c-.304-.136-.552-.332-.744-.588-.184-.264-.276-.592-.276-.984 0-.56.196-1.008.588-1.344.4-.336.988-.504 1.764-.504h1.68v-.156c0-.352-.1-.6-.3-.744-.192-.144-.584-.216-1.176-.216a5.88 5.88 0 0 0-1.872.3v-1.14c.264-.104.584-.188.96-.252.384-.072.8-.108 1.248-.108.856 0 1.516.176 1.98.528.472.344.708.9.708 1.668V249h-1.404l-.084-.516a2.38 2.38 0 0 1-.828.468c-.328.112-.74.168-1.236.168zm.444-1.068c.36 0 .672-.06.936-.18s.472-.272.624-.456v-.9h-1.644c-.632 0-.948.26-.948.78 0 .504.344.756 1.032.756zm5.361 3.06a4.05 4.05 0 0 1-.66-.048 2.34 2.34 0 0 1-.564-.144v-1.14c.136.048.26.08.372.096a2.72 2.72 0 0 0 .36.024c.328 0 .58-.076.756-.228.184-.152.368-.408.552-.768l-2.544-5.592h1.692l1.668 3.864 1.656-3.864h1.68l-2.244 5.292c-.208.496-.436.932-.684 1.308-.24.384-.524.68-.852.888s-.724.312-1.188.312zm7.337-1.992c-.424 0-.828-.032-1.212-.096a4.52 4.52 0 0 1-.924-.216v-1.344c.28.112.596.2.948.264a6.22 6.22 0 0 0 .972.084c.4 0 .68-.024.84-.072.168-.048.252-.156.252-.324 0-.192-.128-.332-.384-.42l-1.116-.372c-.52-.176-.92-.388-1.2-.636s-.42-.616-.42-1.104c0-.544.196-.96.588-1.248.4-.296 1.04-.444 1.92-.444.352 0 .684.028.996.084.312.048.576.108.792.18v1.332a2.8 2.8 0 0 0-.744-.228c-.28-.056-.54-.084-.78-.084a3.82 3.82 0 0 0-.828.072c-.2.048-.3.152-.3.312 0 .176.108.3.324.372l1.032.324c.456.136.812.284 1.068.444s.436.352.54.576c.104.216.156.488.156.816 0 1.152-.84 1.728-2.52 1.728zm9.125 0c-1.064 0-1.844-.256-2.34-.768-.496-.52-.744-1.252-.744-2.196s.248-1.672.744-2.184c.504-.52 1.284-.78 2.34-.78 1.064 0 1.844.26 2.34.78.504.512.756 1.24.756 2.184s-.248 1.676-.744 2.196c-.496.512-1.28.768-2.352.768zm0-1.38c.52 0 .892-.116 1.116-.348.224-.24.336-.652.336-1.236s-.112-.992-.336-1.224c-.224-.24-.596-.36-1.116-.36-.512 0-.88.12-1.104.36-.224.232-.336.64-.336 1.224s.112.996.336 1.236c.224.232.592.348 1.104.348zm4.522 1.26v-4.44h-.792v-1.248h.792v-.576c0-.592.168-1.076.504-1.452s.832-.564 1.488-.564a3.77 3.77 0 0 1 .708.06 3.03 3.03 0 0 1 .576.168v1.116c-.12-.04-.236-.072-.348-.096a1.78 1.78 0 0 0-.372-.036c-.344 0-.588.064-.732.192-.136.12-.204.332-.204.636v.552h1.44l-.072 1.248h-1.368V249h-1.62zm6.79 0v-7.728h3.24c1.16 0 2.032.3 2.616.9.592.592.888 1.592.888 3 0 1.328-.292 2.3-.876 2.916-.576.608-1.452.912-2.628.912h-3.24zm1.62-1.248h1.392c.456 0 .84-.068 1.152-.204.312-.144.544-.4.696-.768.16-.376.24-.912.24-1.608s-.072-1.228-.216-1.596-.368-.62-.672-.756-.704-.204-1.2-.204h-1.392v5.136zm9.219 1.368c-.984 0-1.764-.244-2.34-.732-.576-.496-.864-1.244-.864-2.244 0-.904.24-1.62.72-2.148.488-.536 1.212-.804 2.172-.804.88 0 1.552.232 2.016.696.472.456.708 1.056.708 1.8v1.032h-4.116c.088.456.296.768.624.936.336.168.808.252 1.416.252.304 0 .612-.028.924-.084.32-.056.592-.128.816-.216v1.152c-.264.12-.572.208-.924.264a6.45 6.45 0 0 1-1.152.096zm-1.704-3.396h2.7v-.312c0-.328-.096-.584-.288-.768-.192-.192-.516-.288-.972-.288-.536 0-.912.108-1.128.324-.208.216-.312.564-.312 1.044zm7.189 3.396c-.424 0-.828-.032-1.212-.096a4.52 4.52 0 0 1-.924-.216v-1.344c.28.112.596.2.948.264a6.22 6.22 0 0 0 .972.084c.4 0 .68-.024.84-.072.168-.048.252-.156.252-.324 0-.192-.128-.332-.384-.42l-1.116-.372c-.52-.176-.92-.388-1.2-.636s-.42-.616-.42-1.104c0-.544.196-.96.588-1.248.4-.296 1.04-.444 1.92-.444.352 0 .684.028.996.084.312.048.576.108.792.18v1.332a2.8 2.8 0 0 0-.744-.228c-.28-.056-.54-.084-.78-.084a3.82 3.82 0 0 0-.828.072c-.2.048-.3.152-.3.312 0 .176.108.3.324.372l1.032.324c.456.136.812.284 1.068.444s.436.352.54.576c.104.216.156.488.156.816 0 1.152-.84 1.728-2.52 1.728zm4.041-6.852v-1.272h1.764v1.272h-1.764zm.132 6.732v-4.488h-.852l.144-1.2h2.328V249h-1.62zm5.399 2.112c-.424 0-.86-.028-1.308-.084-.44-.056-.812-.136-1.116-.24v-1.212c.32.104.696.184 1.128.24.432.064.836.096 1.212.096.552 0 .952-.032 1.2-.096.248-.056.372-.16.372-.312 0-.128-.056-.216-.168-.264-.104-.048-.328-.072-.672-.072h-1.548c-1.016 0-1.524-.376-1.524-1.128a1.12 1.12 0 0 1 .192-.636c.128-.192.332-.344.612-.456-.648-.328-.972-.88-.972-1.656 0-.736.228-1.268.684-1.596.456-.336 1.132-.504 2.028-.504.184 0 .384.016.6.048l.504.072h2.136l-.036 1.02h-.9c.248.232.372.556.372.972 0 .584-.184 1.052-.552 1.404-.368.344-.912.516-1.632.516-.128 0-.252-.004-.372-.012l-.348-.048c-.24.032-.444.088-.612.168-.16.08-.24.188-.24.324 0 .184.164.276.492.276h1.608c.576 0 1.02.132 1.332.396.312.256.468.632.468 1.128 0 .56-.252.976-.756 1.248s-1.232.408-2.184.408zm.132-4.8c.48 0 .812-.08.996-.24.192-.168.288-.448.288-.84s-.096-.676-.288-.852c-.184-.176-.516-.264-.996-.264-.456 0-.784.088-.984.264-.2.168-.3.452-.3.852 0 .368.092.64.276.816.192.176.528.264 1.008.264zm3.902 2.688v-5.688h1.5l.06.54c.232-.176.524-.328.876-.456.36-.136.736-.204 1.128-.204.752 0 1.3.176 1.644.528s.516.896.516 1.632V249h-1.62v-3.564c0-.384-.08-.656-.24-.816-.152-.16-.44-.24-.864-.24-.248 0-.5.056-.756.168-.248.112-.456.252-.624.42V249h-1.62z"/><path d="M265.704 292v-6.264l-1.26.204v-1.356l2.88-.432V292h-1.62zm6.24.312c-.848 0-1.528-.16-2.04-.48s-.884-.784-1.116-1.392c-.224-.616-.336-1.352-.336-2.208 0-.864.112-1.6.336-2.208.232-.608.604-1.072 1.116-1.392s1.192-.48 2.04-.48 1.528.16 2.04.48.88.784 1.104 1.392c.232.608.348 1.344.348 2.208 0 .856-.116 1.592-.348 2.208-.224.608-.592 1.072-1.104 1.392s-1.192.48-2.04.48zm0-1.392c.696 0 1.176-.232 1.44-.696.272-.464.408-1.128.408-1.992s-.136-1.528-.408-1.992c-.264-.464-.744-.696-1.44-.696s-1.18.232-1.452.696c-.264.464-.396 1.128-.396 1.992s.132 1.528.396 1.992c.272.464.756.696 1.452.696zm7.875 1.392c-.848 0-1.528-.16-2.04-.48s-.884-.784-1.116-1.392c-.224-.616-.336-1.352-.336-2.208 0-.864.112-1.6.336-2.208.232-.608.604-1.072 1.116-1.392s1.192-.48 2.04-.48 1.528.16 2.04.48.88.784 1.104 1.392c.232.608.348 1.344.348 2.208 0 .856-.116 1.592-.348 2.208-.224.608-.592 1.072-1.104 1.392s-1.192.48-2.04.48zm0-1.392c.696 0 1.176-.232 1.44-.696.272-.464.408-1.128.408-1.992s-.136-1.528-.408-1.992c-.264-.464-.744-.696-1.44-.696s-1.18.232-1.452.696c-.264.464-.396 1.128-.396 1.992s.132 1.528.396 1.992c.272.464.756.696 1.452.696zm7.26 1.08v-7.728h3.24c1.16 0 2.032.3 2.616.9.592.592.888 1.592.888 3 0 1.328-.292 2.3-.876 2.916-.576.608-1.452.912-2.628.912h-3.24zm1.62-1.248h1.392c.456 0 .84-.068 1.152-.204.312-.144.544-.4.696-.768.16-.376.24-.912.24-1.608s-.072-1.228-.216-1.596-.368-.62-.672-.756-.704-.204-1.2-.204h-1.392v5.136zm7.867 1.368a2.63 2.63 0 0 1-1.008-.192c-.304-.136-.552-.332-.744-.588-.184-.264-.276-.592-.276-.984 0-.56.196-1.008.588-1.344.4-.336.988-.504 1.764-.504h1.68v-.156c0-.352-.1-.6-.3-.744-.192-.144-.584-.216-1.176-.216a5.88 5.88 0 0 0-1.872.3v-1.14c.264-.104.584-.188.96-.252.384-.072.8-.108 1.248-.108.856 0 1.516.176 1.98.528.472.344.708.9.708 1.668V292h-1.404l-.084-.516a2.38 2.38 0 0 1-.828.468c-.328.112-.74.168-1.236.168zm.444-1.068c.36 0 .672-.06.936-.18s.472-.272.624-.456v-.9h-1.644c-.632 0-.948.26-.948.78 0 .504.344.756 1.032.756zm5.361 3.06a4.05 4.05 0 0 1-.66-.048 2.34 2.34 0 0 1-.564-.144v-1.14c.136.048.26.08.372.096a2.72 2.72 0 0 0 .36.024c.328 0 .58-.076.756-.228.184-.152.368-.408.552-.768l-2.544-5.592h1.692l1.668 3.864 1.656-3.864h1.68l-2.244 5.292c-.208.496-.436.932-.684 1.308-.24.384-.524.68-.852.888s-.724.312-1.188.312zm7.337-1.992c-.424 0-.828-.032-1.212-.096a4.52 4.52 0 0 1-.924-.216v-1.344c.28.112.596.2.948.264a6.22 6.22 0 0 0 .972.084c.4 0 .68-.024.84-.072.168-.048.252-.156.252-.324 0-.192-.128-.332-.384-.42l-1.116-.372c-.52-.176-.92-.388-1.2-.636s-.42-.616-.42-1.104c0-.544.196-.96.588-1.248.4-.296 1.04-.444 1.92-.444.352 0 .684.028.996.084.312.048.576.108.792.18v1.332a2.8 2.8 0 0 0-.744-.228c-.28-.056-.54-.084-.78-.084a3.82 3.82 0 0 0-.828.072c-.2.048-.3.152-.3.312 0 .176.108.3.324.372l1.032.324c.456.136.812.284 1.068.444s.436.352.54.576c.104.216.156.488.156.816 0 1.152-.84 1.728-2.52 1.728zm9.125 0c-1.064 0-1.844-.256-2.34-.768-.496-.52-.744-1.252-.744-2.196s.248-1.672.744-2.184c.504-.52 1.284-.78 2.34-.78 1.064 0 1.844.26 2.34.78.504.512.756 1.24.756 2.184s-.248 1.676-.744 2.196c-.496.512-1.28.768-2.352.768zm0-1.38c.52 0 .892-.116 1.116-.348.224-.24.336-.652.336-1.236s-.112-.992-.336-1.224c-.224-.24-.596-.36-1.116-.36-.512 0-.88.12-1.104.36-.224.232-.336.64-.336 1.224s.112.996.336 1.236c.224.232.592.348 1.104.348zm4.522 1.26v-4.44h-.792v-1.248h.792v-.576c0-.592.168-1.076.504-1.452s.832-.564 1.488-.564a3.77 3.77 0 0 1 .708.06 3.03 3.03 0 0 1 .576.168v1.116c-.12-.04-.236-.072-.348-.096a1.78 1.78 0 0 0-.372-.036c-.344 0-.588.064-.732.192-.136.12-.204.332-.204.636v.552h1.44l-.072 1.248h-1.368V292h-1.62zm6.79 0v-7.728h3.24c1.16 0 2.032.3 2.616.9.592.592.888 1.592.888 3 0 1.328-.292 2.3-.876 2.916-.576.608-1.452.912-2.628.912h-3.24zm1.62-1.248h1.392c.456 0 .84-.068 1.152-.204.312-.144.544-.4.696-.768.16-.376.24-.912.24-1.608s-.072-1.228-.216-1.596-.368-.62-.672-.756-.704-.204-1.2-.204h-1.392v5.136zm9.219 1.368c-.984 0-1.764-.244-2.34-.732-.576-.496-.864-1.244-.864-2.244 0-.904.24-1.62.72-2.148.488-.536 1.212-.804 2.172-.804.88 0 1.552.232 2.016.696.472.456.708 1.056.708 1.8v1.032h-4.116c.088.456.296.768.624.936.336.168.808.252 1.416.252.304 0 .612-.028.924-.084.32-.056.592-.128.816-.216v1.152c-.264.12-.572.208-.924.264a6.45 6.45 0 0 1-1.152.096zm-1.704-3.396h2.7v-.312c0-.328-.096-.584-.288-.768-.192-.192-.516-.288-.972-.288-.536 0-.912.108-1.128.324-.208.216-.312.564-.312 1.044zm7.189 3.396c-.424 0-.828-.032-1.212-.096a4.52 4.52 0 0 1-.924-.216v-1.344c.28.112.596.2.948.264a6.22 6.22 0 0 0 .972.084c.4 0 .68-.024.84-.072.168-.048.252-.156.252-.324 0-.192-.128-.332-.384-.42l-1.116-.372c-.52-.176-.92-.388-1.2-.636s-.42-.616-.42-1.104c0-.544.196-.96.588-1.248.4-.296 1.04-.444 1.92-.444.352 0 .684.028.996.084.312.048.576.108.792.18v1.332a2.8 2.8 0 0 0-.744-.228c-.28-.056-.54-.084-.78-.084a3.82 3.82 0 0 0-.828.072c-.2.048-.3.152-.3.312 0 .176.108.3.324.372l1.032.324c.456.136.812.284 1.068.444s.436.352.54.576c.104.216.156.488.156.816 0 1.152-.84 1.728-2.52 1.728zm4.041-6.852v-1.272h1.764v1.272h-1.764zm.132 6.732v-4.488h-.852l.144-1.2h2.328V292h-1.62zm5.399 2.112c-.424 0-.86-.028-1.308-.084-.44-.056-.812-.136-1.116-.24v-1.212c.32.104.696.184 1.128.24.432.064.836.096 1.212.096.552 0 .952-.032 1.2-.096.248-.056.372-.16.372-.312 0-.128-.056-.216-.168-.264-.104-.048-.328-.072-.672-.072h-1.548c-1.016 0-1.524-.376-1.524-1.128a1.12 1.12 0 0 1 .192-.636c.128-.192.332-.344.612-.456-.648-.328-.972-.88-.972-1.656 0-.736.228-1.268.684-1.596.456-.336 1.132-.504 2.028-.504.184 0 .384.016.6.048l.504.072h2.136l-.036 1.02h-.9c.248.232.372.556.372.972 0 .584-.184 1.052-.552 1.404-.368.344-.912.516-1.632.516-.128 0-.252-.004-.372-.012l-.348-.048c-.24.032-.444.088-.612.168-.16.08-.24.188-.24.324 0 .184.164.276.492.276h1.608c.576 0 1.02.132 1.332.396.312.256.468.632.468 1.128 0 .56-.252.976-.756 1.248s-1.232.408-2.184.408zm.132-4.8c.48 0 .812-.08.996-.24.192-.168.288-.448.288-.84s-.096-.676-.288-.852c-.184-.176-.516-.264-.996-.264-.456 0-.784.088-.984.264-.2.168-.3.452-.3.852 0 .368.092.64.276.816.192.176.528.264 1.008.264zm3.902 2.688v-5.688h1.5l.06.54c.232-.176.524-.328.876-.456.36-.136.736-.204 1.128-.204.752 0 1.3.176 1.644.528s.516.896.516 1.632V292h-1.62v-3.564c0-.384-.08-.656-.24-.816-.152-.16-.44-.24-.864-.24-.248 0-.5.056-.756.168-.248.112-.456.252-.624.42V292h-1.62z"/><use xlink:href="#D"/><use xlink:href="#D" x="126"/></g><rect x="31" y="89" width="258" height="254" rx="127" fill="#f2cd5d"/><path d="M63.1 237v-38.64h18.36c4.08 0 7.62.66 10.62 1.98 3 1.28 5.32 3.36 6.96 6.24 1.64 2.84 2.46 6.62 2.46 11.34 0 4.48-.82 8.12-2.46 10.92-1.6 2.8-3.9 4.86-6.9 6.18-2.96 1.32-6.52 1.98-10.68 1.98H63.1zm14.52-11.04h2.16c1.44 0 2.68-.2 3.72-.6s1.84-1.18 2.4-2.34.84-2.86.84-5.1-.26-3.9-.78-4.98c-.52-1.12-1.3-1.84-2.34-2.16-1-.36-2.28-.54-3.84-.54h-2.16v15.72zm34.495 11.64c-1.8 0-3.46-.32-4.98-.96s-2.74-1.66-3.66-3.06-1.38-3.22-1.38-5.46c0-3.2 1-5.62 3-7.26 2.04-1.64 5.16-2.46 9.36-2.46h6.36v-.3c0-.44-.42-.82-1.26-1.14-.84-.36-2.12-.54-3.84-.54-1.52 0-3.18.14-4.98.42-1.76.24-3.44.6-5.04 1.08v-7.8c1.56-.68 3.54-1.2 5.94-1.56 2.44-.4 4.76-.6 6.96-.6 3.16 0 5.94.44 8.34 1.32 2.4.84 4.28 2.16 5.64 3.96 1.36 1.76 2.04 4.02 2.04 6.78V237h-12.72l-.6-2.04c-.96.76-2.2 1.4-3.72 1.92-1.48.48-3.3.72-5.46.72zm5.46-7.92c.76 0 1.38-.12 1.86-.36a4.75 4.75 0 0 0 1.38-.96v-2.64h-2.64c-1.8 0-2.7.66-2.7 1.98s.7 1.98 2.1 1.98zm29.88 17.88c-1.96 0-3.56-.1-4.8-.3-1.2-.2-2.42-.56-3.66-1.08v-9.24c1.16.4 2.36.6 3.6.6 1.2 0 2.2-.1 3-.3.8-.16 1.48-.54 2.04-1.14l-13.02-27.54h15.18l4.98 14.16 4.74-14.16h15.12l-9.78 25.02c-1.72 4.36-3.96 7.78-6.72 10.26s-6.32 3.72-10.68 3.72zM186.939 237v-6.42a33.57 33.57 0 0 1 3.9-5.16c1.44-1.6 3.08-3.2 4.92-4.8 2.24-1.92 3.86-3.4 4.86-4.44s1.5-2.12 1.5-3.24c0-1.88-1.38-2.82-4.14-2.82a22.46 22.46 0 0 0-5.22.6 29.2 29.2 0 0 0-4.68 1.56v-12.06c1.76-.76 3.84-1.36 6.24-1.8s4.9-.66 7.5-.66c5.12 0 8.92 1.16 11.4 3.48s3.72 5.36 3.72 9.12c0 1.64-.18 3.06-.54 4.26s-.96 2.34-1.8 3.42c-.8 1.04-1.9 2.18-3.3 3.42l-2.64 2.34c-.96.8-1.66 1.52-2.1 2.16h10.68V237h-30.3zm51.609.6c-6.92 0-11.9-1.72-14.94-5.16s-4.56-8.36-4.56-14.76c0-6.44 1.52-11.36 4.56-14.76 3.04-3.44 8.02-5.16 14.94-5.16s11.9 1.72 14.94 5.16c3.04 3.4 4.56 8.32 4.56 14.76 0 6.4-1.52 11.32-4.56 14.76s-8.02 5.16-14.94 5.16zm0-12.36c1.72 0 2.92-.62 3.6-1.86.72-1.24 1.08-3.14 1.08-5.7s-.36-4.46-1.08-5.7c-.68-1.24-1.88-1.86-3.6-1.86s-2.94.62-3.66 1.86c-.68 1.24-1.02 3.14-1.02 5.7s.34 4.46 1.02 5.7c.72 1.24 1.94 1.86 3.66 1.86z" fill="#dea54b"/><path d="M165.32 400.063H376c-101.269 3.5-132.352 28.208-148.896 36.506-60.944 30.567-60.298-.485-61.784-36.506H0V0c37.099 63.51 44.619 51.008 11.029 141.522-11.076 29.846 19.051 23.004 24.136 48.008 4.242 20.858-15.348 50.525 12.462 63.51 23.563 11.002 55.648-3.001 66.677 0 34.636 9.422 17.547 58.509 41.611 100.016 7.607 13.12 8.727 30.58 9.405 47.007z" fill="#0d0c0e"/><path d="M186.5 0H376v192.322c-21.5-35-62.502 11.21-114.001-21.556s-97.499 63.5-104.499 0-144 41.734-109 13.734C254.13 19.996-71 0 186.5 0z" fill="#5398be"/><defs ><path id="B" d="M139.704 333v-6.264l-1.26.204v-1.356l2.88-.432V333h-1.62zm6.24.312c-.848 0-1.528-.16-2.04-.48s-.884-.784-1.116-1.392c-.224-.616-.336-1.352-.336-2.208 0-.864.112-1.6.336-2.208.232-.608.604-1.072 1.116-1.392s1.192-.48 2.04-.48 1.528.16 2.04.48.88.784 1.104 1.392c.232.608.348 1.344.348 2.208 0 .856-.116 1.592-.348 2.208-.224.608-.592 1.072-1.104 1.392s-1.192.48-2.04.48zm0-1.392c.696 0 1.176-.232 1.44-.696.272-.464.408-1.128.408-1.992s-.136-1.528-.408-1.992c-.264-.464-.744-.696-1.44-.696s-1.18.232-1.452.696c-.264.464-.396 1.128-.396 1.992s.132 1.528.396 1.992c.272.464.756.696 1.452.696zm7.875 1.392c-.848 0-1.528-.16-2.04-.48s-.884-.784-1.116-1.392c-.224-.616-.336-1.352-.336-2.208 0-.864.112-1.6.336-2.208.232-.608.604-1.072 1.116-1.392s1.192-.48 2.04-.48 1.528.16 2.04.48.88.784 1.104 1.392c.232.608.348 1.344.348 2.208 0 .856-.116 1.592-.348 2.208-.224.608-.592 1.072-1.104 1.392s-1.192.48-2.04.48zm0-1.392c.696 0 1.176-.232 1.44-.696.272-.464.408-1.128.408-1.992s-.136-1.528-.408-1.992c-.264-.464-.744-.696-1.44-.696s-1.18.232-1.452.696c-.264.464-.396 1.128-.396 1.992s.132 1.528.396 1.992c.272.464.756.696 1.452.696zm7.26 1.08v-7.728h3.24c1.16 0 2.032.3 2.616.9.592.592.888 1.592.888 3 0 1.328-.292 2.3-.876 2.916-.576.608-1.452.912-2.628.912h-3.24zm1.62-1.248h1.392c.456 0 .84-.068 1.152-.204.312-.144.544-.4.696-.768.16-.376.24-.912.24-1.608s-.072-1.228-.216-1.596-.368-.62-.672-.756-.704-.204-1.2-.204h-1.392v5.136zm7.867 1.368a2.63 2.63 0 0 1-1.008-.192c-.304-.136-.552-.332-.744-.588-.184-.264-.276-.592-.276-.984 0-.56.196-1.008.588-1.344.4-.336.988-.504 1.764-.504h1.68v-.156c0-.352-.1-.6-.3-.744-.192-.144-.584-.216-1.176-.216a5.88 5.88 0 0 0-1.872.3v-1.14c.264-.104.584-.188.96-.252.384-.072.8-.108 1.248-.108.856 0 1.516.176 1.98.528.472.344.708.9.708 1.668V333h-1.404l-.084-.516a2.38 2.38 0 0 1-.828.468c-.328.112-.74.168-1.236.168zm.444-1.068c.36 0 .672-.06.936-.18s.472-.272.624-.456v-.9h-1.644c-.632 0-.948.26-.948.78 0 .504.344.756 1.032.756zm5.361 3.06a4.05 4.05 0 0 1-.66-.048 2.34 2.34 0 0 1-.564-.144v-1.14c.136.048.26.08.372.096a2.72 2.72 0 0 0 .36.024c.328 0 .58-.076.756-.228.184-.152.368-.408.552-.768l-2.544-5.592h1.692l1.668 3.864 1.656-3.864h1.68l-2.244 5.292c-.208.496-.436.932-.684 1.308-.24.384-.524.68-.852.888s-.724.312-1.188.312zm7.337-1.992c-.424 0-.828-.032-1.212-.096a4.52 4.52 0 0 1-.924-.216v-1.344c.28.112.596.2.948.264a6.22 6.22 0 0 0 .972.084c.4 0 .68-.024.84-.072.168-.048.252-.156.252-.324 0-.192-.128-.332-.384-.42l-1.116-.372c-.52-.176-.92-.388-1.2-.636s-.42-.616-.42-1.104c0-.544.196-.96.588-1.248.4-.296 1.04-.444 1.92-.444.352 0 .684.028.996.084.312.048.576.108.792.18v1.332a2.8 2.8 0 0 0-.744-.228c-.28-.056-.54-.084-.78-.084a3.82 3.82 0 0 0-.828.072c-.2.048-.3.152-.3.312 0 .176.108.3.324.372l1.032.324c.456.136.812.284 1.068.444s.436.352.54.576c.104.216.156.488.156.816 0 1.152-.84 1.728-2.52 1.728zm9.125 0c-1.064 0-1.844-.256-2.34-.768-.496-.52-.744-1.252-.744-2.196s.248-1.672.744-2.184c.504-.52 1.284-.78 2.34-.78 1.064 0 1.844.26 2.34.78.504.512.756 1.24.756 2.184s-.248 1.676-.744 2.196c-.496.512-1.28.768-2.352.768zm0-1.38c.52 0 .892-.116 1.116-.348.224-.24.336-.652.336-1.236s-.112-.992-.336-1.224c-.224-.24-.596-.36-1.116-.36-.512 0-.88.12-1.104.36-.224.232-.336.64-.336 1.224s.112.996.336 1.236c.224.232.592.348 1.104.348zm4.522 1.26v-4.44h-.792v-1.248h.792v-.576c0-.592.168-1.076.504-1.452s.832-.564 1.488-.564a3.77 3.77 0 0 1 .708.06 3.03 3.03 0 0 1 .576.168v1.116c-.12-.04-.236-.072-.348-.096a1.78 1.78 0 0 0-.372-.036c-.344 0-.588.064-.732.192-.136.12-.204.332-.204.636v.552h1.44l-.072 1.248h-1.368V333h-1.62zm6.79 0v-7.728h3.24c1.16 0 2.032.3 2.616.9.592.592.888 1.592.888 3 0 1.328-.292 2.3-.876 2.916-.576.608-1.452.912-2.628.912h-3.24zm1.62-1.248h1.392c.456 0 .84-.068 1.152-.204.312-.144.544-.4.696-.768.16-.376.24-.912.24-1.608s-.072-1.228-.216-1.596-.368-.62-.672-.756-.704-.204-1.2-.204h-1.392v5.136zm9.219 1.368c-.984 0-1.764-.244-2.34-.732-.576-.496-.864-1.244-.864-2.244 0-.904.24-1.62.72-2.148.488-.536 1.212-.804 2.172-.804.88 0 1.552.232 2.016.696.472.456.708 1.056.708 1.8v1.032h-4.116c.088.456.296.768.624.936.336.168.808.252 1.416.252.304 0 .612-.028.924-.084.32-.056.592-.128.816-.216v1.152c-.264.12-.572.208-.924.264a6.45 6.45 0 0 1-1.152.096zm-1.704-3.396h2.7v-.312c0-.328-.096-.584-.288-.768-.192-.192-.516-.288-.972-.288-.536 0-.912.108-1.128.324-.208.216-.312.564-.312 1.044zm7.189 3.396c-.424 0-.828-.032-1.212-.096a4.52 4.52 0 0 1-.924-.216v-1.344c.28.112.596.2.948.264a6.22 6.22 0 0 0 .972.084c.4 0 .68-.024.84-.072.168-.048.252-.156.252-.324 0-.192-.128-.332-.384-.42l-1.116-.372c-.52-.176-.92-.388-1.2-.636s-.42-.616-.42-1.104c0-.544.196-.96.588-1.248.4-.296 1.04-.444 1.92-.444.352 0 .684.028.996.084.312.048.576.108.792.18v1.332a2.8 2.8 0 0 0-.744-.228c-.28-.056-.54-.084-.78-.084a3.82 3.82 0 0 0-.828.072c-.2.048-.3.152-.3.312 0 .176.108.3.324.372l1.032.324c.456.136.812.284 1.068.444s.436.352.54.576c.104.216.156.488.156.816 0 1.152-.84 1.728-2.52 1.728zm4.041-6.852v-1.272h1.764v1.272h-1.764zm.132 6.732v-4.488h-.852l.144-1.2h2.328V333h-1.62zm5.399 2.112c-.424 0-.86-.028-1.308-.084-.44-.056-.812-.136-1.116-.24v-1.212c.32.104.696.184 1.128.24.432.064.836.096 1.212.096.552 0 .952-.032 1.2-.096.248-.056.372-.16.372-.312 0-.128-.056-.216-.168-.264-.104-.048-.328-.072-.672-.072h-1.548c-1.016 0-1.524-.376-1.524-1.128a1.12 1.12 0 0 1 .192-.636c.128-.192.332-.344.612-.456-.648-.328-.972-.88-.972-1.656 0-.736.228-1.268.684-1.596.456-.336 1.132-.504 2.028-.504.184 0 .384.016.6.048l.504.072h2.136l-.036 1.02h-.9c.248.232.372.556.372.972 0 .584-.184 1.052-.552 1.404-.368.344-.912.516-1.632.516-.128 0-.252-.004-.372-.012l-.348-.048c-.24.032-.444.088-.612.168-.16.08-.24.188-.24.324 0 .184.164.276.492.276h1.608c.576 0 1.02.132 1.332.396.312.256.468.632.468 1.128 0 .56-.252.976-.756 1.248s-1.232.408-2.184.408zm.132-4.8c.48 0 .812-.08.996-.24.192-.168.288-.448.288-.84s-.096-.676-.288-.852c-.184-.176-.516-.264-.996-.264-.456 0-.784.088-.984.264-.2.168-.3.452-.3.852 0 .368.092.64.276.816.192.176.528.264 1.008.264zm3.902 2.688v-5.688h1.5l.06.54c.232-.176.524-.328.876-.456.36-.136.736-.204 1.128-.204.752 0 1.3.176 1.644.528s.516.896.516 1.632V333h-1.62v-3.564c0-.384-.08-.656-.24-.816-.152-.16-.44-.24-.864-.24-.248 0-.5.056-.756.168-.248.112-.456.252-.624.42V333h-1.62z"/><path id="C" d="M139.704 378v-6.264l-1.26.204v-1.356l2.88-.432V378h-1.62zm6.24.312c-.848 0-1.528-.16-2.04-.48s-.884-.784-1.116-1.392c-.224-.616-.336-1.352-.336-2.208 0-.864.112-1.6.336-2.208.232-.608.604-1.072 1.116-1.392s1.192-.48 2.04-.48 1.528.16 2.04.48.88.784 1.104 1.392c.232.608.348 1.344.348 2.208 0 .856-.116 1.592-.348 2.208-.224.608-.592 1.072-1.104 1.392s-1.192.48-2.04.48zm0-1.392c.696 0 1.176-.232 1.44-.696.272-.464.408-1.128.408-1.992s-.136-1.528-.408-1.992c-.264-.464-.744-.696-1.44-.696s-1.18.232-1.452.696c-.264.464-.396 1.128-.396 1.992s.132 1.528.396 1.992c.272.464.756.696 1.452.696zm7.875 1.392c-.848 0-1.528-.16-2.04-.48s-.884-.784-1.116-1.392c-.224-.616-.336-1.352-.336-2.208 0-.864.112-1.6.336-2.208.232-.608.604-1.072 1.116-1.392s1.192-.48 2.04-.48 1.528.16 2.04.48.88.784 1.104 1.392c.232.608.348 1.344.348 2.208 0 .856-.116 1.592-.348 2.208-.224.608-.592 1.072-1.104 1.392s-1.192.48-2.04.48zm0-1.392c.696 0 1.176-.232 1.44-.696.272-.464.408-1.128.408-1.992s-.136-1.528-.408-1.992c-.264-.464-.744-.696-1.44-.696s-1.18.232-1.452.696c-.264.464-.396 1.128-.396 1.992s.132 1.528.396 1.992c.272.464.756.696 1.452.696zm7.26 1.08v-7.728h3.24c1.16 0 2.032.3 2.616.9.592.592.888 1.592.888 3 0 1.328-.292 2.3-.876 2.916-.576.608-1.452.912-2.628.912h-3.24zm1.62-1.248h1.392c.456 0 .84-.068 1.152-.204.312-.144.544-.4.696-.768.16-.376.24-.912.24-1.608s-.072-1.228-.216-1.596-.368-.62-.672-.756-.704-.204-1.2-.204h-1.392v5.136zm7.867 1.368a2.63 2.63 0 0 1-1.008-.192c-.304-.136-.552-.332-.744-.588-.184-.264-.276-.592-.276-.984 0-.56.196-1.008.588-1.344.4-.336.988-.504 1.764-.504h1.68v-.156c0-.352-.1-.6-.3-.744-.192-.144-.584-.216-1.176-.216a5.88 5.88 0 0 0-1.872.3v-1.14c.264-.104.584-.188.96-.252.384-.072.8-.108 1.248-.108.856 0 1.516.176 1.98.528.472.344.708.9.708 1.668V378h-1.404l-.084-.516a2.38 2.38 0 0 1-.828.468c-.328.112-.74.168-1.236.168zm.444-1.068c.36 0 .672-.06.936-.18s.472-.272.624-.456v-.9h-1.644c-.632 0-.948.26-.948.78 0 .504.344.756 1.032.756zm5.361 3.06a4.05 4.05 0 0 1-.66-.048 2.34 2.34 0 0 1-.564-.144v-1.14c.136.048.26.08.372.096a2.72 2.72 0 0 0 .36.024c.328 0 .58-.076.756-.228.184-.152.368-.408.552-.768l-2.544-5.592h1.692l1.668 3.864 1.656-3.864h1.68l-2.244 5.292c-.208.496-.436.932-.684 1.308-.24.384-.524.68-.852.888s-.724.312-1.188.312zm7.337-1.992c-.424 0-.828-.032-1.212-.096a4.52 4.52 0 0 1-.924-.216v-1.344c.28.112.596.2.948.264a6.22 6.22 0 0 0 .972.084c.4 0 .68-.024.84-.072.168-.048.252-.156.252-.324 0-.192-.128-.332-.384-.42l-1.116-.372c-.52-.176-.92-.388-1.2-.636s-.42-.616-.42-1.104c0-.544.196-.96.588-1.248.4-.296 1.04-.444 1.92-.444.352 0 .684.028.996.084.312.048.576.108.792.18v1.332a2.8 2.8 0 0 0-.744-.228c-.28-.056-.54-.084-.78-.084a3.82 3.82 0 0 0-.828.072c-.2.048-.3.152-.3.312 0 .176.108.3.324.372l1.032.324c.456.136.812.284 1.068.444s.436.352.54.576c.104.216.156.488.156.816 0 1.152-.84 1.728-2.52 1.728zm9.125 0c-1.064 0-1.844-.256-2.34-.768-.496-.52-.744-1.252-.744-2.196s.248-1.672.744-2.184c.504-.52 1.284-.78 2.34-.78 1.064 0 1.844.26 2.34.78.504.512.756 1.24.756 2.184s-.248 1.676-.744 2.196c-.496.512-1.28.768-2.352.768zm0-1.38c.52 0 .892-.116 1.116-.348.224-.24.336-.652.336-1.236s-.112-.992-.336-1.224c-.224-.24-.596-.36-1.116-.36-.512 0-.88.12-1.104.36-.224.232-.336.64-.336 1.224s.112.996.336 1.236c.224.232.592.348 1.104.348zm4.522 1.26v-4.44h-.792v-1.248h.792v-.576c0-.592.168-1.076.504-1.452s.832-.564 1.488-.564a3.77 3.77 0 0 1 .708.06 3.03 3.03 0 0 1 .576.168v1.116c-.12-.04-.236-.072-.348-.096a1.78 1.78 0 0 0-.372-.036c-.344 0-.588.064-.732.192-.136.12-.204.332-.204.636v.552h1.44l-.072 1.248h-1.368V378h-1.62zm6.79 0v-7.728h3.24c1.16 0 2.032.3 2.616.9.592.592.888 1.592.888 3 0 1.328-.292 2.3-.876 2.916-.576.608-1.452.912-2.628.912h-3.24zm1.62-1.248h1.392c.456 0 .84-.068 1.152-.204.312-.144.544-.4.696-.768.16-.376.24-.912.24-1.608s-.072-1.228-.216-1.596-.368-.62-.672-.756-.704-.204-1.2-.204h-1.392v5.136zm9.219 1.368c-.984 0-1.764-.244-2.34-.732-.576-.496-.864-1.244-.864-2.244 0-.904.24-1.62.72-2.148.488-.536 1.212-.804 2.172-.804.88 0 1.552.232 2.016.696.472.456.708 1.056.708 1.8v1.032h-4.116c.088.456.296.768.624.936.336.168.808.252 1.416.252.304 0 .612-.028.924-.084.32-.056.592-.128.816-.216v1.152c-.264.12-.572.208-.924.264a6.45 6.45 0 0 1-1.152.096zm-1.704-3.396h2.7v-.312c0-.328-.096-.584-.288-.768-.192-.192-.516-.288-.972-.288-.536 0-.912.108-1.128.324-.208.216-.312.564-.312 1.044zm7.189 3.396c-.424 0-.828-.032-1.212-.096a4.52 4.52 0 0 1-.924-.216v-1.344c.28.112.596.2.948.264a6.22 6.22 0 0 0 .972.084c.4 0 .68-.024.84-.072.168-.048.252-.156.252-.324 0-.192-.128-.332-.384-.42l-1.116-.372c-.52-.176-.92-.388-1.2-.636s-.42-.616-.42-1.104c0-.544.196-.96.588-1.248.4-.296 1.04-.444 1.92-.444.352 0 .684.028.996.084.312.048.576.108.792.18v1.332a2.8 2.8 0 0 0-.744-.228c-.28-.056-.54-.084-.78-.084a3.82 3.82 0 0 0-.828.072c-.2.048-.3.152-.3.312 0 .176.108.3.324.372l1.032.324c.456.136.812.284 1.068.444s.436.352.54.576c.104.216.156.488.156.816 0 1.152-.84 1.728-2.52 1.728zm4.041-6.852v-1.272h1.764v1.272h-1.764zm.132 6.732v-4.488h-.852l.144-1.2h2.328V378h-1.62zm5.399 2.112c-.424 0-.86-.028-1.308-.084-.44-.056-.812-.136-1.116-.24v-1.212c.32.104.696.184 1.128.24.432.064.836.096 1.212.096.552 0 .952-.032 1.2-.096.248-.056.372-.16.372-.312 0-.128-.056-.216-.168-.264-.104-.048-.328-.072-.672-.072h-1.548c-1.016 0-1.524-.376-1.524-1.128a1.12 1.12 0 0 1 .192-.636c.128-.192.332-.344.612-.456-.648-.328-.972-.88-.972-1.656 0-.736.228-1.268.684-1.596.456-.336 1.132-.504 2.028-.504.184 0 .384.016.6.048l.504.072h2.136l-.036 1.02h-.9c.248.232.372.556.372.972 0 .584-.184 1.052-.552 1.404-.368.344-.912.516-1.632.516-.128 0-.252-.004-.372-.012l-.348-.048c-.24.032-.444.088-.612.168-.16.08-.24.188-.24.324 0 .184.164.276.492.276h1.608c.576 0 1.02.132 1.332.396.312.256.468.632.468 1.128 0 .56-.252.976-.756 1.248s-1.232.408-2.184.408zm.132-4.8c.48 0 .812-.08.996-.24.192-.168.288-.448.288-.84s-.096-.676-.288-.852c-.184-.176-.516-.264-.996-.264-.456 0-.784.088-.984.264-.2.168-.3.452-.3.852 0 .368.092.64.276.816.192.176.528.264 1.008.264zm3.902 2.688v-5.688h1.5l.06.54c.232-.176.524-.328.876-.456.36-.136.736-.204 1.128-.204.752 0 1.3.176 1.644.528s.516.896.516 1.632V378h-1.62v-3.564c0-.384-.08-.656-.24-.816-.152-.16-.44-.24-.864-.24-.248 0-.5.056-.756.168-.248.112-.456.252-.624.42V378h-1.62z"/><path id="D" d="M139.704 335v-6.264l-1.26.204v-1.356l2.88-.432V335h-1.62zm6.24.312c-.848 0-1.528-.16-2.04-.48s-.884-.784-1.116-1.392c-.224-.616-.336-1.352-.336-2.208 0-.864.112-1.6.336-2.208.232-.608.604-1.072 1.116-1.392s1.192-.48 2.04-.48 1.528.16 2.04.48.88.784 1.104 1.392c.232.608.348 1.344.348 2.208 0 .856-.116 1.592-.348 2.208-.224.608-.592 1.072-1.104 1.392s-1.192.48-2.04.48zm0-1.392c.696 0 1.176-.232 1.44-.696.272-.464.408-1.128.408-1.992s-.136-1.528-.408-1.992c-.264-.464-.744-.696-1.44-.696s-1.18.232-1.452.696c-.264.464-.396 1.128-.396 1.992s.132 1.528.396 1.992c.272.464.756.696 1.452.696zm7.875 1.392c-.848 0-1.528-.16-2.04-.48s-.884-.784-1.116-1.392c-.224-.616-.336-1.352-.336-2.208 0-.864.112-1.6.336-2.208.232-.608.604-1.072 1.116-1.392s1.192-.48 2.04-.48 1.528.16 2.04.48.88.784 1.104 1.392c.232.608.348 1.344.348 2.208 0 .856-.116 1.592-.348 2.208-.224.608-.592 1.072-1.104 1.392s-1.192.48-2.04.48zm0-1.392c.696 0 1.176-.232 1.44-.696.272-.464.408-1.128.408-1.992s-.136-1.528-.408-1.992c-.264-.464-.744-.696-1.44-.696s-1.18.232-1.452.696c-.264.464-.396 1.128-.396 1.992s.132 1.528.396 1.992c.272.464.756.696 1.452.696zm7.26 1.08v-7.728h3.24c1.16 0 2.032.3 2.616.9.592.592.888 1.592.888 3 0 1.328-.292 2.3-.876 2.916-.576.608-1.452.912-2.628.912h-3.24zm1.62-1.248h1.392c.456 0 .84-.068 1.152-.204.312-.144.544-.4.696-.768.16-.376.24-.912.24-1.608s-.072-1.228-.216-1.596-.368-.62-.672-.756-.704-.204-1.2-.204h-1.392v5.136zm7.867 1.368a2.63 2.63 0 0 1-1.008-.192c-.304-.136-.552-.332-.744-.588-.184-.264-.276-.592-.276-.984 0-.56.196-1.008.588-1.344.4-.336.988-.504 1.764-.504h1.68v-.156c0-.352-.1-.6-.3-.744-.192-.144-.584-.216-1.176-.216a5.88 5.88 0 0 0-1.872.3v-1.14c.264-.104.584-.188.96-.252.384-.072.8-.108 1.248-.108.856 0 1.516.176 1.98.528.472.344.708.9.708 1.668V335h-1.404l-.084-.516a2.38 2.38 0 0 1-.828.468c-.328.112-.74.168-1.236.168zm.444-1.068c.36 0 .672-.06.936-.18s.472-.272.624-.456v-.9h-1.644c-.632 0-.948.26-.948.78 0 .504.344.756 1.032.756zm5.361 3.06a4.05 4.05 0 0 1-.66-.048 2.34 2.34 0 0 1-.564-.144v-1.14c.136.048.26.08.372.096a2.72 2.72 0 0 0 .36.024c.328 0 .58-.076.756-.228.184-.152.368-.408.552-.768l-2.544-5.592h1.692l1.668 3.864 1.656-3.864h1.68l-2.244 5.292c-.208.496-.436.932-.684 1.308-.24.384-.524.68-.852.888s-.724.312-1.188.312zm7.337-1.992c-.424 0-.828-.032-1.212-.096a4.52 4.52 0 0 1-.924-.216v-1.344c.28.112.596.2.948.264a6.22 6.22 0 0 0 .972.084c.4 0 .68-.024.84-.072.168-.048.252-.156.252-.324 0-.192-.128-.332-.384-.42l-1.116-.372c-.52-.176-.92-.388-1.2-.636s-.42-.616-.42-1.104c0-.544.196-.96.588-1.248.4-.296 1.04-.444 1.92-.444.352 0 .684.028.996.084.312.048.576.108.792.18v1.332a2.8 2.8 0 0 0-.744-.228c-.28-.056-.54-.084-.78-.084a3.82 3.82 0 0 0-.828.072c-.2.048-.3.152-.3.312 0 .176.108.3.324.372l1.032.324c.456.136.812.284 1.068.444s.436.352.54.576c.104.216.156.488.156.816 0 1.152-.84 1.728-2.52 1.728zm9.125 0c-1.064 0-1.844-.256-2.34-.768-.496-.52-.744-1.252-.744-2.196s.248-1.672.744-2.184c.504-.52 1.284-.78 2.34-.78 1.064 0 1.844.26 2.34.78.504.512.756 1.24.756 2.184s-.248 1.676-.744 2.196c-.496.512-1.28.768-2.352.768zm0-1.38c.52 0 .892-.116 1.116-.348.224-.24.336-.652.336-1.236s-.112-.992-.336-1.224c-.224-.24-.596-.36-1.116-.36-.512 0-.88.12-1.104.36-.224.232-.336.64-.336 1.224s.112.996.336 1.236c.224.232.592.348 1.104.348zm4.522 1.26v-4.44h-.792v-1.248h.792v-.576c0-.592.168-1.076.504-1.452s.832-.564 1.488-.564a3.77 3.77 0 0 1 .708.06 3.03 3.03 0 0 1 .576.168v1.116c-.12-.04-.236-.072-.348-.096a1.78 1.78 0 0 0-.372-.036c-.344 0-.588.064-.732.192-.136.12-.204.332-.204.636v.552h1.44l-.072 1.248h-1.368V335h-1.62zm6.79 0v-7.728h3.24c1.16 0 2.032.3 2.616.9.592.592.888 1.592.888 3 0 1.328-.292 2.3-.876 2.916-.576.608-1.452.912-2.628.912h-3.24zm1.62-1.248h1.392c.456 0 .84-.068 1.152-.204.312-.144.544-.4.696-.768.16-.376.24-.912.24-1.608s-.072-1.228-.216-1.596-.368-.62-.672-.756-.704-.204-1.2-.204h-1.392v5.136zm9.219 1.368c-.984 0-1.764-.244-2.34-.732-.576-.496-.864-1.244-.864-2.244 0-.904.24-1.62.72-2.148.488-.536 1.212-.804 2.172-.804.88 0 1.552.232 2.016.696.472.456.708 1.056.708 1.8v1.032h-4.116c.088.456.296.768.624.936.336.168.808.252 1.416.252.304 0 .612-.028.924-.084.32-.056.592-.128.816-.216v1.152c-.264.12-.572.208-.924.264a6.45 6.45 0 0 1-1.152.096zm-1.704-3.396h2.7v-.312c0-.328-.096-.584-.288-.768-.192-.192-.516-.288-.972-.288-.536 0-.912.108-1.128.324-.208.216-.312.564-.312 1.044zm7.189 3.396c-.424 0-.828-.032-1.212-.096a4.52 4.52 0 0 1-.924-.216v-1.344c.28.112.596.2.948.264a6.22 6.22 0 0 0 .972.084c.4 0 .68-.024.84-.072.168-.048.252-.156.252-.324 0-.192-.128-.332-.384-.42l-1.116-.372c-.52-.176-.92-.388-1.2-.636s-.42-.616-.42-1.104c0-.544.196-.96.588-1.248.4-.296 1.04-.444 1.92-.444.352 0 .684.028.996.084.312.048.576.108.792.18v1.332a2.8 2.8 0 0 0-.744-.228c-.28-.056-.54-.084-.78-.084a3.82 3.82 0 0 0-.828.072c-.2.048-.3.152-.3.312 0 .176.108.3.324.372l1.032.324c.456.136.812.284 1.068.444s.436.352.54.576c.104.216.156.488.156.816 0 1.152-.84 1.728-2.52 1.728zm4.041-6.852v-1.272h1.764v1.272h-1.764zm.132 6.732v-4.488h-.852l.144-1.2h2.328V335h-1.62zm5.399 2.112c-.424 0-.86-.028-1.308-.084-.44-.056-.812-.136-1.116-.24v-1.212c.32.104.696.184 1.128.24.432.064.836.096 1.212.096.552 0 .952-.032 1.2-.096.248-.056.372-.16.372-.312 0-.128-.056-.216-.168-.264-.104-.048-.328-.072-.672-.072h-1.548c-1.016 0-1.524-.376-1.524-1.128a1.12 1.12 0 0 1 .192-.636c.128-.192.332-.344.612-.456-.648-.328-.972-.88-.972-1.656 0-.736.228-1.268.684-1.596.456-.336 1.132-.504 2.028-.504.184 0 .384.016.6.048l.504.072h2.136l-.036 1.02h-.9c.248.232.372.556.372.972 0 .584-.184 1.052-.552 1.404-.368.344-.912.516-1.632.516-.128 0-.252-.004-.372-.012l-.348-.048c-.24.032-.444.088-.612.168-.16.08-.24.188-.24.324 0 .184.164.276.492.276h1.608c.576 0 1.02.132 1.332.396.312.256.468.632.468 1.128 0 .56-.252.976-.756 1.248s-1.232.408-2.184.408zm.132-4.8c.48 0 .812-.08.996-.24.192-.168.288-.448.288-.84s-.096-.676-.288-.852c-.184-.176-.516-.264-.996-.264-.456 0-.784.088-.984.264-.2.168-.3.452-.3.852 0 .368.092.64.276.816.192.176.528.264 1.008.264zm3.902 2.688v-5.688h1.5l.06.54c.232-.176.524-.328.876-.456.36-.136.736-.204 1.128-.204.752 0 1.3.176 1.644.528s.516.896.516 1.632V335h-1.62v-3.564c0-.384-.08-.656-.24-.816-.152-.16-.44-.24-.864-.24-.248 0-.5.056-.756.168-.248.112-.456.252-.624.42V335h-1.62z"/></defs></svg>