<svg width="375" height="400" viewBox="0 0 375 400" fill="none" xmlns="http://www.w3.org/2000/svg">
<g clip-path="url(#clip0_488317_2240)">
<rect width="375" height="400" fill="#031107"/>
<rect y="238" width="375" height="40" fill="#461CA0"/>
<rect y="122" width="375" height="40" fill="#461CA0"/>
<mask id="mask0_488317_2240" style="mask-type:alpha" maskUnits="userSpaceOnUse" x="-78" y="125" width="157" height="125">
<path d="M0.170097 125.251L16.3126 151.026L78.2596 249.939H-77.9194L-15.9724 151.026L0.170097 125.251Z" fill="#461CA0"/>
</mask>
<g mask="url(#mask0_488317_2240)">
<rect x="-74.3862" y="113.652" width="161.816" height="106.968" fill="#D33C5A"/>
<ellipse cx="0.169975" cy="258.639" rx="78.9861" ry="72.8155" fill="#FFFA98"/>
<path d="M0.844093 274.748L32.8051 224.486H-31.1169L0.844093 274.748Z" fill="#461CA0"/>
</g>
<mask id="mask1_488317_2240" style="mask-type:alpha" maskUnits="userSpaceOnUse" x="109" y="125" width="157" height="125">
<path d="M187.5 125.251L203.642 151.026L265.589 249.939H109.41L171.357 151.026L187.5 125.251Z" fill="#461CA0"/>
</mask>
<g mask="url(#mask1_488317_2240)">
<rect x="112.943" y="113.652" width="161.816" height="106.968" fill="#D33C5A"/>
<ellipse cx="187.5" cy="258.639" rx="78.9861" ry="72.8155" fill="#FFFA98"/>
<path d="M188.173 274.748L223.273 251.595L209.866 214.131H166.481L153.074 251.595L188.173 274.748Z" fill="#461CA0"/>
</g>
<mask id="mask2_488317_2240" style="mask-type:alpha" maskUnits="userSpaceOnUse" x="296" y="125" width="157" height="125">
<path d="M374.83 125.251L390.973 151.026L452.92 249.939H296.741L358.688 151.026L374.83 125.251Z" fill="#461CA0"/>
</mask>
<g mask="url(#mask2_488317_2240)">
<rect x="300.274" y="113.652" width="161.816" height="106.968" fill="#D33C5A"/>
<ellipse cx="374.83" cy="258.639" rx="78.9861" ry="72.8155" fill="#FFFA98"/>
<path d="M375.504 274.748L407.465 224.486H343.543L375.504 274.748Z" fill="#461CA0"/>
</g>
<mask id="mask3_488317_2240" style="mask-type:alpha" maskUnits="userSpaceOnUse" x="15" y="150" width="157" height="125">
<path d="M93.8351 274.748L109.978 248.973L171.925 150.06H15.7456L77.6926 248.973L93.8351 274.748Z" fill="#461CA0"/>
</mask>
<g mask="url(#mask3_488317_2240)">
<rect width="161.816" height="106.968" transform="matrix(1 0 0 -1 19.2788 286.347)" fill="#D33C5A"/>
<ellipse rx="78.9861" ry="72.8155" transform="matrix(1 0 0 -1 93.835 141.36)" fill="#FFFA98"/>
<path d="M94.5089 125.251L126.47 175.513H62.5479L94.5089 125.251Z" fill="#461CA0"/>
</g>
<mask id="mask4_488317_2240" style="mask-type:alpha" maskUnits="userSpaceOnUse" x="203" y="150" width="157" height="125">
<path d="M281.165 274.748L297.308 248.973L359.255 150.06H203.076L265.023 248.973L281.165 274.748Z" fill="#461CA0"/>
</mask>
<g mask="url(#mask4_488317_2240)">
<rect width="161.816" height="106.968" transform="matrix(1 0 0 -1 206.609 286.347)" fill="#D33C5A"/>
<ellipse rx="78.9861" ry="72.8155" transform="matrix(1 0 0 -1 281.165 141.36)" fill="#FFFA98"/>
<path d="M281.839 125.251L313.8 175.513H249.878L281.839 125.251Z" fill="#461CA0"/>
</g>
<mask id="mask5_488317_2240" style="mask-type:alpha" maskUnits="userSpaceOnUse" x="-78" y="0" width="157" height="126">
<path d="M0.170097 125.252L16.3126 99.4766L78.2596 0.563446H-77.9194L-15.9724 99.4766L0.170097 125.252Z" fill="#461CA0"/>
</mask>
<g mask="url(#mask5_488317_2240)">
<rect width="161.816" height="106.968" transform="matrix(1 0 0 -1 -74.3862 136.851)" fill="#D33C5A"/>
<ellipse rx="78.9861" ry="72.8155" transform="matrix(1 0 0 -1 0.169975 -8.13583)" fill="#FFFA98"/>
<path d="M0.844093 -24.2451L32.8051 26.0169H-31.1169L0.844093 -24.2451Z" fill="#461CA0"/>
</g>
<mask id="mask6_488317_2240" style="mask-type:alpha" maskUnits="userSpaceOnUse" x="109" y="0" width="157" height="126">
<path d="M187.5 125.252L203.642 99.4766L265.589 0.563446H109.41L171.357 99.4766L187.5 125.252Z" fill="#461CA0"/>
</mask>
<g mask="url(#mask6_488317_2240)">
<rect width="161.816" height="106.968" transform="matrix(1 0 0 -1 112.943 136.851)" fill="#D33C5A"/>
<ellipse rx="78.9861" ry="72.8155" transform="matrix(1 0 0 -1 187.5 -8.13583)" fill="#FFFA98"/>
<path d="M188.173 -24.2451L220.134 26.0169H156.212L188.173 -24.2451Z" fill="#461CA0"/>
</g>
<mask id="mask7_488317_2240" style="mask-type:alpha" maskUnits="userSpaceOnUse" x="296" y="0" width="157" height="126">
<path d="M374.83 125.252L390.973 99.4766L452.92 0.563446H296.741L358.688 99.4766L374.83 125.252Z" fill="#461CA0"/>
</mask>
<g mask="url(#mask7_488317_2240)">
<rect width="161.816" height="106.968" transform="matrix(1 0 0 -1 300.274 136.851)" fill="#D33C5A"/>
<ellipse rx="78.9861" ry="72.8155" transform="matrix(1 0 0 -1 374.83 -8.13583)" fill="#FFFA98"/>
<path d="M375.504 -24.2451L407.465 26.0169H343.543L375.504 -24.2451Z" fill="#461CA0"/>
</g>
<mask id="mask8_488317_2240" style="mask-type:alpha" maskUnits="userSpaceOnUse" x="15" y="-25" width="157" height="126">
<path d="M93.8351 -24.2451L109.978 1.53028L171.925 100.443H15.7456L77.6926 1.53028L93.8351 -24.2451Z" fill="#461CA0"/>
</mask>
<g mask="url(#mask8_488317_2240)">
<rect x="19.2788" y="-35.8438" width="161.816" height="106.968" fill="#D33C5A"/>
<ellipse cx="93.835" cy="109.143" rx="78.9861" ry="72.8155" fill="#FFFA98"/>
<path d="M94.5089 125.252L126.47 74.9899H62.5479L94.5089 125.252Z" fill="#461CA0"/>
</g>
<mask id="mask9_488317_2240" style="mask-type:alpha" maskUnits="userSpaceOnUse" x="203" y="-25" width="157" height="126">
<path d="M281.165 -24.2451L297.308 1.53028L359.255 100.443H203.076L265.023 1.53028L281.165 -24.2451Z" fill="#461CA0"/>
</mask>
<g mask="url(#mask9_488317_2240)">
<rect x="206.609" y="-35.8438" width="161.816" height="106.968" fill="#D33C5A"/>
<ellipse cx="281.165" cy="109.143" rx="78.9861" ry="72.8155" fill="#FFFA98"/>
<path d="M281.839 125.252L313.8 74.9899H249.878L281.839 125.252Z" fill="#461CA0"/>
</g>
<mask id="mask10_488317_2240" style="mask-type:alpha" maskUnits="userSpaceOnUse" x="-78" y="-27" width="157" height="127">
<path d="M0.170097 -26.0625L16.3126 -0.00540924L78.2596 99.9887H-77.9194L-15.9724 -0.00540924L0.170097 -26.0625Z" fill="#461CA0"/>
</mask>
<g mask="url(#mask10_488317_2240)">
<rect x="-74.3862" y="-37.7881" width="161.816" height="108.137" fill="#D33C5A"/>
<ellipse cx="0.169975" cy="108.783" rx="78.9861" ry="73.6113" fill="#FFFA98"/>
<path d="M0.844093 125.068L32.8051 74.257H-31.1169L0.844093 125.068Z" fill="#461CA0"/>
</g>
<mask id="mask11_488317_2240" style="mask-type:alpha" maskUnits="userSpaceOnUse" x="109" y="-27" width="157" height="127">
<path d="M187.5 -26.0625L203.642 -0.00540924L265.589 99.9887H109.41L171.357 -0.00540924L187.5 -26.0625Z" fill="#461CA0"/>
</mask>
<g mask="url(#mask11_488317_2240)">
<rect x="112.943" y="-37.7881" width="161.816" height="108.137" fill="#D33C5A"/>
<ellipse cx="187.5" cy="108.783" rx="78.9861" ry="73.6113" fill="#FFFA98"/>
<path d="M188.173 125.068L220.134 74.257H156.212L188.173 125.068Z" fill="#461CA0"/>
</g>
<mask id="mask12_488317_2240" style="mask-type:alpha" maskUnits="userSpaceOnUse" x="296" y="-27" width="157" height="127">
<path d="M374.83 -26.0625L390.973 -0.00540924L452.92 99.9887H296.741L358.688 -0.00540924L374.83 -26.0625Z" fill="#461CA0"/>
</mask>
<g mask="url(#mask12_488317_2240)">
<rect x="300.274" y="-37.7881" width="161.816" height="108.137" fill="#D33C5A"/>
<ellipse cx="374.83" cy="108.783" rx="78.9861" ry="73.6113" fill="#FFFA98"/>
<path d="M375.504 125.068L407.465 74.257H343.543L375.504 125.068Z" fill="#461CA0"/>
</g>
<mask id="mask13_488317_2240" style="mask-type:alpha" maskUnits="userSpaceOnUse" x="15" y="-1" width="157" height="127">
<path d="M93.8351 125.068L109.978 99.0113L171.925 -0.982819H15.7456L77.6926 99.0113L93.8351 125.068Z" fill="#461CA0"/>
</mask>
<g mask="url(#mask13_488317_2240)">
<rect width="161.816" height="108.137" transform="matrix(1 0 0 -1 19.2788 136.794)" fill="#D33C5A"/>
<ellipse rx="78.9861" ry="73.6113" transform="matrix(1 0 0 -1 93.835 -9.7773)" fill="#FFFA98"/>
<path d="M94.5089 -26.0625L126.47 24.7488H62.5479L94.5089 -26.0625Z" fill="#461CA0"/>
</g>
<mask id="mask14_488317_2240" style="mask-type:alpha" maskUnits="userSpaceOnUse" x="203" y="-1" width="157" height="127">
<path d="M281.165 125.068L297.308 99.0113L359.255 -0.982819H203.076L265.023 99.0113L281.165 125.068Z" fill="#461CA0"/>
</mask>
<g mask="url(#mask14_488317_2240)">
<rect width="161.816" height="108.137" transform="matrix(1 0 0 -1 206.609 136.794)" fill="#D33C5A"/>
<ellipse rx="78.9861" ry="73.6113" transform="matrix(1 0 0 -1 281.165 -9.7773)" fill="#FFFA98"/>
<path d="M281.839 -26.0625L313.8 24.7488H249.878L281.839 -26.0625Z" fill="#461CA0"/>
</g>
<mask id="mask15_488317_2240" style="mask-type:alpha" maskUnits="userSpaceOnUse" x="-78" y="299" width="157" height="126">
<path d="M0.170097 424.246L16.3126 398.471L78.2596 299.558H-77.9194L-15.9724 398.471L0.170097 424.246Z" fill="#461CA0"/>
</mask>
<g mask="url(#mask15_488317_2240)">
<rect width="161.816" height="106.968" transform="matrix(1 0 0 -1 -74.3862 435.845)" fill="#D33C5A"/>
<ellipse rx="78.9861" ry="72.8155" transform="matrix(1 0 0 -1 0.169975 290.858)" fill="#FFFA98"/>
<path d="M0.844093 274.749L32.8051 325.011H-31.1169L0.844093 274.749Z" fill="#461CA0"/>
</g>
<mask id="mask16_488317_2240" style="mask-type:alpha" maskUnits="userSpaceOnUse" x="109" y="299" width="157" height="126">
<path d="M187.5 424.246L203.642 398.471L265.589 299.558H109.41L171.357 398.471L187.5 424.246Z" fill="#461CA0"/>
</mask>
<g mask="url(#mask16_488317_2240)">
<rect width="161.816" height="106.968" transform="matrix(1 0 0 -1 112.943 435.845)" fill="#D33C5A"/>
<ellipse rx="78.9861" ry="72.8155" transform="matrix(1 0 0 -1 187.5 290.858)" fill="#FFFA98"/>
<path d="M188.173 274.749L220.134 325.011H156.212L188.173 274.749Z" fill="#461CA0"/>
</g>
<mask id="mask17_488317_2240" style="mask-type:alpha" maskUnits="userSpaceOnUse" x="296" y="299" width="157" height="126">
<path d="M374.83 424.246L390.973 398.471L452.92 299.558H296.741L358.688 398.471L374.83 424.246Z" fill="#461CA0"/>
</mask>
<g mask="url(#mask17_488317_2240)">
<rect width="161.816" height="106.968" transform="matrix(1 0 0 -1 300.274 435.845)" fill="#D33C5A"/>
<ellipse rx="78.9861" ry="72.8155" transform="matrix(1 0 0 -1 374.83 290.858)" fill="#FFFA98"/>
<path d="M375.504 274.749L407.465 325.011H343.543L375.504 274.749Z" fill="#461CA0"/>
</g>
<mask id="mask18_488317_2240" style="mask-type:alpha" maskUnits="userSpaceOnUse" x="15" y="274" width="157" height="126">
<path d="M93.8351 274.749L109.978 300.524L171.925 399.438H15.7456L77.6926 300.524L93.8351 274.749Z" fill="#461CA0"/>
</mask>
<g mask="url(#mask18_488317_2240)">
<rect x="19.2788" y="263.15" width="161.816" height="106.968" fill="#D33C5A"/>
<ellipse cx="93.835" cy="408.137" rx="78.9861" ry="72.8155" fill="#FFFA98"/>
<path d="M94.5089 424.246L126.47 373.984H62.5479L94.5089 424.246Z" fill="#461CA0"/>
</g>
<mask id="mask19_488317_2240" style="mask-type:alpha" maskUnits="userSpaceOnUse" x="203" y="274" width="157" height="126">
<path d="M281.165 274.749L297.308 300.524L359.255 399.438H203.076L265.023 300.524L281.165 274.749Z" fill="#461CA0"/>
</mask>
<g mask="url(#mask19_488317_2240)">
<rect x="206.609" y="263.15" width="161.816" height="106.968" fill="#D33C5A"/>
<ellipse cx="281.165" cy="408.137" rx="78.9861" ry="72.8155" fill="#FFFA98"/>
<path d="M281.839 424.246L313.8 373.984H249.878L281.839 424.246Z" fill="#461CA0"/>
</g>
<mask id="mask20_488317_2240" style="mask-type:alpha" maskUnits="userSpaceOnUse" x="-78" y="275" width="157" height="128">
<path d="M0.170097 275.114L16.3126 301.453L78.2596 402.529H-77.9194L-15.9724 301.453L0.170097 275.114Z" fill="#461CA0"/>
</mask>
<g mask="url(#mask20_488317_2240)">
<rect x="-74.3862" y="263.262" width="161.816" height="109.306" fill="#D33C5A"/>
<ellipse cx="0.169975" cy="411.418" rx="78.9861" ry="74.4073" fill="#FFFA98"/>
<path d="M0.844093 427.88L32.8051 376.519H-31.1169L0.844093 427.88Z" fill="#461CA0"/>
</g>
<mask id="mask21_488317_2240" style="mask-type:alpha" maskUnits="userSpaceOnUse" x="109" y="275" width="157" height="128">
<path d="M187.5 275.114L203.642 301.453L265.589 402.529H109.41L171.357 301.453L187.5 275.114Z" fill="#461CA0"/>
</mask>
<g mask="url(#mask21_488317_2240)">
<rect x="112.943" y="263.262" width="161.816" height="109.306" fill="#D33C5A"/>
<ellipse cx="187.5" cy="411.418" rx="78.9861" ry="74.4073" fill="#FFFA98"/>
<path d="M188.173 427.88L220.134 376.519H156.212L188.173 427.88Z" fill="#461CA0"/>
</g>
<mask id="mask22_488317_2240" style="mask-type:alpha" maskUnits="userSpaceOnUse" x="296" y="275" width="157" height="128">
<path d="M374.83 275.114L390.973 301.453L452.92 402.529H296.741L358.688 301.453L374.83 275.114Z" fill="#461CA0"/>
</mask>
<g mask="url(#mask22_488317_2240)">
<rect x="300.274" y="263.262" width="161.816" height="109.306" fill="#D33C5A"/>
<ellipse cx="374.83" cy="411.418" rx="78.9861" ry="74.4073" fill="#FFFA98"/>
<path d="M375.504 427.88L407.465 376.519H343.543L375.504 427.88Z" fill="#461CA0"/>
</g>
<mask id="mask23_488317_2240" style="mask-type:alpha" maskUnits="userSpaceOnUse" x="15" y="300" width="157" height="128">
<path d="M93.8351 427.879L109.978 401.54L171.925 300.465H15.7456L77.6926 401.54L93.8351 427.879Z" fill="#461CA0"/>
</mask>
<g mask="url(#mask23_488317_2240)">
<rect width="161.816" height="109.306" transform="matrix(1 0 0 -1 19.2788 439.731)" fill="#D33C5A"/>
<ellipse rx="78.9861" ry="74.4073" transform="matrix(1 0 0 -1 93.835 291.575)" fill="#FFFA98"/>
<path d="M94.5089 275.113L126.47 326.474H62.5479L94.5089 275.113Z" fill="#461CA0"/>
</g>
<mask id="mask24_488317_2240" style="mask-type:alpha" maskUnits="userSpaceOnUse" x="203" y="300" width="157" height="128">
<path d="M281.165 427.88L297.308 401.541L359.255 300.466H203.076L265.023 401.541L281.165 427.88Z" fill="#461CA0"/>
</mask>
<g mask="url(#mask24_488317_2240)">
<rect width="161.816" height="109.306" transform="matrix(1 0 0 -1 206.609 439.732)" fill="#D33C5A"/>
<ellipse rx="78.9861" ry="74.4073" transform="matrix(1 0 0 -1 281.165 291.576)" fill="#FFFA98"/>
<path d="M281.839 275.114L313.8 326.475H249.878L281.839 275.114Z" fill="#461CA0"/>
</g>
<path d="M168.96 240V233.436L168.72 232.236L168.96 231.504H172.536C173.112 231.504 173.664 231.56 174.192 231.672C174.728 231.776 175.204 231.976 175.62 232.272C176.044 232.568 176.376 232.992 176.616 233.544C176.864 234.096 176.988 234.812 176.988 235.692C176.988 236.572 176.864 237.296 176.616 237.864C176.368 238.424 176.032 238.86 175.608 239.172C175.184 239.484 174.704 239.7 174.168 239.82C173.64 239.94 173.096 240 172.536 240H168.96ZM171.144 238.08H172.536C173.24 238.08 173.78 237.896 174.156 237.528C174.532 237.152 174.72 236.54 174.72 235.692C174.72 234.844 174.528 234.256 174.144 233.928C173.768 233.592 173.232 233.424 172.536 233.424H171.144V238.08ZM179.929 240.12C179.585 240.12 179.265 240.072 178.969 239.976C178.681 239.872 178.449 239.696 178.273 239.448C178.097 239.2 178.009 238.856 178.009 238.416C178.009 238.016 178.109 237.684 178.309 237.42C178.509 237.156 178.781 236.96 179.125 236.832C179.469 236.704 179.857 236.64 180.289 236.64C180.705 236.64 181.017 236.688 181.225 236.784C181.433 236.872 181.613 236.964 181.765 237.06L181.849 236.988C181.849 236.748 181.829 236.548 181.789 236.388C181.749 236.228 181.657 236.108 181.513 236.028C181.369 235.94 181.145 235.896 180.841 235.896C180.545 235.896 180.229 235.924 179.893 235.98C179.565 236.028 179.261 236.092 178.981 236.172C178.709 236.244 178.505 236.316 178.369 236.388V234.588C178.617 234.5 178.969 234.42 179.425 234.348C179.889 234.268 180.457 234.228 181.129 234.228C181.849 234.228 182.417 234.32 182.833 234.504C183.257 234.68 183.561 234.94 183.745 235.284C183.929 235.62 184.021 236.024 184.021 236.496V238.092L184.261 239.304L184.021 240.012H181.969V239.424L181.849 239.364C181.785 239.428 181.673 239.52 181.513 239.64C181.353 239.76 181.141 239.872 180.877 239.976C180.613 240.072 180.297 240.12 179.929 240.12ZM180.949 238.548C181.165 238.548 181.349 238.528 181.501 238.488C181.661 238.448 181.777 238.412 181.849 238.38V238.152C181.849 238.048 181.773 237.948 181.621 237.852C181.477 237.756 181.249 237.708 180.937 237.708C180.505 237.708 180.289 237.86 180.289 238.164C180.289 238.292 180.337 238.388 180.433 238.452C180.529 238.516 180.701 238.548 180.949 238.548ZM186.131 242.916L184.439 242.316L184.919 240.528L186.599 241.008C186.943 241.008 187.191 240.916 187.343 240.732C187.503 240.556 187.623 240.308 187.703 239.988H186.467L185.147 235.884L184.919 234.324H187.199L187.859 238.284H188.099L188.759 234.324H191.039C191.039 234.324 191.011 234.452 190.955 234.708C190.907 234.956 190.835 235.288 190.739 235.704C190.651 236.12 190.543 236.58 190.415 237.084C190.295 237.58 190.167 238.084 190.031 238.596C189.895 239.1 189.755 239.564 189.611 239.988C189.395 240.652 189.135 241.2 188.831 241.632C188.535 242.064 188.171 242.384 187.739 242.592C187.307 242.808 186.771 242.916 186.131 242.916ZM196.196 240V233.892H194.756V231.984L198.404 231.504L198.524 232.224L198.404 233.424V240H196.196ZM203.507 240.12C203.067 240.12 202.635 240.08 202.211 240C201.787 239.912 201.399 239.772 201.047 239.58C200.703 239.38 200.427 239.112 200.219 238.776C200.011 238.44 199.907 238.02 199.907 237.516C199.907 237.004 200.015 236.592 200.231 236.28C200.447 235.968 200.731 235.728 201.083 235.56C200.795 235.352 200.587 235.096 200.459 234.792C200.331 234.48 200.267 234.132 200.267 233.748C200.267 233.284 200.391 232.876 200.639 232.524C200.895 232.172 201.263 231.896 201.743 231.696C202.223 231.488 202.803 231.384 203.483 231.384C204.507 231.384 205.299 231.588 205.859 231.996C206.419 232.404 206.699 232.988 206.699 233.748C206.699 234.172 206.639 234.532 206.519 234.828C206.399 235.116 206.223 235.352 205.991 235.536C206.327 235.704 206.587 235.948 206.771 236.268C206.963 236.58 207.059 236.996 207.059 237.516C207.059 238.02 206.959 238.44 206.759 238.776C206.559 239.112 206.287 239.38 205.943 239.58C205.607 239.772 205.227 239.912 204.803 240C204.379 240.08 203.947 240.12 203.507 240.12ZM203.507 234.888C203.803 234.888 204.031 234.812 204.191 234.66C204.351 234.5 204.431 234.32 204.431 234.12C204.431 233.912 204.351 233.744 204.191 233.616C204.031 233.488 203.803 233.424 203.507 233.424C203.219 233.424 202.983 233.484 202.799 233.604C202.623 233.716 202.535 233.888 202.535 234.12C202.535 234.344 202.623 234.528 202.799 234.672C202.983 234.816 203.219 234.888 203.507 234.888ZM203.507 238.08C203.939 238.08 204.259 238.012 204.467 237.876C204.683 237.732 204.791 237.564 204.791 237.372C204.791 237.132 204.691 236.936 204.491 236.784C204.299 236.624 204.035 236.512 203.699 236.448C203.371 236.376 203.003 236.348 202.595 236.364C202.499 236.468 202.415 236.596 202.343 236.748C202.279 236.9 202.247 237.06 202.247 237.228C202.247 237.476 202.347 237.68 202.547 237.84C202.755 238 203.075 238.08 203.507 238.08Z" fill="#FDFFFA"/>
<path d="M145.5 266V260.61H144.3V259.52L146.94 258.92L147.04 259.52L146.94 260.52V266H145.5ZM150.973 266.1C150.406 266.1 149.913 265.983 149.493 265.75C149.079 265.517 148.759 265.137 148.533 264.61C148.306 264.077 148.193 263.36 148.193 262.46C148.193 261.6 148.306 260.903 148.533 260.37C148.759 259.837 149.079 259.447 149.493 259.2C149.913 258.947 150.406 258.82 150.973 258.82C151.546 258.82 152.039 258.947 152.453 259.2C152.866 259.453 153.186 259.847 153.413 260.38C153.639 260.913 153.753 261.607 153.753 262.46C153.753 263.347 153.639 264.057 153.413 264.59C153.186 265.123 152.866 265.51 152.453 265.75C152.039 265.983 151.546 266.1 150.973 266.1ZM150.973 264.66C151.433 264.66 151.763 264.497 151.963 264.17C152.163 263.837 152.263 263.267 152.263 262.46C152.263 261.7 152.163 261.143 151.963 260.79C151.763 260.437 151.433 260.26 150.973 260.26C150.526 260.26 150.199 260.44 149.993 260.8C149.786 261.153 149.683 261.707 149.683 262.46C149.683 263.26 149.786 263.827 149.993 264.16C150.199 264.493 150.526 264.66 150.973 264.66ZM157.48 266.1C156.913 266.1 156.42 265.983 156 265.75C155.587 265.517 155.267 265.137 155.04 264.61C154.813 264.077 154.7 263.36 154.7 262.46C154.7 261.6 154.813 260.903 155.04 260.37C155.267 259.837 155.587 259.447 156 259.2C156.42 258.947 156.913 258.82 157.48 258.82C158.053 258.82 158.547 258.947 158.96 259.2C159.373 259.453 159.693 259.847 159.92 260.38C160.147 260.913 160.26 261.607 160.26 262.46C160.26 263.347 160.147 264.057 159.92 264.59C159.693 265.123 159.373 265.51 158.96 265.75C158.547 265.983 158.053 266.1 157.48 266.1ZM157.48 264.66C157.94 264.66 158.27 264.497 158.47 264.17C158.67 263.837 158.77 263.267 158.77 262.46C158.77 261.7 158.67 261.143 158.47 260.79C158.27 260.437 157.94 260.26 157.48 260.26C157.033 260.26 156.707 260.44 156.5 260.8C156.293 261.153 156.19 261.707 156.19 262.46C156.19 263.26 156.293 263.827 156.5 264.16C156.707 264.493 157.033 264.66 157.48 264.66ZM164.16 266V260.53L163.96 259.53L164.16 258.92H166.34C166.82 258.92 167.28 258.967 167.72 259.06C168.166 259.147 168.563 259.313 168.91 259.56C169.263 259.807 169.54 260.16 169.74 260.62C169.946 261.08 170.05 261.677 170.05 262.41C170.05 263.143 169.946 263.747 169.74 264.22C169.533 264.687 169.253 265.05 168.9 265.31C168.546 265.57 168.146 265.75 167.7 265.85C167.26 265.95 166.806 266 166.34 266H164.16ZM165.58 264.7H166.64C167.333 264.7 167.826 264.497 168.12 264.09C168.413 263.677 168.56 263.117 168.56 262.41C168.56 261.703 168.41 261.163 168.11 260.79C167.816 260.41 167.326 260.22 166.64 260.22H165.58V264.7ZM172.539 266.1C172.092 266.1 171.712 265.987 171.399 265.76C171.092 265.527 170.939 265.167 170.939 264.68C170.939 264.167 171.102 263.777 171.429 263.51C171.755 263.237 172.192 263.1 172.739 263.1C173.139 263.1 173.442 263.133 173.649 263.2C173.862 263.267 174.002 263.317 174.069 263.35L174.139 263.29C174.139 263.09 174.122 262.913 174.089 262.76C174.055 262.607 173.979 262.49 173.859 262.41C173.739 262.323 173.552 262.28 173.299 262.28C172.845 262.28 172.439 262.317 172.079 262.39C171.725 262.463 171.445 262.53 171.239 262.59V261.49C171.445 261.417 171.759 261.35 172.179 261.29C172.599 261.223 173.052 261.19 173.539 261.19C173.952 261.19 174.289 261.247 174.549 261.36C174.815 261.467 175.019 261.613 175.159 261.8C175.305 261.987 175.405 262.193 175.459 262.42C175.519 262.64 175.549 262.86 175.549 263.08V264.41L175.749 265.42L175.549 266.01H174.239V265.52L174.139 265.47C174.085 265.537 173.992 265.62 173.859 265.72C173.732 265.82 173.559 265.91 173.339 265.99C173.125 266.063 172.859 266.1 172.539 266.1ZM173.089 264.99C173.375 264.99 173.599 264.963 173.759 264.91C173.925 264.857 174.052 264.803 174.139 264.75V264.56C174.139 264.433 174.062 264.307 173.909 264.18C173.762 264.053 173.519 263.99 173.179 263.99C172.925 263.99 172.739 264.04 172.619 264.14C172.499 264.24 172.439 264.367 172.439 264.52C172.439 264.68 172.495 264.8 172.609 264.88C172.722 264.953 172.882 264.99 173.089 264.99ZM177.267 268.43L175.857 267.93L176.257 266.74L177.657 267.14C177.851 267.14 178.014 267.08 178.147 266.96C178.281 266.847 178.391 266.7 178.477 266.52C178.571 266.347 178.637 266.17 178.677 265.99H177.747L176.647 262.57L176.457 261.27H177.957L178.707 264.87H178.907L179.657 261.27H181.157C181.157 261.27 181.134 261.377 181.087 261.59C181.047 261.797 180.987 262.073 180.907 262.42C180.834 262.767 180.744 263.15 180.637 263.57C180.537 263.983 180.431 264.403 180.317 264.83C180.204 265.25 180.087 265.637 179.967 265.99C179.787 266.543 179.587 267 179.367 267.36C179.154 267.72 178.884 267.987 178.557 268.16C178.231 268.34 177.801 268.43 177.267 268.43ZM183.645 266.1C183.218 266.1 182.862 266.063 182.575 265.99C182.295 265.917 182.068 265.833 181.895 265.74V264.56C182.135 264.687 182.408 264.797 182.715 264.89C183.028 264.977 183.328 265.02 183.615 265.02C183.955 265.02 184.125 264.91 184.125 264.69C184.125 264.57 184.075 264.48 183.975 264.42C183.882 264.36 183.748 264.307 183.575 264.26C183.408 264.207 183.215 264.143 182.995 264.07C182.615 263.937 182.322 263.767 182.115 263.56C181.908 263.353 181.805 263.03 181.805 262.59C181.805 262.117 181.968 261.763 182.295 261.53C182.628 261.297 183.065 261.18 183.605 261.18C183.825 261.18 184.012 261.193 184.165 261.22C184.318 261.24 184.458 261.26 184.585 261.28L185.495 261.78L185.105 262.75L183.605 262.27C183.478 262.27 183.375 262.297 183.295 262.35C183.222 262.397 183.185 262.463 183.185 262.55C183.185 262.69 183.255 262.797 183.395 262.87C183.535 262.937 183.738 263.01 184.005 263.09C184.545 263.25 184.942 263.443 185.195 263.67C185.448 263.897 185.575 264.23 185.575 264.67C185.575 265.077 185.415 265.417 185.095 265.69C184.782 265.963 184.298 266.1 183.645 266.1ZM191.233 266.1C190.419 266.1 189.823 265.887 189.443 265.46C189.063 265.033 188.873 264.427 188.873 263.64C188.873 262.847 189.063 262.24 189.443 261.82C189.823 261.393 190.419 261.18 191.233 261.18C192.073 261.18 192.673 261.393 193.033 261.82C193.399 262.24 193.583 262.847 193.583 263.64C193.583 264.427 193.399 265.033 193.033 265.46C192.673 265.887 192.073 266.1 191.233 266.1ZM191.233 265.1C191.506 265.1 191.729 264.993 191.903 264.78C192.083 264.567 192.173 264.187 192.173 263.64C192.173 263.093 192.083 262.713 191.903 262.5C191.729 262.287 191.506 262.18 191.233 262.18C190.953 262.18 190.723 262.287 190.543 262.5C190.369 262.713 190.283 263.093 190.283 263.64C190.283 264.187 190.373 264.567 190.553 264.78C190.733 264.993 190.959 265.1 191.233 265.1ZM194.765 266V262.46L194.235 261.76L194.765 261.28C194.732 261.167 194.705 261.017 194.685 260.83C194.672 260.637 194.665 260.48 194.665 260.36C194.665 259.793 194.792 259.333 195.045 258.98C195.305 258.62 195.732 258.44 196.325 258.44C196.512 258.44 196.708 258.45 196.915 258.47C197.128 258.483 197.312 258.51 197.465 258.55L198.435 259.16L197.965 260.15L196.615 259.55C196.388 259.55 196.222 259.637 196.115 259.81C196.008 259.977 195.955 260.187 195.955 260.44C195.955 260.607 195.978 260.777 196.025 260.95C196.072 261.117 196.118 261.227 196.165 261.28H197.765V262.18H196.165V264.38L196.265 265.39L196.165 266H194.765ZM201.541 266V260.53L201.341 259.53L201.541 258.92H203.721C204.201 258.92 204.661 258.967 205.101 259.06C205.548 259.147 205.945 259.313 206.291 259.56C206.645 259.807 206.921 260.16 207.121 260.62C207.328 261.08 207.431 261.677 207.431 262.41C207.431 263.143 207.328 263.747 207.121 264.22C206.915 264.687 206.635 265.05 206.281 265.31C205.928 265.57 205.528 265.75 205.081 265.85C204.641 265.95 204.188 266 203.721 266H201.541ZM202.961 264.7H204.021C204.715 264.7 205.208 264.497 205.501 264.09C205.795 263.677 205.941 263.117 205.941 262.41C205.941 261.703 205.791 261.163 205.491 260.79C205.198 260.41 204.708 260.22 204.021 260.22H202.961V264.7ZM210.57 266.1C210.137 266.1 209.75 266.023 209.41 265.87C209.07 265.717 208.804 265.46 208.61 265.1C208.417 264.74 208.32 264.253 208.32 263.64C208.32 263.047 208.424 262.57 208.63 262.21C208.837 261.85 209.11 261.59 209.45 261.43C209.79 261.263 210.164 261.18 210.57 261.18C211.017 261.18 211.367 261.23 211.62 261.33C211.88 261.43 212.077 261.527 212.21 261.62L212.71 263.21L212.51 263.83H209.71C209.75 264.183 209.877 264.467 210.09 264.68C210.304 264.893 210.63 265 211.07 265C211.43 265 211.72 264.957 211.94 264.87C212.167 264.783 212.324 264.717 212.41 264.67V265.71C212.21 265.817 211.954 265.91 211.64 265.99C211.334 266.063 210.977 266.1 210.57 266.1ZM209.7 263.19L211.2 262.99L211.05 262.25C211.004 262.223 210.937 262.203 210.85 262.19C210.77 262.177 210.697 262.17 210.63 262.17C210.33 262.17 210.1 262.277 209.94 262.49C209.78 262.697 209.7 262.93 209.7 263.19ZM215.222 266.1C214.796 266.1 214.439 266.063 214.152 265.99C213.872 265.917 213.646 265.833 213.472 265.74V264.56C213.712 264.687 213.986 264.797 214.292 264.89C214.606 264.977 214.906 265.02 215.192 265.02C215.532 265.02 215.702 264.91 215.702 264.69C215.702 264.57 215.652 264.48 215.552 264.42C215.459 264.36 215.326 264.307 215.152 264.26C214.986 264.207 214.792 264.143 214.572 264.07C214.192 263.937 213.899 263.767 213.692 263.56C213.486 263.353 213.382 263.03 213.382 262.59C213.382 262.117 213.546 261.763 213.872 261.53C214.206 261.297 214.642 261.18 215.182 261.18C215.402 261.18 215.589 261.193 215.742 261.22C215.896 261.24 216.036 261.26 216.162 261.28L217.072 261.78L216.682 262.75L215.182 262.27C215.056 262.27 214.952 262.297 214.872 262.35C214.799 262.397 214.762 262.463 214.762 262.55C214.762 262.69 214.832 262.797 214.972 262.87C215.112 262.937 215.316 263.01 215.582 263.09C216.122 263.25 216.519 263.443 216.772 263.67C217.026 263.897 217.152 264.23 217.152 264.67C217.152 265.077 216.992 265.417 216.672 265.69C216.359 265.963 215.876 266.1 215.222 266.1ZM218.898 260.78L217.828 259.71L218.898 258.64L219.958 259.71L218.898 260.78ZM218.198 266V262.69L217.988 261.89L218.188 261.28H219.588V266H218.198ZM222.858 268.43C222.691 268.43 222.501 268.423 222.288 268.41C222.074 268.403 221.901 268.393 221.768 268.38L220.648 267.79L221.048 266.8L222.618 267.31C223.504 267.31 223.948 266.907 223.948 266.1V265.7L223.848 265.65C223.768 265.717 223.621 265.807 223.408 265.92C223.201 266.027 222.881 266.08 222.448 266.08C222.134 266.08 221.831 266.003 221.538 265.85C221.244 265.69 221.004 265.437 220.818 265.09C220.638 264.743 220.548 264.293 220.548 263.74C220.548 263.12 220.641 262.623 220.828 262.25C221.014 261.87 221.251 261.593 221.538 261.42C221.831 261.247 222.134 261.16 222.448 261.16C222.794 261.16 223.078 261.21 223.298 261.31C223.524 261.41 223.674 261.507 223.748 261.6V261.27H225.158L225.258 261.87L225.148 262.47L225.158 265.99C225.158 266.763 224.978 267.363 224.618 267.79C224.258 268.217 223.671 268.43 222.858 268.43ZM222.998 264.98C223.118 264.98 223.251 264.963 223.398 264.93C223.544 264.897 223.661 264.867 223.748 264.84V262.36C223.681 262.34 223.588 262.32 223.468 262.3C223.348 262.28 223.224 262.27 223.098 262.27C222.811 262.27 222.591 262.333 222.438 262.46C222.284 262.58 222.181 262.743 222.128 262.95C222.074 263.157 222.048 263.383 222.048 263.63C222.048 263.877 222.071 264.103 222.118 264.31C222.171 264.51 222.268 264.673 222.408 264.8C222.548 264.92 222.744 264.98 222.998 264.98ZM226.408 266V262.99L226.208 261.89L226.518 261.28H227.608V261.71L227.698 261.77C227.771 261.703 227.871 261.627 227.998 261.54C228.131 261.447 228.291 261.363 228.478 261.29C228.664 261.217 228.874 261.18 229.108 261.18C229.708 261.18 230.158 261.35 230.458 261.69C230.758 262.03 230.908 262.507 230.908 263.12V264.39L231.118 265.39L230.908 266H229.508V263.08C229.508 262.827 229.451 262.633 229.338 262.5C229.231 262.36 229.061 262.29 228.828 262.29L227.808 262.48V266H226.408Z" fill="#FDFFFA"/>
<path d="M144 267.25H231.478V267.75H144V267.25Z" fill="#FDFFFA"/>
</g>
<defs>
<clipPath id="clip0_488317_2240">
<rect width="375" height="400" fill="white"/>
</clipPath>
</defs>
</svg>
