<svg width="375" height="400" viewBox="0 0 375 400" fill="none" xmlns="http://www.w3.org/2000/svg">
<g clip-path="url(#clip0_488297_315)">
<rect width="375" height="400" fill="#FDFFFA"/>
<path d="M46.5717 70.7648L17.6746 59.2544C15.4138 58.3539 13.1509 56.2204 12.6204 54.4892L-7.95298 -12.6391C-8.48357 -14.3704 -7.08095 -15.0438 -4.82014 -14.1433L24.7424 -2.36783C34.4083 1.4823 43.1617 6.259 51.0028 11.9623C58.8682 17.6543 65.5091 23.9808 70.9255 30.9417C76.342 37.9027 80.2181 45.194 82.554 52.8157C84.8972 60.4613 85.0253 66.2806 82.9382 70.2737C80.8828 74.2794 76.7719 76.3442 70.6054 76.468C64.4706 76.6044 56.4594 74.7033 46.5717 70.7648ZM26.7308 50.0099C27.2613 51.7411 29.5242 53.8746 31.785 54.7751L42.1902 58.9198C48.9721 61.6212 54.3435 62.9426 58.3042 62.8841C62.2575 62.8018 64.8039 61.3514 65.9434 58.5331C67.0755 55.6908 66.7812 51.4623 65.0604 45.8476C63.3396 40.2329 60.7709 35.1194 57.3541 30.5072C53.93 25.8711 49.7018 21.7432 44.6695 18.1236C39.6616 14.4927 33.8617 11.3644 27.27 8.73878L16.3418 4.38586C14.081 3.48533 12.6784 4.15875 13.209 5.88999L26.7308 50.0099Z" fill="#443038"/>
<path d="M124.248 65.3947C119.621 63.5517 115.263 61.2705 111.174 58.5512C107.11 55.8206 103.623 52.7956 100.714 49.4763C97.8364 46.1696 95.8448 42.7124 94.7391 39.1046C93.7871 35.9986 93.7606 33.7331 94.6593 32.3082C95.5581 30.8832 97.1359 30.0854 99.3929 29.9146C101.65 29.7438 104.331 30.0043 107.436 30.6959C110.566 31.3763 113.862 32.28 117.324 33.4071C121.499 34.7767 124.878 35.8603 127.46 36.6579C130.034 37.4315 131.835 37.7715 132.864 37.6778C133.917 37.5728 134.253 36.8991 133.872 35.6567L133.806 35.4416C132.979 32.7418 131.276 30.2283 128.699 27.9012C126.122 25.5741 122.836 23.6153 118.843 22.0247C114.628 20.3458 111.497 19.707 109.45 20.1081C108.296 20.345 107.427 20.7674 106.843 21.3755C106.096 22.1535 104.57 22.3437 102.571 21.3653L94.2521 17.2948C91.7012 16.0465 89.5026 13.5055 90.058 12.2164C90.6699 10.7962 91.6908 9.73798 93.1209 9.04161C95.3409 7.93317 98.3863 7.65694 102.257 8.2129C106.12 8.74497 110.603 10.0272 115.706 12.0595C119.223 13.4607 122.82 15.1662 126.497 17.176C130.173 19.1858 133.673 21.4818 136.996 24.0641C140.312 26.6225 143.215 29.4673 145.705 32.5986C148.227 35.7426 150.048 39.1423 151.168 42.7979L161.499 76.5054C162.029 78.2366 160.627 78.91 158.366 78.0095L150.01 74.6812C147.749 73.7807 145.486 71.6472 144.956 69.916L143.682 65.7608C143.636 65.6105 143.44 65.4253 143.244 65.3471C143.111 65.2945 143.008 65.3026 142.972 65.3667C142.385 66.4275 141.37 67.239 139.926 67.8012C138.459 68.3705 136.424 68.4932 133.82 68.1695C131.241 67.8344 128.05 66.9095 124.248 65.3947ZM125.794 57.6415C129.249 59.0175 132.086 59.6967 134.306 59.6792C136.52 59.6378 138.044 59.0284 138.879 57.8509C139.747 56.6861 139.869 55.0882 139.247 53.0574L137.97 48.8918C137.685 47.9608 135.876 46.6117 134.787 46.4041C133.607 46.1859 132.258 45.8687 130.739 45.4526C129.221 45.0365 127.71 44.6027 126.209 44.1514C124.707 43.7001 123.404 43.307 122.3 42.972C119.814 42.2124 117.648 41.7272 115.803 41.5166C113.957 41.306 112.613 41.5048 111.77 42.1129C110.92 42.6971 110.751 43.8255 111.264 45.4979C111.996 47.8872 113.705 50.1518 116.392 52.2918C119.079 54.4319 122.213 56.2151 125.794 57.6415Z" fill="#443038"/>
<path d="M208.927 84.326C206.582 83.3919 204.368 82.3838 202.283 81.3018C201.888 81.0999 201.507 80.9022 201.141 80.7085C198.96 79.5558 197.397 77.4879 197.535 76.1758L197.925 72.4709C198.07 71.089 200.039 71.0868 202.327 72.2009C203.331 72.6901 204.266 73.1024 205.131 73.4378C207.089 74.1965 208.673 74.4186 209.885 74.104C211.135 73.8259 211.964 72.8558 212.373 71.1937L212.73 69.6767C212.862 69.1149 212.634 68.3464 212.086 67.5101L172.5 7.05073C170.911 4.62414 172.227 3.25607 175.063 4.38589L184.472 8.13351C186.266 8.84808 188.125 10.3738 189.058 11.8976L216.86 57.288C216.978 57.4801 217.212 57.6725 217.438 57.7626C217.664 57.8527 217.83 57.8196 217.846 57.6811L221.734 24.9109C221.864 23.8119 223.174 23.5497 224.967 24.2638L234.415 28.0271C237.254 29.1581 239.893 32.1052 239.552 33.7636L229.933 80.4223C229.464 82.7944 228.423 84.5716 226.81 85.754C225.204 86.9603 222.938 87.4629 220.01 87.2617C217.122 87.0971 213.428 86.1185 208.927 84.326Z" fill="#443038"/>
<path d="M296.833 138.82C292.367 137.979 289.436 133.059 291.437 129.76L346.234 39.4097C346.289 39.3195 346.317 39.2133 346.315 39.1C346.311 38.706 345.963 38.3218 345.538 38.2418L282.179 26.3186C278.882 25.6981 276.183 22.7175 276.151 19.6613L276.062 11.116C276.03 8.05976 278.678 6.08527 281.976 6.70582L366.759 22.6606C370.056 23.2812 372.755 26.2618 372.787 29.318L372.924 42.5091C372.933 43.3839 372.718 44.204 372.297 44.9024L315.383 139.299C314.382 140.959 312.34 141.738 310.097 141.316L296.833 138.82Z" fill="#443038"/>
<path d="M187.499 74C187.499 80.7144 188.398 85.3747 190.109 88.3968C190.969 89.9166 192.038 91.0278 193.303 91.7699C194.566 92.5113 195.997 92.8686 197.56 92.9216C200.667 93.0271 204.341 91.9308 208.394 90.1919C212.455 88.4489 216.96 86.0312 221.738 83.4395C222.042 83.2744 222.348 83.1085 222.654 82.942C231.996 77.8715 242.348 72.2521 252.673 69.562C263.316 66.7887 273.857 67.1475 283.193 74.395C292.546 81.6559 296.132 91.5638 296.915 102.66C297.662 113.249 295.853 124.864 294.083 136.221C293.995 136.789 293.906 137.356 293.818 137.923C291.978 149.778 290.319 161.301 291.937 170.834C292.748 175.613 294.385 179.917 297.252 183.522C300.121 187.13 304.197 190.008 309.836 191.972C331.947 199.674 351.839 219.943 359.161 238.248C362.823 247.404 363.297 255.951 359.495 262.185C355.704 268.4 347.545 272.5 333.5 272.5C276.839 272.5 220.226 302.582 156.736 342.075C125.025 361.801 100.395 363.021 86.8964 351.988C73.4023 340.959 70.6743 317.389 83.4613 286.692C96.3532 255.744 88.412 228.943 74.0255 206.79C62.1706 188.535 45.9071 173.39 33.297 161.648C30.6232 159.158 28.1137 156.821 25.8453 154.64C13.0718 142.357 14.7813 125.044 26.5201 114.521C38.254 104.004 60.134 100.206 87.7575 115.438C101.82 123.192 115.194 121.067 127.279 114.419C139.339 107.784 150.153 96.6281 159.189 86.2417C161.849 83.1841 164.368 80.1762 166.72 77.3697C168.355 75.4174 169.909 73.5626 171.372 71.8564C174.96 67.6704 178.009 64.366 180.476 62.5415C181.713 61.6262 182.745 61.1295 183.582 61.0365C184.366 60.9494 185.017 61.2109 185.579 61.9574C186.169 62.7406 186.657 64.0592 186.992 66.0626C187.326 68.0546 187.499 70.6701 187.499 74Z" fill="#FFFA98" stroke="#443038"/>
<path d="M187.107 108.492C190.405 115.644 195.199 119.066 200.897 120.583C206.467 122.066 212.893 121.723 219.543 121.368L219.825 121.352C233.389 120.629 248.013 119.952 259.617 133.821C271.304 147.79 273.786 161.173 274.736 172.883C274.91 175.034 275.033 177.141 275.153 179.188C275.358 182.694 275.553 186.026 275.977 189.108C276.654 194.016 277.923 198.407 280.8 202.073C283.643 205.697 287.109 208.434 290.56 210.839C291.744 211.663 292.919 212.444 294.066 213.207C296.289 214.685 298.41 216.095 300.292 217.62C303.126 219.916 305.33 222.409 306.387 225.64C307.443 228.868 307.379 232.906 305.527 238.339C301.845 249.139 293.504 254.809 283.624 258.681C278.681 260.618 273.374 262.096 268.091 263.542C267.847 263.609 267.604 263.676 267.36 263.742C262.334 265.118 257.345 266.482 252.779 268.201C233.723 275.375 200.927 289.033 187.366 294.786C173.807 300.539 155.467 306.971 137.621 302.515C128.703 300.288 122.964 296.14 120.101 290.138C117.233 284.122 117.2 276.133 119.951 266.107C124.52 255.587 126.691 245.478 123.375 234.93C120.061 224.386 111.294 213.503 94.2185 201.357C77.288 189.314 69.3479 173.671 67.8719 161.086C67.1333 154.788 68.0163 149.29 70.1599 145.387C72.2938 141.503 75.669 139.201 80.0001 139.201C87.0773 139.201 90.3132 140.143 93.0118 140.928C93.7476 141.142 94.4434 141.345 95.1662 141.513C98.6181 142.319 102.492 142.288 113.387 139.182C118.929 137.602 125.554 133.112 132.521 127.784C135.335 125.632 138.204 123.344 141.09 121.042C145.395 117.609 149.74 114.143 154.003 111.049C161.125 105.88 167.888 101.848 173.638 100.818C176.497 100.306 179.072 100.543 181.312 101.722C183.554 102.901 185.522 105.055 187.107 108.492Z" fill="#FD7D94" stroke="#443038"/>
<path d="M188.184 153.887C196.63 160.798 205.5 159.288 213.782 157.796L214.029 157.752C222.278 156.265 229.869 154.897 236.447 161.209C243.15 167.64 244.862 177.434 245.259 186.543C245.397 189.711 245.375 192.767 245.356 195.557C245.348 196.775 245.339 197.943 245.345 199.047C245.354 200.855 245.401 202.495 245.547 203.888C245.692 205.272 245.939 206.46 246.377 207.34C247.185 208.964 248.202 210.558 249.256 212.188C249.333 212.308 249.411 212.427 249.488 212.547C250.475 214.07 251.487 215.633 252.415 217.318C254.41 220.942 256 225.109 256 230.5C256 235.862 254.196 239.929 249.946 242.993C245.653 246.087 238.825 248.189 228.711 249.459C208.33 252.017 197.249 258.563 186.667 266.573C176.322 274.404 165.592 272.492 160.208 270.045C154.855 267.612 146.841 259.656 143.931 248.086C143.208 245.213 143.094 242.874 143.018 240.542C143.013 240.388 143.008 240.235 143.003 240.081C142.934 237.9 142.864 235.683 142.309 233.062C141.119 227.441 137.718 220.024 127.508 206.811C117.357 193.675 115.548 184.539 116.838 178.351C118.129 172.161 122.555 168.759 125.254 167.17C127.899 165.612 131.187 165.139 135.662 164.564C135.826 164.543 135.992 164.521 136.159 164.5C140.522 163.941 145.903 163.252 152.638 161.329C156.194 160.313 159.205 158.476 161.959 156.535C162.873 155.891 163.752 155.241 164.612 154.605C166.37 153.304 168.049 152.062 169.779 151.055C172.33 149.569 174.906 148.65 177.828 148.893C180.756 149.136 184.106 150.551 188.184 153.887Z" fill="#443038" stroke="#443038"/>
<path d="M209.501 228.507L209.473 228.512L209.445 228.519C207.437 229.098 204.612 230.171 201.406 231.388L201.38 231.398C198.153 232.623 194.524 234.001 190.894 235.197C187.262 236.394 183.647 237.404 180.447 237.898C177.23 238.396 174.516 238.358 172.636 237.541C168.887 235.914 167.917 232.291 167.63 228.109C167.545 226.877 167.521 225.649 167.497 224.427C167.48 223.557 167.463 222.689 167.425 221.827C167.334 219.803 167.122 217.864 166.459 216.304C165.819 214.796 164.895 213.221 163.926 211.633C163.738 211.324 163.548 211.015 163.358 210.706C162.563 209.412 161.765 208.112 161.065 206.808C159.32 203.552 158.307 200.462 159.461 197.692C160.652 194.834 162.382 193.525 164.553 192.736C165.657 192.334 166.879 192.066 168.225 191.806C168.538 191.746 168.857 191.686 169.182 191.625C170.248 191.425 171.38 191.212 172.552 190.933C174.104 190.563 175.455 190.062 176.705 189.554C177.104 189.392 177.489 189.23 177.866 189.072C178.683 188.73 179.462 188.403 180.26 188.12C182.548 187.307 184.895 186.886 188.177 187.728C189.962 188.185 191.934 188.159 193.922 187.97C195.097 187.858 196.318 187.684 197.519 187.512C198.327 187.396 199.126 187.282 199.895 187.189C203.837 186.713 207.173 186.774 209.193 189.311C211.254 191.901 211.032 195.091 210.519 198.872C210.474 199.199 210.428 199.53 210.381 199.865C209.892 203.337 209.349 207.205 210.521 211.143C211.058 212.946 211.752 214.731 212.408 216.419C212.523 216.715 212.637 217.008 212.749 217.297C213.504 219.254 214.153 221.044 214.425 222.612C214.698 224.179 214.576 225.431 213.9 226.382C213.222 227.336 211.902 228.105 209.501 228.507Z" fill="#FDFFFA" stroke="#443038"/>
<path d="M341.869 321.818V332H340.94V322.793H340.88L338.494 324.379V323.414L340.9 321.818H341.869ZM348.124 332.139C347.408 332.139 346.796 331.934 346.289 331.523C345.785 331.108 345.397 330.51 345.126 329.728C344.857 328.946 344.723 328.006 344.723 326.909C344.723 325.815 344.857 324.879 345.126 324.1C345.397 323.318 345.787 322.72 346.294 322.305C346.804 321.888 347.414 321.679 348.124 321.679C348.833 321.679 349.441 321.888 349.948 322.305C350.459 322.72 350.848 323.318 351.116 324.1C351.388 324.879 351.524 325.815 351.524 326.909C351.524 328.006 351.388 328.946 351.116 329.728C350.848 330.51 350.46 331.108 349.953 331.523C349.449 331.934 348.839 332.139 348.124 332.139ZM348.124 331.304C348.909 331.304 349.522 330.921 349.963 330.156C350.404 329.387 350.624 328.304 350.624 326.909C350.624 325.981 350.523 325.189 350.321 324.533C350.122 323.873 349.835 323.369 349.461 323.021C349.09 322.673 348.644 322.499 348.124 322.499C347.345 322.499 346.733 322.887 346.289 323.663C345.845 324.435 345.623 325.517 345.623 326.909C345.623 327.837 345.722 328.629 345.921 329.286C346.123 329.942 346.41 330.442 346.781 330.787C347.156 331.132 347.603 331.304 348.124 331.304ZM356.71 332.139C355.994 332.139 355.382 331.934 354.875 331.523C354.371 331.108 353.983 330.51 353.712 329.728C353.443 328.946 353.309 328.006 353.309 326.909C353.309 325.815 353.443 324.879 353.712 324.1C353.983 323.318 354.373 322.72 354.88 322.305C355.39 321.888 356 321.679 356.71 321.679C357.419 321.679 358.027 321.888 358.534 322.305C359.045 322.72 359.434 323.318 359.702 324.1C359.974 324.879 360.11 325.815 360.11 326.909C360.11 328.006 359.974 328.946 359.702 329.728C359.434 330.51 359.046 331.108 358.539 331.523C358.035 331.934 357.425 332.139 356.71 332.139ZM356.71 331.304C357.495 331.304 358.108 330.921 358.549 330.156C358.99 329.387 359.21 328.304 359.21 326.909C359.21 325.981 359.109 325.189 358.907 324.533C358.708 323.873 358.421 323.369 358.047 323.021C357.676 322.673 357.23 322.499 356.71 322.499C355.931 322.499 355.319 322.887 354.875 323.663C354.431 324.435 354.209 325.517 354.209 326.909C354.209 327.837 354.308 328.629 354.507 329.286C354.709 329.942 354.996 330.442 355.367 330.787C355.742 331.132 356.189 331.304 356.71 331.304ZM329.009 349H326.026V338.818H329.188C330.159 338.818 330.989 339.02 331.679 339.425C332.372 339.829 332.902 340.409 333.27 341.165C333.638 341.92 333.822 342.827 333.822 343.884C333.822 344.951 333.633 345.868 333.255 346.634C332.88 347.396 332.333 347.981 331.614 348.388C330.898 348.796 330.03 349 329.009 349ZM326.956 348.165H328.954C329.829 348.165 330.562 347.992 331.152 347.648C331.742 347.303 332.184 346.811 332.479 346.171C332.774 345.531 332.922 344.769 332.922 343.884C332.918 343.006 332.773 342.25 332.484 341.617C332.199 340.984 331.775 340.499 331.211 340.161C330.651 339.822 329.959 339.653 329.133 339.653H326.956V348.165ZM338.024 349.174C337.563 349.174 337.142 349.085 336.761 348.906C336.38 348.723 336.077 348.461 335.851 348.12C335.626 347.775 335.513 347.358 335.513 346.867C335.513 346.489 335.584 346.171 335.727 345.913C335.869 345.654 336.072 345.442 336.333 345.276C336.595 345.111 336.905 344.98 337.263 344.884C337.621 344.787 338.016 344.713 338.446 344.66C338.874 344.607 339.235 344.56 339.53 344.521C339.828 344.481 340.056 344.418 340.211 344.332C340.367 344.246 340.445 344.106 340.445 343.914V343.735C340.445 343.215 340.289 342.805 339.978 342.507C339.669 342.205 339.225 342.055 338.645 342.055C338.095 342.055 337.646 342.176 337.298 342.418C336.953 342.66 336.711 342.945 336.572 343.273L335.732 342.969C335.904 342.552 336.143 342.219 336.448 341.97C336.753 341.718 337.094 341.538 337.472 341.428C337.85 341.316 338.233 341.259 338.62 341.259C338.912 341.259 339.215 341.297 339.53 341.374C339.848 341.45 340.143 341.582 340.415 341.771C340.687 341.957 340.907 342.217 341.076 342.552C341.245 342.883 341.33 343.304 341.33 343.815V349H340.445V347.792H340.39C340.284 348.017 340.127 348.236 339.918 348.448C339.709 348.66 339.447 348.834 339.132 348.97C338.818 349.106 338.448 349.174 338.024 349.174ZM338.143 348.364C338.614 348.364 339.021 348.259 339.366 348.05C339.711 347.842 339.976 347.565 340.162 347.22C340.35 346.872 340.445 346.489 340.445 346.072V344.968C340.379 345.031 340.268 345.087 340.112 345.137C339.959 345.187 339.782 345.232 339.58 345.271C339.381 345.308 339.182 345.339 338.983 345.366C338.784 345.392 338.605 345.415 338.446 345.435C338.016 345.488 337.648 345.571 337.343 345.684C337.038 345.797 336.804 345.952 336.642 346.151C336.479 346.347 336.398 346.599 336.398 346.907C336.398 347.371 336.564 347.731 336.895 347.986C337.227 348.238 337.643 348.364 338.143 348.364ZM344.027 351.864C343.851 351.864 343.687 351.847 343.535 351.814C343.382 351.781 343.261 351.744 343.172 351.705L343.411 350.924C343.712 351.017 343.981 351.05 344.216 351.023C344.451 351 344.66 350.894 344.842 350.705C345.025 350.52 345.187 350.235 345.33 349.85L345.608 349.075L342.799 341.364H343.759L346.026 347.832H346.095L348.362 341.364H349.322L346.09 350.208C345.954 350.576 345.787 350.883 345.588 351.128C345.389 351.376 345.159 351.56 344.897 351.68C344.638 351.802 344.348 351.864 344.027 351.864ZM356.184 343.039L355.373 343.268C355.294 343.039 355.181 342.832 355.035 342.646C354.89 342.461 354.699 342.313 354.464 342.204C354.232 342.094 353.943 342.04 353.599 342.04C353.081 342.04 352.657 342.162 352.326 342.408C351.994 342.653 351.829 342.969 351.829 343.357C351.829 343.685 351.941 343.952 352.167 344.158C352.395 344.36 352.747 344.521 353.221 344.64L354.374 344.923C355.014 345.079 355.493 345.326 355.811 345.664C356.132 346.002 356.293 346.426 356.293 346.937C356.293 347.368 356.174 347.75 355.935 348.085C355.697 348.42 355.363 348.683 354.936 348.876C354.512 349.065 354.019 349.159 353.459 349.159C352.714 349.159 352.099 348.992 351.615 348.657C351.131 348.319 350.821 347.832 350.685 347.195L351.535 346.987C351.645 347.441 351.858 347.784 352.177 348.016C352.498 348.248 352.921 348.364 353.444 348.364C354.031 348.364 354.5 348.233 354.851 347.971C355.203 347.706 355.378 347.374 355.378 346.977C355.378 346.668 355.276 346.41 355.07 346.201C354.865 345.989 354.553 345.833 354.135 345.734L352.888 345.435C352.225 345.276 351.734 345.024 351.416 344.68C351.098 344.335 350.939 343.907 350.939 343.397C350.939 342.976 351.053 342.607 351.282 342.288C351.51 341.967 351.825 341.715 352.226 341.533C352.627 341.35 353.085 341.259 353.599 341.259C354.298 341.259 354.856 341.418 355.274 341.737C355.695 342.051 355.998 342.486 356.184 343.039ZM348.019 366.159C347.36 366.159 346.776 365.992 346.269 365.657C345.765 365.322 345.371 364.86 345.086 364.27C344.801 363.677 344.658 362.992 344.658 362.217C344.658 361.434 344.801 360.747 345.086 360.153C345.371 359.557 345.765 359.093 346.269 358.761C346.776 358.427 347.36 358.259 348.019 358.259C348.679 358.259 349.26 358.427 349.764 358.761C350.268 359.096 350.662 359.56 350.947 360.153C351.236 360.747 351.38 361.434 351.38 362.217C351.38 362.992 351.237 363.677 350.952 364.27C350.667 364.86 350.271 365.322 349.764 365.657C349.26 365.992 348.679 366.159 348.019 366.159ZM348.019 365.349C348.549 365.349 348.999 365.206 349.366 364.921C349.734 364.636 350.013 364.257 350.202 363.783C350.394 363.309 350.49 362.787 350.49 362.217C350.49 361.647 350.394 361.123 350.202 360.646C350.013 360.168 349.734 359.786 349.366 359.497C348.999 359.209 348.549 359.065 348.019 359.065C347.492 359.065 347.043 359.209 346.672 359.497C346.304 359.786 346.024 360.168 345.832 360.646C345.643 361.123 345.548 361.647 345.548 362.217C345.548 362.787 345.643 363.309 345.832 363.783C346.024 364.257 346.304 364.636 346.672 364.921C347.04 365.206 347.489 365.349 348.019 365.349ZM356.465 358.364V359.134H352.711V358.364H356.465ZM353.884 366V357.245C353.884 356.834 353.979 356.488 354.168 356.206C354.36 355.924 354.61 355.71 354.919 355.565C355.227 355.419 355.553 355.346 355.898 355.346C356.13 355.346 356.322 355.366 356.475 355.406C356.63 355.442 356.753 355.478 356.843 355.515L356.584 356.29C356.518 356.271 356.436 356.247 356.34 356.221C356.244 356.194 356.123 356.181 355.977 356.181C355.593 356.181 355.296 356.289 355.088 356.504C354.879 356.72 354.774 357.028 354.774 357.429L354.769 366H353.884ZM320.218 383H317.235V372.818H320.397C321.368 372.818 322.198 373.02 322.888 373.425C323.58 373.829 324.111 374.409 324.479 375.165C324.847 375.92 325.031 376.827 325.031 377.884C325.031 378.951 324.842 379.868 324.464 380.634C324.089 381.396 323.542 381.981 322.823 382.388C322.107 382.796 321.239 383 320.218 383ZM318.165 382.165H320.163C321.038 382.165 321.771 381.992 322.361 381.648C322.951 381.303 323.393 380.811 323.688 380.171C323.983 379.531 324.131 378.769 324.131 377.884C324.127 377.006 323.982 376.25 323.693 375.617C323.408 374.984 322.984 374.499 322.42 374.161C321.86 373.822 321.168 373.653 320.342 373.653H318.165V382.165ZM330.187 383.159C329.475 383.159 328.858 382.993 328.338 382.662C327.818 382.327 327.415 381.865 327.13 381.275C326.848 380.682 326.707 379.999 326.707 379.227C326.707 378.458 326.848 377.775 327.13 377.178C327.415 376.578 327.808 376.109 328.308 375.771C328.812 375.43 329.394 375.259 330.053 375.259C330.467 375.259 330.867 375.335 331.251 375.488C331.636 375.637 331.98 375.867 332.285 376.179C332.594 376.487 332.837 376.877 333.016 377.347C333.195 377.815 333.285 378.368 333.285 379.008V379.445H327.319V378.665H332.38C332.38 378.174 332.28 377.733 332.081 377.342C331.886 376.948 331.613 376.636 331.261 376.408C330.913 376.179 330.51 376.065 330.053 376.065C329.569 376.065 329.143 376.194 328.775 376.452C328.407 376.711 328.119 377.052 327.91 377.477C327.705 377.901 327.6 378.365 327.597 378.869V379.336C327.597 379.942 327.702 380.473 327.91 380.927C328.122 381.378 328.422 381.727 328.81 381.976C329.198 382.224 329.657 382.349 330.187 382.349C330.549 382.349 330.865 382.292 331.137 382.18C331.412 382.067 331.642 381.916 331.828 381.727C332.017 381.535 332.159 381.325 332.256 381.096L333.096 381.369C332.98 381.691 332.789 381.987 332.524 382.259C332.262 382.531 331.934 382.75 331.54 382.915C331.148 383.078 330.698 383.159 330.187 383.159ZM340.365 377.039L339.555 377.268C339.475 377.039 339.363 376.832 339.217 376.646C339.071 376.461 338.881 376.313 338.645 376.204C338.413 376.094 338.125 376.04 337.78 376.04C337.263 376.04 336.839 376.162 336.507 376.408C336.176 376.653 336.01 376.969 336.01 377.357C336.01 377.685 336.123 377.952 336.348 378.158C336.577 378.36 336.928 378.521 337.402 378.64L338.556 378.923C339.195 379.079 339.674 379.326 339.993 379.664C340.314 380.002 340.475 380.426 340.475 380.937C340.475 381.368 340.355 381.75 340.117 382.085C339.878 382.42 339.545 382.683 339.118 382.876C338.693 383.065 338.201 383.159 337.641 383.159C336.895 383.159 336.28 382.992 335.797 382.657C335.313 382.319 335.003 381.832 334.867 381.195L335.717 380.987C335.826 381.441 336.04 381.784 336.358 382.016C336.68 382.248 337.102 382.364 337.626 382.364C338.213 382.364 338.682 382.233 339.033 381.971C339.384 381.706 339.56 381.374 339.56 380.977C339.56 380.668 339.457 380.41 339.252 380.201C339.046 379.989 338.735 379.833 338.317 379.734L337.069 379.435C336.406 379.276 335.916 379.024 335.598 378.68C335.279 378.335 335.12 377.907 335.12 377.397C335.12 376.976 335.235 376.607 335.463 376.288C335.692 375.967 336.007 375.715 336.408 375.533C336.809 375.35 337.266 375.259 337.78 375.259C338.48 375.259 339.038 375.418 339.456 375.737C339.877 376.051 340.18 376.486 340.365 377.039ZM342.422 383V375.364H343.312V383H342.422ZM342.875 374.051C342.693 374.051 342.537 373.99 342.407 373.867C342.278 373.741 342.214 373.59 342.214 373.415C342.214 373.239 342.278 373.09 342.407 372.967C342.537 372.841 342.693 372.778 342.875 372.778C343.057 372.778 343.213 372.841 343.342 372.967C343.471 373.09 343.536 373.239 343.536 373.415C343.536 373.59 343.471 373.741 343.342 373.867C343.213 373.99 343.057 374.051 342.875 374.051ZM348.566 386.023C348.046 386.023 347.59 385.955 347.199 385.819C346.808 385.686 346.478 385.504 346.21 385.272C345.941 385.04 345.732 384.78 345.583 384.491L346.309 384.014C346.418 384.206 346.564 384.395 346.746 384.581C346.932 384.767 347.172 384.921 347.467 385.043C347.766 385.166 348.132 385.227 348.566 385.227C349.242 385.227 349.787 385.058 350.202 384.72C350.619 384.382 350.828 383.857 350.828 383.144V381.424H350.749C350.646 381.656 350.498 381.888 350.306 382.12C350.114 382.349 349.862 382.539 349.55 382.692C349.242 382.844 348.859 382.92 348.402 382.92C347.792 382.92 347.25 382.77 346.776 382.468C346.306 382.166 345.934 381.736 345.663 381.175C345.394 380.612 345.26 379.941 345.26 379.162C345.26 378.39 345.391 377.71 345.653 377.124C345.918 376.537 346.287 376.08 346.761 375.751C347.235 375.423 347.787 375.259 348.417 375.259C348.884 375.259 349.272 375.342 349.58 375.508C349.888 375.67 350.135 375.872 350.321 376.114C350.51 376.356 350.657 376.592 350.763 376.82H350.853V375.364H351.718V383.199C351.718 383.845 351.58 384.377 351.305 384.795C351.03 385.212 350.656 385.521 350.182 385.719C349.708 385.922 349.169 386.023 348.566 386.023ZM348.506 382.11C348.997 382.11 349.416 381.992 349.764 381.757C350.112 381.518 350.379 381.177 350.565 380.733C350.75 380.289 350.843 379.76 350.843 379.147C350.843 378.55 350.752 378.022 350.57 377.561C350.387 377.097 350.122 376.732 349.774 376.467C349.429 376.199 349.007 376.065 348.506 376.065C347.996 376.065 347.565 376.202 347.214 376.477C346.862 376.752 346.597 377.124 346.418 377.591C346.239 378.055 346.15 378.574 346.15 379.147C346.15 379.73 346.241 380.246 346.423 380.693C346.606 381.137 346.872 381.485 347.224 381.737C347.575 381.986 348.003 382.11 348.506 382.11ZM354.946 378.227V383H354.061V375.364H354.921V376.562H355.001C355.18 376.171 355.458 375.857 355.836 375.622C356.217 375.384 356.688 375.264 357.248 375.264C357.761 375.264 358.212 375.372 358.6 375.587C358.991 375.799 359.294 376.113 359.51 376.527C359.729 376.941 359.838 377.45 359.838 378.053V383H358.953V378.108C358.953 377.482 358.777 376.986 358.426 376.621C358.078 376.257 357.611 376.075 357.024 376.075C356.623 376.075 356.267 376.161 355.955 376.333C355.644 376.505 355.397 376.754 355.214 377.079C355.035 377.4 354.946 377.783 354.946 378.227Z" fill="#443038"/>
</g>
<defs>
<clipPath id="clip0_488297_315">
<rect width="375" height="400" fill="white"/>
</clipPath>
</defs>
</svg>
