<svg width="375" height="400" viewBox="0 0 375 400" fill="none" xmlns="http://www.w3.org/2000/svg">
<g clip-path="url(#clip0_488303_1962)">
<rect width="375" height="400" fill="#FDFFFA"/>
<path d="M184.969 195.492C184.969 208.117 188.004 218.843 194.075 227.67C200.047 236.403 208.174 243.047 218.455 247.603C228.638 252.159 240.142 254.438 252.969 254.438C265.795 254.438 277.349 252.159 287.63 247.603C297.91 243.047 306.037 236.403 312.01 227.67C317.982 218.843 320.969 208.117 320.969 195.492C320.969 187.234 319.353 179.688 316.122 172.854C312.793 165.925 308.142 159.897 302.17 154.772C296.099 149.646 288.951 145.707 280.727 142.954C272.404 140.107 263.25 138.683 253.262 138.683C240.142 138.683 228.442 141.151 218.161 146.087C207.88 150.927 199.802 157.619 193.928 166.162C187.955 174.705 184.969 184.482 184.969 195.492ZM212.286 194.923C212.286 187.234 214 180.448 217.427 174.562C220.854 168.583 225.651 163.931 231.82 160.609C237.988 157.287 245.136 155.626 253.262 155.626C261.585 155.626 268.782 157.287 274.852 160.609C280.825 163.931 285.476 168.583 288.805 174.562C292.134 180.448 293.798 187.234 293.798 194.923C293.798 202.896 292.183 209.73 288.951 215.425C285.622 221.026 280.923 225.345 274.852 228.382C268.684 231.325 261.389 232.796 252.969 232.796C244.548 232.796 237.303 231.325 231.232 228.382C225.162 225.345 220.511 221.026 217.28 215.425C213.951 209.73 212.286 202.896 212.286 194.923ZM189.962 98.247C189.962 108.308 192.704 117.373 198.187 125.442C203.67 133.51 211.16 139.869 220.658 144.52C230.155 149.171 240.926 151.497 252.969 151.497C265.208 151.497 276.125 149.171 285.72 144.52C295.218 139.869 302.659 133.51 308.044 125.442C313.43 117.373 316.122 108.308 316.122 98.247C316.122 86.1922 313.43 75.9408 308.044 67.493C302.561 59.0451 295.071 52.5906 285.574 48.1293C276.076 43.6681 265.257 41.4375 253.116 41.4375C240.877 41.4375 230.008 43.6681 220.511 48.1293C211.013 52.5906 203.572 59.0451 198.187 67.493C192.704 75.9408 189.962 86.1922 189.962 98.247ZM217.133 98.6741C217.133 91.745 218.651 85.6227 221.686 80.3072C224.721 74.9916 228.931 70.8152 234.316 67.7777C239.702 64.6454 245.968 63.0792 253.116 63.0792C260.263 63.0792 266.53 64.5505 271.915 67.493C277.202 70.3406 281.363 74.4221 284.399 79.7376C287.336 85.0531 288.805 91.3653 288.805 98.6741C288.805 105.793 287.336 112.01 284.399 117.326C281.363 122.641 277.153 126.77 271.768 129.713C266.383 132.655 260.116 134.127 252.969 134.127C245.821 134.127 239.604 132.655 234.316 129.713C228.931 126.77 224.721 122.641 221.686 117.326C218.651 112.01 217.133 105.793 217.133 98.6741Z" fill="#0F699B"/>
<path d="M184.969 395.867C184.969 408.492 188.004 419.218 194.075 428.045C200.047 436.778 208.174 443.422 218.455 447.978C228.638 452.534 240.142 454.812 252.969 454.812C265.795 454.812 277.349 452.534 287.63 447.978C297.91 443.422 306.037 436.778 312.01 428.045C317.982 419.218 320.969 408.492 320.969 395.867C320.969 387.609 319.353 380.063 316.122 373.229C312.793 366.3 308.142 360.272 302.17 355.147C296.099 350.021 288.951 346.082 280.727 343.329C272.404 340.482 263.25 339.058 253.262 339.058C240.142 339.058 228.442 341.526 218.161 346.462C207.88 351.302 199.802 357.994 193.928 366.537C187.955 375.08 184.969 384.857 184.969 395.867ZM212.286 395.298C212.286 387.609 214 380.823 217.427 374.938C220.854 368.958 225.651 364.306 231.82 360.984C237.988 357.662 245.136 356.001 253.262 356.001C261.585 356.001 268.782 357.662 274.852 360.984C280.825 364.306 285.476 368.958 288.805 374.938C292.134 380.823 293.798 387.609 293.798 395.298C293.798 403.271 292.183 410.105 288.951 415.8C285.622 421.401 280.923 425.72 274.852 428.757C268.684 431.7 261.389 433.171 252.969 433.171C244.548 433.171 237.303 431.7 231.232 428.757C225.162 425.72 220.511 421.401 217.28 415.8C213.951 410.105 212.286 403.271 212.286 395.298ZM189.962 298.622C189.962 308.683 192.704 317.748 198.187 325.817C203.67 333.885 211.16 340.244 220.658 344.895C230.155 349.546 240.926 351.872 252.969 351.872C265.208 351.872 276.125 349.546 285.72 344.895C295.218 340.244 302.659 333.885 308.044 325.817C313.43 317.748 316.122 308.683 316.122 298.622C316.122 286.567 313.43 276.316 308.044 267.868C302.561 259.42 295.071 252.966 285.574 248.504C276.076 244.043 265.257 241.812 253.116 241.812C240.877 241.812 230.008 244.043 220.511 248.504C211.013 252.966 203.572 259.42 198.187 267.868C192.704 276.316 189.962 286.567 189.962 298.622ZM217.133 299.049C217.133 292.12 218.651 285.998 221.686 280.682C224.721 275.367 228.931 271.19 234.316 268.153C239.702 265.02 245.968 263.454 253.116 263.454C260.263 263.454 266.53 264.925 271.915 267.868C277.202 270.716 281.363 274.797 284.399 280.113C287.336 285.428 288.805 291.74 288.805 299.049C288.805 306.168 287.336 312.385 284.399 317.701C281.363 323.016 277.153 327.145 271.768 330.088C266.383 333.03 260.116 334.502 252.969 334.502C245.821 334.502 239.604 333.03 234.316 330.088C228.931 327.145 224.721 323.016 221.686 317.701C218.651 312.385 217.133 306.168 217.133 299.049Z" fill="#EFEFEA"/>
<path d="M63.5 -4.88269C63.5 7.74164 66.5353 18.4676 72.6058 27.2951C78.5785 36.0277 86.7052 42.6721 96.986 47.2283C107.169 51.7844 118.674 54.0625 131.5 54.0625C144.326 54.0625 155.88 51.7844 166.161 47.2283C176.442 42.6721 184.568 36.0277 190.541 27.2951C196.514 18.4676 199.5 7.74164 199.5 -4.88269C199.5 -13.1407 197.884 -20.6868 194.653 -27.5211C191.324 -34.4502 186.674 -40.4776 180.701 -45.6033C174.63 -50.7289 167.483 -54.6681 159.258 -57.4208C150.936 -60.2684 141.781 -61.6922 131.794 -61.6922C118.674 -61.6922 106.973 -59.2243 96.6922 -54.2884C86.4114 -49.4475 78.3337 -42.7557 72.459 -34.2129C66.4863 -25.6701 63.5 -15.8934 63.5 -4.88269ZM90.8175 -5.45221C90.8175 -13.1407 92.531 -19.9275 95.9579 -25.8125C99.3848 -31.7924 104.183 -36.4435 110.351 -39.7657C116.519 -43.0879 123.667 -44.749 131.794 -44.749C140.116 -44.749 147.313 -43.0879 153.383 -39.7657C159.356 -36.4435 164.007 -31.7924 167.336 -25.8125C170.665 -19.9275 172.329 -13.1407 172.329 -5.45221C172.329 2.52105 170.714 9.35527 167.483 15.0505C164.154 20.6507 159.454 24.9696 153.383 28.007C147.215 30.9495 139.92 32.4208 131.5 32.4208C123.08 32.4208 115.834 30.9495 109.763 28.007C103.693 24.9696 99.0421 20.6507 95.811 15.0505C92.482 9.35527 90.8175 2.52105 90.8175 -5.45221ZM68.4935 -102.128C68.4935 -92.0665 71.2351 -83.0017 76.7181 -74.9335C82.2012 -66.8653 89.6915 -60.5057 99.189 -55.8546C108.686 -51.2036 119.457 -48.878 131.5 -48.878C143.739 -48.878 154.656 -51.2036 164.252 -55.8546C173.749 -60.5057 181.19 -66.8653 186.576 -74.9335C191.961 -83.0017 194.653 -92.0665 194.653 -102.128C194.653 -114.183 191.961 -124.434 186.576 -132.882C181.093 -141.33 173.602 -147.784 164.105 -152.246C154.607 -156.707 143.788 -158.938 131.647 -158.938C119.408 -158.938 108.54 -156.707 99.0421 -152.246C89.5446 -147.784 82.1033 -141.33 76.7181 -132.882C71.2351 -124.434 68.4935 -114.183 68.4935 -102.128ZM95.6641 -101.701C95.6641 -108.63 97.1818 -114.752 100.217 -120.068C103.252 -125.383 107.463 -129.56 112.848 -132.597C118.233 -135.73 124.499 -137.296 131.647 -137.296C138.794 -137.296 145.061 -135.825 150.446 -132.882C155.733 -130.034 159.895 -125.953 162.93 -120.637C165.867 -115.322 167.336 -109.01 167.336 -101.701C167.336 -94.5819 165.867 -88.3646 162.93 -83.0491C159.895 -77.7336 155.684 -73.6046 150.299 -70.6621C144.914 -67.7196 138.648 -66.2483 131.5 -66.2483C124.352 -66.2483 118.135 -67.7196 112.848 -70.6621C107.463 -73.6046 103.252 -77.7336 100.217 -83.0491C97.1818 -88.3646 95.6641 -94.5819 95.6641 -101.701Z" fill="#EFEFEA"/>
<path d="M63.5 195.492C63.5 208.117 66.5353 218.843 72.6058 227.67C78.5785 236.403 86.7052 243.047 96.986 247.603C107.169 252.159 118.674 254.438 131.5 254.438C144.326 254.438 155.88 252.159 166.161 247.603C176.442 243.047 184.568 236.403 190.541 227.67C196.514 218.843 199.5 208.117 199.5 195.492C199.5 187.234 197.884 179.688 194.653 172.854C191.324 165.925 186.674 159.897 180.701 154.772C174.63 149.646 167.483 145.707 159.258 142.954C150.936 140.107 141.781 138.683 131.794 138.683C118.674 138.683 106.973 141.151 96.6922 146.087C86.4114 150.927 78.3337 157.619 72.459 166.162C66.4863 174.705 63.5 184.482 63.5 195.492ZM90.8175 194.923C90.8175 187.234 92.531 180.448 95.9579 174.562C99.3848 168.583 104.183 163.931 110.351 160.609C116.519 157.287 123.667 155.626 131.794 155.626C140.116 155.626 147.313 157.287 153.383 160.609C159.356 163.931 164.007 168.583 167.336 174.562C170.665 180.448 172.329 187.234 172.329 194.923C172.329 202.896 170.714 209.73 167.483 215.425C164.154 221.026 159.454 225.345 153.383 228.382C147.215 231.325 139.92 232.796 131.5 232.796C123.08 232.796 115.834 231.325 109.763 228.382C103.693 225.345 99.0421 221.026 95.811 215.425C92.482 209.73 90.8175 202.896 90.8175 194.923ZM68.4935 98.247C68.4935 108.308 71.2351 117.373 76.7181 125.442C82.2012 133.51 89.6915 139.869 99.189 144.52C108.686 149.171 119.457 151.497 131.5 151.497C143.739 151.497 154.656 149.171 164.252 144.52C173.749 139.869 181.19 133.51 186.576 125.442C191.961 117.373 194.653 108.308 194.653 98.247C194.653 86.1922 191.961 75.9408 186.576 67.493C181.093 59.0451 173.602 52.5906 164.105 48.1293C154.607 43.6681 143.788 41.4375 131.647 41.4375C119.408 41.4375 108.54 43.6681 99.0421 48.1293C89.5446 52.5906 82.1033 59.0451 76.7181 67.493C71.2351 75.9408 68.4935 86.1922 68.4935 98.247ZM95.6641 98.6741C95.6641 91.745 97.1818 85.6227 100.217 80.3072C103.252 74.9916 107.463 70.8152 112.848 67.7777C118.233 64.6454 124.499 63.0792 131.647 63.0792C138.794 63.0792 145.061 64.5505 150.446 67.493C155.733 70.3406 159.895 74.4221 162.93 79.7376C165.867 85.0531 167.336 91.3653 167.336 98.6741C167.336 105.793 165.867 112.01 162.93 117.326C159.895 122.641 155.684 126.77 150.299 129.713C144.914 132.655 138.648 134.127 131.5 134.127C124.352 134.127 118.135 132.655 112.848 129.713C107.463 126.77 103.252 122.641 100.217 117.326C97.1818 112.01 95.6641 105.793 95.6641 98.6741Z" fill="#EFEFEA"/>
<path d="M63.5 395.867C63.5 408.492 66.5353 419.218 72.6058 428.045C78.5785 436.778 86.7052 443.422 96.986 447.978C107.169 452.534 118.674 454.812 131.5 454.812C144.326 454.812 155.88 452.534 166.161 447.978C176.442 443.422 184.568 436.778 190.541 428.045C196.514 419.218 199.5 408.492 199.5 395.867C199.5 387.609 197.884 380.063 194.653 373.229C191.324 366.3 186.674 360.272 180.701 355.147C174.63 350.021 167.483 346.082 159.258 343.329C150.936 340.482 141.781 339.058 131.794 339.058C118.674 339.058 106.973 341.526 96.6922 346.462C86.4114 351.302 78.3337 357.994 72.459 366.537C66.4863 375.08 63.5 384.857 63.5 395.867ZM90.8175 395.298C90.8175 387.609 92.531 380.823 95.9579 374.938C99.3848 368.958 104.183 364.306 110.351 360.984C116.519 357.662 123.667 356.001 131.794 356.001C140.116 356.001 147.313 357.662 153.383 360.984C159.356 364.306 164.007 368.958 167.336 374.938C170.665 380.823 172.329 387.609 172.329 395.298C172.329 403.271 170.714 410.105 167.483 415.8C164.154 421.401 159.454 425.72 153.383 428.757C147.215 431.7 139.92 433.171 131.5 433.171C123.08 433.171 115.834 431.7 109.763 428.757C103.693 425.72 99.0421 421.401 95.811 415.8C92.482 410.105 90.8175 403.271 90.8175 395.298ZM68.4935 298.622C68.4935 308.683 71.2351 317.748 76.7181 325.817C82.2012 333.885 89.6915 340.244 99.189 344.895C108.686 349.546 119.457 351.872 131.5 351.872C143.739 351.872 154.656 349.546 164.252 344.895C173.749 340.244 181.19 333.885 186.576 325.817C191.961 317.748 194.653 308.683 194.653 298.622C194.653 286.567 191.961 276.316 186.576 267.868C181.093 259.42 173.602 252.966 164.105 248.504C154.607 244.043 143.788 241.812 131.647 241.812C119.408 241.812 108.54 244.043 99.0421 248.504C89.5446 252.966 82.1033 259.42 76.7181 267.868C71.2351 276.316 68.4935 286.567 68.4935 298.622ZM95.6641 299.049C95.6641 292.12 97.1818 285.998 100.217 280.682C103.252 275.367 107.463 271.19 112.848 268.153C118.233 265.02 124.499 263.454 131.647 263.454C138.794 263.454 145.061 264.925 150.446 267.868C155.733 270.716 159.895 274.797 162.93 280.113C165.867 285.428 167.336 291.74 167.336 299.049C167.336 306.168 165.867 312.385 162.93 317.701C159.895 323.016 155.684 327.145 150.299 330.088C144.914 333.03 138.648 334.502 131.5 334.502C124.352 334.502 118.135 333.03 112.848 330.088C107.463 327.145 103.252 323.016 100.217 317.701C97.1818 312.385 95.6641 306.168 95.6641 299.049Z" fill="#EFEFEA"/>
<path d="M-57.9688 -4.88269C-57.9688 7.74164 -54.9335 18.4676 -48.8629 27.2951C-42.8903 36.0277 -34.7636 42.6721 -24.4828 47.2283C-14.2999 51.7844 -2.79524 54.0625 10.0312 54.0625C22.8577 54.0625 34.4114 51.7844 44.6922 47.2283C54.9729 42.6721 63.0996 36.0277 69.0723 27.2951C75.0449 18.4676 78.0312 7.74164 78.0312 -4.88269C78.0312 -13.1407 76.4157 -20.6868 73.1846 -27.5211C69.8556 -34.4502 65.2048 -40.4776 59.2321 -45.6033C53.1616 -50.7289 46.014 -54.6681 37.7893 -57.4208C29.4668 -60.2684 20.312 -61.6922 10.325 -61.6922C-2.79525 -61.6922 -14.4958 -59.2243 -24.7765 -54.2884C-35.0573 -49.4475 -43.1351 -42.7557 -49.0098 -34.2129C-54.9824 -25.6701 -57.9688 -15.8934 -57.9688 -4.88269ZM-30.6513 -5.45221C-30.6513 -13.1407 -28.9378 -19.9275 -25.5109 -25.8125C-22.0839 -31.7924 -17.2862 -36.4435 -11.1178 -39.7657C-4.94932 -43.0879 2.19827 -44.749 10.325 -44.749C18.6475 -44.749 25.8441 -43.0879 31.9146 -39.7657C37.8873 -36.4435 42.5381 -31.7924 45.8671 -25.8125C49.1961 -19.9275 50.8606 -13.1407 50.8606 -5.45221C50.8606 2.52105 49.2451 9.35527 46.014 15.0505C42.685 20.6507 37.9852 24.9696 31.9146 28.007C25.7462 30.9495 18.4517 32.4208 10.0312 32.4208C1.6108 32.4208 -5.6347 30.9495 -11.7053 28.007C-17.7758 24.9696 -22.4266 20.6507 -25.6577 15.0505C-28.9867 9.35527 -30.6513 2.52105 -30.6513 -5.45221ZM-52.9752 -102.128C-52.9752 -92.0665 -50.2337 -83.0017 -44.7506 -74.9335C-39.2675 -66.8653 -31.7773 -60.5057 -22.2798 -55.8546C-12.7823 -51.2036 -2.01195 -48.878 10.0312 -48.878C22.2703 -48.878 33.1875 -51.2036 42.7829 -55.8546C52.2803 -60.5057 59.7217 -66.8653 65.1068 -74.9335C70.492 -83.0017 73.1846 -92.0665 73.1846 -102.128C73.1846 -114.183 70.492 -124.434 65.1068 -132.882C59.6238 -141.33 52.1335 -147.784 42.636 -152.246C33.1385 -156.707 22.3192 -158.938 10.1781 -158.938C-2.06091 -158.938 -12.9291 -156.707 -22.4266 -152.246C-31.9241 -147.784 -39.3654 -141.33 -44.7506 -132.882C-50.2337 -124.434 -52.9752 -114.183 -52.9752 -102.128ZM-25.8046 -101.701C-25.8046 -108.63 -24.287 -114.752 -21.2517 -120.068C-18.2164 -125.383 -14.0062 -129.56 -8.62102 -132.597C-3.23585 -135.73 3.03053 -137.296 10.1781 -137.296C17.3257 -137.296 23.5921 -135.825 28.9773 -132.882C34.2645 -130.034 38.4258 -125.953 41.4611 -120.637C44.3984 -115.322 45.8671 -109.01 45.8671 -101.701C45.8671 -94.5819 44.3984 -88.3646 41.4611 -83.0491C38.4258 -77.7336 34.2156 -73.6046 28.8304 -70.6621C23.4452 -67.7196 17.1788 -66.2483 10.0312 -66.2483C2.88366 -66.2483 -3.33376 -67.7196 -8.62102 -70.6621C-14.0062 -73.6046 -18.2164 -77.7336 -21.2517 -83.0491C-24.287 -88.3646 -25.8046 -94.5819 -25.8046 -101.701Z" fill="#EFEFEA"/>
<path d="M-57.9688 195.492C-57.9688 208.117 -54.9335 218.843 -48.8629 227.67C-42.8903 236.403 -34.7636 243.047 -24.4828 247.603C-14.2999 252.159 -2.79524 254.438 10.0312 254.438C22.8577 254.438 34.4114 252.159 44.6922 247.603C54.9729 243.047 63.0996 236.403 69.0723 227.67C75.0449 218.843 78.0312 208.117 78.0312 195.492C78.0312 187.234 76.4157 179.688 73.1846 172.854C69.8556 165.925 65.2048 159.897 59.2321 154.772C53.1616 149.646 46.014 145.707 37.7893 142.954C29.4668 140.107 20.312 138.683 10.325 138.683C-2.79525 138.683 -14.4958 141.151 -24.7765 146.087C-35.0573 150.927 -43.1351 157.619 -49.0098 166.162C-54.9824 174.705 -57.9688 184.482 -57.9688 195.492ZM-30.6513 194.923C-30.6513 187.234 -28.9378 180.448 -25.5109 174.562C-22.0839 168.583 -17.2862 163.931 -11.1178 160.609C-4.94932 157.287 2.19827 155.626 10.325 155.626C18.6475 155.626 25.8441 157.287 31.9146 160.609C37.8873 163.931 42.5381 168.583 45.8671 174.562C49.1961 180.448 50.8606 187.234 50.8606 194.923C50.8606 202.896 49.2451 209.73 46.014 215.425C42.685 221.026 37.9852 225.345 31.9146 228.382C25.7462 231.325 18.4517 232.796 10.0312 232.796C1.6108 232.796 -5.6347 231.325 -11.7053 228.382C-17.7758 225.345 -22.4266 221.026 -25.6577 215.425C-28.9867 209.73 -30.6513 202.896 -30.6513 194.923ZM-52.9752 98.247C-52.9752 108.308 -50.2337 117.373 -44.7506 125.442C-39.2675 133.51 -31.7773 139.869 -22.2798 144.52C-12.7823 149.171 -2.01195 151.497 10.0312 151.497C22.2703 151.497 33.1875 149.171 42.7829 144.52C52.2803 139.869 59.7217 133.51 65.1068 125.442C70.492 117.373 73.1846 108.308 73.1846 98.247C73.1846 86.1922 70.492 75.9408 65.1068 67.493C59.6238 59.0451 52.1335 52.5906 42.636 48.1293C33.1385 43.6681 22.3192 41.4375 10.1781 41.4375C-2.06091 41.4375 -12.9291 43.6681 -22.4266 48.1293C-31.9241 52.5906 -39.3654 59.0451 -44.7506 67.493C-50.2337 75.9408 -52.9752 86.1922 -52.9752 98.247ZM-25.8046 98.6741C-25.8046 91.745 -24.287 85.6227 -21.2517 80.3072C-18.2164 74.9916 -14.0062 70.8152 -8.62102 67.7777C-3.23585 64.6454 3.03053 63.0792 10.1781 63.0792C17.3257 63.0792 23.5921 64.5505 28.9773 67.493C34.2645 70.3406 38.4258 74.4221 41.4611 79.7376C44.3984 85.0531 45.8671 91.3653 45.8671 98.6741C45.8671 105.793 44.3984 112.01 41.4611 117.326C38.4258 122.641 34.2156 126.77 28.8304 129.713C23.4452 132.655 17.1788 134.127 10.0312 134.127C2.88366 134.127 -3.33376 132.655 -8.62102 129.713C-14.0062 126.77 -18.2164 122.641 -21.2517 117.326C-24.287 112.01 -25.8046 105.793 -25.8046 98.6741Z" fill="#EFEFEA"/>
<path d="M-57.9688 395.867C-57.9688 408.492 -54.9335 419.218 -48.8629 428.045C-42.8903 436.778 -34.7636 443.422 -24.4828 447.978C-14.2999 452.534 -2.79524 454.812 10.0312 454.812C22.8577 454.812 34.4114 452.534 44.6922 447.978C54.9729 443.422 63.0996 436.778 69.0723 428.045C75.0449 419.218 78.0312 408.492 78.0312 395.867C78.0312 387.609 76.4157 380.063 73.1846 373.229C69.8556 366.3 65.2048 360.272 59.2321 355.147C53.1616 350.021 46.014 346.082 37.7893 343.329C29.4668 340.482 20.312 339.058 10.325 339.058C-2.79525 339.058 -14.4958 341.526 -24.7765 346.462C-35.0573 351.302 -43.1351 357.994 -49.0098 366.537C-54.9824 375.08 -57.9688 384.857 -57.9688 395.867ZM-30.6513 395.298C-30.6513 387.609 -28.9378 380.823 -25.5109 374.938C-22.0839 368.958 -17.2862 364.306 -11.1178 360.984C-4.94932 357.662 2.19827 356.001 10.325 356.001C18.6475 356.001 25.8441 357.662 31.9146 360.984C37.8873 364.306 42.5381 368.958 45.8671 374.938C49.1961 380.823 50.8606 387.609 50.8606 395.298C50.8606 403.271 49.2451 410.105 46.014 415.8C42.685 421.401 37.9852 425.72 31.9146 428.757C25.7462 431.7 18.4517 433.171 10.0312 433.171C1.6108 433.171 -5.6347 431.7 -11.7053 428.757C-17.7758 425.72 -22.4266 421.401 -25.6577 415.8C-28.9867 410.105 -30.6513 403.271 -30.6513 395.298ZM-52.9752 298.622C-52.9752 308.683 -50.2337 317.748 -44.7506 325.817C-39.2675 333.885 -31.7773 340.244 -22.2798 344.895C-12.7823 349.546 -2.01195 351.872 10.0312 351.872C22.2703 351.872 33.1875 349.546 42.7829 344.895C52.2803 340.244 59.7217 333.885 65.1068 325.817C70.492 317.748 73.1846 308.683 73.1846 298.622C73.1846 286.567 70.492 276.316 65.1068 267.868C59.6238 259.42 52.1335 252.966 42.636 248.504C33.1385 244.043 22.3192 241.812 10.1781 241.812C-2.06091 241.812 -12.9291 244.043 -22.4266 248.504C-31.9241 252.966 -39.3654 259.42 -44.7506 267.868C-50.2337 276.316 -52.9752 286.567 -52.9752 298.622ZM-25.8046 299.049C-25.8046 292.12 -24.287 285.998 -21.2517 280.682C-18.2164 275.367 -14.0062 271.19 -8.62102 268.153C-3.23585 265.02 3.03053 263.454 10.1781 263.454C17.3257 263.454 23.5921 264.925 28.9773 267.868C34.2645 270.716 38.4258 274.797 41.4611 280.113C44.3984 285.428 45.8671 291.74 45.8671 299.049C45.8671 306.168 44.3984 312.385 41.4611 317.701C38.4258 323.016 34.2156 327.145 28.8304 330.088C23.4452 333.03 17.1788 334.502 10.0312 334.502C2.88366 334.502 -3.33376 333.03 -8.62102 330.088C-14.0062 327.145 -18.2164 323.016 -21.2517 317.701C-24.287 312.385 -25.8046 306.168 -25.8046 299.049Z" fill="#EFEFEA"/>
<path d="M306.438 -4.88269C306.438 7.74164 309.473 18.4676 315.543 27.2951C321.516 36.0277 329.643 42.6721 339.923 47.2283C350.106 51.7844 361.611 54.0625 374.438 54.0625C387.264 54.0625 398.818 51.7844 409.098 47.2283C419.379 42.6721 427.506 36.0277 433.479 27.2951C439.451 18.4676 442.438 7.74164 442.438 -4.88269C442.438 -13.1407 440.822 -20.6868 437.591 -27.5211C434.262 -34.4502 429.611 -40.4776 423.638 -45.6033C417.568 -50.7289 410.42 -54.6681 402.196 -57.4208C393.873 -60.2684 384.718 -61.6922 374.731 -61.6922C361.611 -61.6922 349.91 -59.2243 339.63 -54.2884C329.349 -49.4475 321.271 -42.7557 315.396 -34.2129C309.424 -25.6701 306.438 -15.8934 306.438 -4.88269ZM333.755 -5.45221C333.755 -13.1407 335.468 -19.9275 338.895 -25.8125C342.322 -31.7924 347.12 -36.4435 353.288 -39.7657C359.457 -43.0879 366.605 -44.749 374.731 -44.749C383.054 -44.749 390.25 -43.0879 396.321 -39.7657C402.294 -36.4435 406.944 -31.7924 410.273 -25.8125C413.602 -19.9275 415.267 -13.1407 415.267 -5.45221C415.267 2.52105 413.651 9.35527 410.42 15.0505C407.091 20.6507 402.391 24.9696 396.321 28.007C390.152 30.9495 382.858 32.4208 374.438 32.4208C366.017 32.4208 358.772 30.9495 352.701 28.007C346.63 24.9696 341.98 20.6507 338.749 15.0505C335.42 9.35527 333.755 2.52105 333.755 -5.45221ZM311.431 -102.128C311.431 -92.0665 314.173 -83.0017 319.656 -74.9335C325.139 -66.8653 332.629 -60.5057 342.126 -55.8546C351.624 -51.2036 362.394 -48.878 374.438 -48.878C386.677 -48.878 397.594 -51.2036 407.189 -55.8546C416.687 -60.5057 424.128 -66.8653 429.513 -74.9335C434.898 -83.0017 437.591 -92.0665 437.591 -102.128C437.591 -114.183 434.898 -124.434 429.513 -132.882C424.03 -141.33 416.54 -147.784 407.042 -152.246C397.545 -156.707 386.725 -158.938 374.584 -158.938C362.345 -158.938 351.477 -156.707 341.98 -152.246C332.482 -147.784 325.041 -141.33 319.656 -132.882C314.173 -124.434 311.431 -114.183 311.431 -102.128ZM338.602 -101.701C338.602 -108.63 340.119 -114.752 343.155 -120.068C346.19 -125.383 350.4 -129.56 355.785 -132.597C361.17 -135.73 367.437 -137.296 374.584 -137.296C381.732 -137.296 387.998 -135.825 393.384 -132.882C398.671 -130.034 402.832 -125.953 405.867 -120.637C408.805 -115.322 410.273 -109.01 410.273 -101.701C410.273 -94.5819 408.805 -88.3646 405.867 -83.0491C402.832 -77.7336 398.622 -73.6046 393.237 -70.6621C387.851 -67.7196 381.585 -66.2483 374.438 -66.2483C367.29 -66.2483 361.072 -67.7196 355.785 -70.6621C350.4 -73.6046 346.19 -77.7336 343.155 -83.0491C340.119 -88.3646 338.602 -94.5819 338.602 -101.701Z" fill="#EFEFEA"/>
<path d="M306.438 195.492C306.438 208.117 309.473 218.843 315.543 227.67C321.516 236.403 329.643 243.047 339.923 247.603C350.106 252.159 361.611 254.438 374.438 254.438C387.264 254.438 398.818 252.159 409.098 247.603C419.379 243.047 427.506 236.403 433.479 227.67C439.451 218.843 442.438 208.117 442.438 195.492C442.438 187.234 440.822 179.688 437.591 172.854C434.262 165.925 429.611 159.897 423.638 154.772C417.568 149.646 410.42 145.707 402.196 142.954C393.873 140.107 384.718 138.683 374.731 138.683C361.611 138.683 349.91 141.151 339.63 146.087C329.349 150.927 321.271 157.619 315.396 166.162C309.424 174.705 306.438 184.482 306.438 195.492ZM333.755 194.923C333.755 187.234 335.468 180.448 338.895 174.562C342.322 168.583 347.12 163.931 353.288 160.609C359.457 157.287 366.605 155.626 374.731 155.626C383.054 155.626 390.25 157.287 396.321 160.609C402.294 163.931 406.944 168.583 410.273 174.562C413.602 180.448 415.267 187.234 415.267 194.923C415.267 202.896 413.651 209.73 410.42 215.425C407.091 221.026 402.391 225.345 396.321 228.382C390.152 231.325 382.858 232.796 374.438 232.796C366.017 232.796 358.772 231.325 352.701 228.382C346.63 225.345 341.98 221.026 338.749 215.425C335.42 209.73 333.755 202.896 333.755 194.923ZM311.431 98.247C311.431 108.308 314.173 117.373 319.656 125.442C325.139 133.51 332.629 139.869 342.126 144.52C351.624 149.171 362.394 151.497 374.438 151.497C386.677 151.497 397.594 149.171 407.189 144.52C416.687 139.869 424.128 133.51 429.513 125.442C434.898 117.373 437.591 108.308 437.591 98.247C437.591 86.1922 434.898 75.9408 429.513 67.493C424.03 59.0451 416.54 52.5906 407.042 48.1293C397.545 43.6681 386.725 41.4375 374.584 41.4375C362.345 41.4375 351.477 43.6681 341.98 48.1293C332.482 52.5906 325.041 59.0451 319.656 67.493C314.173 75.9408 311.431 86.1922 311.431 98.247ZM338.602 98.6741C338.602 91.745 340.119 85.6227 343.155 80.3072C346.19 74.9916 350.4 70.8152 355.785 67.7777C361.17 64.6454 367.437 63.0792 374.584 63.0792C381.732 63.0792 387.998 64.5505 393.384 67.493C398.671 70.3406 402.832 74.4221 405.867 79.7376C408.805 85.0531 410.273 91.3653 410.273 98.6741C410.273 105.793 408.805 112.01 405.867 117.326C402.832 122.641 398.622 126.77 393.237 129.713C387.851 132.655 381.585 134.127 374.438 134.127C367.29 134.127 361.072 132.655 355.785 129.713C350.4 126.77 346.19 122.641 343.155 117.326C340.119 112.01 338.602 105.793 338.602 98.6741Z" fill="#EFEFEA"/>
<path d="M306.438 395.867C306.438 408.492 309.473 419.218 315.543 428.045C321.516 436.778 329.643 443.422 339.923 447.978C350.106 452.534 361.611 454.812 374.438 454.812C387.264 454.812 398.818 452.534 409.098 447.978C419.379 443.422 427.506 436.778 433.479 428.045C439.451 419.218 442.438 408.492 442.438 395.867C442.438 387.609 440.822 380.063 437.591 373.229C434.262 366.3 429.611 360.272 423.638 355.147C417.568 350.021 410.42 346.082 402.196 343.329C393.873 340.482 384.718 339.058 374.731 339.058C361.611 339.058 349.91 341.526 339.63 346.462C329.349 351.302 321.271 357.994 315.396 366.537C309.424 375.08 306.438 384.857 306.438 395.867ZM333.755 395.298C333.755 387.609 335.468 380.823 338.895 374.938C342.322 368.958 347.12 364.306 353.288 360.984C359.457 357.662 366.605 356.001 374.731 356.001C383.054 356.001 390.25 357.662 396.321 360.984C402.294 364.306 406.944 368.958 410.273 374.938C413.602 380.823 415.267 387.609 415.267 395.298C415.267 403.271 413.651 410.105 410.42 415.8C407.091 421.401 402.391 425.72 396.321 428.757C390.152 431.7 382.858 433.171 374.438 433.171C366.017 433.171 358.772 431.7 352.701 428.757C346.63 425.72 341.98 421.401 338.749 415.8C335.42 410.105 333.755 403.271 333.755 395.298ZM311.431 298.622C311.431 308.683 314.173 317.748 319.656 325.817C325.139 333.885 332.629 340.244 342.126 344.895C351.624 349.546 362.394 351.872 374.438 351.872C386.677 351.872 397.594 349.546 407.189 344.895C416.687 340.244 424.128 333.885 429.513 325.817C434.898 317.748 437.591 308.683 437.591 298.622C437.591 286.567 434.898 276.316 429.513 267.868C424.03 259.42 416.54 252.966 407.042 248.504C397.545 244.043 386.725 241.812 374.584 241.812C362.345 241.812 351.477 244.043 341.98 248.504C332.482 252.966 325.041 259.42 319.656 267.868C314.173 276.316 311.431 286.567 311.431 298.622ZM338.602 299.049C338.602 292.12 340.119 285.998 343.155 280.682C346.19 275.367 350.4 271.19 355.785 268.153C361.17 265.02 367.437 263.454 374.584 263.454C381.732 263.454 387.998 264.925 393.384 267.868C398.671 270.716 402.832 274.797 405.867 280.113C408.805 285.428 410.273 291.74 410.273 299.049C410.273 306.168 408.805 312.385 405.867 317.701C402.832 323.016 398.622 327.145 393.237 330.088C387.851 333.03 381.585 334.502 374.438 334.502C367.29 334.502 361.072 333.03 355.785 330.088C350.4 327.145 346.19 323.016 343.155 317.701C340.119 312.385 338.602 306.168 338.602 299.049Z" fill="#EFEFEA"/>
<path d="M184.969 -4.88269C184.969 7.74164 188.004 18.4676 194.075 27.2951C200.047 36.0277 208.174 42.6721 218.455 47.2283C228.638 51.7844 240.142 54.0625 252.969 54.0625C265.795 54.0625 277.349 51.7844 287.63 47.2283C297.91 42.6721 306.037 36.0277 312.01 27.2951C317.982 18.4676 320.969 7.74164 320.969 -4.88269C320.969 -13.1407 319.353 -20.6868 316.122 -27.5211C312.793 -34.4502 308.142 -40.4776 302.17 -45.6033C296.099 -50.7289 288.951 -54.6681 280.727 -57.4208C272.404 -60.2684 263.25 -61.6922 253.262 -61.6922C240.142 -61.6922 228.442 -59.2243 218.161 -54.2884C207.88 -49.4475 199.802 -42.7557 193.928 -34.2129C187.955 -25.6701 184.969 -15.8934 184.969 -4.88269ZM212.286 -5.45221C212.286 -13.1407 214 -19.9275 217.427 -25.8125C220.854 -31.7924 225.651 -36.4435 231.82 -39.7657C237.988 -43.0879 245.136 -44.749 253.262 -44.749C261.585 -44.749 268.782 -43.0879 274.852 -39.7657C280.825 -36.4435 285.476 -31.7924 288.805 -25.8125C292.134 -19.9275 293.798 -13.1407 293.798 -5.45221C293.798 2.52105 292.183 9.35527 288.951 15.0505C285.622 20.6507 280.923 24.9696 274.852 28.007C268.684 30.9495 261.389 32.4208 252.969 32.4208C244.548 32.4208 237.303 30.9495 231.232 28.007C225.162 24.9696 220.511 20.6507 217.28 15.0505C213.951 9.35527 212.286 2.52105 212.286 -5.45221ZM189.962 -102.128C189.962 -92.0665 192.704 -83.0017 198.187 -74.9335C203.67 -66.8653 211.16 -60.5057 220.658 -55.8546C230.155 -51.2036 240.926 -48.878 252.969 -48.878C265.208 -48.878 276.125 -51.2036 285.72 -55.8546C295.218 -60.5057 302.659 -66.8653 308.044 -74.9335C313.43 -83.0017 316.122 -92.0665 316.122 -102.128C316.122 -114.183 313.43 -124.434 308.044 -132.882C302.561 -141.33 295.071 -147.784 285.574 -152.246C276.076 -156.707 265.257 -158.938 253.116 -158.938C240.877 -158.938 230.008 -156.707 220.511 -152.246C211.013 -147.784 203.572 -141.33 198.187 -132.882C192.704 -124.434 189.962 -114.183 189.962 -102.128ZM217.133 -101.701C217.133 -108.63 218.651 -114.752 221.686 -120.068C224.721 -125.383 228.931 -129.56 234.316 -132.597C239.702 -135.73 245.968 -137.296 253.116 -137.296C260.263 -137.296 266.53 -135.825 271.915 -132.882C277.202 -130.034 281.363 -125.953 284.399 -120.637C287.336 -115.322 288.805 -109.01 288.805 -101.701C288.805 -94.5819 287.336 -88.3646 284.399 -83.0491C281.363 -77.7336 277.153 -73.6046 271.768 -70.6621C266.383 -67.7196 260.116 -66.2483 252.969 -66.2483C245.821 -66.2483 239.604 -67.7196 234.316 -70.6621C228.931 -73.6046 224.721 -77.7336 221.686 -83.0491C218.651 -88.3646 217.133 -94.5819 217.133 -101.701Z" fill="#EFEFEA"/>
<rect width="374" height="86" transform="translate(0 314)" fill="#FDFFFA"/>
<path d="M162.398 372.902V390H159.023V376.793L154.969 378.082V375.422L162.035 372.902H162.398ZM179.438 379.969V382.922C179.438 384.203 179.301 385.309 179.027 386.238C178.754 387.16 178.359 387.918 177.844 388.512C177.336 389.098 176.73 389.531 176.027 389.812C175.324 390.094 174.543 390.234 173.684 390.234C172.996 390.234 172.355 390.148 171.762 389.977C171.168 389.797 170.633 389.52 170.156 389.145C169.688 388.77 169.281 388.297 168.938 387.727C168.602 387.148 168.344 386.461 168.164 385.664C167.984 384.867 167.895 383.953 167.895 382.922V379.969C167.895 378.688 168.031 377.59 168.305 376.676C168.586 375.754 168.98 375 169.488 374.414C170.004 373.828 170.613 373.398 171.316 373.125C172.02 372.844 172.801 372.703 173.66 372.703C174.348 372.703 174.984 372.793 175.57 372.973C176.164 373.145 176.699 373.414 177.176 373.781C177.652 374.148 178.059 374.621 178.395 375.199C178.73 375.77 178.988 376.453 179.168 377.25C179.348 378.039 179.438 378.945 179.438 379.969ZM176.051 383.367V379.512C176.051 378.895 176.016 378.355 175.945 377.895C175.883 377.434 175.785 377.043 175.652 376.723C175.52 376.395 175.355 376.129 175.16 375.926C174.965 375.723 174.742 375.574 174.492 375.48C174.242 375.387 173.965 375.34 173.66 375.34C173.277 375.34 172.938 375.414 172.641 375.562C172.352 375.711 172.105 375.949 171.902 376.277C171.699 376.598 171.543 377.027 171.434 377.566C171.332 378.098 171.281 378.746 171.281 379.512V383.367C171.281 383.984 171.312 384.527 171.375 384.996C171.445 385.465 171.547 385.867 171.68 386.203C171.82 386.531 171.984 386.801 172.172 387.012C172.367 387.215 172.59 387.363 172.84 387.457C173.098 387.551 173.379 387.598 173.684 387.598C174.059 387.598 174.391 387.523 174.68 387.375C174.977 387.219 175.227 386.977 175.43 386.648C175.641 386.312 175.797 385.875 175.898 385.336C176 384.797 176.051 384.141 176.051 383.367ZM193.219 379.969V382.922C193.219 384.203 193.082 385.309 192.809 386.238C192.535 387.16 192.141 387.918 191.625 388.512C191.117 389.098 190.512 389.531 189.809 389.812C189.105 390.094 188.324 390.234 187.465 390.234C186.777 390.234 186.137 390.148 185.543 389.977C184.949 389.797 184.414 389.52 183.938 389.145C183.469 388.77 183.062 388.297 182.719 387.727C182.383 387.148 182.125 386.461 181.945 385.664C181.766 384.867 181.676 383.953 181.676 382.922V379.969C181.676 378.688 181.812 377.59 182.086 376.676C182.367 375.754 182.762 375 183.27 374.414C183.785 373.828 184.395 373.398 185.098 373.125C185.801 372.844 186.582 372.703 187.441 372.703C188.129 372.703 188.766 372.793 189.352 372.973C189.945 373.145 190.48 373.414 190.957 373.781C191.434 374.148 191.84 374.621 192.176 375.199C192.512 375.77 192.77 376.453 192.949 377.25C193.129 378.039 193.219 378.945 193.219 379.969ZM189.832 383.367V379.512C189.832 378.895 189.797 378.355 189.727 377.895C189.664 377.434 189.566 377.043 189.434 376.723C189.301 376.395 189.137 376.129 188.941 375.926C188.746 375.723 188.523 375.574 188.273 375.48C188.023 375.387 187.746 375.34 187.441 375.34C187.059 375.34 186.719 375.414 186.422 375.562C186.133 375.711 185.887 375.949 185.684 376.277C185.48 376.598 185.324 377.027 185.215 377.566C185.113 378.098 185.062 378.746 185.062 379.512V383.367C185.062 383.984 185.094 384.527 185.156 384.996C185.227 385.465 185.328 385.867 185.461 386.203C185.602 386.531 185.766 386.801 185.953 387.012C186.148 387.215 186.371 387.363 186.621 387.457C186.879 387.551 187.16 387.598 187.465 387.598C187.84 387.598 188.172 387.523 188.461 387.375C188.758 387.219 189.008 386.977 189.211 386.648C189.422 386.312 189.578 385.875 189.68 385.336C189.781 384.797 189.832 384.141 189.832 383.367ZM207.082 390H203.367L203.391 387.258H207.082C208.004 387.258 208.781 387.051 209.414 386.637C210.047 386.215 210.523 385.602 210.844 384.797C211.172 383.992 211.336 383.02 211.336 381.879V381.047C211.336 380.172 211.242 379.402 211.055 378.738C210.875 378.074 210.605 377.516 210.246 377.062C209.887 376.609 209.445 376.27 208.922 376.043C208.398 375.809 207.797 375.691 207.117 375.691H203.297V372.938H207.117C208.258 372.938 209.301 373.133 210.246 373.523C211.199 373.906 212.023 374.457 212.719 375.176C213.414 375.895 213.949 376.754 214.324 377.754C214.707 378.746 214.898 379.852 214.898 381.07V381.879C214.898 383.09 214.707 384.195 214.324 385.195C213.949 386.195 213.414 387.055 212.719 387.773C212.031 388.484 211.207 389.035 210.246 389.426C209.293 389.809 208.238 390 207.082 390ZM205.359 372.938V390H201.844V372.938H205.359ZM224.086 387.141V381.492C224.086 381.086 224.02 380.738 223.887 380.449C223.754 380.152 223.547 379.922 223.266 379.758C222.992 379.594 222.637 379.512 222.199 379.512C221.824 379.512 221.5 379.578 221.227 379.711C220.953 379.836 220.742 380.02 220.594 380.262C220.445 380.496 220.371 380.773 220.371 381.094H216.996C216.996 380.555 217.121 380.043 217.371 379.559C217.621 379.074 217.984 378.648 218.461 378.281C218.938 377.906 219.504 377.613 220.16 377.402C220.824 377.191 221.566 377.086 222.387 377.086C223.371 377.086 224.246 377.25 225.012 377.578C225.777 377.906 226.379 378.398 226.816 379.055C227.262 379.711 227.484 380.531 227.484 381.516V386.941C227.484 387.637 227.527 388.207 227.613 388.652C227.699 389.09 227.824 389.473 227.988 389.801V390H224.578C224.414 389.656 224.289 389.227 224.203 388.711C224.125 388.188 224.086 387.664 224.086 387.141ZM224.531 382.277L224.555 384.188H222.668C222.223 384.188 221.836 384.238 221.508 384.34C221.18 384.441 220.91 384.586 220.699 384.773C220.488 384.953 220.332 385.164 220.23 385.406C220.137 385.648 220.09 385.914 220.09 386.203C220.09 386.492 220.156 386.754 220.289 386.988C220.422 387.215 220.613 387.395 220.863 387.527C221.113 387.652 221.406 387.715 221.742 387.715C222.25 387.715 222.691 387.613 223.066 387.41C223.441 387.207 223.73 386.957 223.934 386.66C224.145 386.363 224.254 386.082 224.262 385.816L225.152 387.246C225.027 387.566 224.855 387.898 224.637 388.242C224.426 388.586 224.156 388.91 223.828 389.215C223.5 389.512 223.105 389.758 222.645 389.953C222.184 390.141 221.637 390.234 221.004 390.234C220.199 390.234 219.469 390.074 218.812 389.754C218.164 389.426 217.648 388.977 217.266 388.406C216.891 387.828 216.703 387.172 216.703 386.438C216.703 385.773 216.828 385.184 217.078 384.668C217.328 384.152 217.695 383.719 218.18 383.367C218.672 383.008 219.285 382.738 220.02 382.559C220.754 382.371 221.605 382.277 222.574 382.277H224.531ZM233.66 388.57L237.023 377.32H240.645L235.547 391.91C235.438 392.23 235.289 392.574 235.102 392.941C234.922 393.309 234.676 393.656 234.363 393.984C234.059 394.32 233.672 394.594 233.203 394.805C232.742 395.016 232.176 395.121 231.504 395.121C231.184 395.121 230.922 395.102 230.719 395.062C230.516 395.023 230.273 394.969 229.992 394.898V392.426C230.078 392.426 230.168 392.426 230.262 392.426C230.355 392.434 230.445 392.438 230.531 392.438C230.977 392.438 231.34 392.387 231.621 392.285C231.902 392.184 232.129 392.027 232.301 391.816C232.473 391.613 232.609 391.348 232.711 391.02L233.66 388.57ZM232.254 377.32L235.008 386.508L235.488 390.082L233.191 390.328L228.633 377.32H232.254ZM248.848 386.496C248.848 386.254 248.777 386.035 248.637 385.84C248.496 385.645 248.234 385.465 247.852 385.301C247.477 385.129 246.934 384.973 246.223 384.832C245.582 384.691 244.984 384.516 244.43 384.305C243.883 384.086 243.406 383.824 243 383.52C242.602 383.215 242.289 382.855 242.062 382.441C241.836 382.02 241.723 381.539 241.723 381C241.723 380.469 241.836 379.969 242.062 379.5C242.297 379.031 242.629 378.617 243.059 378.258C243.496 377.891 244.027 377.605 244.652 377.402C245.285 377.191 245.996 377.086 246.785 377.086C247.887 377.086 248.832 377.262 249.621 377.613C250.418 377.965 251.027 378.449 251.449 379.066C251.879 379.676 252.094 380.371 252.094 381.152H248.719C248.719 380.824 248.648 380.531 248.508 380.273C248.375 380.008 248.164 379.801 247.875 379.652C247.594 379.496 247.227 379.418 246.773 379.418C246.398 379.418 246.074 379.484 245.801 379.617C245.527 379.742 245.316 379.914 245.168 380.133C245.027 380.344 244.957 380.578 244.957 380.836C244.957 381.031 244.996 381.207 245.074 381.363C245.16 381.512 245.297 381.648 245.484 381.773C245.672 381.898 245.914 382.016 246.211 382.125C246.516 382.227 246.891 382.32 247.336 382.406C248.25 382.594 249.066 382.84 249.785 383.145C250.504 383.441 251.074 383.848 251.496 384.363C251.918 384.871 252.129 385.539 252.129 386.367C252.129 386.93 252.004 387.445 251.754 387.914C251.504 388.383 251.145 388.793 250.676 389.145C250.207 389.488 249.645 389.758 248.988 389.953C248.34 390.141 247.609 390.234 246.797 390.234C245.617 390.234 244.617 390.023 243.797 389.602C242.984 389.18 242.367 388.645 241.945 387.996C241.531 387.34 241.324 386.668 241.324 385.98H244.523C244.539 386.441 244.656 386.812 244.875 387.094C245.102 387.375 245.387 387.578 245.73 387.703C246.082 387.828 246.461 387.891 246.867 387.891C247.305 387.891 247.668 387.832 247.957 387.715C248.246 387.59 248.465 387.426 248.613 387.223C248.77 387.012 248.848 386.77 248.848 386.496ZM259.758 383.789V383.543C259.758 382.613 259.891 381.758 260.156 380.977C260.422 380.188 260.809 379.504 261.316 378.926C261.824 378.348 262.449 377.898 263.191 377.578C263.934 377.25 264.785 377.086 265.746 377.086C266.707 377.086 267.562 377.25 268.312 377.578C269.062 377.898 269.691 378.348 270.199 378.926C270.715 379.504 271.105 380.188 271.371 380.977C271.637 381.758 271.77 382.613 271.77 383.543V383.789C271.77 384.711 271.637 385.566 271.371 386.355C271.105 387.137 270.715 387.82 270.199 388.406C269.691 388.984 269.066 389.434 268.324 389.754C267.582 390.074 266.73 390.234 265.77 390.234C264.809 390.234 263.953 390.074 263.203 389.754C262.461 389.434 261.832 388.984 261.316 388.406C260.809 387.82 260.422 387.137 260.156 386.355C259.891 385.566 259.758 384.711 259.758 383.789ZM263.133 383.543V383.789C263.133 384.32 263.18 384.816 263.273 385.277C263.367 385.738 263.516 386.145 263.719 386.496C263.93 386.84 264.203 387.109 264.539 387.305C264.875 387.5 265.285 387.598 265.77 387.598C266.238 387.598 266.641 387.5 266.977 387.305C267.312 387.109 267.582 386.84 267.785 386.496C267.988 386.145 268.137 385.738 268.23 385.277C268.332 384.816 268.383 384.32 268.383 383.789V383.543C268.383 383.027 268.332 382.543 268.23 382.09C268.137 381.629 267.984 381.223 267.773 380.871C267.57 380.512 267.301 380.23 266.965 380.027C266.629 379.824 266.223 379.723 265.746 379.723C265.27 379.723 264.863 379.824 264.527 380.027C264.199 380.23 263.93 380.512 263.719 380.871C263.516 381.223 263.367 381.629 263.273 382.09C263.18 382.543 263.133 383.027 263.133 383.543ZM278.145 390H274.746V376.195C274.746 375.234 274.934 374.426 275.309 373.77C275.691 373.105 276.227 372.605 276.914 372.27C277.609 371.926 278.434 371.754 279.387 371.754C279.699 371.754 280 371.777 280.289 371.824C280.578 371.863 280.859 371.914 281.133 371.977L281.098 374.52C280.949 374.48 280.793 374.453 280.629 374.438C280.465 374.422 280.273 374.414 280.055 374.414C279.648 374.414 279.301 374.484 279.012 374.625C278.73 374.758 278.516 374.957 278.367 375.223C278.219 375.488 278.145 375.812 278.145 376.195V390ZM280.676 377.32V379.711H272.859V377.32H280.676ZM293.871 390H290.156L290.18 387.258H293.871C294.793 387.258 295.57 387.051 296.203 386.637C296.836 386.215 297.312 385.602 297.633 384.797C297.961 383.992 298.125 383.02 298.125 381.879V381.047C298.125 380.172 298.031 379.402 297.844 378.738C297.664 378.074 297.395 377.516 297.035 377.062C296.676 376.609 296.234 376.27 295.711 376.043C295.188 375.809 294.586 375.691 293.906 375.691H290.086V372.938H293.906C295.047 372.938 296.09 373.133 297.035 373.523C297.988 373.906 298.812 374.457 299.508 375.176C300.203 375.895 300.738 376.754 301.113 377.754C301.496 378.746 301.688 379.852 301.688 381.07V381.879C301.688 383.09 301.496 384.195 301.113 385.195C300.738 386.195 300.203 387.055 299.508 387.773C298.82 388.484 297.996 389.035 297.035 389.426C296.082 389.809 295.027 390 293.871 390ZM292.148 372.938V390H288.633V372.938H292.148ZM309.867 390.234C308.883 390.234 308 390.078 307.219 389.766C306.438 389.445 305.773 389.004 305.227 388.441C304.688 387.879 304.273 387.227 303.984 386.484C303.695 385.734 303.551 384.938 303.551 384.094V383.625C303.551 382.664 303.688 381.785 303.961 380.988C304.234 380.191 304.625 379.5 305.133 378.914C305.648 378.328 306.273 377.879 307.008 377.566C307.742 377.246 308.57 377.086 309.492 377.086C310.391 377.086 311.188 377.234 311.883 377.531C312.578 377.828 313.16 378.25 313.629 378.797C314.105 379.344 314.465 380 314.707 380.766C314.949 381.523 315.07 382.367 315.07 383.297V384.703H304.992V382.453H311.754V382.195C311.754 381.727 311.668 381.309 311.496 380.941C311.332 380.566 311.082 380.27 310.746 380.051C310.41 379.832 309.98 379.723 309.457 379.723C309.012 379.723 308.629 379.82 308.309 380.016C307.988 380.211 307.727 380.484 307.523 380.836C307.328 381.188 307.18 381.602 307.078 382.078C306.984 382.547 306.938 383.062 306.938 383.625V384.094C306.938 384.602 307.008 385.07 307.148 385.5C307.297 385.93 307.504 386.301 307.77 386.613C308.043 386.926 308.371 387.168 308.754 387.34C309.145 387.512 309.586 387.598 310.078 387.598C310.688 387.598 311.254 387.48 311.777 387.246C312.309 387.004 312.766 386.641 313.148 386.156L314.789 387.938C314.523 388.32 314.16 388.688 313.699 389.039C313.246 389.391 312.699 389.68 312.059 389.906C311.418 390.125 310.688 390.234 309.867 390.234ZM323.848 386.496C323.848 386.254 323.777 386.035 323.637 385.84C323.496 385.645 323.234 385.465 322.852 385.301C322.477 385.129 321.934 384.973 321.223 384.832C320.582 384.691 319.984 384.516 319.43 384.305C318.883 384.086 318.406 383.824 318 383.52C317.602 383.215 317.289 382.855 317.062 382.441C316.836 382.02 316.723 381.539 316.723 381C316.723 380.469 316.836 379.969 317.062 379.5C317.297 379.031 317.629 378.617 318.059 378.258C318.496 377.891 319.027 377.605 319.652 377.402C320.285 377.191 320.996 377.086 321.785 377.086C322.887 377.086 323.832 377.262 324.621 377.613C325.418 377.965 326.027 378.449 326.449 379.066C326.879 379.676 327.094 380.371 327.094 381.152H323.719C323.719 380.824 323.648 380.531 323.508 380.273C323.375 380.008 323.164 379.801 322.875 379.652C322.594 379.496 322.227 379.418 321.773 379.418C321.398 379.418 321.074 379.484 320.801 379.617C320.527 379.742 320.316 379.914 320.168 380.133C320.027 380.344 319.957 380.578 319.957 380.836C319.957 381.031 319.996 381.207 320.074 381.363C320.16 381.512 320.297 381.648 320.484 381.773C320.672 381.898 320.914 382.016 321.211 382.125C321.516 382.227 321.891 382.32 322.336 382.406C323.25 382.594 324.066 382.84 324.785 383.145C325.504 383.441 326.074 383.848 326.496 384.363C326.918 384.871 327.129 385.539 327.129 386.367C327.129 386.93 327.004 387.445 326.754 387.914C326.504 388.383 326.145 388.793 325.676 389.145C325.207 389.488 324.645 389.758 323.988 389.953C323.34 390.141 322.609 390.234 321.797 390.234C320.617 390.234 319.617 390.023 318.797 389.602C317.984 389.18 317.367 388.645 316.945 387.996C316.531 387.34 316.324 386.668 316.324 385.98H319.523C319.539 386.441 319.656 386.812 319.875 387.094C320.102 387.375 320.387 387.578 320.73 387.703C321.082 387.828 321.461 387.891 321.867 387.891C322.305 387.891 322.668 387.832 322.957 387.715C323.246 387.59 323.465 387.426 323.613 387.223C323.77 387.012 323.848 386.77 323.848 386.496ZM332.883 377.32V390H329.496V377.32H332.883ZM329.285 374.016C329.285 373.523 329.457 373.117 329.801 372.797C330.145 372.477 330.605 372.316 331.184 372.316C331.754 372.316 332.211 372.477 332.555 372.797C332.906 373.117 333.082 373.523 333.082 374.016C333.082 374.508 332.906 374.914 332.555 375.234C332.211 375.555 331.754 375.715 331.184 375.715C330.605 375.715 330.145 375.555 329.801 375.234C329.457 374.914 329.285 374.508 329.285 374.016ZM343.699 377.32H346.758V389.578C346.758 390.734 346.5 391.715 345.984 392.52C345.477 393.332 344.766 393.945 343.852 394.359C342.938 394.781 341.875 394.992 340.664 394.992C340.133 394.992 339.57 394.922 338.977 394.781C338.391 394.641 337.828 394.422 337.289 394.125C336.758 393.828 336.312 393.453 335.953 393L337.441 391.008C337.832 391.461 338.285 391.812 338.801 392.062C339.316 392.32 339.887 392.449 340.512 392.449C341.121 392.449 341.637 392.336 342.059 392.109C342.48 391.891 342.805 391.566 343.031 391.137C343.258 390.715 343.371 390.203 343.371 389.602V380.25L343.699 377.32ZM335.168 383.812V383.566C335.168 382.598 335.285 381.719 335.52 380.93C335.762 380.133 336.102 379.449 336.539 378.879C336.984 378.309 337.523 377.867 338.156 377.555C338.789 377.242 339.504 377.086 340.301 377.086C341.145 377.086 341.852 377.242 342.422 377.555C342.992 377.867 343.461 378.312 343.828 378.891C344.195 379.461 344.48 380.137 344.684 380.918C344.895 381.691 345.059 382.539 345.176 383.461V384C345.059 384.883 344.883 385.703 344.648 386.461C344.414 387.219 344.105 387.883 343.723 388.453C343.34 389.016 342.863 389.453 342.293 389.766C341.73 390.078 341.059 390.234 340.277 390.234C339.496 390.234 338.789 390.074 338.156 389.754C337.531 389.434 336.996 388.984 336.551 388.406C336.105 387.828 335.762 387.148 335.52 386.367C335.285 385.586 335.168 384.734 335.168 383.812ZM338.543 383.566V383.812C338.543 384.336 338.594 384.824 338.695 385.277C338.797 385.73 338.953 386.133 339.164 386.484C339.383 386.828 339.652 387.098 339.973 387.293C340.301 387.48 340.688 387.574 341.133 387.574C341.75 387.574 342.254 387.445 342.645 387.188C343.035 386.922 343.328 386.559 343.523 386.098C343.719 385.637 343.832 385.105 343.863 384.504V382.969C343.848 382.477 343.781 382.035 343.664 381.645C343.547 381.246 343.383 380.906 343.172 380.625C342.961 380.344 342.688 380.125 342.352 379.969C342.016 379.812 341.617 379.734 341.156 379.734C340.711 379.734 340.324 379.836 339.996 380.039C339.676 380.234 339.406 380.504 339.188 380.848C338.977 381.191 338.816 381.598 338.707 382.066C338.598 382.527 338.543 383.027 338.543 383.566ZM352.688 380.027V390H349.312V377.32H352.477L352.688 380.027ZM352.195 383.215H351.281C351.281 382.277 351.402 381.434 351.645 380.684C351.887 379.926 352.227 379.281 352.664 378.75C353.102 378.211 353.621 377.801 354.223 377.52C354.832 377.23 355.512 377.086 356.262 377.086C356.855 377.086 357.398 377.172 357.891 377.344C358.383 377.516 358.805 377.789 359.156 378.164C359.516 378.539 359.789 379.035 359.977 379.652C360.172 380.27 360.27 381.023 360.27 381.914V390H356.871V381.902C356.871 381.34 356.793 380.902 356.637 380.59C356.48 380.277 356.25 380.059 355.945 379.934C355.648 379.801 355.281 379.734 354.844 379.734C354.391 379.734 353.996 379.824 353.66 380.004C353.332 380.184 353.059 380.434 352.84 380.754C352.629 381.066 352.469 381.434 352.359 381.855C352.25 382.277 352.195 382.73 352.195 383.215Z" fill="#443038"/>
<rect width="374" height="35" fill="#FDFFFA"/>
<path d="M16.4844 27H14.0312L14.0469 25.3125H16.4844C17.1458 25.3125 17.7005 25.1667 18.1484 24.875C18.5964 24.5781 18.9349 24.1536 19.1641 23.6016C19.3932 23.0443 19.5078 22.3776 19.5078 21.6016V21.0156C19.5078 20.4167 19.4427 19.888 19.3125 19.4297C19.1823 18.9714 18.9896 18.5859 18.7344 18.2734C18.4844 17.9609 18.1745 17.724 17.8047 17.5625C17.4349 17.401 17.0104 17.3203 16.5312 17.3203H13.9844V15.625H16.5312C17.2917 15.625 17.9844 15.7526 18.6094 16.0078C19.2396 16.263 19.7839 16.6302 20.2422 17.1094C20.7057 17.5833 21.0599 18.151 21.3047 18.8125C21.5547 19.474 21.6797 20.2135 21.6797 21.0312V21.6016C21.6797 22.4141 21.5547 23.1536 21.3047 23.8203C21.0599 24.4818 20.7057 25.0495 20.2422 25.5234C19.7839 25.9974 19.237 26.362 18.6016 26.6172C17.9661 26.8724 17.2604 27 16.4844 27ZM15.2344 15.625V27H13.0859V15.625H15.2344ZM28.0078 25.2031V21.3047C28.0078 21.0182 27.9583 20.7708 27.8594 20.5625C27.7604 20.3542 27.6094 20.1927 27.4062 20.0781C27.2031 19.9635 26.9453 19.9062 26.6328 19.9062C26.3568 19.9062 26.1146 19.9531 25.9062 20.0469C25.7031 20.1406 25.5469 20.2734 25.4375 20.4453C25.3281 20.612 25.2734 20.8047 25.2734 21.0234H23.2031C23.2031 20.6745 23.2865 20.3438 23.4531 20.0312C23.6198 19.7135 23.8568 19.4323 24.1641 19.1875C24.4766 18.9375 24.849 18.7422 25.2812 18.6016C25.7188 18.4609 26.2083 18.3906 26.75 18.3906C27.3906 18.3906 27.9609 18.5 28.4609 18.7188C28.9661 18.9323 29.362 19.2552 29.6484 19.6875C29.9401 20.1198 30.0859 20.6641 30.0859 21.3203V25.0078C30.0859 25.4297 30.112 25.7917 30.1641 26.0938C30.2214 26.3906 30.3047 26.6484 30.4141 26.8672V27H28.3125C28.2135 26.7865 28.138 26.5156 28.0859 26.1875C28.0339 25.8542 28.0078 25.526 28.0078 25.2031ZM28.2969 21.8516L28.3125 23.0781H27.0078C26.6849 23.0781 26.401 23.112 26.1562 23.1797C25.9115 23.2422 25.7109 23.3359 25.5547 23.4609C25.3984 23.5807 25.2812 23.7266 25.2031 23.8984C25.125 24.0651 25.0859 24.2552 25.0859 24.4688C25.0859 24.6771 25.1328 24.8646 25.2266 25.0312C25.3255 25.1979 25.4661 25.3307 25.6484 25.4297C25.8359 25.5234 26.0547 25.5703 26.3047 25.5703C26.6693 25.5703 26.987 25.4974 27.2578 25.3516C27.5286 25.2005 27.7396 25.0182 27.8906 24.8047C28.0417 24.5911 28.1224 24.388 28.1328 24.1953L28.7266 25.0859C28.6536 25.2995 28.5443 25.526 28.3984 25.7656C28.2526 26.0052 28.0651 26.2292 27.8359 26.4375C27.6068 26.6458 27.3307 26.8177 27.0078 26.9531C26.6849 27.0885 26.3099 27.1562 25.8828 27.1562C25.3359 27.1562 24.8464 27.0469 24.4141 26.8281C23.9818 26.6094 23.6406 26.3099 23.3906 25.9297C23.1406 25.5495 23.0156 25.1172 23.0156 24.6328C23.0156 24.1849 23.099 23.7891 23.2656 23.4453C23.4323 23.1016 23.6797 22.8125 24.0078 22.5781C24.3359 22.3385 24.7422 22.1589 25.2266 22.0391C25.7161 21.9141 26.276 21.8516 26.9062 21.8516H28.2969ZM34.2969 26.0625L36.5625 18.5469H38.7734L35.3828 28.2812C35.3047 28.4896 35.2031 28.7161 35.0781 28.9609C34.9583 29.2057 34.7969 29.4375 34.5938 29.6562C34.3906 29.8802 34.1354 30.0625 33.8281 30.2031C33.526 30.3438 33.1589 30.4141 32.7266 30.4141C32.5391 30.4141 32.3724 30.401 32.2266 30.375C32.0807 30.349 31.9271 30.3151 31.7656 30.2734V28.7266C31.8177 28.7318 31.8776 28.7344 31.9453 28.7344C32.0182 28.7396 32.0807 28.7422 32.1328 28.7422C32.4349 28.7422 32.6849 28.7057 32.8828 28.6328C33.0807 28.5651 33.2396 28.4531 33.3594 28.2969C33.4844 28.1458 33.5885 27.9479 33.6719 27.7031L34.2969 26.0625ZM33.1797 18.5469L35.0938 24.7734L35.4297 26.9531L34.0078 27.2109L30.9531 18.5469H33.1797ZM51.1953 23.8906C51.1953 24.599 51.0286 25.1979 50.6953 25.6875C50.3672 26.1719 49.9167 26.5391 49.3438 26.7891C48.776 27.0339 48.1302 27.1562 47.4062 27.1562C46.6875 27.1562 46.0391 27.0339 45.4609 26.7891C44.888 26.5391 44.4323 26.1719 44.0938 25.6875C43.7604 25.1979 43.5938 24.599 43.5938 23.8906C43.5938 23.4167 43.6875 22.987 43.875 22.6016C44.0677 22.2161 44.3333 21.8854 44.6719 21.6094C45.0104 21.3281 45.4115 21.1146 45.875 20.9688C46.3385 20.8177 46.8438 20.7422 47.3906 20.7422C48.1198 20.7422 48.7708 20.875 49.3438 21.1406C49.9219 21.401 50.375 21.7682 50.7031 22.2422C51.0312 22.7109 51.1953 23.2604 51.1953 23.8906ZM49.1172 23.7656C49.1172 23.401 49.0443 23.0859 48.8984 22.8203C48.7578 22.5495 48.5573 22.3411 48.2969 22.1953C48.0365 22.0495 47.7344 21.9766 47.3906 21.9766C47.0417 21.9766 46.737 22.0495 46.4766 22.1953C46.2214 22.3411 46.0208 22.5495 45.875 22.8203C45.7344 23.0859 45.6641 23.401 45.6641 23.7656C45.6641 24.1354 45.7344 24.4531 45.875 24.7188C46.0208 24.9792 46.224 25.1797 46.4844 25.3203C46.7448 25.4609 47.0521 25.5312 47.4062 25.5312C47.7604 25.5312 48.0651 25.4609 48.3203 25.3203C48.5755 25.1797 48.7708 24.9792 48.9062 24.7188C49.0469 24.4531 49.1172 24.1354 49.1172 23.7656ZM50.9453 18.625C50.9453 19.1979 50.7943 19.7083 50.4922 20.1562C50.1901 20.599 49.7708 20.9453 49.2344 21.1953C48.7031 21.4453 48.0938 21.5703 47.4062 21.5703C46.7188 21.5703 46.1042 21.4453 45.5625 21.1953C45.026 20.9453 44.6042 20.599 44.2969 20.1562C43.9948 19.7083 43.8438 19.1979 43.8438 18.625C43.8438 17.9479 43.9974 17.375 44.3047 16.9062C44.612 16.4323 45.0312 16.0729 45.5625 15.8281C46.099 15.5833 46.7083 15.4609 47.3906 15.4609C48.0833 15.4609 48.6979 15.5833 49.2344 15.8281C49.7708 16.0729 50.1901 16.4323 50.4922 16.9062C50.7943 17.375 50.9453 17.9479 50.9453 18.625ZM48.8828 18.7109C48.8828 18.388 48.8229 18.1068 48.7031 17.8672C48.5833 17.6224 48.4115 17.4323 48.1875 17.2969C47.9688 17.1615 47.7031 17.0938 47.3906 17.0938C47.0885 17.0938 46.8281 17.1589 46.6094 17.2891C46.3906 17.4193 46.2214 17.6068 46.1016 17.8516C45.9818 18.0911 45.9219 18.3776 45.9219 18.7109C45.9219 19.0391 45.9818 19.3255 46.1016 19.5703C46.2214 19.8151 46.3906 20.0078 46.6094 20.1484C46.8333 20.2839 47.099 20.3516 47.4062 20.3516C47.7135 20.3516 47.9766 20.2839 48.1953 20.1484C48.4141 20.0078 48.5833 19.8151 48.7031 19.5703C48.8229 19.3255 48.8828 19.0391 48.8828 18.7109Z" fill="#443038"/>
</g>
<defs>
<clipPath id="clip0_488303_1962">
<rect width="375" height="400" fill="white"/>
</clipPath>
</defs>
</svg>
