<svg xmlns="http://www.w3.org/2000/svg" width="375" height="400" fill="none" xmlns:v="https://vecta.io/nano"><g clip-path="url(#A)"><path fill="#fdfffa" d="M0 0h375v400H0z"/><path fill="#f2cd5d" d="M335 330V0h40v330z"/><path fill="#dea54b" d="M125 0h125v400H125z"/><path fill="#f2cd5d" d="M0 330V0h40v330z"/><path opacity=".82" d="M70.264 32.008v-5.296h1.456v5.296h-1.456zM66.984 35v-1.264h1.584V35h-1.584zm0-10.016V23.72h1.584v1.264h-1.584zm0 0V23.72h1.584v1.264h-1.584zm4.736 1.728h-1.456c0-.555-.149-.981-.448-1.28s-.715-.448-1.248-.448V23.72c.619 0 1.163.128 1.632.384.48.245.853.597 1.12 1.056.267.448.4.965.4 1.552zm0 5.28c0 .597-.133 1.12-.4 1.568s-.64.8-1.12 1.056c-.469.256-1.013.384-1.632.384v-1.264c.533 0 .949-.149 1.248-.448.299-.309.448-.741.448-1.296h1.456zM65.96 35V23.72h1.456V35H65.96zm11.867 0v-5.504h1.456V35h-1.456zm-1.952.24l.112-1.2c.384 0 .709-.096.976-.288.277-.192.491-.475.64-.848s.224-.816.224-1.328l.72-.032c0 .725-.117 1.365-.352 1.92s-.555.992-.96 1.312c-.395.309-.848.464-1.36.464zm0 0a2.61 2.61 0 0 1-1.312-.336 2.58 2.58 0 0 1-.944-.912c-.235-.395-.352-.832-.352-1.312l1.376-.048c0 .405.133.741.4 1.008.277.267.592.4.944.4l-.112 1.2zm-2.608-2.56c0-.501.123-.939.368-1.312.256-.384.597-.688 1.024-.912s.912-.336 1.456-.336l.08 1.12c-.448 0-.821.133-1.12.4-.288.256-.432.587-.432.992l-1.376.048zm2.928-1.44l-.08-1.12h2.464v1.12h-2.384zm1.632.336v-2.064h.72v2.032l-.72.032zm1.456-2.048h-1.456c0-.469-.144-.853-.432-1.152-.277-.299-.64-.448-1.088-.448V26.68c.576 0 1.083.123 1.52.368.448.245.8.587 1.056 1.024a2.69 2.69 0 0 1 .4 1.456zm-4.48-.192l-1.344-.272c.064-.48.224-.896.48-1.248.267-.352.603-.629 1.008-.832.416-.203.875-.304 1.376-.304v1.248a1.57 1.57 0 0 0-1.024.352c-.277.224-.443.576-.496 1.056zm6.221 8.624l.304-1.2c.416.107.763.08 1.04-.08s.496-.491.656-.992h1.344c-.32 1.003-.763 1.685-1.328 2.048-.555.363-1.227.437-2.016.224zm2-2.272l2.736-8.768h1.456l-2.848 8.768h-1.344zm.272-.096L80.48 26.92h1.456l2.08 6.64-.72 2.032zm8.607-1.888c.011-.715.112-1.328.304-1.84.203-.523.459-.971.768-1.344a9.34 9.34 0 0 1 1.008-1.04l.992-.944c.309-.32.565-.661.768-1.024.203-.373.304-.811.304-1.312h.144.352.448.368.144c0 .661-.101 1.227-.304 1.696a4.49 4.49 0 0 1-.784 1.216c-.309.352-.645.683-1.008.992l-1.008.944c-.309.331-.565.709-.768 1.136-.203.416-.309.923-.32 1.52h-1.408zm0 1.296v-1.296h5.584V35h-5.584zm1.12-8.992l-1.344-.272a2.67 2.67 0 0 1 .48-1.232c.267-.363.608-.645 1.024-.848s.869-.304 1.36-.304v1.264c-.384 0-.72.112-1.008.336s-.459.576-.512 1.056zm4.48.208h-1.456c0-.469-.144-.853-.432-1.152s-.651-.448-1.088-.448v-1.264c.565 0 1.072.128 1.52.384.448.245.8.587 1.056 1.024a2.69 2.69 0 0 1 .4 1.456zm2.076.816l-.88-.912 2.208-2.4v1.856l-1.328 1.456zM100.907 35V23.72h1.456V35h-1.456z" fill="#0d0c0e"/><rect x="284.5" y="16.5" width="25" height="25" rx="12.5" stroke="#f2cd5d" stroke-width="3"/><g opacity=".35"><g fill="#0d0c0e"><path d="M69.264 99.008v-5.296h1.456v5.296h-1.456zM65.984 102v-1.264h1.584V102h-1.584zm0-10.016V90.72h1.584v1.264h-1.584zm0 0V90.72h1.584v1.264h-1.584zm4.736 1.728h-1.456c0-.555-.149-.981-.448-1.28s-.715-.448-1.248-.448V90.72c.619 0 1.163.128 1.632.384.48.245.853.597 1.12 1.056.267.448.4.965.4 1.552zm0 5.28c0 .597-.133 1.12-.4 1.568s-.64.8-1.12 1.056c-.469.256-1.013.384-1.632.384v-1.264c.533 0 .949-.149 1.248-.448.299-.309.448-.741.448-1.296h1.456zM64.96 102V90.72h1.456V102H64.96zm11.867 0v-5.504h1.456V102h-1.456zm-1.952.24l.112-1.2c.384 0 .709-.096.976-.288.277-.192.491-.475.64-.848s.224-.816.224-1.328l.72-.032c0 .725-.117 1.365-.352 1.92s-.555.992-.96 1.312c-.395.309-.848.464-1.36.464zm0 0a2.61 2.61 0 0 1-1.312-.336 2.58 2.58 0 0 1-.944-.912 2.52 2.52 0 0 1-.352-1.312l1.376-.048c0 .405.133.741.4 1.008.277.267.592.4.944.4l-.112 1.2zm-2.608-2.56c0-.501.123-.939.368-1.312.256-.384.597-.688 1.024-.912s.912-.336 1.456-.336l.08 1.12c-.448 0-.821.133-1.12.4-.288.256-.432.587-.432.992l-1.376.048zm2.928-1.44l-.08-1.12h2.464v1.12h-2.384zm1.632.336v-2.064h.72v2.032l-.72.032zm1.456-2.048h-1.456c0-.469-.144-.853-.432-1.152-.277-.299-.64-.448-1.088-.448V93.68c.576 0 1.083.123 1.52.368.448.245.8.587 1.056 1.024a2.69 2.69 0 0 1 .4 1.456zm-4.48-.192l-1.344-.272c.064-.48.224-.896.48-1.248.267-.352.603-.629 1.008-.832.416-.203.875-.304 1.376-.304v1.248a1.57 1.57 0 0 0-1.024.352c-.277.224-.443.576-.496 1.056zm6.221 8.624l.304-1.2c.416.107.763.08 1.04-.08s.496-.491.656-.992h1.344c-.32 1.003-.763 1.685-1.328 2.048-.555.363-1.227.437-2.016.224zm2-2.272l2.736-8.768h1.456l-2.848 8.768h-1.344zm.272-.096L79.48 93.92h1.456l2.08 6.64-.72 2.032zm8.607-1.888c.011-.715.112-1.328.304-1.84.203-.523.459-.971.768-1.344a9.34 9.34 0 0 1 1.008-1.04l.992-.944c.309-.32.565-.661.768-1.024.203-.373.304-.811.304-1.312h.144.352.448.368.144c0 .661-.101 1.227-.304 1.696a4.49 4.49 0 0 1-.784 1.216c-.309.352-.645.683-1.008.992l-1.008.944c-.309.331-.565.709-.768 1.136-.203.416-.309.923-.32 1.52h-1.408zm0 1.296v-1.296h5.584V102h-5.584zm1.12-8.992l-1.344-.272a2.67 2.67 0 0 1 .48-1.232c.267-.363.608-.645 1.024-.848s.869-.304 1.36-.304v1.264c-.384 0-.72.112-1.008.336s-.459.576-.512 1.056zm4.48.208h-1.456c0-.469-.144-.853-.432-1.152s-.651-.448-1.088-.448v-1.264c.565 0 1.072.128 1.52.384.448.245.8.587 1.056 1.024a2.69 2.69 0 0 1 .4 1.456zm6.092 5.904V93.6h1.456v5.52h-1.456zm-4.496 0V93.6h1.456v5.52h-1.456zm2.928-7.392V90.48h.096v1.248h-.096zm0 10.512v-1.264h.096v1.264h-.096zm-2.928-8.64c0-.608.128-1.141.384-1.6a3 3 0 0 1 1.056-1.104c.448-.277.954-.416 1.52-.416v1.248c-.47 0-.838.165-1.104.496-.267.32-.4.779-.4 1.376h-1.456zm5.952 0h-1.456c0-.597-.134-1.056-.4-1.376-.256-.331-.624-.496-1.104-.496V90.48a2.75 2.75 0 0 1 1.504.416c.448.267.8.635 1.056 1.104.266.459.4.992.4 1.6zm-5.952 5.52h1.456c0 .587.133 1.045.4 1.376.266.32.634.48 1.104.48v1.264a2.91 2.91 0 0 1-1.52-.4c-.437-.277-.789-.651-1.056-1.12-.256-.469-.384-1.003-.384-1.6zm5.952 0c0 .597-.134 1.131-.4 1.6a2.96 2.96 0 0 1-1.056 1.12 2.83 2.83 0 0 1-1.504.4v-1.264c.48 0 .848-.16 1.104-.48.266-.331.4-.789.4-1.376h1.456z"/><path d="M64 97.2h40.931v.8H64v-.8z"/></g><rect x="284" y="82" width="28" height="28" rx="14" fill="#f2cd5d"/></g><g opacity=".25"><g fill="#0d0c0e"><path d="M70.264 166.008v-5.296h1.456v5.296h-1.456zM66.984 169v-1.264h1.584V169h-1.584zm0-10.016v-1.264h1.584v1.264h-1.584zm0 0v-1.264h1.584v1.264h-1.584zm4.736 1.728h-1.456c0-.555-.149-.981-.448-1.28s-.715-.448-1.248-.448v-1.264c.619 0 1.163.128 1.632.384a2.67 2.67 0 0 1 1.12 1.056c.267.448.4.965.4 1.552zm0 5.28c0 .597-.133 1.12-.4 1.568s-.64.8-1.12 1.056c-.469.256-1.013.384-1.632.384v-1.264c.533 0 .949-.149 1.248-.448.299-.309.448-.741.448-1.296h1.456zM65.96 169v-11.28h1.456V169H65.96zm11.867 0v-5.504h1.456V169h-1.456zm-1.952.24l.112-1.2c.384 0 .709-.096.976-.288.277-.192.491-.475.64-.848s.224-.816.224-1.328l.72-.032c0 .725-.117 1.365-.352 1.92s-.555.992-.96 1.312c-.395.309-.848.464-1.36.464zm0 0a2.61 2.61 0 0 1-1.312-.336 2.58 2.58 0 0 1-.944-.912 2.52 2.52 0 0 1-.352-1.312l1.376-.048c0 .405.133.741.4 1.008.277.267.592.4.944.4l-.112 1.2zm-2.608-2.56c0-.501.123-.939.368-1.312.256-.384.597-.688 1.024-.912s.912-.336 1.456-.336l.08 1.12c-.448 0-.821.133-1.12.4-.288.256-.432.587-.432.992l-1.376.048zm2.928-1.44l-.08-1.12h2.464v1.12h-2.384zm1.632.336v-2.064h.72v2.032l-.72.032zm1.456-2.048h-1.456c0-.469-.144-.853-.432-1.152-.277-.299-.64-.448-1.088-.448v-1.248c.576 0 1.083.123 1.52.368.448.245.8.587 1.056 1.024a2.69 2.69 0 0 1 .4 1.456zm-4.48-.192l-1.344-.272c.064-.48.224-.896.48-1.248a2.84 2.84 0 0 1 1.008-.832c.416-.203.875-.304 1.376-.304v1.248c-.395 0-.736.117-1.024.352-.277.224-.443.576-.496 1.056zm6.221 8.624l.304-1.2c.416.107.763.08 1.04-.08s.496-.491.656-.992h1.344c-.32 1.003-.763 1.685-1.328 2.048-.555.363-1.227.437-2.016.224zm2-2.272l2.736-8.768h1.456l-2.848 8.768h-1.344zm.272-.096l-2.816-8.672h1.456l2.08 6.64-.72 2.032zm8.783-8.56l-.88-.912 2.208-2.4v1.856l-1.328 1.456zM93.407 169v-11.28h1.456V169h-1.456zm9.201-7.248c0 .864-.09 1.669-.272 2.416-.17.747-.405 1.44-.704 2.08-.298.629-.634 1.2-1.008 1.712-.362.501-.741.939-1.136 1.312l-1.088-.784 1.024-1.184c.331-.405.624-.859.88-1.36.256-.512.459-1.104.608-1.776.16-.683.24-1.488.24-2.416h1.456zm0-1.152v1.088h-1.456V160.6h1.456zm-4.448 0v1.088h-1.456V160.6h1.456zm-1.456 0c0-.597.128-1.131.384-1.6.267-.469.619-.837 1.056-1.104a2.83 2.83 0 0 1 1.52-.416v1.264c-.469 0-.837.16-1.104.48s-.4.779-.4 1.376h-1.456zm5.904 0h-1.456c0-.597-.133-1.056-.4-1.376-.256-.32-.624-.48-1.104-.48v-1.264c.566 0 1.067.139 1.504.416.448.267.8.635 1.056 1.104.267.469.4 1.003.4 1.6zm-5.904 1.088h1.456c0 .587.133 1.045.4 1.376.267.32.635.48 1.104.48v1.264c-.565 0-1.072-.133-1.52-.4-.437-.277-.789-.651-1.056-1.12-.256-.48-.384-1.013-.384-1.6zm5.904 0c0 .587-.133 1.12-.4 1.6a2.96 2.96 0 0 1-1.056 1.12c-.437.267-.938.4-1.504.4v-1.264c.48 0 .848-.16 1.104-.48.267-.331.4-.789.4-1.376h1.456z"/><path d="M65 164.2h38.568v.8H65v-.8z"/></g><rect x="283" y="149" width="28" height="28" rx="14" fill="#f2cd5d"/></g><g opacity=".2"><g fill="#0d0c0e"><path d="M70.264 233.008v-5.296h1.456v5.296h-1.456zM66.984 236v-1.264h1.584V236h-1.584zm0-10.016v-1.264h1.584v1.264h-1.584zm0 0v-1.264h1.584v1.264h-1.584zm4.736 1.728h-1.456c0-.555-.149-.981-.448-1.28s-.715-.448-1.248-.448v-1.264c.619 0 1.163.128 1.632.384a2.67 2.67 0 0 1 1.12 1.056c.267.448.4.965.4 1.552zm0 5.28c0 .597-.133 1.12-.4 1.568s-.64.8-1.12 1.056c-.469.256-1.013.384-1.632.384v-1.264c.533 0 .949-.149 1.248-.448.299-.309.448-.741.448-1.296h1.456zM65.96 236v-11.28h1.456V236H65.96zm11.867 0v-5.504h1.456V236h-1.456zm-1.952.24l.112-1.2c.384 0 .709-.096.976-.288.277-.192.491-.475.64-.848s.224-.816.224-1.328l.72-.032c0 .725-.117 1.365-.352 1.92s-.555.992-.96 1.312c-.395.309-.848.464-1.36.464zm0 0a2.61 2.61 0 0 1-1.312-.336 2.58 2.58 0 0 1-.944-.912 2.52 2.52 0 0 1-.352-1.312l1.376-.048c0 .405.133.741.4 1.008.277.267.592.4.944.4l-.112 1.2zm-2.608-2.56c0-.501.123-.939.368-1.312.256-.384.597-.688 1.024-.912s.912-.336 1.456-.336l.08 1.12c-.448 0-.821.133-1.12.4-.288.256-.432.587-.432.992l-1.376.048zm2.928-1.44l-.08-1.12h2.464v1.12h-2.384zm1.632.336v-2.064h.72v2.032l-.72.032zm1.456-2.048h-1.456c0-.469-.144-.853-.432-1.152-.277-.299-.64-.448-1.088-.448v-1.248c.576 0 1.083.123 1.52.368.448.245.8.587 1.056 1.024a2.69 2.69 0 0 1 .4 1.456zm-4.48-.192l-1.344-.272c.064-.48.224-.896.48-1.248a2.84 2.84 0 0 1 1.008-.832c.416-.203.875-.304 1.376-.304v1.248c-.395 0-.736.117-1.024.352-.277.224-.443.576-.496 1.056zm6.221 8.624l.304-1.2c.416.107.763.08 1.04-.08s.496-.491.656-.992h1.344c-.32 1.003-.763 1.685-1.328 2.048-.555.363-1.227.437-2.016.224zm2-2.272l2.736-8.768h1.456l-2.848 8.768h-1.344zm.272-.096l-2.816-8.672h1.456l2.08 6.64-.72 2.032zm8.783-8.56l-.88-.912 2.208-2.4v1.856l-1.328 1.456zM93.407 236v-11.28h1.456V236h-1.456zm8.065-3.568c0-.587-.133-1.04-.4-1.36s-.645-.48-1.136-.48v-1.104c.939 0 1.67.261 2.192.784.534.523.8 1.253.8 2.192l-1.456-.032zm-1.536 3.808c-.939 0-1.675-.267-2.208-.8-.523-.544-.784-1.301-.784-2.272l1.456-.032c0 .384.059.715.176.992.128.277.304.491.528.64.235.139.512.208.832.208v1.264zm-2.992-3.072v-.704l1.456-.032v.704l-1.456.032zm2.992 3.072v-1.264c.32 0 .592-.069.816-.208.235-.149.411-.363.528-.64.128-.277.192-.608.192-.992l1.456.032c0 .971-.266 1.728-.8 2.272-.522.533-1.253.8-2.192.8zm-2.992-3.776c0-.939.261-1.669.784-2.192.533-.523 1.269-.784 2.208-.784v1.104c-.48 0-.859.16-1.136.48-.267.32-.4.773-.4 1.36l-1.456.032zm4.528.672v-.704l1.456.032v.704l-1.456-.032zm-1.536-2.544c-.864 0-1.557-.256-2.08-.768-.512-.512-.768-1.189-.768-2.032l1.456.048c0 .533.117.944.352 1.232.245.277.592.416 1.04.416v1.104zm-2.848-2.8v-.448l1.456.032v.464l-1.456-.048zm2.848 2.8v-1.104c.459 0 .806-.139 1.04-.416.235-.288.352-.699.352-1.232l1.456-.048c0 .843-.256 1.52-.768 2.032s-1.205.768-2.08.768zm-2.848-3.248c0-.875.256-1.568.768-2.08.523-.523 1.216-.784 2.08-.784v1.264c-.299 0-.555.064-.768.192-.203.117-.357.299-.464.544s-.16.544-.16.896l-1.456-.032zm4.24.496v-.464l1.456-.032v.448l-1.456.048zm0-.464c0-.352-.053-.651-.16-.896s-.261-.427-.464-.544c-.202-.128-.458-.192-.768-.192v-1.264c.875 0 1.568.261 2.08.784.512.512.768 1.205.768 2.08l-1.456.032z"/><path d="M65 231.2h38.888v.8H65v-.8z"/></g><rect x="283" y="216" width="28" height="28" rx="14" fill="#f2cd5d"/></g><g opacity=".15"><g fill="#0d0c0e"><path d="M70.764 300.008v-5.296h1.456v5.296h-1.456zM67.484 303v-1.264h1.584V303h-1.584zm0-10.016v-1.264h1.584v1.264h-1.584zm0 0v-1.264h1.584v1.264h-1.584zm4.736 1.728h-1.456c0-.555-.149-.981-.448-1.28s-.715-.448-1.248-.448v-1.264c.619 0 1.163.128 1.632.384a2.67 2.67 0 0 1 1.12 1.056c.267.448.4.965.4 1.552zm0 5.28c0 .597-.133 1.12-.4 1.568s-.64.8-1.12 1.056c-.469.256-1.013.384-1.632.384v-1.264c.533 0 .949-.149 1.248-.448.299-.309.448-.741.448-1.296h1.456zM66.46 303v-11.28h1.456V303H66.46zm11.867 0v-5.504h1.456V303h-1.456zm-1.952.24l.112-1.2c.384 0 .709-.096.976-.288.277-.192.491-.475.64-.848s.224-.816.224-1.328l.72-.032c0 .725-.117 1.365-.352 1.92s-.555.992-.96 1.312c-.395.309-.848.464-1.36.464zm0 0a2.61 2.61 0 0 1-1.312-.336 2.58 2.58 0 0 1-.944-.912 2.52 2.52 0 0 1-.352-1.312l1.376-.048c0 .405.133.741.4 1.008.277.267.592.4.944.4l-.112 1.2zm-2.608-2.56c0-.501.123-.939.368-1.312.256-.384.597-.688 1.024-.912s.912-.336 1.456-.336l.08 1.12c-.448 0-.821.133-1.12.4-.288.256-.432.587-.432.992l-1.376.048zm2.928-1.44l-.08-1.12h2.464v1.12h-2.384zm1.632.336v-2.064h.72v2.032l-.72.032zm1.456-2.048h-1.456c0-.469-.144-.853-.432-1.152-.277-.299-.64-.448-1.088-.448v-1.248c.576 0 1.083.123 1.52.368.448.245.8.587 1.056 1.024a2.69 2.69 0 0 1 .4 1.456zm-4.48-.192l-1.344-.272c.064-.48.224-.896.48-1.248a2.84 2.84 0 0 1 1.008-.832c.416-.203.875-.304 1.376-.304v1.248c-.395 0-.736.117-1.024.352-.277.224-.443.576-.496 1.056zm6.221 8.624l.304-1.2c.416.107.763.08 1.04-.08s.496-.491.656-.992h1.344c-.32 1.003-.763 1.685-1.328 2.048-.555.363-1.227.437-2.016.224zm2-2.272l2.736-8.768h1.456l-2.848 8.768h-1.344zm.272-.096l-2.816-8.672h1.456l2.08 6.64-.72 2.032zm8.783-8.56l-.88-.912 2.208-2.4v1.856l-1.328 1.456zM93.907 303v-11.28h1.456V303h-1.456zm4.13 0l3.456-9.984h1.456L99.492 303h-1.456zm-1.072-9.984v-1.296h5.984v1.296h-5.984z"/><path d="M65.5 298.2h37.928v.8H65.5v-.8z"/></g><rect x="282.5" y="283" width="28" height="28" rx="14" fill="#f2cd5d"/></g><path fill="#5398be" d="M0 330h375v70H0z"/><path d="M136.072 136v-27.608l-6.776 2.352-2.016-7.056 12.656-4.984h5.208V136h-9.072zm45.559-18.648c0 2.875-.317 5.507-.952 7.896-.635 2.352-1.587 4.387-2.856 6.104-1.269 1.68-2.856 2.987-4.76 3.92s-4.107 1.4-6.608 1.4c-2.539 0-4.76-.467-6.664-1.4-1.867-.933-3.435-2.24-4.704-3.92-1.269-1.717-2.221-3.752-2.856-6.104-.635-2.389-.952-5.021-.952-7.896s.317-5.488.952-7.84c.635-2.389 1.587-4.424 2.856-6.104 1.269-1.717 2.837-3.043 4.704-3.976 1.904-.933 4.125-1.4 6.664-1.4 2.501 0 4.704.467 6.608 1.4a12.9 12.9 0 0 1 4.76 3.976c1.269 1.68 2.221 3.715 2.856 6.104.635 2.352.952 4.965.952 7.84zm-9.072 0c0-3.957-.467-6.963-1.4-9.016-.896-2.091-2.464-3.136-4.704-3.136s-3.827 1.045-4.76 3.136c-.896 2.053-1.344 5.059-1.344 9.016s.448 6.981 1.344 9.072c.933 2.053 2.52 3.08 4.76 3.08s3.808-1.027 4.704-3.08c.933-2.091 1.4-5.115 1.4-9.072zm43.908 0c0 2.875-.317 5.507-.952 7.896-.635 2.352-1.587 4.387-2.856 6.104-1.269 1.68-2.856 2.987-4.76 3.92s-4.107 1.4-6.608 1.4c-2.539 0-4.76-.467-6.664-1.4-1.867-.933-3.435-2.24-4.704-3.92-1.269-1.717-2.221-3.752-2.856-6.104-.635-2.389-.952-5.021-.952-7.896s.317-5.488.952-7.84c.635-2.389 1.587-4.424 2.856-6.104 1.269-1.717 2.837-3.043 4.704-3.976 1.904-.933 4.125-1.4 6.664-1.4 2.501 0 4.704.467 6.608 1.4a12.9 12.9 0 0 1 4.76 3.976c1.269 1.68 2.221 3.715 2.856 6.104.635 2.352.952 4.965.952 7.84zm-9.072 0c0-3.957-.467-6.963-1.4-9.016-.896-2.091-2.464-3.136-4.704-3.136s-3.827 1.045-4.76 3.136c-.896 2.053-1.344 5.059-1.344 9.016s.448 6.981 1.344 9.072c.933 2.053 2.52 3.08 4.76 3.08s3.808-1.027 4.704-3.08c.933-2.091 1.4-5.115 1.4-9.072zm-76.755 64.352h11.368c3.285 0 6.291.467 9.016 1.4 2.763.933 5.115 2.221 7.056 3.864s3.453 3.621 4.536 5.936c1.083 2.277 1.624 4.76 1.624 7.448s-.541 5.189-1.624 7.504c-1.083 2.277-2.595 4.237-4.536 5.88s-4.293 2.931-7.056 3.864c-2.725.933-5.731 1.4-9.016 1.4H130.64v-37.296zm11.928 30.016c1.867 0 3.565-.261 5.096-.784s2.837-1.269 3.92-2.24a9.7 9.7 0 0 0 2.576-3.528c.597-1.419.896-3.024.896-4.816s-.299-3.379-.896-4.76c-.597-1.419-1.456-2.613-2.576-3.584-1.083-.971-2.389-1.717-3.92-2.24s-3.229-.784-5.096-.784h-2.744v22.736h2.744zm41.355 4.592c-.859.859-2.035 1.624-3.528 2.296-1.456.635-3.062.952-4.816.952-1.232 0-2.334-.205-3.304-.616s-1.792-.971-2.464-1.68c-.635-.709-1.139-1.531-1.512-2.464a9.35 9.35 0 0 1-.504-3.08c0-2.539.784-4.443 2.352-5.712 1.605-1.307 3.864-2.072 6.776-2.296l3.416-.168 3.248-.112v-.896c0-2.987-1.662-4.48-4.984-4.48-1.307 0-2.576.149-3.808.448-1.195.299-2.296.709-3.304 1.232l-1.624-6.216c1.306-.747 2.837-1.344 4.592-1.792 1.792-.485 3.733-.728 5.824-.728 3.845 0 6.85 1.008 9.016 3.024 2.165 1.979 3.248 4.965 3.248 8.96V219h-8.624v-2.688zm-4.872-2.632c.858 0 1.661-.112 2.408-.336.784-.224 1.493-.523 2.128-.896v-4.088l-2.408.28-2.072.224c-1.83.224-2.744 1.083-2.744 2.576 0 .672.224 1.213.672 1.624.485.411 1.157.616 2.016.616zm22.8 16.856l3.584-10.864-9.912-28.112h9.296l5.04 19.544 4.984-19.544h9.016l-12.992 38.976h-9.016zm44.905-20.496c0 1.531-.299 2.893-.896 4.088-.56 1.195-1.382 2.203-2.464 3.024-1.046.784-2.296 1.381-3.752 1.792s-3.062.616-4.816.616c-1.494 0-3.062-.149-4.704-.448-1.643-.261-3.136-.672-4.48-1.232l1.232-6.216c1.157.485 2.426.859 3.808 1.12 1.418.224 2.65.336 3.696.336 1.082 0 2.016-.149 2.8-.448.821-.336 1.232-.877 1.232-1.624 0-.672-.355-1.139-1.064-1.4l-3.192-1.232c-1.158-.411-2.24-.859-3.248-1.344-1.008-.523-1.886-1.12-2.632-1.792-.71-.709-1.27-1.512-1.68-2.408s-.616-1.941-.616-3.136c0-2.987 1.008-5.189 3.024-6.608S233.652 191 236.9 191c1.717 0 3.285.168 4.704.504 1.418.299 2.781.821 4.088 1.568l-1.232 5.88a17.77 17.77 0 0 0-3.192-1.064c-1.12-.299-2.296-.448-3.528-.448-1.083 0-1.923.112-2.52.336-.56.187-.84.597-.84 1.232s.336 1.101 1.008 1.4l2.688 1.008 2.744 1.12c1.008.411 1.941.952 2.8 1.624.896.672 1.642 1.493 2.24 2.464.597.933.896 2.072.896 3.416zm-89.068 78.24c0 2.016-.317 3.901-.952 5.656a13.23 13.23 0 0 1-2.8 4.536c-1.232 1.269-2.763 2.277-4.592 3.024-1.829.709-3.92 1.064-6.272 1.064s-4.443-.355-6.272-1.064c-1.829-.747-3.36-1.755-4.592-3.024a13.23 13.23 0 0 1-2.8-4.536c-.635-1.755-.952-3.64-.952-5.656s.317-3.883.952-5.6c.635-1.755 1.568-3.267 2.8-4.536 1.232-1.307 2.763-2.315 4.592-3.024 1.829-.747 3.92-1.12 6.272-1.12s4.443.373 6.272 1.12c1.829.709 3.36 1.717 4.592 3.024 1.232 1.269 2.165 2.781 2.8 4.536.635 1.717.952 3.584.952 5.6zm-8.96 0a13.67 13.67 0 0 0-.28-2.8c-.187-.933-.504-1.755-.952-2.464-.411-.747-.989-1.325-1.736-1.736-.709-.448-1.605-.672-2.688-.672s-1.997.224-2.744.672c-.709.411-1.288.989-1.736 1.736-.411.709-.709 1.531-.896 2.464a13.67 13.67 0 0 0-.28 2.8c0 .971.093 1.923.28 2.856a8.81 8.81 0 0 0 .896 2.464 5.51 5.51 0 0 0 1.736 1.736c.747.411 1.661.616 2.744.616s1.979-.205 2.688-.616c.747-.448 1.325-1.027 1.736-1.736a7.88 7.88 0 0 0 .952-2.464c.187-.933.28-1.885.28-2.856zM164.252 302v-20.608h-4.256v-6.832h4.256v-.784c0-4.069 1.064-7.056 3.192-8.96 2.128-1.941 4.947-2.912 8.456-2.912a17.39 17.39 0 0 1 2.744.224c.971.112 1.867.336 2.688.672l-.672 6.384a10.37 10.37 0 0 0-2.912-.392c-1.418 0-2.538.336-3.36 1.008-.784.672-1.176 1.867-1.176 3.584v1.176h6.272v6.832h-6.272V302h-8.96zm-33.612 45.704h11.368c3.285 0 6.291.467 9.016 1.4 2.763.933 5.115 2.221 7.056 3.864s3.453 3.621 4.536 5.936c1.083 2.277 1.624 4.76 1.624 7.448s-.541 5.189-1.624 7.504c-1.083 2.277-2.595 4.237-4.536 5.88s-4.293 2.931-7.056 3.864c-2.725.933-5.731 1.4-9.016 1.4H130.64v-37.296zm11.928 30.016c1.867 0 3.565-.261 5.096-.784s2.837-1.269 3.92-2.24a9.7 9.7 0 0 0 2.576-3.528c.597-1.419.896-3.024.896-4.816s-.299-3.379-.896-4.76c-.597-1.419-1.456-2.613-2.576-3.584-1.083-.971-2.389-1.717-3.92-2.24s-3.229-.784-5.096-.784h-2.744v22.736h2.744zM181.614 357c3.584 0 6.421 1.064 8.512 3.192 2.09 2.091 3.136 5.003 3.136 8.736 0 1.419-.168 2.931-.504 4.536h-15.904c.074 1.68.634 3.043 1.68 4.088 1.082 1.008 2.725 1.512 4.928 1.512 1.344 0 2.744-.112 4.2-.336 1.493-.261 2.781-.635 3.864-1.12l1.12 5.768c-1.419.709-3.024 1.251-4.816 1.624-1.755.373-3.584.56-5.488.56-2.39 0-4.499-.336-6.328-1.008-1.83-.709-3.36-1.68-4.592-2.912s-2.166-2.707-2.8-4.424-.952-3.621-.952-5.712c0-2.24.317-4.256.952-6.048.672-1.792 1.605-3.304 2.8-4.536 1.232-1.269 2.706-2.24 4.424-2.912s3.64-1.008 5.768-1.008zm-.28 5.712c-1.419 0-2.52.467-3.304 1.4-.747.896-1.12 2.147-1.12 3.752h7.952a3.95 3.95 0 0 0 .112-.952c0-1.195-.318-2.184-.952-2.968-.635-.821-1.531-1.232-2.688-1.232zm36.82 13.328c0 1.531-.299 2.893-.896 4.088-.56 1.195-1.381 2.203-2.464 3.024-1.045.784-2.296 1.381-3.752 1.792s-3.061.616-4.816.616c-1.493 0-3.061-.149-4.704-.448-1.643-.261-3.136-.672-4.48-1.232l1.232-6.216c1.157.485 2.427.859 3.808 1.12 1.419.224 2.651.336 3.696.336 1.083 0 2.016-.149 2.8-.448.821-.336 1.232-.877 1.232-1.624 0-.672-.355-1.139-1.064-1.4l-3.192-1.232c-1.157-.411-2.24-.859-3.248-1.344-1.008-.523-1.885-1.12-2.632-1.792-.709-.709-1.269-1.512-1.68-2.408s-.616-1.941-.616-3.136c0-2.987 1.008-5.189 3.024-6.608S205.05 357 208.298 357c1.717 0 3.285.168 4.704.504 1.419.299 2.781.821 4.088 1.568l-1.232 5.88a17.77 17.77 0 0 0-3.192-1.064c-1.12-.299-2.296-.448-3.528-.448-1.083 0-1.923.112-2.52.336-.56.187-.84.597-.84 1.232s.336 1.101 1.008 1.4l2.688 1.008 2.744 1.12c1.008.411 1.941.952 2.8 1.624a8.83 8.83 0 0 1 2.24 2.464c.597.933.896 2.072.896 3.416zm4.792 8.96v-27.44h8.96V385h-8.96zm-.56-35.448c0-1.419.467-2.613 1.4-3.584s2.147-1.456 3.64-1.456 2.707.485 3.64 1.456 1.4 2.165 1.4 3.584-.467 2.613-1.4 3.584-2.147 1.456-3.64 1.456-2.707-.485-3.64-1.456-1.4-2.165-1.4-3.584zm41.791 8.008v5.712h-4.032l-.056-.056c.411 1.12.616 2.203.616 3.248 0 1.269-.261 2.464-.784 3.584-.485 1.12-1.232 2.109-2.24 2.968-.97.821-2.202 1.475-3.696 1.96-1.456.485-3.154.728-5.096.728h-.336c-.149.261-.28.523-.392.784a2.5 2.5 0 0 0-.112.784c0 .523.187.915.56 1.176.411.224.915.355 1.512.392l4.816.28c2.763.187 4.966.915 6.608 2.184 1.68 1.232 2.52 3.08 2.52 5.544 0 1.717-.466 3.211-1.4 4.48-.896 1.307-2.109 2.371-3.64 3.192-1.493.859-3.192 1.493-5.096 1.904a25.34 25.34 0 0 1-5.824.672c-1.568 0-3.098-.112-4.592-.336-1.456-.224-2.762-.616-3.92-1.176-1.157-.523-2.09-1.232-2.8-2.128s-1.064-1.997-1.064-3.304c0-.859.187-1.624.56-2.296.374-.635.878-1.195 1.512-1.68s1.363-.896 2.184-1.232 1.662-.597 2.52-.784c-1.642-.821-2.464-2.072-2.464-3.752 0-.709.131-1.344.392-1.904.299-.56.654-1.045 1.064-1.456.411-.448.859-.821 1.344-1.12.523-.336 1.008-.597 1.456-.784-2.389-.635-4.2-1.717-5.432-3.248-1.194-1.568-1.792-3.379-1.792-5.432 0-1.344.243-2.576.728-3.696.523-1.157 1.27-2.165 2.24-3.024 1.008-.859 2.24-1.531 3.696-2.016 1.494-.485 3.211-.728 5.152-.728.822 0 1.587.056 2.296.168.747.075 1.438.205 2.072.392h10.92zm-17.92 27.552c-.448.336-.914.747-1.4 1.232s-.728 1.12-.728 1.904c0 1.045.43 1.811 1.288 2.296.896.485 2.128.728 3.696.728a10.34 10.34 0 0 0 2.408-.28c.822-.149 1.55-.392 2.184-.728.635-.299 1.139-.672 1.512-1.12a2.09 2.09 0 0 0 .56-1.456c0-.672-.242-1.157-.728-1.456-.448-.299-1.176-.485-2.184-.56l-6.608-.56zm2.632-14.896c1.307 0 2.296-.336 2.968-1.008.672-.709 1.008-1.661 1.008-2.856s-.336-2.128-1.008-2.8c-.672-.709-1.661-1.064-2.968-1.064s-2.296.355-2.968 1.064c-.672.672-1.008 1.605-1.008 2.8s.336 2.147 1.008 2.856c.672.672 1.662 1.008 2.968 1.008zM268.227 385v-27.44h8.624v3.584c.859-1.493 1.96-2.557 3.304-3.192a10.34 10.34 0 0 1 4.368-.952c1.83 0 3.379.392 4.648 1.176 1.27.747 2.296 1.755 3.08 3.024.822 1.269 1.4 2.744 1.736 4.424.374 1.643.56 3.379.56 5.208V385h-8.96v-14.336c0-2.277-.354-3.939-1.064-4.984-.709-1.083-1.792-1.624-3.248-1.624-.933 0-1.754.205-2.464.616-.672.411-1.213.915-1.624 1.512V385h-8.96z" fill="#fdfffa"/></g><defs><clipPath id="A"><path fill="#fff" d="M0 0h375v400H0z"/></clipPath></defs></svg>