<svg xmlns="http://www.w3.org/2000/svg" xmlns:xlink="http://www.w3.org/1999/xlink" width="375" height="400" fill="none" xmlns:v="https://vecta.io/nano"><style><![CDATA[.B{fill:#461ca0}.C{fill:#d33c5a}.D{fill:#fffa98}]]></style><g clip-path="url(#Z)"><path fill="#031107" d="M0 0h375v400H0z"/><g class="B"><path d="M0 238h375v40H0zm0-116h375v40H0z"/></g><mask id="A" maskUnits="userSpaceOnUse" x="-78" y="125" width="157" height="125" mask-type="alpha"><path d="M.17 125.251l16.143 25.775 61.947 98.913H-77.919l61.947-98.913L.17 125.251z" class="B"/></mask><g mask="url(#A)"><path d="M-74.386 113.652H87.43V220.62H-74.386z" class="C"/><ellipse cx=".17" cy="258.639" rx="78.986" ry="72.816" class="D"/><path d="M.844 274.748l31.961-50.262h-63.922L.844 274.748z" class="B"/></g><mask id="B" maskUnits="userSpaceOnUse" x="109" y="125" width="157" height="125" mask-type="alpha"><path d="M187.5 125.251l16.142 25.775 61.947 98.913H109.41l61.947-98.913 16.143-25.775z" class="B"/></mask><g mask="url(#B)"><path d="M112.943 113.652h161.816V220.62H112.943z" class="C"/><ellipse cx="187.5" cy="258.639" rx="78.986" ry="72.816" class="D"/><path d="M188.173 274.748l35.1-23.153-13.407-37.464h-43.385l-13.407 37.464 35.099 23.153z" class="B"/></g><mask id="C" maskUnits="userSpaceOnUse" x="296" y="125" width="157" height="125" mask-type="alpha"><path d="M374.83 125.251l16.143 25.775 61.947 98.913H296.741l61.947-98.913 16.142-25.775z" class="B"/></mask><g mask="url(#C)"><path d="M300.274 113.652H462.09V220.62H300.274z" class="C"/><ellipse cx="374.83" cy="258.639" rx="78.986" ry="72.816" class="D"/><path d="M375.504 274.748l31.961-50.262h-63.922l31.961 50.262z" class="B"/></g><mask id="D" maskUnits="userSpaceOnUse" x="15" y="150" width="157" height="125" mask-type="alpha"><path d="M93.835 274.748l16.143-25.775 61.947-98.913H15.746l61.947 98.913 16.142 25.775z" class="B"/></mask><g mask="url(#D)"><use xlink:href="#a" transform="matrix(1 0 0 -1 19.2788 286.347)" class="C"/><ellipse rx="78.986" ry="72.816" transform="matrix(1 0 0 -1 93.835 141.36)" class="D"/><path d="M94.509 125.251l31.961 50.262H62.548l31.961-50.262z" class="B"/></g><mask id="E" maskUnits="userSpaceOnUse" x="203" y="150" width="157" height="125" mask-type="alpha"><path d="M281.165 274.748l16.143-25.775 61.947-98.913H203.076l61.947 98.913 16.142 25.775z" class="B"/></mask><g mask="url(#E)"><use xlink:href="#a" transform="matrix(1 0 0 -1 206.609 286.347)" class="C"/><ellipse rx="78.986" ry="72.816" transform="matrix(1 0 0 -1 281.165 141.36)" class="D"/><use xlink:href="#b" class="B"/></g><mask id="F" maskUnits="userSpaceOnUse" x="-78" y="0" width="157" height="126" mask-type="alpha"><path d="M.17 125.252l16.143-25.775L78.26.563H-77.919l61.947 98.913L.17 125.252z" class="B"/></mask><g mask="url(#F)"><use xlink:href="#a" transform="matrix(1 0 0 -1 -74.3862 136.851)" class="C"/><ellipse rx="78.986" ry="72.816" transform="matrix(1 0 0 -1 .169975 -8.13583)" class="D"/><path d="M.844-24.245l31.961 50.262h-63.922L.844-24.245z" class="B"/></g><mask id="G" maskUnits="userSpaceOnUse" x="109" y="0" width="157" height="126" mask-type="alpha"><path d="M187.5 125.252l16.142-25.775L265.589.563H109.41l61.947 98.913 16.143 25.775z" class="B"/></mask><g mask="url(#G)"><use xlink:href="#a" transform="matrix(1 0 0 -1 112.943 136.851)" class="C"/><ellipse rx="78.986" ry="72.816" transform="matrix(1 0 0 -1 187.5 -8.13583)" class="D"/><path d="M188.173-24.245l31.961 50.262h-63.922l31.961-50.262z" class="B"/></g><mask id="H" maskUnits="userSpaceOnUse" x="296" y="0" width="157" height="126" mask-type="alpha"><path d="M374.83 125.252l16.143-25.775L452.92.563H296.741l61.947 98.913 16.142 25.775z" class="B"/></mask><g mask="url(#H)"><use xlink:href="#a" transform="matrix(1 0 0 -1 300.274 136.851)" class="C"/><ellipse rx="78.986" ry="72.816" transform="matrix(1 0 0 -1 374.83 -8.13583)" class="D"/><path d="M375.504-24.245l31.961 50.262h-63.922l31.961-50.262z" class="B"/></g><mask id="I" maskUnits="userSpaceOnUse" x="15" y="-25" width="157" height="126" mask-type="alpha"><path d="M93.835-24.245L109.978 1.53l61.947 98.913H15.746L77.693 1.53l16.142-25.775z" class="B"/></mask><g mask="url(#I)"><path d="M19.279-35.844h161.816V71.124H19.279z" class="C"/><ellipse cx="93.835" cy="109.143" rx="78.986" ry="72.816" class="D"/><path d="M94.509 125.252L126.47 74.99H62.548l31.961 50.262z" class="B"/></g><mask id="J" maskUnits="userSpaceOnUse" x="203" y="-25" width="157" height="126" mask-type="alpha"><path d="M281.165-24.245L297.308 1.53l61.947 98.913H203.076L265.023 1.53l16.142-25.775z" class="B"/></mask><g mask="url(#J)"><path d="M206.609-35.844h161.816V71.124H206.609z" class="C"/><ellipse cx="281.165" cy="109.143" rx="78.986" ry="72.816" class="D"/><path d="M281.839 125.252L313.8 74.99h-63.922l31.961 50.262z" class="B"/></g><mask id="K" maskUnits="userSpaceOnUse" x="-78" y="-27" width="157" height="127" mask-type="alpha"><path d="M.17-26.062L16.313-.005 78.26 99.989H-77.919L-15.972-.005.17-26.062z" class="B"/></mask><g mask="url(#K)"><path d="M-74.386-37.788H87.43V70.349H-74.386z" class="C"/><ellipse cx=".17" cy="108.783" rx="78.986" ry="73.611" class="D"/><path d="M.844 125.068l31.961-50.811h-63.922L.844 125.068z" class="B"/></g><mask id="L" maskUnits="userSpaceOnUse" x="109" y="-27" width="157" height="127" mask-type="alpha"><path d="M187.5-26.062L203.642-.005l61.947 99.994H109.41L171.357-.005 187.5-26.062z" class="B"/></mask><g mask="url(#L)"><path d="M112.943-37.788h161.816V70.349H112.943z" class="C"/><ellipse cx="187.5" cy="108.783" rx="78.986" ry="73.611" class="D"/><path d="M188.173 125.068l31.961-50.811h-63.922l31.961 50.811z" class="B"/></g><mask id="M" maskUnits="userSpaceOnUse" x="296" y="-27" width="157" height="127" mask-type="alpha"><path d="M374.83-26.062L390.973-.005l61.947 99.994H296.741L358.688-.005l16.142-26.057z" class="B"/></mask><g mask="url(#M)"><path d="M300.274-37.788H462.09V70.349H300.274z" class="C"/><ellipse cx="374.83" cy="108.783" rx="78.986" ry="73.611" class="D"/><path d="M375.504 125.068l31.961-50.811h-63.922l31.961 50.811z" class="B"/></g><mask id="N" maskUnits="userSpaceOnUse" x="15" y="-1" width="157" height="127" mask-type="alpha"><path d="M93.835 125.068l16.143-26.057L171.925-.983H15.746l61.947 99.994 16.142 26.057z" class="B"/></mask><g mask="url(#N)"><path transform="matrix(1 0 0 -1 19.2788 136.794)" d="M0 0h161.816v108.137H0z" class="C"/><ellipse rx="78.986" ry="73.611" transform="matrix(1 0 0 -1 93.835 -9.7773)" class="D"/><path d="M94.509-26.062l31.961 50.811H62.548l31.961-50.811z" class="B"/></g><mask id="O" maskUnits="userSpaceOnUse" x="203" y="-1" width="157" height="127" mask-type="alpha"><path d="M281.165 125.068l16.143-26.057L359.255-.983H203.076l61.947 99.994 16.142 26.057z" class="B"/></mask><g mask="url(#O)"><path transform="matrix(1 0 0 -1 206.609 136.794)" d="M0 0h161.816v108.137H0z" class="C"/><ellipse rx="78.986" ry="73.611" transform="matrix(1 0 0 -1 281.165 -9.7773)" class="D"/><path d="M281.839-26.062L313.8 24.749h-63.922l31.961-50.811z" class="B"/></g><mask id="P" maskUnits="userSpaceOnUse" x="-78" y="299" width="157" height="126" mask-type="alpha"><path d="M.17 424.246l16.143-25.775 61.947-98.913H-77.919l61.947 98.913L.17 424.246z" class="B"/></mask><g mask="url(#P)"><use xlink:href="#a" transform="matrix(1 0 0 -1 -74.3862 435.845)" class="C"/><ellipse rx="78.986" ry="72.816" transform="matrix(1 0 0 -1 .169975 290.858)" class="D"/><path d="M.844 274.749l31.961 50.262h-63.922L.844 274.749z" class="B"/></g><mask id="Q" maskUnits="userSpaceOnUse" x="109" y="299" width="157" height="126" mask-type="alpha"><path d="M187.5 424.246l16.142-25.775 61.947-98.913H109.41l61.947 98.913 16.143 25.775z" class="B"/></mask><g mask="url(#Q)"><use xlink:href="#a" transform="matrix(1 0 0 -1 112.943 435.845)" class="C"/><ellipse rx="78.986" ry="72.816" transform="matrix(1 0 0 -1 187.5 290.858)" class="D"/><path d="M188.173 274.749l31.961 50.262h-63.922l31.961-50.262z" class="B"/></g><mask id="R" maskUnits="userSpaceOnUse" x="296" y="299" width="157" height="126" mask-type="alpha"><path d="M374.83 424.246l16.143-25.775 61.947-98.913H296.741l61.947 98.913 16.142 25.775z" class="B"/></mask><g mask="url(#R)"><use xlink:href="#a" transform="matrix(1 0 0 -1 300.274 435.845)" class="C"/><ellipse rx="78.986" ry="72.816" transform="matrix(1 0 0 -1 374.83 290.858)" class="D"/><path d="M375.504 274.749l31.961 50.262h-63.922l31.961-50.262z" class="B"/></g><mask id="S" maskUnits="userSpaceOnUse" x="15" y="274" width="157" height="126" mask-type="alpha"><path d="M93.835 274.749l16.143 25.775 61.947 98.914H15.746l61.947-98.914 16.142-25.775z" class="B"/></mask><g mask="url(#S)"><path d="M19.279 263.15h161.816v106.968H19.279z" class="C"/><ellipse cx="93.835" cy="408.137" rx="78.986" ry="72.816" class="D"/><path d="M94.509 424.246l31.961-50.262H62.548l31.961 50.262z" class="B"/></g><mask id="T" maskUnits="userSpaceOnUse" x="203" y="274" width="157" height="126" mask-type="alpha"><path d="M281.165 274.749l16.143 25.775 61.947 98.914H203.076l61.947-98.914 16.142-25.775z" class="B"/></mask><g mask="url(#T)"><path d="M206.609 263.15h161.816v106.968H206.609z" class="C"/><ellipse cx="281.165" cy="408.137" rx="78.986" ry="72.816" class="D"/><path d="M281.839 424.246l31.961-50.262h-63.922l31.961 50.262z" class="B"/></g><mask id="U" maskUnits="userSpaceOnUse" x="-78" y="275" width="157" height="128" mask-type="alpha"><path d="M.17 275.114l16.143 26.339L78.26 402.529H-77.919l61.947-101.076L.17 275.114z" class="B"/></mask><g mask="url(#U)"><path d="M-74.386 263.262H87.43v109.306H-74.386z" class="C"/><ellipse cx=".17" cy="411.418" rx="78.986" ry="74.407" class="D"/><path d="M.844 427.88l31.961-51.361h-63.922L.844 427.88z" class="B"/></g><mask id="V" maskUnits="userSpaceOnUse" x="109" y="275" width="157" height="128" mask-type="alpha"><path d="M187.5 275.114l16.142 26.339 61.947 101.076H109.41l61.947-101.076 16.143-26.339z" class="B"/></mask><g mask="url(#V)"><path d="M112.943 263.262h161.816v109.306H112.943z" class="C"/><ellipse cx="187.5" cy="411.418" rx="78.986" ry="74.407" class="D"/><path d="M188.173 427.88l31.961-51.361h-63.922l31.961 51.361z" class="B"/></g><mask id="W" maskUnits="userSpaceOnUse" x="296" y="275" width="157" height="128" mask-type="alpha"><path d="M374.83 275.114l16.143 26.339 61.947 101.076H296.741l61.947-101.076 16.142-26.339z" class="B"/></mask><g mask="url(#W)"><path d="M300.274 263.262H462.09v109.306H300.274z" class="C"/><ellipse cx="374.83" cy="411.418" rx="78.986" ry="74.407" class="D"/><path d="M375.504 427.88l31.961-51.361h-63.922l31.961 51.361z" class="B"/></g><mask id="X" maskUnits="userSpaceOnUse" x="15" y="300" width="157" height="128" mask-type="alpha"><path d="M93.835 427.879l16.143-26.339 61.947-101.075H15.746L77.693 401.54l16.142 26.339z" class="B"/></mask><g mask="url(#X)"><path transform="matrix(1 0 0 -1 19.2788 439.731)" d="M0 0h161.816v109.306H0z" class="C"/><ellipse rx="78.986" ry="74.407" transform="matrix(1 0 0 -1 93.835 291.575)" class="D"/><path d="M94.509 275.113l31.961 51.361H62.548l31.961-51.361z" class="B"/></g><mask id="Y" maskUnits="userSpaceOnUse" x="203" y="300" width="157" height="128" mask-type="alpha"><path d="M281.165 427.88l16.143-26.339 61.947-101.075H203.076l61.947 101.075 16.142 26.339z" class="B"/></mask><g mask="url(#Y)"><path transform="matrix(1 0 0 -1 206.609 439.732)" d="M0 0h161.816v109.306H0z" class="C"/><ellipse rx="78.986" ry="74.407" transform="matrix(1 0 0 -1 281.165 291.576)" class="D"/><path d="M281.839 275.114l31.961 51.361h-63.922l31.961-51.361z" class="B"/></g><g fill="#fdfffa"><path d="M168.96 240v-6.564l-.24-1.2.24-.732h3.576c.576 0 1.128.056 1.656.168a3.62 3.62 0 0 1 1.428.6c.424.296.756.72.996 1.272.248.552.372 1.268.372 2.148s-.124 1.604-.372 2.172c-.248.56-.584.996-1.008 1.308a3.8 3.8 0 0 1-1.44.648 7.34 7.34 0 0 1-1.632.18h-3.576zm2.184-1.92h1.392c.704 0 1.244-.184 1.62-.552.376-.376.564-.988.564-1.836s-.192-1.436-.576-1.764c-.376-.336-.912-.504-1.608-.504h-1.392v4.656zm8.785 2.04c-.344 0-.664-.048-.96-.144a1.43 1.43 0 0 1-.696-.528c-.176-.248-.264-.592-.264-1.032 0-.4.1-.732.3-.996s.472-.46.816-.588a3.32 3.32 0 0 1 1.164-.192c.416 0 .728.048.936.144.208.088.388.18.54.276l.084-.072c0-.24-.02-.44-.06-.6s-.132-.28-.276-.36c-.144-.088-.368-.132-.672-.132a5.78 5.78 0 0 0-.948.084c-.328.048-.632.112-.912.192-.272.072-.476.144-.612.216v-1.8c.248-.088.6-.168 1.056-.24.464-.08 1.032-.12 1.704-.12.72 0 1.288.092 1.704.276.424.176.728.436.912.78.184.336.276.74.276 1.212v1.596l.24 1.212-.24.708h-2.052v-.588l-.12-.06c-.064.064-.176.156-.336.276a2.74 2.74 0 0 1-.636.336c-.264.096-.58.144-.948.144zm1.02-1.572c.216 0 .4-.02.552-.06.16-.04.276-.076.348-.108v-.228c0-.104-.076-.204-.228-.3-.144-.096-.372-.144-.684-.144-.432 0-.648.152-.648.456 0 .128.048.224.144.288s.268.096.516.096zm5.182 4.368l-1.692-.6.48-1.788 1.68.48c.344 0 .592-.092.744-.276.16-.176.28-.424.36-.744h-1.236l-1.32-4.104-.228-1.56h2.28l.66 3.96h.24l.66-3.96h2.28l-.084.384-.216.996-.324 1.38-.384 1.512-.42 1.392c-.216.664-.476 1.212-.78 1.644-.296.432-.66.752-1.092.96-.432.216-.968.324-1.608.324zM196.196 240v-6.108h-1.44v-1.908l3.648-.48.12.72-.12 1.2V240h-2.208zm7.311.12c-.44 0-.872-.04-1.296-.12-.424-.088-.812-.228-1.164-.42-.344-.2-.62-.468-.828-.804s-.312-.756-.312-1.26c0-.512.108-.924.324-1.236s.5-.552.852-.72a1.8 1.8 0 0 1-.624-.768c-.128-.312-.192-.66-.192-1.044a2.07 2.07 0 0 1 .372-1.224c.256-.352.624-.628 1.104-.828.48-.208 1.06-.312 1.74-.312 1.024 0 1.816.204 2.376.612s.84.992.84 1.752c0 .424-.06.784-.18 1.08a1.74 1.74 0 0 1-.528.708c.336.168.596.412.78.732.192.312.288.728.288 1.248 0 .504-.1.924-.3 1.26s-.472.604-.816.804c-.336.192-.716.332-1.14.42-.424.08-.856.12-1.296.12zm0-5.232c.296 0 .524-.076.684-.228.16-.16.24-.34.24-.54 0-.208-.08-.376-.24-.504s-.388-.192-.684-.192c-.288 0-.524.06-.708.18-.176.112-.264.284-.264.516a.68.68 0 0 0 .264.552c.184.144.42.216.708.216zm0 3.192c.432 0 .752-.068.96-.204.216-.144.324-.312.324-.504 0-.24-.1-.436-.3-.588-.192-.16-.456-.272-.792-.336-.328-.072-.696-.1-1.104-.084a1.52 1.52 0 0 0-.252.384c-.064.152-.096.312-.096.48a.75.75 0 0 0 .3.612c.208.16.528.24.96.24zM145.5 266v-5.39h-1.2v-1.09l2.64-.6.1.6-.1 1V266h-1.44zm5.473.1c-.567 0-1.06-.117-1.48-.35-.414-.233-.734-.613-.96-1.14-.227-.533-.34-1.25-.34-2.15 0-.86.113-1.557.34-2.09s.546-.923.96-1.17c.42-.253.913-.38 1.48-.38.573 0 1.066.127 1.48.38s.733.647.96 1.18.34 1.227.34 2.08c0 .887-.114 1.597-.34 2.13s-.547.92-.96 1.16c-.414.233-.907.35-1.48.35zm0-1.44c.46 0 .79-.163.99-.49.2-.333.3-.903.3-1.71 0-.76-.1-1.317-.3-1.67s-.53-.53-.99-.53c-.447 0-.774.18-.98.54-.207.353-.31.907-.31 1.66 0 .8.103 1.367.31 1.7s.533.5.98.5zm6.507 1.44c-.567 0-1.06-.117-1.48-.35-.413-.233-.733-.613-.96-1.14-.227-.533-.34-1.25-.34-2.15 0-.86.113-1.557.34-2.09s.547-.923.96-1.17c.42-.253.913-.38 1.48-.38.573 0 1.067.127 1.48.38s.733.647.96 1.18.34 1.227.34 2.08c0 .887-.113 1.597-.34 2.13s-.547.92-.96 1.16c-.413.233-.907.35-1.48.35zm0-1.44c.46 0 .79-.163.99-.49.2-.333.3-.903.3-1.71 0-.76-.1-1.317-.3-1.67s-.53-.53-.99-.53c-.447 0-.773.18-.98.54-.207.353-.31.907-.31 1.66 0 .8.103 1.367.31 1.7s.533.5.98.5zm6.68 1.34v-5.47l-.2-1 .2-.61h2.18a6.66 6.66 0 0 1 1.38.14c.446.087.843.253 1.19.5.353.247.63.6.83 1.06.206.46.31 1.057.31 1.79s-.104 1.337-.31 1.81c-.207.467-.487.83-.84 1.09a3.17 3.17 0 0 1-1.2.54 6.12 6.12 0 0 1-1.36.15h-2.18zm1.42-1.3h1.06c.693 0 1.186-.203 1.48-.61.293-.413.44-.973.44-1.68s-.15-1.247-.45-1.62c-.294-.38-.784-.57-1.47-.57h-1.06v4.48zm6.959 1.4c-.447 0-.827-.113-1.14-.34-.307-.233-.46-.593-.46-1.08 0-.513.163-.903.49-1.17.326-.273.763-.41 1.31-.41.4 0 .703.033.91.1l.42.15.07-.06c0-.2-.017-.377-.05-.53a.54.54 0 0 0-.23-.35c-.12-.087-.307-.13-.56-.13-.454 0-.86.037-1.22.11l-.84.2v-1.1c.206-.073.52-.14.94-.2.42-.067.873-.1 1.36-.1.413 0 .75.057 1.01.17.266.107.47.253.61.44.146.187.246.393.3.62a2.5 2.5 0 0 1 .09.66v1.33l.2 1.01-.2.59h-1.31v-.49l-.1-.05a1.64 1.64 0 0 1-.28.25c-.127.1-.3.19-.52.27-.214.073-.48.11-.8.11zm.55-1.11c.286 0 .51-.027.67-.08.166-.053.293-.107.38-.16v-.19c0-.127-.077-.253-.23-.38-.147-.127-.39-.19-.73-.19-.254 0-.44.05-.56.15s-.18.227-.18.38c0 .16.056.28.17.36.113.073.273.11.48.11zm4.178 3.44l-1.41-.5.4-1.19 1.4.4c.194 0 .357-.06.49-.18.134-.113.244-.26.33-.44a2.03 2.03 0 0 0 .2-.53h-.93l-1.1-3.42-.19-1.3h1.5l.75 3.6h.2l.75-3.6h1.5l-.07.32-.18.83-.27 1.15-.32 1.26-.35 1.16c-.18.553-.38 1.01-.6 1.37-.213.36-.483.627-.81.8-.326.18-.756.27-1.29.27zm6.378-2.33c-.427 0-.783-.037-1.07-.11-.28-.073-.507-.157-.68-.25v-1.18c.24.127.513.237.82.33.313.087.613.13.9.13.34 0 .51-.11.51-.33 0-.12-.05-.21-.15-.27-.093-.06-.227-.113-.4-.16l-.58-.19c-.38-.133-.673-.303-.88-.51s-.31-.53-.31-.97c0-.473.163-.827.49-1.06.333-.233.77-.35 1.31-.35.22 0 .407.013.56.04l.42.06.91.5-.39.97-1.5-.48a.55.55 0 0 0-.31.08c-.073.047-.11.113-.11.2 0 .14.07.247.21.32.14.067.343.14.61.22.54.16.937.353 1.19.58s.38.56.38 1c0 .407-.16.747-.48 1.02-.313.273-.797.41-1.45.41zm7.588 0c-.814 0-1.41-.213-1.79-.64s-.57-1.033-.57-1.82c0-.793.19-1.4.57-1.82.38-.427.976-.64 1.79-.64.84 0 1.44.213 1.8.64.366.42.55 1.027.55 1.82 0 .787-.184 1.393-.55 1.82-.36.427-.96.64-1.8.64zm0-1c.273 0 .496-.107.67-.32.18-.213.27-.593.27-1.14s-.09-.927-.27-1.14c-.174-.213-.397-.32-.67-.32-.28 0-.51.107-.69.32-.174.213-.26.593-.26 1.14s.09.927.27 1.14a.85.85 0 0 0 .68.32zm3.532.9v-3.54l-.53-.7.53-.48c-.033-.113-.06-.263-.08-.45l-.02-.47c0-.567.127-1.027.38-1.38.26-.36.687-.54 1.28-.54.187 0 .383.01.59.03.213.013.397.04.55.08l.97.61-.47.99-1.35-.6c-.227 0-.393.087-.5.26-.107.167-.16.377-.16.63a1.94 1.94 0 0 0 .07.51c.047.167.093.277.14.33h1.6v.9h-1.6v2.2l.1 1.01-.1.61h-1.4zm6.776 0v-5.47l-.2-1 .2-.61h2.18a6.66 6.66 0 0 1 1.38.14 3.01 3.01 0 0 1 1.19.5c.354.247.63.6.83 1.06.207.46.31 1.057.31 1.79s-.103 1.337-.31 1.81c-.206.467-.486.83-.84 1.09a3.17 3.17 0 0 1-1.2.54c-.44.1-.893.15-1.36.15h-2.18zm1.42-1.3h1.06c.694 0 1.187-.203 1.48-.61.294-.413.44-.973.44-1.68s-.15-1.247-.45-1.62c-.293-.38-.783-.57-1.47-.57h-1.06v4.48zm7.609 1.4a2.8 2.8 0 0 1-1.16-.23c-.34-.153-.606-.41-.8-.77s-.29-.847-.29-1.46c0-.593.104-1.07.31-1.43s.48-.62.82-.78c.34-.167.714-.25 1.12-.25.447 0 .797.05 1.05.15.26.1.457.197.59.29l.5 1.59-.2.62h-2.8c.04.353.167.637.38.85s.54.32.98.32c.36 0 .65-.043.87-.13l.47-.2v1.04c-.2.107-.456.2-.77.28-.306.073-.663.11-1.07.11zm-.87-2.91l1.5-.2-.15-.74c-.046-.027-.113-.047-.2-.06a1.38 1.38 0 0 0-.22-.02c-.3 0-.53.107-.69.32-.16.207-.24.44-.24.7zm5.522 2.91c-.426 0-.783-.037-1.07-.11-.28-.073-.506-.157-.68-.25v-1.18a4.64 4.64 0 0 0 .82.33 3.37 3.37 0 0 0 .9.13c.34 0 .51-.11.51-.33 0-.12-.05-.21-.15-.27-.093-.06-.226-.113-.4-.16l-.58-.19c-.38-.133-.673-.303-.88-.51s-.31-.53-.31-.97c0-.473.164-.827.49-1.06.334-.233.77-.35 1.31-.35.22 0 .407.013.56.04l.42.06.91.5-.39.97-1.5-.48c-.126 0-.23.027-.31.08-.073.047-.11.113-.11.2 0 .14.07.247.21.32.14.067.344.14.61.22.54.16.937.353 1.19.58s.38.56.38 1c0 .407-.16.747-.48 1.02-.313.273-.796.41-1.45.41zm3.676-5.32l-1.07-1.07 1.07-1.07 1.06 1.07-1.06 1.07zm-.7 5.22v-3.31l-.21-.8.2-.61h1.4V266h-1.39zm4.66 2.43c-.167 0-.357-.007-.57-.02l-.52-.03-1.12-.59.4-.99 1.57.51c.886 0 1.33-.403 1.33-1.21v-.4l-.1-.05c-.08.067-.227.157-.44.27-.207.107-.527.16-.96.16a1.94 1.94 0 0 1-.91-.23 1.8 1.8 0 0 1-.72-.76c-.18-.347-.27-.797-.27-1.35 0-.62.093-1.117.28-1.49.186-.38.423-.657.71-.83.293-.173.596-.26.91-.26.346 0 .63.05.85.15.226.1.376.197.45.29v-.33h1.41l.1.6-.11.6.01 3.52c0 .773-.18 1.373-.54 1.8s-.947.64-1.76.64zm.14-3.45c.12 0 .253-.017.4-.05l.35-.09v-2.48a2.42 2.42 0 0 0-.28-.06c-.12-.02-.244-.03-.37-.03-.287 0-.507.063-.66.19-.154.12-.257.283-.31.49s-.08.433-.08.68a3.07 3.07 0 0 0 .07.68c.053.2.15.363.29.49.14.12.336.18.59.18zm3.41 1.02v-3.01l-.2-1.1.31-.61h1.09v.43l.09.06c.073-.067.173-.143.3-.23a2.29 2.29 0 0 1 .48-.25c.186-.073.396-.11.63-.11.6 0 1.05.17 1.35.51s.45.817.45 1.43v1.27l.21 1-.21.61h-1.4v-2.92c0-.253-.057-.447-.17-.58-.107-.14-.277-.21-.51-.21l-1.02.19V266h-1.4z"/><path d="M144 267.25h87.478v.5H144v-.5z"/></g></g><defs><clipPath id="Z"><path fill="#fff" d="M0 0h375v400H0z"/></clipPath><path id="a" d="M0 0h161.816v106.968H0z"/><path id="b" d="M281.839 125.251l31.961 50.262h-63.922l31.961-50.262z"/></defs></svg>