<svg xmlns="http://www.w3.org/2000/svg" xmlns:xlink="http://www.w3.org/1999/xlink" width="375" height="400" fill="none" xmlns:v="https://vecta.io/nano"><g clip-path="url(#A)"><g fill="#fdfffa"><path d="M0 0h375v400H0z"/><path d="M18.532 72.696c0 6.348-.184 9.384-.736 13.432 3.864-.184 6.44-.276 13.524-.276h19.412c10.948 0 19.688-3.128 25.852-9.2 6.992-6.992 10.672-17.112 10.672-29.716 0-12.236-3.404-21.896-10.12-28.52-6.164-5.98-15.272-9.108-26.588-9.108H31.32c-7.636 0-9.936-.092-13.616-.276.644 4.232.828 7.268.828 13.524v50.14zm18.216-2.944V25.408H48.8c6.624 0 11.04 1.472 14.26 4.692 3.588 3.588 5.336 9.292 5.336 17.112 0 7.636-2.024 13.8-5.796 17.664-3.312 3.312-7.544 4.876-13.524 4.876H36.748zm95.813-20.24c-6.624.184-9.384.276-12.972.644-8.28.736-14.444 2.668-19.136 5.98-4.416 3.036-6.716 7.636-6.716 13.432 0 5.06 1.748 9.476 5.06 12.512 3.68 3.404 8.924 5.06 15.916 5.06 7.544 0 12.696-1.564 17.848-5.52v4.232h17.848c-.46-4.14-.644-7.452-.644-13.064v-24.84c0-8.28-2.576-13.34-8.464-16.56-3.588-1.932-10.212-3.22-17.02-3.22-8.924 0-15.732 1.748-20.7 5.244-3.864 2.76-5.888 5.704-7.728 11.132l17.572 2.852c1.38-4.508 4.508-6.44 10.396-6.44 6.072 0 8.74 2.024 8.74 6.44v2.116zm0 14.352c0 2.76-1.196 5.244-3.312 7.084-2.484 2.116-6.624 3.496-10.396 3.496-4.784 0-7.544-1.932-7.544-5.244 0-2.668 2.024-4.968 5.336-6.072 3.772-1.196 7.728-1.656 15.916-1.84v2.576zm46.108 17.02l-1.932 3.956c-1.38 2.76-3.956 4.324-7.452 4.324-2.392 0-4.14-.46-7.176-2.024l-2.024 14.628c5.06 1.104 8.556 1.564 12.604 1.564 10.488 0 17.112-3.956 20.792-12.604l21.068-48.668c3.22-7.544 3.22-7.544 5.52-12.328h-19.964c-.552 3.22-1.38 5.888-3.956 12.236l-8.188 20.884-8.464-21.252c-1.932-4.968-3.128-8.924-3.588-11.868h-19.964c1.196 2.3 1.564 3.128 5.52 12.328l17.204 38.824z"/></g><path d="M18.532 108.696c0 6.348-.184 9.384-.736 13.432 3.864-.184 6.44-.276 13.524-.276h19.412c10.948 0 19.688-3.128 25.852-9.2 6.992-6.992 10.672-17.112 10.672-29.716 0-12.236-3.404-21.896-10.12-28.52-6.164-5.98-15.272-9.108-26.588-9.108H31.32c-7.636 0-9.936-.092-13.616-.276.644 4.232.828 7.268.828 13.524v50.14zm18.216-2.944V61.408H48.8c6.624 0 11.04 1.472 14.26 4.692 3.588 3.588 5.336 9.292 5.336 17.112 0 7.636-2.024 13.8-5.796 17.664-3.312 3.312-7.544 4.876-13.524 4.876H36.748zm95.813-20.24c-6.624.184-9.384.276-12.972.644-8.28.736-14.444 2.668-19.136 5.98-4.416 3.036-6.716 7.636-6.716 13.432 0 5.06 1.748 9.476 5.06 12.512 3.68 3.404 8.924 5.06 15.916 5.06 7.544 0 12.696-1.564 17.848-5.52v4.232h17.848c-.46-4.14-.644-7.452-.644-13.064v-24.84c0-8.28-2.576-13.34-8.464-16.56-3.588-1.932-10.212-3.22-17.02-3.22-8.924 0-15.732 1.748-20.7 5.244-3.864 2.76-5.888 5.704-7.728 11.132l17.572 2.852c1.38-4.508 4.508-6.44 10.396-6.44 6.072 0 8.74 2.024 8.74 6.44v2.116zm0 14.352c0 2.76-1.196 5.244-3.312 7.084-2.484 2.116-6.624 3.496-10.396 3.496-4.784 0-7.544-1.932-7.544-5.244 0-2.668 2.024-4.968 5.336-6.072 3.772-1.196 7.728-1.656 15.916-1.84v2.576zm46.108 17.02l-1.932 3.956c-1.38 2.76-3.956 4.324-7.452 4.324-2.392 0-4.14-.46-7.176-2.024l-2.024 14.628c5.06 1.104 8.556 1.564 12.604 1.564 10.488 0 17.112-3.956 20.792-12.604l21.068-48.668c3.22-7.544 3.22-7.544 5.52-12.328h-19.964c-.552 3.22-1.38 5.888-3.956 12.236l-8.188 20.884-8.464-21.252c-1.932-4.968-3.128-8.924-3.588-11.868h-19.964c1.196 2.3 1.564 3.128 5.52 12.328l17.204 38.824z" fill="#fbfcfa"/><path d="M18.532 144.696c0 6.348-.184 9.384-.736 13.432 3.864-.184 6.44-.276 13.524-.276h19.412c10.948 0 19.688-3.128 25.852-9.2 6.992-6.992 10.672-17.112 10.672-29.716 0-12.236-3.404-21.896-10.12-28.52-6.164-5.98-15.272-9.108-26.588-9.108H31.32c-7.636 0-9.936-.092-13.616-.276.644 4.232.828 7.268.828 13.524v50.14zm18.216-2.944V97.408H48.8c6.624 0 11.04 1.472 14.26 4.692 3.588 3.588 5.336 9.292 5.336 17.112 0 7.636-2.024 13.8-5.796 17.664-3.312 3.312-7.544 4.876-13.524 4.876H36.748zm95.813-20.24c-6.624.184-9.384.276-12.972.644-8.28.736-14.444 2.668-19.136 5.98-4.416 3.036-6.716 7.636-6.716 13.432 0 5.06 1.748 9.476 5.06 12.512 3.68 3.404 8.924 5.06 15.916 5.06 7.544 0 12.696-1.564 17.848-5.52v4.232h17.848c-.46-4.14-.644-7.452-.644-13.064v-24.84c0-8.28-2.576-13.34-8.464-16.56-3.588-1.932-10.212-3.22-17.02-3.22-8.924 0-15.732 1.748-20.7 5.244-3.864 2.76-5.888 5.704-7.728 11.132l17.572 2.852c1.38-4.508 4.508-6.44 10.396-6.44 6.072 0 8.74 2.024 8.74 6.44v2.116zm0 14.352c0 2.76-1.196 5.244-3.312 7.084-2.484 2.116-6.624 3.496-10.396 3.496-4.784 0-7.544-1.932-7.544-5.244 0-2.668 2.024-4.968 5.336-6.072 3.772-1.196 7.728-1.656 15.916-1.84v2.576zm46.108 17.02l-1.932 3.956c-1.38 2.76-3.956 4.324-7.452 4.324-2.392 0-4.14-.46-7.176-2.024l-2.024 14.628c5.06 1.104 8.556 1.564 12.604 1.564 10.488 0 17.112-3.956 20.792-12.604l21.068-48.668c3.22-7.544 3.22-7.544 5.52-12.328h-19.964c-.552 3.22-1.38 5.888-3.956 12.236l-8.188 20.884-8.464-21.252c-1.932-4.968-3.128-8.924-3.588-11.868h-19.964c1.196 2.3 1.564 3.128 5.52 12.328l17.204 38.824z" fill="#f2f5ed"/><use xlink:href="#B" fill="#e6eae1"/><path d="M18.532 216.696c0 6.348-.184 9.384-.736 13.432 3.864-.184 6.44-.276 13.524-.276h19.412c10.948 0 19.688-3.128 25.852-9.2 6.992-6.992 10.672-17.112 10.672-29.716 0-12.236-3.404-21.896-10.12-28.52-6.164-5.98-15.272-9.108-26.588-9.108H31.32c-7.636 0-9.936-.092-13.616-.276.644 4.232.828 7.268.828 13.524v50.14zm18.216-2.944v-44.344H48.8c6.624 0 11.04 1.472 14.26 4.692 3.588 3.588 5.336 9.292 5.336 17.112 0 7.636-2.024 13.8-5.796 17.664-3.312 3.312-7.544 4.876-13.524 4.876H36.748zm95.813-20.24c-6.624.184-9.384.276-12.972.644-8.28.736-14.444 2.668-19.136 5.98-4.416 3.036-6.716 7.636-6.716 13.432 0 5.06 1.748 9.476 5.06 12.512 3.68 3.404 8.924 5.06 15.916 5.06 7.544 0 12.696-1.564 17.848-5.52v4.232h17.848c-.46-4.14-.644-7.452-.644-13.064v-24.84c0-8.28-2.576-13.34-8.464-16.56-3.588-1.932-10.212-3.22-17.02-3.22-8.924 0-15.732 1.748-20.7 5.244-3.864 2.76-5.888 5.704-7.728 11.132l17.572 2.852c1.38-4.508 4.508-6.44 10.396-6.44 6.072 0 8.74 2.024 8.74 6.44v2.116zm0 14.352c0 2.76-1.196 5.244-3.312 7.084-2.484 2.116-6.624 3.496-10.396 3.496-4.784 0-7.544-1.932-7.544-5.244 0-2.668 2.024-4.968 5.336-6.072 3.772-1.196 7.728-1.656 15.916-1.84v2.576zm46.108 17.02l-1.932 3.956c-1.38 2.76-3.956 4.324-7.452 4.324-2.392 0-4.14-.46-7.176-2.024l-2.024 14.628c5.06 1.104 8.556 1.564 12.604 1.564 10.488 0 17.112-3.956 20.792-12.604l21.068-48.668c3.22-7.544 3.22-7.544 5.52-12.328h-19.964c-.552 3.22-1.38 5.888-3.956 12.236l-8.188 20.884-8.464-21.252c-1.932-4.968-3.128-8.924-3.588-11.868h-19.964c1.196 2.3 1.564 3.128 5.52 12.328l17.204 38.824z" fill="#dbdcd7"/><path d="M18.532 252.696c0 6.348-.184 9.384-.736 13.432 3.864-.184 6.44-.276 13.524-.276h19.412c10.948 0 19.688-3.128 25.852-9.2 6.992-6.992 10.672-17.112 10.672-29.716 0-12.236-3.404-21.896-10.12-28.52-6.164-5.98-15.272-9.108-26.588-9.108H31.32c-7.636 0-9.936-.092-13.616-.276.644 4.232.828 7.268.828 13.524v50.14zm18.216-2.944v-44.344H48.8c6.624 0 11.04 1.472 14.26 4.692 3.588 3.588 5.336 9.292 5.336 17.112 0 7.636-2.024 13.8-5.796 17.664-3.312 3.312-7.544 4.876-13.524 4.876H36.748zm95.813-20.24c-6.624.184-9.384.276-12.972.644-8.28.736-14.444 2.668-19.136 5.98-4.416 3.036-6.716 7.636-6.716 13.432 0 5.06 1.748 9.476 5.06 12.512 3.68 3.404 8.924 5.06 15.916 5.06 7.544 0 12.696-1.564 17.848-5.52v4.232h17.848c-.46-4.14-.644-7.452-.644-13.064v-24.84c0-8.28-2.576-13.34-8.464-16.56-3.588-1.932-10.212-3.22-17.02-3.22-8.924 0-15.732 1.748-20.7 5.244-3.864 2.76-5.888 5.704-7.728 11.132l17.572 2.852c1.38-4.508 4.508-6.44 10.396-6.44 6.072 0 8.74 2.024 8.74 6.44v2.116zm0 14.352c0 2.76-1.196 5.244-3.312 7.084-2.484 2.116-6.624 3.496-10.396 3.496-4.784 0-7.544-1.932-7.544-5.244 0-2.668 2.024-4.968 5.336-6.072 3.772-1.196 7.728-1.656 15.916-1.84v2.576zm46.108 17.02l-1.932 3.956c-1.38 2.76-3.956 4.324-7.452 4.324-2.392 0-4.14-.46-7.176-2.024l-2.024 14.628c5.06 1.104 8.556 1.564 12.604 1.564 10.488 0 17.112-3.956 20.792-12.604l21.068-48.668c3.22-7.544 3.22-7.544 5.52-12.328h-19.964c-.552 3.22-1.38 5.888-3.956 12.236l-8.188 20.884-8.464-21.252c-1.932-4.968-3.128-8.924-3.588-11.868h-19.964c1.196 2.3 1.564 3.128 5.52 12.328l17.204 38.824z" fill="#c8c7bf"/><path d="M18.532 288.696c0 6.348-.184 9.384-.736 13.432 3.864-.184 6.44-.276 13.524-.276h19.412c10.948 0 19.688-3.128 25.852-9.2 6.992-6.992 10.672-17.112 10.672-29.716 0-12.236-3.404-21.896-10.12-28.52-6.164-5.98-15.272-9.108-26.588-9.108H31.32c-7.636 0-9.936-.092-13.616-.276.644 4.232.828 7.268.828 13.524v50.14zm18.216-2.944v-44.344H48.8c6.624 0 11.04 1.472 14.26 4.692 3.588 3.588 5.336 9.292 5.336 17.112 0 7.636-2.024 13.8-5.796 17.664-3.312 3.312-7.544 4.876-13.524 4.876H36.748zm95.813-20.24c-6.624.184-9.384.276-12.972.644-8.28.736-14.444 2.668-19.136 5.98-4.416 3.036-6.716 7.636-6.716 13.432 0 5.06 1.748 9.476 5.06 12.512 3.68 3.404 8.924 5.06 15.916 5.06 7.544 0 12.696-1.564 17.848-5.52v4.232h17.848c-.46-4.14-.644-7.452-.644-13.064v-24.84c0-8.28-2.576-13.34-8.464-16.56-3.588-1.932-10.212-3.22-17.02-3.22-8.924 0-15.732 1.748-20.7 5.244-3.864 2.76-5.888 5.704-7.728 11.132l17.572 2.852c1.38-4.508 4.508-6.44 10.396-6.44 6.072 0 8.74 2.024 8.74 6.44v2.116zm0 14.352c0 2.76-1.196 5.244-3.312 7.084-2.484 2.116-6.624 3.496-10.396 3.496-4.784 0-7.544-1.932-7.544-5.244 0-2.668 2.024-4.968 5.336-6.072 3.772-1.196 7.728-1.656 15.916-1.84v2.576zm46.108 17.02l-1.932 3.956c-1.38 2.76-3.956 4.324-7.452 4.324-2.392 0-4.14-.46-7.176-2.024l-2.024 14.628c5.06 1.104 8.556 1.564 12.604 1.564 10.488 0 17.112-3.956 20.792-12.604l21.068-48.668c3.22-7.544 3.22-7.544 5.52-12.328h-19.964c-.552 3.22-1.38 5.888-3.956 12.236l-8.188 20.884-8.464-21.252c-1.932-4.968-3.128-8.924-3.588-11.868h-19.964c1.196 2.3 1.564 3.128 5.52 12.328l17.204 38.824z" fill="#ababa4"/><path d="M18.532 324.696c0 6.348-.184 9.384-.736 13.432 3.864-.184 6.44-.276 13.524-.276h19.412c10.948 0 19.688-3.128 25.852-9.2 6.992-6.992 10.672-17.112 10.672-29.716 0-12.236-3.404-21.896-10.12-28.52-6.164-5.98-15.272-9.108-26.588-9.108H31.32c-7.636 0-9.936-.092-13.616-.276.644 4.232.828 7.268.828 13.524v50.14zm18.216-2.944v-44.344H48.8c6.624 0 11.04 1.472 14.26 4.692 3.588 3.588 5.336 9.292 5.336 17.112 0 7.636-2.024 13.8-5.796 17.664-3.312 3.312-7.544 4.876-13.524 4.876H36.748zm95.813-20.24c-6.624.184-9.384.276-12.972.644-8.28.736-14.444 2.668-19.136 5.98-4.416 3.036-6.716 7.636-6.716 13.432 0 5.06 1.748 9.476 5.06 12.512 3.68 3.404 8.924 5.06 15.916 5.06 7.544 0 12.696-1.564 17.848-5.52v4.232h17.848c-.46-4.14-.644-7.452-.644-13.064v-24.84c0-8.28-2.576-13.34-8.464-16.56-3.588-1.932-10.212-3.22-17.02-3.22-8.924 0-15.732 1.748-20.7 5.244-3.864 2.76-5.888 5.704-7.728 11.132l17.572 2.852c1.38-4.508 4.508-6.44 10.396-6.44 6.072 0 8.74 2.024 8.74 6.44v2.116zm0 14.352c0 2.76-1.196 5.244-3.312 7.084-2.484 2.116-6.624 3.496-10.396 3.496-4.784 0-7.544-1.932-7.544-5.244 0-2.668 2.024-4.968 5.336-6.072 3.772-1.196 7.728-1.656 15.916-1.84v2.576zm46.108 17.02l-1.932 3.956c-1.38 2.76-3.956 4.324-7.452 4.324-2.392 0-4.14-.46-7.176-2.024l-2.024 14.628c5.06 1.104 8.556 1.564 12.604 1.564 10.488 0 17.112-3.956 20.792-12.604l21.068-48.668c3.22-7.544 3.22-7.544 5.52-12.328h-19.964c-.552 3.22-1.38 5.888-3.956 12.236l-8.188 20.884-8.464-21.252c-1.932-4.968-3.128-8.924-3.588-11.868h-19.964c1.196 2.3 1.564 3.128 5.52 12.328l17.204 38.824z" fill="#818075"/><g fill="#444835"><path d="M18.532 360.696c0 6.348-.184 9.384-.736 13.432 3.864-.184 6.44-.276 13.524-.276h19.412c10.948 0 19.688-3.128 25.852-9.2 6.992-6.992 10.672-17.112 10.672-29.716 0-12.236-3.404-21.896-10.12-28.52-6.164-5.98-15.272-9.108-26.588-9.108H31.32c-7.636 0-9.936-.092-13.616-.276.644 4.232.828 7.268.828 13.524v50.14zm18.216-2.944v-44.344H48.8c6.624 0 11.04 1.472 14.26 4.692 3.588 3.588 5.336 9.292 5.336 17.112 0 7.636-2.024 13.8-5.796 17.664-3.312 3.312-7.544 4.876-13.524 4.876H36.748zm95.813-20.24c-6.624.184-9.384.276-12.972.644-8.28.736-14.444 2.668-19.136 5.98-4.416 3.036-6.716 7.636-6.716 13.432 0 5.06 1.748 9.476 5.06 12.512 3.68 3.404 8.924 5.06 15.916 5.06 7.544 0 12.696-1.564 17.848-5.52v4.232h17.848c-.46-4.14-.644-7.452-.644-13.064v-24.84c0-8.28-2.576-13.34-8.464-16.56-3.588-1.932-10.212-3.22-17.02-3.22-8.924 0-15.732 1.748-20.7 5.244-3.864 2.76-5.888 5.704-7.728 11.132l17.572 2.852c1.38-4.508 4.508-6.44 10.396-6.44 6.072 0 8.74 2.024 8.74 6.44v2.116zm0 14.352c0 2.76-1.196 5.244-3.312 7.084-2.484 2.116-6.624 3.496-10.396 3.496-4.784 0-7.544-1.932-7.544-5.244 0-2.668 2.024-4.968 5.336-6.072 3.772-1.196 7.728-1.656 15.916-1.84v2.576zm46.108 17.02l-1.932 3.956c-1.38 2.76-3.956 4.324-7.452 4.324-2.392 0-4.14-.46-7.176-2.024l-2.024 14.628c5.06 1.104 8.556 1.564 12.604 1.564 10.488 0 17.112-3.956 20.792-12.604l21.068-48.668c3.22-7.544 3.22-7.544 5.52-12.328h-19.964c-.552 3.22-1.38 5.888-3.956 12.236l-8.188 20.884-8.464-21.252c-1.932-4.968-3.128-8.924-3.588-11.868h-19.964c1.196 2.3 1.564 3.128 5.52 12.328l17.204 38.824zM227.6 344.8c5.2 12.2 8.6 17.6 15.4 23.8 11.8 10.4 27.2 15.6 46.2 15.6 9 0 18.8-1.6 26.8-4.2 14.2-4.6 27-16 34-30.4 7.4-15.2 11.4-34.8 11.4-56 0-22-4.4-41-12.6-54-12-19.2-32.2-29.6-57.6-29.6-39.6 0-66.8 24.2-66.8 59.6 0 33.6 23.4 55.4 59.4 55.4 17.6 0 29-4.2 39.8-14.4-1.2 13.6-3 20.8-6.8 27.2-5.4 9-14.4 14-25.6 14-8 0-14.4-2.6-18.8-7.4-2-2.2-3.2-4.2-4.8-8.6l-40 9zm63-51.4c-16.4 0-27.2-10.2-27.2-25.6 0-15.2 11.4-25.6 28-25.6s28.2 10.4 28.2 25.4c0 15.4-11.8 25.8-29 25.8z"/></g><path d="M364.072 20.576a9.67 9.67 0 0 1 .096 1.392v.864h-9.264c-.736 0-1.248-.032-1.808-.128v1.52c.592-.096 1.056-.128 1.808-.128h7.776c.864 0 1.68.048 2.656.144a9.11 9.11 0 0 1-.08-1.328v-1.008c0-.608.016-.912.08-1.328h-1.264zm-11.216 13.188c0 1.472.56 2.592 1.68 3.392.976.704 2.688 1.12 4.624 1.12 1.328 0 2.608-.208 3.712-.608.528-.192 1.024-.512 1.472-.96.752-.72 1.136-1.744 1.136-2.928 0-1.584-.672-2.816-1.968-3.584-.928-.56-2.656-.928-4.352-.928-1.312 0-2.576.208-3.696.608-.544.192-1.04.528-1.472.96-.752.752-1.136 1.744-1.136 2.928zm11.52 0c0 1.12-.496 1.984-1.456 2.512-.752.416-2.336.72-3.728.72-1.184 0-2.24-.16-3.232-.496a3.15 3.15 0 0 1-1.248-.752c-.496-.48-.752-1.168-.752-1.968 0-1.088.464-1.92 1.392-2.48.752-.432 2.32-.752 3.808-.752 1.168 0 2.256.16 3.232.496.4.128.8.384 1.168.72.544.512.816 1.168.816 2zm-11.52 10.516c0 1.472.56 2.592 1.68 3.392.976.704 2.688 1.12 4.624 1.12 1.328 0 2.608-.208 3.712-.608.528-.192 1.024-.512 1.472-.96.752-.72 1.136-1.744 1.136-2.928 0-1.584-.672-2.816-1.968-3.584-.928-.56-2.656-.928-4.352-.928-1.312 0-2.576.208-3.696.608-.544.192-1.04.528-1.472.96-.752.752-1.136 1.744-1.136 2.928zm11.52 0c0 1.12-.496 1.984-1.456 2.512-.752.416-2.336.72-3.728.72-1.184 0-2.24-.16-3.232-.496a3.15 3.15 0 0 1-1.248-.752c-.496-.48-.752-1.168-.752-1.968 0-1.088.464-1.92 1.392-2.48.752-.432 2.32-.752 3.808-.752 1.168 0 2.256.16 3.232.496.4.128.8.384 1.168.72.544.512.816 1.168.816 2zm-9.424 11.956c-.8 0-1.28-.032-1.904-.128l.048 1.76v2.704c0 1.6.48 2.928 1.424 3.888 1.072 1.104 2.736 1.712 4.736 1.712 3.824 0 6-2.032 6-5.6v-2.704l.048-1.76a11.52 11.52 0 0 1-1.824.128h-8.528zm-.736 1.248h9.92v3.12c0 1.312-.352 2.304-1.088 3.008-.848.848-2.128 1.264-3.792 1.264-1.648 0-3.008-.464-3.904-1.344-.768-.72-1.136-1.728-1.136-2.992v-3.056zm-1.12 16.349v1.296a10.23 10.23 0 0 1 1.76-.128h4.496c1.728 0 2.624-1.088 2.624-3.2 0-1.2-.304-2.16-.912-2.816-.352-.4-.688-.608-1.424-.896l-.272 1.248c.48.16.704.288.928.496.464.448.688 1.104.688 1.984 0 1.328-.56 2.016-1.648 2.016h-.928c-.048-1.968-.144-2.736-.416-3.68-.416-1.488-1.344-2.288-2.624-2.288-1.52 0-2.432 1.072-2.432 2.832 0 .544.112 1.12.32 1.664s.416.848.976 1.472h-1.136zm3.328 0c-.64 0-.976-.128-1.376-.496a3.62 3.62 0 0 1-1.136-2.56c0-1.04.56-1.696 1.44-1.696.768 0 1.312.4 1.648 1.216.304.72.416 1.632.464 3.536h-1.04zm-3.072 6.339l-1.76-.736c-.592-.256-.88-.64-.88-1.184 0-.304.064-.528.272-.976l-1.184-.336c-.128.608-.176.96-.176 1.312 0 1.136.464 1.84 1.488 2.256l8.736 3.584 1.872.784v-1.488c-.448-.064-.88-.208-1.696-.528l-5.376-2.064 5.376-2.32c.608-.256 1.248-.464 1.696-.544v-1.568c-.288.16-.288.16-1.872.88l-6.496 2.928zm2.08 5.563c-.656.16-.928.272-1.264.512-.816.592-1.248 1.712-1.248 3.168 0 2.192.992 3.552 2.592 3.552.656 0 1.264-.272 1.664-.768.368-.48.56-.992.912-2.544.208-.992.336-1.408.544-1.776.192-.352.512-.544.88-.544.848 0 1.44.832 1.44 2 0 .72-.208 1.296-.608 1.664-.224.224-.416.304-.848.4l.208 1.264c.736-.208 1.104-.432 1.456-.848.512-.576.768-1.424.768-2.512 0-1.072-.288-1.936-.832-2.496-.432-.448-.976-.688-1.552-.688-.704 0-1.296.304-1.68.864-.368.544-.56 1.088-.832 2.368-.24 1.184-.336 1.504-.576 1.888-.208.336-.544.496-.992.496-.944 0-1.536-.88-1.536-2.272 0-.816.192-1.456.56-1.856.288-.32.576-.448 1.168-.56l-.224-1.312zm-2.544 18.274c0 2.576 1.792 4.24 4.528 4.24 2.752 0 4.512-1.648 4.512-4.256s-1.76-4.272-4.528-4.272-4.512 1.664-4.512 4.288zm8.032.016c0 1.84-1.344 2.992-3.504 2.992s-3.488-1.152-3.488-3.024 1.328-3.04 3.504-3.04c2.16 0 3.488 1.168 3.488 3.072zm-.224 7.248h-5.792c-.672 0-1.216-.032-1.808-.112v1.44a11.93 11.93 0 0 1 1.792-.112h5.808v.8c0 .784-.016 1.152-.096 1.696h1.216c-.08-.592-.096-1.008-.096-1.696v-.8h.88c.752 0 1.088.064 1.344.24.288.208.432.576.432 1.088 0 .496-.112.896-.368 1.328l1.072.336c.224-.576.32-1.072.32-1.696 0-.896-.288-1.632-.784-2.016-.464-.368-.976-.496-1.952-.496h-.944v-.656c0-.64.032-1.024.096-1.456H360.6a10.43 10.43 0 0 1 .096 1.456v.656zm-5.744 11.072c-.8 0-1.28-.032-1.904-.128l.048 1.76v2.704c0 1.6.48 2.928 1.424 3.888 1.072 1.104 2.736 1.712 4.736 1.712 3.824 0 6-2.032 6-5.6v-2.704l.048-1.76a11.52 11.52 0 0 1-1.824.128h-8.528zm-.736 1.248h9.92v3.12c0 1.312-.352 2.304-1.088 3.008-.848.848-2.128 1.264-3.792 1.264-1.648 0-3.008-.464-3.904-1.344-.768-.72-1.136-1.728-1.136-2.992v-3.056zm3.008 18.205l1.232-.112c2.144-.32 3.472-1.808 3.472-3.872 0-2.4-1.792-3.968-4.528-3.968-2.768 0-4.528 1.584-4.528 4.096 0 1.168.384 2.144 1.12 2.896.368.368.656.576 1.328.88l.448-1.12c-1.232-.448-1.872-1.344-1.872-2.64 0-.96.384-1.744 1.088-2.256.576-.432 1.168-.592 2.24-.64v6.736zm1.008-6.688c.608.096.896.176 1.296.4.896.48 1.392 1.296 1.392 2.272 0 .768-.24 1.392-.72 1.888-.496.512-1.072.752-1.968.848v-5.408zm-2.8 8.079c-.656.16-.928.272-1.264.512-.816.592-1.248 1.712-1.248 3.168 0 2.192.992 3.552 2.592 3.552.656 0 1.264-.272 1.664-.768.368-.48.56-.992.912-2.544.208-.992.336-1.408.544-1.776.192-.352.512-.544.88-.544.848 0 1.44.832 1.44 2 0 .72-.208 1.296-.608 1.664-.224.224-.416.304-.848.4l.208 1.264c.736-.208 1.104-.432 1.456-.848.512-.576.768-1.424.768-2.512 0-1.072-.288-1.936-.832-2.496-.432-.448-.976-.688-1.552-.688-.704 0-1.296.304-1.68.864-.368.544-.56 1.088-.832 2.368-.24 1.184-.336 1.504-.576 1.888-.208.336-.544.496-.992.496-.944 0-1.536-.88-1.536-2.272 0-.816.192-1.456.56-1.856.288-.32.576-.448 1.168-.56l-.224-1.312zm9.824 9.041h-1.424v1.552h1.424v-1.552zm-3.536.048c-.56.08-1.04.112-1.808.112h-5.008c-.672 0-1.12-.032-1.808-.112v1.44c.624-.08 1.072-.112 1.808-.112h5.008a11.46 11.46 0 0 1 1.808.112v-1.44zm-10.464 3.749c-1.152 1.056-1.6 2.048-1.6 3.632 0 1.456.432 2.656 1.216 3.328.752.64 1.76.928 3.328.928h5.728a12.22 12.22 0 0 1 1.792.112v-1.28h-.912c-.208 0-.336.016-.608.032 1.12-.656 1.68-1.68 1.68-3.072 0-2.48-1.728-4.048-4.448-4.048-2.672 0-4.352 1.536-4.352 3.952 0 .976.288 1.872.832 2.48.24.272.448.448.88.688-1.328-.064-1.904-.128-2.368-.288-1.152-.416-1.76-1.392-1.76-2.784 0-.864.224-1.536.752-2.144.144-.192.256-.288.56-.512l-.72-1.024zm6.176.88c2.128 0 3.44 1.088 3.44 2.864 0 1.792-1.296 2.944-3.312 2.944-2.08 0-3.472-1.216-3.472-3.04 0-1.712 1.264-2.768 3.344-2.768zm-4.336 10.842c.624-.08 1.104-.112 1.808-.112h3.088c.64.128 1.04.32 1.584.736.864.672 1.264 1.392 1.264 2.288 0 1.264-.768 1.952-2.208 1.952h-3.728c-.704 0-1.184-.032-1.808-.112v1.44c.528-.08.976-.112 1.792-.112h3.952c.784 0 1.376-.144 1.84-.448.784-.512 1.2-1.408 1.2-2.56 0-1.44-.624-2.48-1.936-3.232.368.048.496.048.688.048h1.088v-1.328c-.64.096-1.088.128-1.808.128h-5.008c-.768 0-1.2-.032-1.808-.128v1.44z" fill="#0f699b"/></g><defs><clipPath id="A"><path fill="#fff" d="M0 0h375v400H0z"/></clipPath><path id="B" d="M18.532 180.696c0 6.348-.184 9.384-.736 13.432 3.864-.184 6.44-.276 13.524-.276h19.412c10.948 0 19.688-3.128 25.852-9.2 6.992-6.992 10.672-17.112 10.672-29.716 0-12.236-3.404-21.896-10.12-28.52-6.164-5.98-15.272-9.108-26.588-9.108H31.32c-7.636 0-9.936-.092-13.616-.276.644 4.232.828 7.268.828 13.524v50.14zm18.216-2.944v-44.344H48.8c6.624 0 11.04 1.472 14.26 4.692 3.588 3.588 5.336 9.292 5.336 17.112 0 7.636-2.024 13.8-5.796 17.664-3.312 3.312-7.544 4.876-13.524 4.876H36.748zm95.813-20.24c-6.624.184-9.384.276-12.972.644-8.28.736-14.444 2.668-19.136 5.98-4.416 3.036-6.716 7.636-6.716 13.432 0 5.06 1.748 9.476 5.06 12.512 3.68 3.404 8.924 5.06 15.916 5.06 7.544 0 12.696-1.564 17.848-5.52v4.232h17.848c-.46-4.14-.644-7.452-.644-13.064v-24.84c0-8.28-2.576-13.34-8.464-16.56-3.588-1.932-10.212-3.22-17.02-3.22-8.924 0-15.732 1.748-20.7 5.244-3.864 2.76-5.888 5.704-7.728 11.132l17.572 2.852c1.38-4.508 4.508-6.44 10.396-6.44 6.072 0 8.74 2.024 8.74 6.44v2.116zm0 14.352c0 2.76-1.196 5.244-3.312 7.084-2.484 2.116-6.624 3.496-10.396 3.496-4.784 0-7.544-1.932-7.544-5.244 0-2.668 2.024-4.968 5.336-6.072 3.772-1.196 7.728-1.656 15.916-1.84v2.576zm46.108 17.02l-1.932 3.956c-1.38 2.76-3.956 4.324-7.452 4.324-2.392 0-4.14-.46-7.176-2.024l-2.024 14.628c5.06 1.104 8.556 1.564 12.604 1.564 10.488 0 17.112-3.956 20.792-12.604l21.068-48.668c3.22-7.544 3.22-7.544 5.52-12.328h-19.964c-.552 3.22-1.38 5.888-3.956 12.236l-8.188 20.884-8.464-21.252c-1.932-4.968-3.128-8.924-3.588-11.868h-19.964c1.196 2.3 1.564 3.128 5.52 12.328l17.204 38.824z"/></defs></svg>