<svg xmlns="http://www.w3.org/2000/svg" width="375" height="400" fill="none" xmlns:v="https://vecta.io/nano"><g clip-path="url(#A)"><path fill="#fdfffa" d="M0 0h375v400H0z"/><path fill="#443038" d="M0 317h375v83H0z"/><path d="M0 0H375V400H0V0Z" fill="#fd7d94"/><g fill="#fffa98"><path d="M375 286c-16.5-61-64.5 44-95.5 28-37.24-19.22-20.5-142.5-53-142.5-46 0 12.197 200.6-97 198.5-78-1.5-119-229-129.5-56v86h375V286z"/><path d="M88.805 400c47.519-17.6-34.276-68.8-21.812-101.867C81.966 258.411 178 276.267 178 241.6c0-49.067-156.266 13.011-154.63-103.467C24.538 54.933 201.759 11.2 66.993 0H0v400h88.805z"/></g><path fill="#443038" d="M129.5 83.5h117v47h-117z"/><g fill="#fdfffa"><path d="M137.818 100h-2.957v-8.727h3.017c.866 0 1.611.175 2.233.524a3.5 3.5 0 0 1 1.44 1.496c.335.651.503 1.429.503 2.335s-.169 1.69-.507 2.344-.82 1.155-1.453 1.504-1.389.524-2.276.524zm-1.376-1.368h1.299c.608 0 1.116-.111 1.522-.332a2.13 2.13 0 0 0 .916-1.001c.205-.446.307-1.003.307-1.671s-.102-1.222-.307-1.662-.507-.774-.908-.993-.892-.332-1.483-.332h-1.346v5.991zm8.929 1.5c-.414 0-.788-.074-1.12-.222s-.591-.372-.784-.665-.286-.653-.286-1.082c0-.369.068-.675.205-.916a1.58 1.58 0 0 1 .558-.58c.236-.145.501-.254.797-.328a6.47 6.47 0 0 1 .924-.166l.934-.106c.238-.034.412-.085.52-.153s.166-.18.166-.328v-.025c0-.321-.095-.57-.286-.746s-.464-.264-.822-.264c-.378 0-.678.082-.899.247s-.367.359-.443.584l-1.441-.205c.114-.398.301-.73.563-.997a2.48 2.48 0 0 1 .958-.605 3.67 3.67 0 0 1 1.253-.205 4.07 4.07 0 0 1 .942.111 2.65 2.65 0 0 1 .857.367c.258.168.466.396.622.686s.238.652.238 1.087V100h-1.483v-.899h-.051a1.87 1.87 0 0 1-.396.511c-.17.159-.379.283-.635.379s-.55.141-.891.141zm.401-1.133c.31 0 .578-.061.805-.183s.402-.29.525-.494a1.26 1.26 0 0 0 .187-.669v-.771a.72.72 0 0 1-.247.111c-.116.034-.242.064-.384.09l-.421.068-.363.051c-.23.031-.436.082-.618.153a1.02 1.02 0 0 0-.43.298.73.73 0 0 0-.158.486c0 .284.104.499.311.643s.472.217.793.217zm5.331 3.456a3.05 3.05 0 0 1-.584-.052c-.176-.031-.317-.068-.422-.11l.358-1.202a2.07 2.07 0 0 0 .601.094.74.74 0 0 0 .465-.167c.136-.105.251-.281.345-.528l.132-.354-2.374-6.681h1.637l1.508 4.943h.068l1.513-4.943h1.641l-2.621 7.339c-.122.346-.284.643-.486.89s-.449.441-.741.571-.637.201-1.04.201zm11.949-2.336c-.568 0-1.077-.106-1.526-.319a2.69 2.69 0 0 1-1.069-.886 2.34 2.34 0 0 1-.418-1.287h1.534a1.21 1.21 0 0 0 .465.878c.281.224.619.337 1.014.337a1.6 1.6 0 0 0 .827-.213c.241-.142.431-.339.571-.592a1.72 1.72 0 0 0 .204-.865c.003-.33-.067-.622-.209-.878a1.56 1.56 0 0 0-.583-.601 1.63 1.63 0 0 0-.853-.222 2.03 2.03 0 0 0-.771.145 1.58 1.58 0 0 0-.601.392l-1.427-.234.455-4.5h5.063v1.321h-3.754l-.252 2.314h.051c.162-.19.391-.348.687-.473a2.47 2.47 0 0 1 .971-.192c.529 0 1 .125 1.415.375a2.67 2.67 0 0 1 .98 1.023c.239.435.358.932.358 1.491 0 .577-.134 1.091-.401 1.543a2.83 2.83 0 0 1-1.103 1.061c-.471.258-1.012.383-1.628.383zm-25.387 14.154V123h-.797v-7.892h-.051l-2.046 1.359v-.826l2.063-1.368h.831zm5.361 8.846c-.614 0-1.138-.176-1.573-.528s-.764-.868-.997-1.538-.345-1.476-.345-2.417.115-1.74.345-2.407.567-1.184 1.001-1.539a2.4 2.4 0 0 1 1.569-.537c.608 0 1.129.179 1.563.537s.772.868 1.002 1.539.349 1.47.349 2.407-.116 1.746-.349 2.417-.563 1.183-.997 1.538-.955.528-1.568.528zm0-.716c.673 0 1.198-.328 1.576-.984s.567-1.587.567-2.783c0-.795-.087-1.474-.26-2.037s-.416-.997-.737-1.295a1.62 1.62 0 0 0-1.146-.447c-.668 0-1.192.332-1.573.997s-.571 1.589-.571 2.782c0 .796.085 1.475.256 2.037s.419.992.737 1.287.705.443 1.151.443zm7.359.716c-.614 0-1.138-.176-1.573-.528s-.764-.868-.997-1.538-.345-1.476-.345-2.417.115-1.74.345-2.407.567-1.184 1.002-1.539.96-.537 1.568-.537 1.129.179 1.564.537.771.868 1.001 1.539.35 1.47.35 2.407-.117 1.746-.35 2.417-.562 1.183-.997 1.538-.954.528-1.568.528zm0-.716c.673 0 1.199-.328 1.577-.984s.566-1.587.566-2.783c0-.795-.086-1.474-.26-2.037s-.416-.997-.737-1.295a1.62 1.62 0 0 0-1.146-.447c-.668 0-1.192.332-1.573.997s-.571 1.589-.571 2.782c0 .796.086 1.475.256 2.037s.419.992.737 1.287.705.443 1.151.443zm10.768.597h-2.556v-8.727h2.71c.832 0 1.544.173 2.135.52a3.42 3.42 0 0 1 1.363 1.491c.315.648.473 1.425.473 2.331 0 .915-.162 1.7-.485 2.357a3.42 3.42 0 0 1-1.407 1.504c-.613.349-1.358.524-2.233.524zm-1.76-.716h1.714c.75 0 1.377-.148 1.883-.443a2.77 2.77 0 0 0 1.138-1.266c.253-.548.379-1.201.379-1.96-.003-.753-.128-1.401-.375-1.943a2.71 2.71 0 0 0-1.091-1.249c-.48-.289-1.074-.434-1.781-.434h-1.867v7.295zm9.487.865a2.52 2.52 0 0 1-1.082-.23c-.327-.156-.587-.381-.78-.673s-.29-.654-.29-1.074c0-.324.061-.597.184-.818a1.49 1.49 0 0 1 .519-.546c.225-.142.491-.254.797-.336a7.25 7.25 0 0 1 1.015-.192l.929-.119c.255-.035.45-.089.583-.162s.201-.194.201-.358v-.154c0-.446-.134-.797-.401-1.052s-.645-.388-1.142-.388c-.472 0-.857.104-1.155.311s-.503.452-.622.733l-.72-.26a2.13 2.13 0 0 1 .613-.857c.262-.215.554-.37.878-.464a3.52 3.52 0 0 1 .985-.145 3.33 3.33 0 0 1 .78.098c.272.065.525.179.758.341s.422.382.567.669.217.645.217 1.082V123h-.758v-1.036h-.047c-.091.194-.226.381-.405.563s-.404.331-.673.447-.587.175-.951.175zm.103-.694c.403 0 .752-.09 1.048-.269a1.84 1.84 0 0 0 .682-.712c.162-.298.243-.626.243-.984v-.946a.76.76 0 0 1-.286.145 3.87 3.87 0 0 1-.456.115l-.511.081-.46.06c-.37.045-.685.116-.946.213s-.462.23-.601.4-.209.384-.209.648c0 .398.142.706.426.925s.641.324 1.07.324zm5.043 3a2.01 2.01 0 0 1-.422-.043 1.63 1.63 0 0 1-.311-.094l.205-.669c.258.08.488.108.69.085a.86.86 0 0 0 .537-.272c.156-.162.295-.404.417-.733l.239-.665-2.408-6.609h.823l1.943 5.544h.06l1.943-5.544h.822l-2.77 7.581a2.76 2.76 0 0 1-.43.788 1.61 1.61 0 0 1-.592.473c-.222.105-.471.158-.746.158zm10.42-7.564l-.695.196a1.82 1.82 0 0 0-.289-.533c-.125-.159-.289-.286-.49-.379s-.446-.141-.742-.141c-.443 0-.807.105-1.091.315a.97.97 0 0 0-.426.814c0 .282.097.51.29.686s.497.312.903.414l.989.243c.548.133.959.345 1.231.635s.414.653.414 1.091a1.65 1.65 0 0 1-.307.984c-.205.287-.49.513-.857.677s-.785.243-1.265.243c-.639 0-1.166-.143-1.581-.43s-.681-.707-.797-1.253l.729-.179c.093.389.277.683.549.882s.638.299 1.087.299c.503 0 .905-.113 1.206-.337s.452-.511.452-.852c0-.265-.088-.486-.265-.665s-.443-.315-.801-.401l-1.069-.255c-.568-.137-.989-.353-1.262-.648s-.409-.662-.409-1.1c0-.36.098-.677.294-.95s.466-.491.81-.648.736-.234 1.176-.234c.6 0 1.078.136 1.436.409a2.27 2.27 0 0 1 .78 1.117zm7.674 5.245c-.566 0-1.066-.143-1.5-.43s-.77-.683-1.015-1.189-.366-1.095-.366-1.76.122-1.26.366-1.768a2.88 2.88 0 0 1 1.015-1.194c.434-.286.934-.43 1.5-.43s1.064.144 1.495.43.77.685 1.015 1.194.37 1.098.37 1.768-.122 1.252-.366 1.76-.584.902-1.019 1.189-.93.43-1.495.43zm0-.694c.454 0 .839-.122 1.155-.367a2.26 2.26 0 0 0 .715-.976c.165-.406.248-.853.248-1.342s-.083-.937-.248-1.346-.4-.738-.715-.985-.701-.371-1.155-.371-.837.124-1.155.371a2.29 2.29 0 0 0-.72.985 3.62 3.62 0 0 0-.243 1.346c0 .489.081.936.243 1.342s.405.732.72.976.7.367 1.155.367zm7.239-5.987v.66h-3.218v-.66h3.218zM197.147 123v-7.504c0-.353.081-.649.243-.891s.379-.425.643-.55a1.94 1.94 0 0 1 .84-.187c.199 0 .364.017.494.051a2.2 2.2 0 0 1 .316.094l-.222.665-.209-.06a1.18 1.18 0 0 0-.311-.034c-.329 0-.584.092-.763.277s-.268.449-.268.792l-.004 7.347h-.759zm9.815 0h-2.557v-8.727h2.71c.833 0 1.544.173 2.135.52a3.42 3.42 0 0 1 1.364 1.491c.315.648.473 1.425.473 2.331 0 .915-.162 1.7-.486 2.357a3.42 3.42 0 0 1-1.406 1.504c-.616.35-1.358.524-2.233.524zm-1.76-.716h1.713c.75 0 1.378-.148 1.884-.443s.885-.717 1.137-1.266.38-1.201.38-1.96c-.003-.753-.128-1.401-.375-1.943s-.608-.959-1.091-1.249-1.074-.434-1.781-.434h-1.867v7.295zm10.305.852c-.611 0-1.139-.142-1.585-.426a2.86 2.86 0 0 1-1.036-1.189c-.241-.508-.362-1.093-.362-1.755s.121-1.245.362-1.756.581-.916 1.01-1.206.931-.439 1.496-.439c.355 0 .697.065 1.027.196s.625.325.886.592.473.598.627 1.002.23.875.23 1.423v.375h-5.114v-.669h4.338c0-.42-.085-.798-.255-1.133a2.03 2.03 0 0 0-.703-.802 1.85 1.85 0 0 0-1.036-.294c-.415 0-.78.111-1.095.333a2.28 2.28 0 0 0-.742.878c-.176.363-.265.761-.268 1.193v.4c0 .52.089.975.268 1.364a2.1 2.1 0 0 0 .772.899c.332.213.726.32 1.18.32.31 0 .581-.049.814-.145a1.76 1.76 0 0 0 .592-.388c.159-.162.284-.345.367-.541l.72.234c-.099.276-.263.53-.49.763s-.506.421-.844.563-.721.208-1.159.208zm8.724-5.245l-.694.196c-.069-.196-.165-.374-.29-.533s-.289-.286-.49-.379-.446-.141-.742-.141c-.443 0-.807.105-1.091.315a.97.97 0 0 0-.426.814c0 .282.097.51.29.686s.497.312.903.414l.989.243c.548.133.959.345 1.232.635a1.52 1.52 0 0 1 .413 1.091 1.65 1.65 0 0 1-.307.984 2.05 2.05 0 0 1-.856.677c-.364.162-.786.243-1.266.243-.639 0-1.166-.143-1.581-.43s-.68-.707-.797-1.253l.729-.179c.094.389.277.683.55.882s.637.299 1.086.299c.503 0 .905-.113 1.206-.337s.452-.511.452-.852a.91.91 0 0 0-.264-.665c-.177-.182-.444-.315-.802-.401l-1.069-.255c-.568-.137-.989-.353-1.261-.648a1.56 1.56 0 0 1-.41-1.1c0-.36.098-.677.294-.95s.466-.491.81-.648.736-.234 1.176-.234c.6 0 1.078.136 1.436.409a2.27 2.27 0 0 1 .78 1.117zm1.763 5.109v-6.545h.763V123h-.763zm.388-7.67a.56.56 0 0 1-.4-.158.52.52 0 0 1-.167-.388.51.51 0 0 1 .167-.383.55.55 0 0 1 .4-.162c.156 0 .29.054.401.162a.51.51 0 0 1 .166.383c0 .151-.056.28-.166.388a.55.55 0 0 1-.401.158zm4.878 10.261a3.56 3.56 0 0 1-1.172-.175c-.335-.113-.617-.27-.848-.469a2.23 2.23 0 0 1-.537-.669l.623-.409c.093.165.218.327.375.486a1.88 1.88 0 0 0 .618.396c.255.106.569.158.941.158.58 0 1.047-.145 1.402-.435s.537-.74.537-1.35v-1.475h-.068a2.57 2.57 0 0 1-.379.597 1.96 1.96 0 0 1-.648.49c-.264.13-.592.196-.984.196-.523 0-.988-.129-1.394-.388s-.721-.628-.954-1.108-.346-1.058-.346-1.726c0-.662.113-1.244.337-1.747a2.76 2.76 0 0 1 .95-1.176c.406-.281.88-.422 1.419-.422.401 0 .733.071.998.213s.475.313.635.52a3.18 3.18 0 0 1 .379.605h.077v-1.248h.741v6.715c0 .554-.118 1.01-.354 1.368a2.09 2.09 0 0 1-.963.793c-.406.173-.868.26-1.385.26zm-.051-3.354c.421 0 .78-.101 1.078-.302s.527-.498.686-.878.239-.834.239-1.36c0-.511-.078-.964-.234-1.359s-.384-.71-.682-.937-.658-.346-1.087-.346c-.437 0-.807.118-1.108.354s-.528.554-.682.955-.23.842-.23 1.333c0 .5.078.942.235 1.326s.385.679.686.895.667.319 1.099.319zm5.52-3.328V123h-.759v-6.545h.737v1.027h.069a1.83 1.83 0 0 1 .715-.806c.327-.204.731-.307 1.211-.307.44 0 .826.093 1.159.277a1.88 1.88 0 0 1 .78.806c.187.355.281.791.281 1.308V123h-.759v-4.193c0-.537-.15-.962-.451-1.274s-.699-.469-1.202-.469c-.344 0-.649.074-.916.222s-.479.36-.635.639-.23.603-.23.984z"/></g><g stroke="#443038"><path d="M129.5 83.5h117v47h-117z"/><path d="M126.5 80.5h123v53h-123z"/></g><path d="M0 0h375v49c.019-37.774-35.378 148.423-32.162-23.5.302-23.535-6.794.199-12.838 23.5-8.209 26.633-20.876 4.244-30.725-9-7.268-9.774-13.001-14.566-14.275 9-3 55.5-2.5 103.5-142.5 0S70.93 69.475 0 49V0z" fill="#fdfffa"/></g><defs><clipPath id="A"><path fill="#fff" d="M0 0h375v400H0z"/></clipPath></defs></svg>