<svg xmlns="http://www.w3.org/2000/svg" width="375" height="400" fill="none" xmlns:v="https://vecta.io/nano"><mask id="A" fill="#fff"><path d="M0 0H375V400H0V0Z"/></mask><path d="M0 0H375V400H0V0Z" fill="#fdfffa"/><rect x="78" y="130" width="258" height="163" rx="1" fill="#0f699b"/><path d="M255.438 286c-.05 0-.085-.017-.106-.051s-.031-.086-.031-.156v-.086c0-.073.01-.125.031-.156s.056-.051.106-.051h1.207v-3.746l-1.227.211c-.044 0-.079-.039-.106-.117a.87.87 0 0 1-.035-.239c0-.036.011-.063.032-.082s.053-.036.097-.047l1.606-.359c.054 0 .104.016.148.047s.07.062.07.102v4.23h1.028c.094 0 .14.069.14.207v.086c0 .138-.046.207-.14.207h-2.82zm5.848.039a1.29 1.29 0 0 1-.793-.266c-.237-.177-.427-.45-.57-.82s-.211-.832-.211-1.387.071-1.013.211-1.382.333-.644.57-.821.502-.269.793-.269a1.3 1.3 0 0 1 .797.269c.242.177.435.451.578.821s.215.83.215 1.382-.071 1.017-.215 1.387-.336.643-.578.82a1.3 1.3 0 0 1-.797.266zm0-.5c.18 0 .344-.066.493-.199s.273-.347.367-.641.14-.672.14-1.133-.046-.834-.14-1.128-.216-.508-.367-.641-.313-.203-.493-.203a.73.73 0 0 0-.492.199c-.148.133-.268.348-.359.645s-.137.67-.137 1.128.046.839.137 1.133.211.508.359.641a.73.73 0 0 0 .492.199zm4.439.5c-.292 0-.556-.088-.793-.266s-.427-.45-.57-.82-.211-.832-.211-1.387.07-1.013.211-1.382.333-.644.57-.821.501-.269.793-.269a1.3 1.3 0 0 1 .797.269c.242.177.435.451.578.821s.215.83.215 1.382-.072 1.017-.215 1.387-.336.643-.578.82-.505.266-.797.266zm0-.5c.18 0 .344-.066.492-.199s.274-.347.368-.641.14-.672.14-1.133-.047-.834-.14-1.128-.217-.508-.368-.641a.71.71 0 0 0-.492-.203.73.73 0 0 0-.492.199c-.148.133-.268.348-.359.645s-.137.67-.137 1.128.045.839.137 1.133.211.508.359.641a.73.73 0 0 0 .492.199zm5.866.461c-.073 0-.126-.017-.16-.051s-.051-.086-.051-.156v-4.445c0-.073.017-.125.051-.157s.087-.05.16-.05h1.402c.651 0 1.172.192 1.563.578s.586 1.001.586 1.847c0 .852-.196 1.47-.586 1.856s-.912.578-1.563.578h-1.402zm1.355-.527c.469 0 .847-.153 1.133-.457s.43-.791.43-1.45c0-.442-.068-.804-.203-1.086s-.321-.489-.555-.617-.503-.195-.805-.195h-.953v3.805h.953zm4.838.566c-.355 0-.641-.087-.86-.262s-.328-.433-.328-.777c0-.362.111-.634.332-.816s.491-.304.809-.356a7.82 7.82 0 0 1 1.164-.094v-.328c0-.174-.06-.314-.18-.418s-.311-.16-.582-.16c-.206 0-.387.025-.543.074a2.83 2.83 0 0 0-.433.172c-.058.029-.093.043-.106.043-.031 0-.066-.022-.105-.066s-.069-.099-.098-.156-.039-.099-.039-.125c0-.06.061-.125.183-.196s.288-.129.489-.176a2.8 2.8 0 0 1 .629-.07c.435 0 .772.095 1.011.285s.36.457.36.801v1.559c0 .302.013.52.039.656l.043.219c0 .057-.045.099-.133.125s-.167.035-.242.035c-.063 0-.11-.035-.141-.106s-.057-.172-.086-.304l-.015-.078c-.144.158-.313.285-.508.378s-.413.141-.66.141zm.031-.504c.229 0 .424-.042.586-.125s.328-.202.5-.355v-.821l-.848.043c-.221.026-.415.093-.582.2s-.25.266-.25.488c0 .185.05.327.149.426s.25.144.445.144zm3.923 1.91c-.151 0-.227-.037-.227-.113 0-.018.011-.056.032-.113l.582-1.414-1.215-3.243-.012-.042c-.005-.021-.008-.037-.008-.047 0-.037.025-.065.075-.086s.125-.032.226-.032h.055c.156 0 .248.037.277.11l.707 1.883c.063.164.137.397.223.699h.012l.082-.258.066-.199.086-.242.691-1.883c.024-.073.119-.11.285-.11h.024c.182 0 .273.04.273.118a.38.38 0 0 1-.019.093l-1.781 4.735c-.042.096-.151.144-.329.144h-.105zm4.439-1.379a1.92 1.92 0 0 1-.547-.074c-.169-.049-.305-.109-.406-.18s-.149-.136-.149-.191c0-.026.013-.068.039-.125s.061-.108.098-.152.074-.071.105-.071c.008 0 .032.013.071.039.104.068.213.126.328.172s.256.071.418.071c.453 0 .679-.188.679-.563a.51.51 0 0 0-.066-.269c-.042-.073-.113-.137-.215-.192s-.235-.112-.41-.164c-.25-.073-.445-.156-.586-.25s-.236-.203-.293-.328-.086-.281-.086-.461a.95.95 0 0 1 .145-.519 1 1 0 0 1 .41-.36 1.35 1.35 0 0 1 .598-.129 2.26 2.26 0 0 1 .441.043c.143.029.258.067.344.114s.133.091.133.14c0 .037-.014.086-.04.149s-.053.113-.089.16-.069.066-.098.066a.63.63 0 0 1-.098-.047 1.07 1.07 0 0 0-.23-.09c-.091-.028-.193-.043-.305-.043-.177 0-.324.041-.441.122s-.172.183-.172.316c0 .156.042.281.125.375s.221.171.414.23c.297.092.523.183.68.274s.267.203.332.336.101.302.101.515c0 .204-.054.388-.164.555s-.258.294-.445.391a1.37 1.37 0 0 1-.621.14zm9.015-.027c-.523 0-.923-.156-1.199-.469s-.41-.772-.41-1.371.139-1.06.418-1.383.676-.488 1.191-.488.901.162 1.172.484.406.783.406 1.387-.134 1.059-.402 1.371-.658.469-1.176.469zm-.019-.5c.338 0 .588-.109.75-.328s.242-.563.242-1.023-.081-.806-.242-1.028-.412-.332-.75-.332-.584.111-.743.332-.238.561-.238 1.028.078.804.235 1.023.407.328.746.328zm3.727.473c-.096 0-.166-.012-.21-.035s-.067-.066-.067-.118v-2.992h-.277c-.094 0-.141-.069-.141-.207v-.086c0-.138.047-.207.141-.207h.277v-.66c0-.365.09-.615.27-.75s.39-.207.625-.207c.338 0 .507.07.507.211a.58.58 0 0 1-.019.117c-.01.052-.027.099-.051.141s-.045.062-.074.062c-.016 0-.048-.005-.098-.015a.98.98 0 0 0-.203-.016c-.078 0-.144.012-.199.035s-.095.073-.129.149-.047.184-.047.328v.605h.606c.049 0 .084.017.105.051s.035.083.035.156v.086c0 .073-.011.126-.035.16s-.056.047-.105.047h-.606v2.992c0 .052-.022.092-.066.118s-.114.035-.207.035h-.032zm5.226-.012c-.073 0-.127-.017-.161-.051s-.05-.086-.05-.156v-4.445c0-.073.017-.125.05-.157s.088-.05.161-.05h1.402c.651 0 1.172.192 1.562.578s.586 1.001.586 1.847c0 .852-.195 1.47-.586 1.856s-.911.578-1.562.578h-1.402zm1.355-.527c.469 0 .846-.153 1.133-.457s.43-.791.43-1.45c0-.442-.068-.804-.204-1.086s-.32-.489-.554-.617-.503-.195-.805-.195h-.953v3.805h.953zm5.396.566c-.576 0-1.004-.15-1.285-.449s-.418-.763-.418-1.383.136-1.081.41-1.398.676-.481 1.207-.481c.474 0 .831.154 1.07.461s.364.758.364 1.352c0 .026-.015.062-.043.109s-.059.085-.098.121-.068.051-.094.051h-2.191c.028.388.127.672.297.851s.429.266.773.266c.193 0 .358-.023.496-.07s.276-.104.406-.172a.73.73 0 0 0 .059-.027c.026-.013.044-.02.055-.02.028 0 .061.023.097.07s.072.095.098.153.043.095.043.121c0 .057-.057.121-.172.191s-.268.13-.461.18-.394.074-.613.074zm.726-2.117c0-.729-.277-1.094-.832-1.094-.596 0-.92.365-.972 1.094h1.804zm3.006 2.144a1.92 1.92 0 0 1-.547-.074c-.17-.049-.305-.109-.407-.18s-.148-.136-.148-.191c0-.026.013-.068.039-.125s.061-.108.098-.152.074-.071.105-.071c.008 0 .031.013.071.039.104.068.213.126.328.172s.256.071.418.071c.453 0 .679-.188.679-.563a.51.51 0 0 0-.066-.269c-.042-.073-.113-.137-.215-.192a1.98 1.98 0 0 0-.41-.164c-.25-.073-.445-.156-.586-.25s-.236-.203-.293-.328-.086-.281-.086-.461a.95.95 0 0 1 .145-.519 1 1 0 0 1 .41-.36c.177-.086.376-.129.597-.129a2.26 2.26 0 0 1 .442.043c.143.029.258.067.344.114s.132.091.132.14a.42.42 0 0 1-.039.149.61.61 0 0 1-.09.16c-.036.044-.069.066-.097.066a.63.63 0 0 1-.098-.047c-.06-.034-.137-.063-.23-.09s-.193-.043-.305-.043c-.177 0-.324.041-.441.122s-.172.183-.172.316c0 .156.041.281.125.375s.221.171.414.23c.297.092.523.183.679.274s.267.203.332.336.102.302.102.515a.99.99 0 0 1-.164.555c-.109.164-.258.294-.445.391a1.37 1.37 0 0 1-.621.14zm3.122-4.574c-.185 0-.277-.051-.277-.152v-.41c0-.102.092-.153.277-.153h.082c.187 0 .281.051.281.153v.41c0 .101-.094.152-.281.152h-.082zm.027 4.52c-.185 0-.277-.051-.277-.153v-3.351c0-.102.092-.153.277-.153h.028c.187 0 .281.051.281.153v3.351c0 .102-.094.153-.281.153h-.028zm3.412 1.461c-.443 0-.793-.069-1.051-.207a.69.69 0 0 1-.387-.653c0-.203.059-.38.176-.531s.269-.264.457-.34l.008-.015c-.091-.071-.162-.151-.211-.243s-.07-.199-.07-.324c0-.302.13-.544.39-.726-.195-.094-.344-.226-.445-.395a1.11 1.11 0 0 1-.152-.578c0-.214.052-.406.156-.578a1.09 1.09 0 0 1 .469-.406c.205-.099.453-.149.742-.149a1.95 1.95 0 0 1 .41.039h1.262c.049 0 .084.017.105.051s.035.083.035.156v.086c0 .073-.012.126-.035.16s-.056.047-.105.047a5.6 5.6 0 0 1-.485-.019l-.008.011a.86.86 0 0 1 .133.282c.031.101.047.208.047.32 0 .213-.053.406-.16.578s-.259.307-.465.406a1.68 1.68 0 0 1-.742.149c-.219.008-.384.048-.496.121s-.164.193-.164.359c0 .123.039.216.117.281s.181.111.301.137.286.051.5.074l.203.024a2.9 2.9 0 0 1 .543.117c.146.05.265.132.359.246s.145.272.145.473a.87.87 0 0 1-.403.773c-.268.183-.661.274-1.179.274zm.074-3.34c.255 0 .458-.052.609-.156s.227-.275.227-.512c0-.448-.279-.672-.836-.672-.55 0-.824.224-.824.672 0 .237.074.407.222.512s.352.156.602.156zm0 2.867c.323 0 .562-.043.719-.129s.234-.211.234-.383c0-.112-.042-.199-.125-.261s-.186-.103-.309-.129a5.43 5.43 0 0 0-.476-.067l-.336-.043c-.086-.013-.165-.031-.238-.054-.308.13-.461.319-.461.566 0 .333.33.5.992.5zm3.564-.988c-.099 0-.171-.012-.215-.035a.13.13 0 0 1-.067-.118v-2.437c0-.302-.014-.52-.043-.652l-.043-.223c0-.057.043-.098.129-.121a.89.89 0 0 1 .25-.039c.065 0 .114.035.145.105s.053.142.066.215l.032.141c.145-.164.313-.292.503-.383s.387-.137.582-.137c.355 0 .631.1.829.301s.3.471.3.82v2.41c0 .052-.022.092-.066.118s-.115.035-.211.035h-.031c-.094 0-.163-.012-.207-.035a.13.13 0 0 1-.067-.118v-2.351c0-.214-.062-.379-.187-.496s-.296-.18-.52-.18a.96.96 0 0 0-.472.133c-.157.086-.292.204-.407.355v2.539c0 .052-.022.092-.066.118s-.113.035-.207.035h-.027z" fill="#fdfffa"/><rect x="78" y="70" width="258.001" height="163.011" rx="1" fill="#2d2910"/><rect x="86.746" y="75.14" width="240.51" height="152.731" rx="1" fill="#444835"/><rect x="95.492" y="81.015" width="223.018" height="140.982" rx="1" fill="#818075"/><rect x="103.144" y="86.889" width="207.713" height="129.968" rx="1" fill="#ababa4"/><rect x="111.89" y="92.028" width="190.221" height="119.688" rx="1" fill="#c8c7bf"/><rect x="120.636" y="97.168" width="172.73" height="109.408" rx="1" fill="#dbdcd7"/><rect x="129.381" y="102.308" width="155.238" height="98.394" rx="1" fill="#e6eae1"/><rect x="138.127" y="108.183" width="137.746" height="87.38" rx="1" fill="#f2f5ed"/><rect x="146.874" y="114.057" width="120.255" height="75.631" rx="1" fill="#fbfcfa"/><rect x="179.67" y="134.617" width="54.661" height="33.777" rx="1" fill="#0f699b"/><path d="M193.214 155c-.1 0-.174-.023-.22-.07s-.07-.118-.07-.215v-6.112c0-.1.023-.172.07-.215s.12-.07.22-.07h1.928c.895 0 1.611.265 2.149.795s.805 1.377.805 2.541c0 1.171-.268 2.021-.805 2.551s-1.254.795-2.149.795h-1.928zm1.864-.725c.644 0 1.163-.21 1.557-.629s.591-1.086.591-1.992c0-.609-.093-1.107-.279-1.493s-.441-.674-.763-.849-.691-.269-1.106-.269h-1.311v5.232h1.311zm5.716.779c-.487 0-.881-.12-1.182-.36s-.451-.596-.451-1.069c0-.498.152-.872.456-1.123s.675-.417 1.112-.488c.441-.076.974-.118 1.601-.129v-.451c0-.24-.082-.432-.247-.575s-.428-.22-.8-.22a2.48 2.48 0 0 0-.747.102c-.211.064-.41.143-.596.236-.079.039-.127.059-.145.059-.043 0-.092-.03-.145-.091s-.095-.136-.135-.215a.5.5 0 0 1-.053-.172c0-.082.084-.172.252-.268s.396-.178.672-.242a3.75 3.75 0 0 1 .864-.097c.598 0 1.062.131 1.391.392s.495.629.495 1.101v2.143c0 .416.017.717.053.903l.059.301c0 .078-.061.136-.182.171s-.229.049-.333.049c-.086 0-.151-.049-.194-.145s-.078-.237-.118-.419l-.021-.108a2.22 2.22 0 0 1-.699.521c-.264.129-.567.194-.907.194zm.043-.693c.315 0 .583-.057.805-.172s.452-.278.688-.489v-1.128l-1.166.059c-.304.036-.571.127-.8.274s-.344.367-.344.672c0 .254.068.449.204.585s.344.199.613.199zm4.459 2.626c-.208 0-.311-.052-.311-.155a.61.61 0 0 1 .042-.156l.801-1.945-1.671-4.458c-.003-.014-.009-.034-.016-.059s-.01-.05-.01-.064c0-.05.034-.09.102-.118s.171-.043.311-.043h.075c.215 0 .342.05.382.15l.972 2.589a12.38 12.38 0 0 1 .306.961h.016l.113-.354.091-.274.118-.333.951-2.589c.032-.1.163-.15.392-.15h.032c.251 0 .376.053.376.161a.54.54 0 0 1-.027.129l-2.449 6.51c-.057.132-.207.198-.451.198h-.145zm6.271-1.987c-.068 0-.117-.023-.145-.07s-.043-.118-.043-.215v-.118c0-.1.014-.172.043-.215s.077-.07.145-.07h1.659v-5.15l-1.686.29c-.061 0-.109-.054-.145-.161s-.049-.221-.049-.328c0-.05.015-.088.043-.113s.074-.05.135-.064l2.207-.494c.075 0 .143.021.204.064s.097.086.097.14v5.816h1.413c.129 0 .193.095.193.285v.118c0 .19-.064.285-.193.285h-3.878zm5.243 0c-.054 0-.098-.045-.134-.134a.76.76 0 0 1-.054-.285c0-.089.013-.145.038-.166l2.46-3.089.435-.618c.093-.153.152-.282.177-.386s.038-.231.038-.382c0-.308-.108-.551-.323-.73s-.501-.269-.87-.269c-.265 0-.49.036-.677.108s-.365.163-.537.274c-.107.071-.179.107-.214.107s-.074-.028-.124-.086a1.18 1.18 0 0 1-.134-.204c-.036-.079-.054-.141-.054-.188 0-.125.098-.24.295-.344s.434-.193.709-.257.516-.097.72-.097c.412 0 .77.066 1.074.199s.545.32.709.564c.169.243.253.531.253.864 0 .315-.049.593-.145.833s-.28.532-.548.886l-1.499 1.869-.698.854h2.75c.068 0 .117.022.145.065s.048.116.048.22v.107c0 .097-.016.169-.048.215s-.077.07-.145.07h-3.647z" fill="#fdfffa"/><path d="M0 0v-10h-38V0H0zm375 0h4v-10h-4V0zm0 400v37h4v-37h-4zM0 400h-38v37H0v-37zM0 10h375v-20H0v20zM371 0v400h8V0h-8zm4 363H0v74h375v-74zM38 400V0h-76v400h76z" fill="#444835" mask="url(#A)"/></svg>