<svg xmlns="http://www.w3.org/2000/svg" width="375" height="400" fill="none" xmlns:v="https://vecta.io/nano"><g clip-path="url(#C)"><rect width="375" height="400" rx="18" fill="#031107"/><g filter="url(#A)"><rect x="125" y="-13" width="126" height="126" rx="63" fill="#461ca0"/><path d="M146.054 30.227V37.5h-.664v-6.577h-.043l-1.704 1.133v-.689l1.719-1.14h.692zm4.467 7.372c-.511 0-.948-.147-1.31-.44s-.637-.723-.831-1.282-.288-1.23-.288-2.014.096-1.45.288-2.006.472-.986.834-1.282a2 2 0 0 1 1.307-.447c.507 0 .941.149 1.304.447s.642.723.834 1.282.291 1.225.291 2.006-.097 1.455-.291 2.014-.469.986-.831 1.282-.795.44-1.307.44zm0-.597c.561 0 .999-.273 1.314-.82s.473-1.322.473-2.319c0-.663-.073-1.229-.217-1.697s-.347-.831-.614-1.08a1.35 1.35 0 0 0-.956-.373c-.556 0-.993.277-1.31.831s-.476 1.325-.476 2.319c0 .663.071 1.229.213 1.698s.349.826.614 1.072a1.37 1.37 0 0 0 .959.369zm6.133.597c-.511 0-.948-.147-1.31-.44s-.637-.723-.831-1.282-.288-1.23-.288-2.014.096-1.45.288-2.006.472-.986.834-1.282.8-.447 1.307-.447.941.149 1.303.447.643.723.835 1.282.291 1.225.291 2.006-.097 1.455-.291 2.014-.469.986-.831 1.282-.796.44-1.307.44zm0-.597c.561 0 .999-.273 1.314-.82s.472-1.322.472-2.319c0-.663-.072-1.229-.216-1.697s-.347-.831-.615-1.08-.583-.373-.955-.373c-.556 0-.993.277-1.31.831s-.476 1.325-.476 2.319c0 .663.071 1.229.213 1.698s.349.826.614 1.072.587.369.959.369zm8.974.497h-2.131v-7.273h2.259c.693 0 1.286.144 1.779.433s.873.703 1.136 1.243.394 1.187.394 1.942c0 .762-.135 1.417-.404 1.964s-.659.962-1.172 1.254-1.132.437-1.861.437zm-1.467-.597h1.428c.625 0 1.148-.123 1.569-.369a2.31 2.31 0 0 0 .949-1.055c.21-.457.316-1.001.316-1.633s-.107-1.167-.313-1.619-.507-.799-.909-1.04-.895-.362-1.484-.362h-1.556v6.079zm7.906.721c-.329 0-.63-.064-.902-.192a1.58 1.58 0 0 1-.65-.561c-.161-.246-.241-.544-.241-.895 0-.27.051-.497.152-.682s.247-.336.434-.454a2.39 2.39 0 0 1 .664-.281 6.13 6.13 0 0 1 .845-.16l.774-.099c.213-.028.375-.073.486-.135s.167-.161.167-.298v-.128c0-.372-.111-.664-.333-.877s-.538-.323-.952-.323c-.393 0-.714.086-.963.259s-.419.376-.518.611l-.6-.217c.123-.298.293-.536.511-.714a2.02 2.02 0 0 1 .732-.387c.27-.081.543-.121.82-.121a2.76 2.76 0 0 1 .65.082c.227.054.438.149.632.284s.352.319.472.558.181.537.181.902V37.5h-.632v-.863h-.039a1.7 1.7 0 0 1-.337.469c-.149.151-.336.276-.561.373s-.489.146-.792.146zm.085-.579c.336 0 .628-.075.874-.224a1.54 1.54 0 0 0 .568-.593 1.69 1.69 0 0 0 .202-.82v-.788a.62.62 0 0 1-.238.121c-.108.035-.235.067-.38.096l-.426.068-.383.05c-.308.038-.571.097-.789.178s-.384.192-.5.334-.174.32-.174.54c0 .331.118.588.355.771s.534.27.891.27zm4.203 2.5c-.126 0-.243-.012-.352-.036a1.37 1.37 0 0 1-.259-.078l.171-.558c.215.066.407.09.575.071s.317-.092.447-.227.247-.336.348-.611l.199-.554-2.006-5.508h.685l1.619 4.62h.05l1.62-4.62h.685l-2.308 6.317a2.3 2.3 0 0 1-.359.657c-.142.178-.307.309-.494.394s-.391.131-.621.131zm8.683-6.303l-.578.163c-.057-.163-.138-.311-.242-.444s-.24-.238-.408-.316-.372-.117-.618-.117c-.37 0-.673.088-.909.263s-.355.401-.355.678c0 .234.08.425.241.572s.414.259.753.344l.824.202c.457.111.799.288 1.026.529s.344.545.344.909a1.38 1.38 0 0 1-.255.82c-.171.239-.409.427-.714.565s-.655.202-1.055.202c-.532 0-.971-.119-1.317-.359s-.567-.59-.664-1.044l.607-.149c.078.324.231.569.458.735s.532.249.906.249c.419 0 .754-.094 1.005-.281s.376-.426.376-.71c0-.22-.073-.405-.22-.554s-.369-.263-.668-.334l-.891-.213c-.474-.114-.824-.294-1.051-.54a1.3 1.3 0 0 1-.341-.916c0-.301.082-.565.245-.792s.388-.41.675-.54.613-.195.98-.195c.499 0 .898.114 1.196.341a1.86 1.86 0 0 1 .65.93zm6.395 4.371c-.471 0-.888-.119-1.25-.359a2.42 2.42 0 0 1-.845-.991c-.204-.424-.306-.913-.306-1.467s.102-1.05.306-1.474.485-.758.845-.994.779-.359 1.25-.359.887.12 1.247.359.641.571.845.994.309.915.309 1.474-.102 1.043-.306 1.467-.486.752-.848.991-.776.359-1.247.359zm0-.579c.379 0 .7-.102.962-.305s.462-.475.597-.813.206-.711.206-1.119-.069-.781-.206-1.122a1.91 1.91 0 0 0-.597-.82c-.262-.206-.583-.309-.962-.309a1.52 1.52 0 0 0-.962.309 1.93 1.93 0 0 0-.6.82c-.135.341-.203.715-.203 1.122s.068.78.203 1.119.337.61.6.813.583.305.962.305zm6.033-4.989v.55h-2.682v-.55h2.682zm-1.843 5.455v-6.254c0-.294.067-.541.202-.742a1.32 1.32 0 0 1 .536-.458c.22-.104.454-.156.7-.156.165 0 .303.014.412.043a1.79 1.79 0 0 1 .262.078l-.184.554-.174-.05c-.069-.019-.155-.028-.259-.028-.275 0-.487.077-.636.231s-.224.374-.224.66l-.003 6.122h-.632zm8.179 0h-2.131v-7.273h2.259c.693 0 1.286.144 1.779.433s.873.703 1.136 1.243.394 1.187.394 1.942c0 .762-.135 1.417-.405 1.964s-.658.962-1.172 1.254-1.131.437-1.86.437zm-1.467-.597h1.428c.625 0 1.148-.123 1.569-.369a2.3 2.3 0 0 0 .948-1.055c.211-.457.316-1.001.316-1.633s-.106-1.167-.312-1.619-.507-.799-.909-1.04-.895-.362-1.485-.362h-1.555v6.079zm8.588.71c-.509 0-.95-.118-1.321-.355s-.66-.569-.863-.991-.302-.912-.302-1.463.1-1.037.302-1.463.484-.764.841-1.005.776-.366 1.247-.366c.296 0 .581.054.856.163s.52.271.738.494.394.498.522.835.192.729.192 1.186v.313h-4.261v-.558h3.615c0-.35-.071-.665-.213-.945a1.66 1.66 0 0 0-.586-.668c-.249-.163-.537-.245-.863-.245-.346 0-.65.092-.913.277a1.9 1.9 0 0 0-.618.731 2.29 2.29 0 0 0-.224.994v.334c0 .433.075.812.224 1.136s.366.572.643.749.605.266.984.266a1.76 1.76 0 0 0 .678-.121 1.45 1.45 0 0 0 .493-.323 1.44 1.44 0 0 0 .306-.451l.6.195c-.083.23-.219.442-.408.636a2.08 2.08 0 0 1-.704.469c-.279.116-.601.174-.965.174zm7.27-4.371l-.579.163a1.51 1.51 0 0 0-.242-.444c-.104-.133-.24-.238-.408-.316s-.372-.117-.618-.117c-.369 0-.672.088-.909.263s-.355.401-.355.678c0 .234.08.425.241.572s.415.259.753.344l.824.202c.457.111.799.288 1.026.529s.345.545.345.909c0 .308-.085.581-.256.82a1.71 1.71 0 0 1-.714.565c-.303.135-.654.202-1.054.202-.533 0-.972-.119-1.318-.359s-.567-.59-.664-1.044l.607-.149c.078.324.231.569.458.735s.532.249.906.249c.419 0 .754-.094 1.005-.281s.376-.426.376-.71c0-.22-.073-.405-.22-.554s-.369-.263-.667-.334l-.892-.213c-.473-.114-.824-.294-1.051-.54a1.3 1.3 0 0 1-.341-.916c0-.301.082-.565.245-.792a1.64 1.64 0 0 1 .675-.54c.286-.13.613-.195.98-.195.5 0 .898.114 1.197.341s.517.535.65.93zm1.469 4.258v-5.455h.636V37.5h-.636zm.323-6.392a.47.47 0 0 1-.334-.131c-.092-.09-.138-.198-.138-.323s.046-.232.138-.32.204-.135.334-.135a.46.46 0 0 1 .334.135c.092.088.138.194.138.32s-.046.233-.138.323-.204.131-.334.131zm4.065 8.551c-.371 0-.697-.049-.976-.146s-.515-.225-.707-.391a1.86 1.86 0 0 1-.447-.558l.518-.341c.078.137.182.272.313.405s.304.243.514.33.475.131.785.131c.483 0 .873-.121 1.169-.362s.447-.617.447-1.126v-1.229h-.057c-.073.166-.179.331-.316.497s-.317.3-.54.408-.493.163-.82.163c-.436 0-.823-.108-1.161-.323s-.601-.523-.796-.923-.287-.882-.287-1.438.093-1.037.28-1.456.454-.746.792-.98.733-.352 1.183-.352c.334 0 .611.059.831.178a1.59 1.59 0 0 1 .529.433c.135.173.24.341.316.504h.064v-1.04h.618v5.597c0 .462-.099.842-.295 1.14a1.75 1.75 0 0 1-.803.661c-.338.144-.723.217-1.154.217zm-.042-2.795c.35 0 .649-.084.898-.252s.439-.414.572-.732.199-.695.199-1.133c0-.426-.065-.804-.196-1.133s-.319-.592-.568-.781-.548-.288-.905-.288c-.365 0-.673.098-.924.295s-.44.462-.568.796-.192.702-.192 1.111c0 .417.066.785.196 1.104a1.67 1.67 0 0 0 .571.746c.251.178.557.266.917.266zm4.599-2.773V37.5h-.632v-5.455h.614v.856h.057c.128-.279.327-.503.597-.671s.608-.256 1.008-.256c.367 0 .689.077.966.231a1.56 1.56 0 0 1 .65.671c.156.296.235.659.235 1.09V37.5h-.633v-3.494c0-.447-.125-.801-.376-1.062s-.582-.391-1.001-.391c-.287 0-.541.062-.764.185a1.35 1.35 0 0 0-.529.533c-.128.23-.192.503-.192.82z" fill="#fff"/><path d="M165.455 69.5h-3.451V59.318h3.52c1.011 0 1.879.204 2.605.611a4.09 4.09 0 0 1 1.681 1.745c.391.759.586 1.667.586 2.724s-.197 1.972-.591 2.734a4.09 4.09 0 0 1-1.696 1.755c-.735.408-1.62.612-2.654.612zm-1.606-1.596h1.516c.709 0 1.301-.129 1.775-.388s.83-.651 1.069-1.168.358-1.17.358-1.949-.12-1.425-.358-1.939-.592-.903-1.059-1.158-1.041-.388-1.73-.388h-1.571v6.99zm12.028 1.75a3.19 3.19 0 0 1-1.308-.258 2.14 2.14 0 0 1-.915-.776c-.222-.341-.333-.762-.333-1.263 0-.431.08-.787.239-1.069s.376-.507.651-.676.585-.297.93-.383a7.57 7.57 0 0 1 1.079-.194l1.089-.124c.278-.04.48-.099.606-.179s.194-.21.194-.383v-.03c0-.374-.111-.664-.333-.87s-.542-.308-.96-.308c-.44 0-.79.096-1.049.288s-.427.419-.517.681l-1.68-.239c.132-.464.351-.852.656-1.163s.678-.55 1.119-.706a4.28 4.28 0 0 1 1.461-.239 4.76 4.76 0 0 1 1.099.129 3.08 3.08 0 0 1 .999.427c.302.196.544.462.726.8s.279.761.279 1.268V69.5h-1.73v-1.049h-.06c-.109.212-.264.411-.462.597s-.443.33-.741.442a2.99 2.99 0 0 1-1.039.164zm.467-1.322c.361 0 .674-.071.94-.214s.469-.338.611-.577.219-.499.219-.781v-.9a.85.85 0 0 1-.288.129c-.133.04-.282.075-.448.104l-.492.08-.423.06a3.16 3.16 0 0 0-.721.179 1.2 1.2 0 0 0-.502.348c-.122.146-.184.335-.184.567 0 .332.121.582.363.751s.55.254.925.254zm7.829 4.032c-.245 0-.472-.02-.681-.06a2.54 2.54 0 0 1-.492-.129l.418-1.402c.262.076.495.113.701.109a.86.86 0 0 0 .542-.194c.159-.123.293-.328.402-.616l.155-.413-2.77-7.795h1.909l1.76 5.767h.08l1.765-5.767h1.914l-3.058 8.561c-.142.404-.331.751-.566 1.039s-.524.514-.865.666-.743.234-1.214.234zm17.762-13.045V69.5h-1.844v-8.387h-.06l-2.381 1.521v-1.69l2.53-1.626h1.755zm7.735 10.321c-.662 0-1.256-.124-1.779-.373a3.17 3.17 0 0 1-1.248-1.034c-.305-.437-.468-.938-.488-1.501h1.79a1.41 1.41 0 0 0 .542 1.024c.328.262.723.393 1.183.393.362 0 .683-.083.965-.249s.504-.396.666-.691.242-.631.239-1.009c.003-.384-.078-.726-.244-1.024s-.393-.532-.681-.701a1.9 1.9 0 0 0-.994-.258 2.37 2.37 0 0 0-.9.169c-.295.116-.529.268-.701.457l-1.666-.273.532-5.25h5.907v1.541h-4.38l-.294 2.7h.06c.189-.222.456-.406.8-.552s.723-.224 1.134-.224c.616 0 1.167.146 1.65.438s.865.686 1.144 1.193.418 1.087.418 1.74c0 .673-.156 1.273-.468 1.8s-.737.936-1.287 1.238-1.18.447-1.9.447z" fill="#fff"/></g><g filter="url(#B)"><path d="M14.258 281.818c2.536-38.465 19.202-67.816 30.842-100.025-.132-26.798 3.386-52.75 10.502-75.793 3.311 29.383-2.368 53.286-10.502 75.793.452 91.821 43.756 193.566 132.004 222.207-34.221-180.076-91.128-206.103-63.351-290.938 1.238-20.688 8-37.825 21.849-49.062-10.045 18.717-17.156 34.729-21.849 49.062C107.174 223.09 256.874 433.586 328 391.5c17.859-10.567 29.51-27.276 36.209-47.284C342.734 219.036 216.376 52.775 314.5 141c40.312 36.245 71.705 137.518 49.709 203.216 3.474 20.254 4.203 39.433.791 56.284L177.104 404C97.742 404 9.037 361.008 14.258 281.818z" fill="#d33c5a"/></g><path d="M55.602 106c3.311 29.383-2.368 53.286-10.502 75.793.452 91.821 43.756 193.566 132.004 222.207-34.221-180.076-91.128-206.103-63.351-290.938 1.238-20.688 8-37.825 21.849-49.062-10.045 18.717-17.156 34.729-21.849 49.062C107.174 223.09 256.874 433.586 328 391.5c17.859-10.567 29.51-27.276 36.209-47.284C342.734 219.036 216.376 52.775 314.5 141c40.312 36.245 71.705 137.518 49.709 203.216-6.699 20.008-18.35 36.717-36.209 47.284-71.126 42.086-220.826-168.41-214.247-278.438-27.776 84.835 29.13 110.862 63.351 290.938C88.856 375.359 45.552 273.614 45.1 181.793c-.132-26.798 3.386-52.75 10.502-75.793z" fill="#edf060"/></g><defs><filter id="A" x="125" y="-14" width="126" height="127" filterUnits="userSpaceOnUse" color-interpolation-filters="sRGB"><feFlood flood-opacity="0"/><feBlend in="SourceGraphic" result="B"/><feColorMatrix in="SourceAlpha" values="0 0 0 0 0 0 0 0 0 0 0 0 0 0 0 0 0 0 127 0" result="C"/><feOffset dy="-4"/><feGaussianBlur stdDeviation=".5"/><feComposite in2="C" operator="arithmetic" k2="-1" k3="1"/><feColorMatrix values="0 0 0 0 0 0 0 0 0 0 0 0 0 0 0 0 0 0 0.39 0"/><feBlend in2="B"/></filter><filter id="B" x="13.038" y="64" width="358.417" height="341" filterUnits="userSpaceOnUse" color-interpolation-filters="sRGB"><feFlood flood-opacity="0"/><feBlend in="SourceGraphic" result="B"/><feColorMatrix in="SourceAlpha" values="0 0 0 0 0 0 0 0 0 0 0 0 0 0 0 0 0 0 127 0" result="C"/><feOffset dx="-1" dy="5"/><feGaussianBlur stdDeviation=".5"/><feComposite in2="C" operator="arithmetic" k2="-1" k3="1"/><feColorMatrix values="0 0 0 0 0 0 0 0 0 0 0 0 0 0 0 0 0 0 0.25 0"/><feBlend in2="B"/></filter><clipPath id="C"><rect width="375" height="400" rx="18" fill="#fff"/></clipPath></defs></svg>