<svg xmlns="http://www.w3.org/2000/svg" width="375" height="400" fill="none" xmlns:v="https://vecta.io/nano"><g clip-path="url(#A)"><path fill="#fdfffa" d="M0 0h375v400H0z"/><circle cx="48.5" cy="47.5" r="38.5" fill="#ababa4"/><circle cx="57.5" cy="427.5" r="185.5" fill="#e6eae1"/><circle cx="203.5" cy="161.5" r="182.5" fill="#f2f5ed"/><circle cx="271.5" cy="250.5" r="21.5" fill="#dbdcd7"/><circle cx="350.5" cy="311.5" r="100.5" fill="#c8c7bf"/><circle cx="10" cy="111" r="68" fill="#818075"/><g fill="#2d2910"><path d="M92.848 163.4h5.304c2.416 0 4.272.672 5.568 2.016 1.312 1.328 1.968 3.272 1.968 5.832 0 2.528-.64 4.456-1.92 5.784-1.28 1.312-3.144 1.968-5.592 1.968h-5.328v-15.6zm5.352 13.896c.928 0 1.664-.192 2.208-.576.56-.4.968-1.032 1.224-1.896.256-.88.384-2.072.384-3.576s-.136-2.704-.408-3.6c-.256-.896-.664-1.544-1.224-1.944s-1.304-.6-2.232-.6H96.16v12.192h2.04zm12.683 1.968c-1.12 0-2.016-.28-2.688-.84s-1.008-1.328-1.008-2.304c0-1.408.656-2.424 1.968-3.048 1.328-.64 2.872-1.032 4.632-1.176v-.696c0-1.088-.152-1.832-.456-2.232-.304-.416-.816-.624-1.536-.624-.336 0-.72.064-1.152.192-.416.128-.784.264-1.104.408l-.6.288-.312-1.536c.096-.048.32-.144.672-.288.368-.16.824-.312 1.368-.456.56-.144 1.12-.216 1.68-.216 1.504 0 2.648.32 3.432.96.8.624 1.2 1.704 1.2 3.24v5.448c0 .848.168 1.272.504 1.272.128 0 .28-.024.456-.072l.36-.096.096 1.248c-.08.032-.272.088-.576.168l-1.056.24c-.384.08-.728.12-1.032.12-.464 0-.824-.112-1.08-.336-.256-.24-.424-.624-.504-1.152h-.12c0 .048-.112.2-.336.456-.208.24-.544.472-1.008.696s-1.064.336-1.8.336zm1.056-1.608c.384 0 .712-.096.984-.288.288-.192.504-.4.648-.624.144-.24.216-.376.216-.408v-3.168c-1.072.112-1.888.368-2.448.768-.544.384-.816.976-.816 1.776 0 .64.128 1.128.384 1.464.256.32.6.48 1.032.48zm8.953 7.608c-.368 0-.696-.032-.984-.096-.272-.048-.48-.104-.624-.168l-.264-.096.264-1.872c.064.032.224.08.48.144.256.08.512.12.768.12.72 0 1.304-.288 1.752-.864.448-.56.944-1.544 1.488-2.952L118.66 167h3.864l2.928 8.544 2.472-8.544h1.992l-4.152 12.264c-.496 1.36-.968 2.464-1.416 3.312-.432.848-.928 1.504-1.488 1.968a2.93 2.93 0 0 1-1.968.72zM140.196 179v-13.392l-2.376 1.272-.648-1.44 3.6-2.04h2.568V179h-3.144zm9.563 0v-13.392l-2.376 1.272-.648-1.44 3.6-2.04h2.568V179h-3.144zm-96.271 45v-14.208l-2.88 1.608-.408-.936 3.576-2.064h1.44V224h-1.728zm11.115.24c-1.792 0-3.144-.696-4.056-2.088-.896-1.408-1.344-3.384-1.344-5.928s.448-4.52 1.344-5.928c.912-1.408 2.264-2.112 4.056-2.112s3.136.704 4.032 2.112c.912 1.408 1.368 3.384 1.368 5.928s-.456 4.52-1.368 5.928c-.896 1.392-2.24 2.088-4.032 2.088zm0-1.104c1.184 0 2.056-.552 2.616-1.656.576-1.12.864-2.872.864-5.256s-.288-4.136-.864-5.256-1.448-1.68-2.616-1.68c-1.184 0-2.064.56-2.64 1.68-.56 1.12-.84 2.872-.84 5.256 0 2.4.28 4.152.84 5.256.576 1.104 1.456 1.656 2.64 1.656zm13.477 1.104c-1.792 0-3.144-.696-4.056-2.088-.896-1.408-1.344-3.384-1.344-5.928s.448-4.52 1.344-5.928c.912-1.408 2.264-2.112 4.056-2.112s3.136.704 4.032 2.112c.912 1.408 1.368 3.384 1.368 5.928s-.456 4.52-1.368 5.928c-.896 1.392-2.24 2.088-4.032 2.088zm0-1.104c1.184 0 2.056-.552 2.616-1.656.576-1.12.864-2.872.864-5.256s-.288-4.136-.864-5.256-1.448-1.68-2.616-1.68c-1.184 0-2.064.56-2.64 1.68-.56 1.12-.84 2.872-.84 5.256 0 2.4.28 4.152.84 5.256.576 1.104 1.456 1.656 2.64 1.656zM92.67 208.4h4.752c2.24 0 3.976.68 5.208 2.04 1.248 1.344 1.872 3.28 1.872 5.808 0 2.512-.616 4.432-1.848 5.76-1.216 1.328-2.96 1.992-5.232 1.992H92.67v-15.6zm4.776 14.448c3.392 0 5.088-2.2 5.088-6.6 0-4.464-1.704-6.696-5.112-6.696h-2.928v13.296h2.952zm12.451 1.392c-1.056 0-1.904-.256-2.544-.768-.64-.528-.96-1.256-.96-2.184 0-2.352 2.264-3.768 6.792-4.248v-1.272c0-1.136-.184-1.912-.552-2.328s-1.016-.624-1.944-.624c-.416 0-.84.08-1.272.24a6 6 0 0 0-1.104.48l-.552.312-.192-.984c.08-.064.28-.184.6-.36.336-.176.752-.344 1.248-.504.512-.16 1.024-.24 1.536-.24 1.376 0 2.384.288 3.024.864s.96 1.592.96 3.048v5.88c0 .64.056 1.072.168 1.296.128.224.28.336.456.336.144 0 .32-.024.528-.072l.408-.144.072.816-.816.264c-.416.128-.768.192-1.056.192-.416 0-.736-.128-.96-.384-.224-.272-.36-.744-.408-1.416h-.024c0 .064-.128.248-.384.552s-.64.592-1.152.864c-.496.256-1.12.384-1.872.384zm.528-1.056c.576 0 1.072-.128 1.488-.384s.728-.536.936-.84c.224-.304.336-.48.336-.528v-3.504c-1.456.16-2.656.472-3.6.936-.928.464-1.392 1.2-1.392 2.208 0 .688.2 1.216.6 1.584.4.352.944.528 1.632.528zm8.11 7.056c-.288 0-.536-.024-.744-.072s-.368-.096-.48-.144l-.216-.096.192-1.104c.048.032.168.072.36.12a1.96 1.96 0 0 0 .624.096c.736 0 1.352-.4 1.848-1.2.496-.784 1.048-2.016 1.656-3.696L117.071 212h2.064l3.552 10.032L125.903 212h1.272l-4.152 12.192c-.688 1.968-1.368 3.464-2.04 4.488-.656 1.04-1.472 1.56-2.448 1.56zm13.733-6c-.848 0-1.568-.128-2.16-.384-.576-.272-1.016-.56-1.32-.864-.288-.304-.432-.48-.432-.528l.6-.84c0 .032.128.184.384.456s.608.528 1.056.768c.448.224.976.336 1.584.336.896 0 1.568-.224 2.016-.672.464-.448.696-.992.696-1.632 0-.464-.12-.848-.36-1.152a2.17 2.17 0 0 0-.864-.696c-.336-.176-.808-.368-1.416-.576l-1.68-.696c-.416-.224-.776-.552-1.08-.984-.288-.432-.432-.992-.432-1.68 0-1.024.368-1.832 1.104-2.424.752-.608 1.712-.912 2.88-.912a4.91 4.91 0 0 1 1.464.216c.48.128.864.272 1.152.432l.552.288-.288 1.032c-.064-.048-.224-.144-.48-.288-.256-.16-.592-.312-1.008-.456-.4-.144-.816-.216-1.248-.216-.736 0-1.336.184-1.8.552-.448.368-.672.832-.672 1.392 0 .464.12.856.36 1.176.24.304.536.544.888.72.368.176.856.376 1.464.6.704.24 1.272.48 1.704.72.448.224.824.552 1.128.984s.456.992.456 1.68a3.51 3.51 0 0 1-1.08 2.616c-.72.688-1.776 1.032-3.168 1.032zM97 254.24c-1.664 0-2.936-.544-3.816-1.632-.864-1.088-1.296-2.624-1.296-4.608s.432-3.52 1.296-4.608c.88-1.088 2.152-1.632 3.816-1.632s2.928.544 3.792 1.632c.88 1.088 1.32 2.624 1.32 4.608 0 1.968-.448 3.504-1.344 4.608-.88 1.088-2.136 1.632-3.768 1.632zm0-1.056c1.12 0 1.944-.424 2.472-1.272.528-.864.792-2.168.792-3.912 0-1.728-.264-3.024-.792-3.888s-1.352-1.296-2.472-1.296-1.944.432-2.472 1.296c-.528.848-.792 2.144-.792 3.888s.264 3.048.792 3.912c.528.848 1.352 1.272 2.472 1.272zm8.303-10.008h-1.248v-1.008l1.248-.144v-1.728c0-1.552.24-2.688.72-3.408.48-.736 1.288-1.104 2.424-1.104.384 0 .744.056 1.08.168.336.096.608.2.816.312l.384.216-.24.936a3.61 3.61 0 0 0-.312-.168 2.92 2.92 0 0 0-.624-.264 2.64 2.64 0 0 0-.792-.12c-.432 0-.768.104-1.008.312s-.424.576-.552 1.104c-.112.528-.168 1.264-.168 2.208V242h3.48v1.176h-3.48V254h-1.728v-10.824zm13.101-4.776h4.752c2.24 0 3.976.68 5.208 2.04 1.248 1.344 1.872 3.28 1.872 5.808 0 2.512-.616 4.432-1.848 5.76-1.216 1.328-2.96 1.992-5.232 1.992h-4.752v-15.6zm4.776 14.448c3.392 0 5.088-2.2 5.088-6.6 0-4.464-1.704-6.696-5.112-6.696h-2.928v13.296h2.952zm14.203 1.392c-1.6 0-2.856-.496-3.768-1.488-.912-1.008-1.368-2.512-1.368-4.512 0-2.016.44-3.6 1.32-4.752s2.08-1.728 3.6-1.728c1.376 0 2.432.48 3.168 1.44.752.944 1.128 2.288 1.128 4.032 0 .304-.016.552-.048.744l-.072.36h-7.272c0 3.232 1.168 4.848 3.504 4.848.64 0 1.184-.112 1.632-.336.464-.24.824-.488 1.08-.744.256-.272.384-.432.384-.48l.696.576c0 .064-.152.272-.456.624-.304.336-.752.656-1.344.96s-1.32.456-2.184.456zm2.448-6.912l.024-.456c0-2.72-.896-4.08-2.688-4.08-.944 0-1.672.376-2.184 1.128-.512.736-.808 1.872-.888 3.408h5.736zm7.179 6.912c-.848 0-1.568-.128-2.16-.384-.576-.272-1.016-.56-1.32-.864-.288-.304-.432-.48-.432-.528l.6-.84c0 .032.128.184.384.456s.608.528 1.056.768c.448.224.976.336 1.584.336.896 0 1.568-.224 2.016-.672.464-.448.696-.992.696-1.632 0-.464-.12-.848-.36-1.152a2.17 2.17 0 0 0-.864-.696c-.336-.176-.808-.368-1.416-.576l-1.68-.696c-.416-.224-.776-.552-1.08-.984-.288-.432-.432-.992-.432-1.68 0-1.024.368-1.832 1.104-2.424.752-.608 1.712-.912 2.88-.912a4.91 4.91 0 0 1 1.464.216c.48.128.864.272 1.152.432l.552.288-.288 1.032c-.064-.048-.224-.144-.48-.288-.256-.16-.592-.312-1.008-.456-.4-.144-.816-.216-1.248-.216-.736 0-1.336.184-1.8.552-.448.368-.672.832-.672 1.392 0 .464.12.856.36 1.176.24.304.536.544.888.72.368.176.856.376 1.464.6.704.24 1.272.48 1.704.72.448.224.824.552 1.128.984s.456.992.456 1.68a3.51 3.51 0 0 1-1.08 2.616c-.72.688-1.776 1.032-3.168 1.032zm7.685-14.664c-.288 0-.52-.088-.696-.264-.208-.208-.312-.464-.312-.768s.104-.56.312-.768c.176-.176.408-.264.696-.264.304 0 .544.08.72.24.192.208.288.472.288.792 0 .288-.096.544-.288.768-.224.176-.464.264-.72.264zM153.807 254v-12h1.752v12h-1.752zm9.209 6.24c-1.696 0-2.984-.336-3.864-1.008-.88-.656-1.32-1.624-1.32-2.904 0-.832.184-1.504.552-2.016.384-.512.864-.888 1.44-1.128-.288-.336-.432-.808-.432-1.416 0-.784.368-1.456 1.104-2.016-.64-.336-1.136-.816-1.488-1.44-.352-.64-.528-1.408-.528-2.304 0-1.456.408-2.528 1.224-3.216.832-.688 1.896-1.032 3.192-1.032.624 0 1.176.08 1.656.24l3.096.024v.936l-1.536.048c.64.72.96 1.72.96 3 0 1.376-.376 2.432-1.128 3.168-.736.736-1.76 1.104-3.072 1.104-.544 0-1.032-.056-1.464-.168-.56.368-.84.784-.84 1.248 0 .432.176.736.528.912.352.16.92.24 1.704.24 3.504 0 5.256 1.232 5.256 3.696 0 1.312-.44 2.312-1.32 3-.864.688-2.104 1.032-3.72 1.032zm-.192-10.92c1.696 0 2.544-1.112 2.544-3.336 0-1.152-.224-1.968-.672-2.448-.448-.496-1.08-.744-1.896-.744s-1.464.24-1.944.72c-.464.48-.696 1.312-.696 2.496 0 1.088.232 1.912.696 2.472s1.12.84 1.968.84zm.192 9.84c1.12 0 1.984-.232 2.592-.696.608-.448.912-1.104.912-1.968 0-1.68-1.304-2.52-3.912-2.52-.752 0-1.352-.064-1.8-.192-.48.192-.872.496-1.176.912-.288.432-.432.968-.432 1.608 0 .96.328 1.672.984 2.136.672.48 1.616.72 2.832.72zM169.98 242h1.44l.216 1.152c.256-.304.656-.608 1.2-.912.544-.32 1.328-.48 2.352-.48 1.152 0 2.048.328 2.688.984.64.64.96 1.6.96 2.88V254h-1.752v-8.016c0-1.024-.208-1.768-.624-2.232-.416-.48-1.032-.72-1.848-.72-.576 0-1.08.088-1.512.264s-.776.368-1.032.576c-.24.208-.36.328-.36.36V254h-1.728v-12z"/></g><circle cx="356" cy="21" r="12" fill="#444835"/><ellipse rx="35" ry="32.5" transform="matrix(-1 0 0 1 316 130.5)" fill="#0f699b"/></g><defs><clipPath id="A"><path fill="#fff" d="M0 0h375v400H0z"/></clipPath></defs></svg>