<svg xmlns="http://www.w3.org/2000/svg" width="375" height="400" fill="none" xmlns:v="https://vecta.io/nano"><g clip-path="url(#A)"><path fill="#fdfffa" d="M0 0h375v400H0z"/><circle cx="89.5" cy="347.5" r="5.5" fill="#fffa98"/><g fill="#443038"><path d="M22.091 355h-7.534v-23.273h7.773c2.28 0 4.239.466 5.875 1.398 1.636.924 2.89 2.254 3.761 3.989.879 1.727 1.318 3.799 1.318 6.216 0 2.424-.443 4.507-1.33 6.25-.879 1.742-2.151 3.083-3.818 4.022-1.667.932-3.682 1.398-6.045 1.398zm-4.023-3.068h3.829c1.773 0 3.246-.333 4.421-1 1.174-.674 2.053-1.648 2.636-2.921.583-1.28.875-2.84.875-4.681 0-1.826-.292-3.375-.875-4.648-.576-1.273-1.436-2.239-2.579-2.898s-2.564-.988-4.261-.988h-4.045v17.136zm24.39 3.454c-1.106 0-2.106-.204-3-.613-.894-.417-1.602-1.019-2.125-1.807-.515-.788-.773-1.754-.773-2.898 0-.985.189-1.795.568-2.432s.89-1.14 1.534-1.511 1.364-.651 2.159-.841a21.42 21.42 0 0 1 2.432-.432l2.545-.295c.652-.083 1.125-.216 1.42-.398s.443-.477.443-.886v-.08c0-.992-.28-1.761-.841-2.307-.553-.545-1.379-.818-2.477-.818-1.144 0-2.045.254-2.704.762-.651.5-1.102 1.056-1.352 1.67l-3.193-.727c.379-1.061.932-1.917 1.659-2.568a6.73 6.73 0 0 1 2.534-1.432c.955-.303 1.958-.455 3.011-.455a10.67 10.67 0 0 1 2.216.25 6.48 6.48 0 0 1 2.204.887c.689.431 1.254 1.049 1.693 1.852.439.795.659 1.829.659 3.102V355h-3.318v-2.386h-.136c-.22.439-.549.871-.989 1.295s-1.004.777-1.693 1.057-1.515.42-2.477.42zm.739-2.727c.939 0 1.742-.185 2.409-.557.674-.371 1.186-.856 1.534-1.454.356-.606.534-1.254.534-1.943v-2.25c-.121.121-.356.234-.705.341a11.14 11.14 0 0 1-1.17.261l-1.284.193-1.046.136c-.659.084-1.261.224-1.807.421-.538.197-.97.481-1.295.852-.318.364-.477.849-.477 1.455 0 .841.311 1.477.932 1.909.621.424 1.413.636 2.375.636zm13.923 8.887c-.508 0-.97-.042-1.386-.125-.417-.076-.727-.16-.932-.25l.818-2.785c.621.167 1.174.239 1.659.216a1.98 1.98 0 0 0 1.284-.545c.379-.341.712-.898 1-1.671l.42-1.159-6.386-17.681h3.636l4.42 13.545h.182l4.42-13.545h3.648L62.71 357.33c-.333.909-.758 1.678-1.273 2.306-.515.637-1.129 1.114-1.841 1.432s-1.538.478-2.477.478zm32.525-6.228c-1.038-.015-2.061-.204-3.068-.568-1-.364-1.909-.97-2.727-1.818s-1.474-1.989-1.966-3.421c-.485-1.431-.727-3.219-.727-5.363 0-2.03.201-3.834.602-5.409.409-1.576.996-2.906 1.761-3.989.765-1.091 1.689-1.92 2.773-2.489s2.299-.852 3.648-.852c1.386 0 2.617.273 3.693.818a6.94 6.94 0 0 1 2.614 2.262c.674.962 1.102 2.057 1.284 3.284h-3.466c-.235-.97-.701-1.762-1.398-2.375s-1.606-.921-2.727-.921c-1.704 0-3.034.743-3.989 2.228-.947 1.484-1.424 3.549-1.432 6.193h.17a6.31 6.31 0 0 1 1.477-1.682 6.6 6.6 0 0 1 1.977-1.08 6.97 6.97 0 0 1 2.318-.386c1.349 0 2.568.33 3.659.989a7.2 7.2 0 0 1 2.625 2.704c.652 1.152.977 2.47.977 3.955s-.337 2.829-1.011 4.034a7.42 7.42 0 0 1-2.818 2.864c-1.212.697-2.629 1.037-4.25 1.022zm-.011-2.954c.894 0 1.693-.22 2.398-.659a4.75 4.75 0 0 0 1.67-1.773c.409-.742.614-1.572.614-2.489 0-.894-.201-1.708-.602-2.443-.394-.735-.939-1.318-1.636-1.75-.689-.432-1.477-.648-2.364-.648-.674 0-1.299.129-1.875.387a4.75 4.75 0 0 0-1.5 1.068c-.432.454-.773.977-1.023 1.568-.242.583-.364 1.201-.364 1.852 0 .872.201 1.678.602 2.421a4.94 4.94 0 0 0 1.67 1.795c.712.447 1.515.671 2.409.671zm-69.333 16.182V386h-2.642v-14.812h-.102l-4.176 2.727v-2.523l4.355-2.846h2.565zM31.1 386.29c-1.347-.006-2.497-.361-3.452-1.065s-1.685-1.731-2.19-3.077-.759-2.969-.759-4.867c0-1.892.253-3.508.759-4.849s1.244-2.364 2.199-3.068 2.108-1.057 3.443-1.057 2.48.355 3.435 1.065 1.685 1.728 2.19 3.068c.511 1.336.767 2.949.767 4.841 0 1.904-.253 3.529-.759 4.875s-1.236 2.367-2.19 3.077-2.102 1.057-3.443 1.057zm0-2.276c1.182 0 2.105-.576 2.77-1.73s1.006-2.821 1.006-5.003c0-1.449-.153-2.673-.46-3.673-.301-1.006-.736-1.767-1.304-2.284a2.85 2.85 0 0 0-2.011-.784c-1.176 0-2.099.579-2.77 1.738s-1.008 2.827-1.014 5.003c0 1.455.151 2.685.452 3.691.307 1 .742 1.758 1.304 2.275s1.239.767 2.028.767zm15.492 2.276c-1.347-.006-2.497-.361-3.452-1.065s-1.685-1.731-2.19-3.077-.759-2.969-.759-4.867c0-1.892.253-3.508.759-4.849.511-1.341 1.244-2.364 2.199-3.068.96-.705 2.108-1.057 3.443-1.057s2.48.355 3.435 1.065 1.685 1.728 2.19 3.068c.511 1.336.767 2.949.767 4.841 0 1.904-.253 3.529-.759 4.875s-1.236 2.367-2.19 3.077-2.102 1.057-3.443 1.057zm0-2.276c1.182 0 2.105-.576 2.77-1.73s1.006-2.821 1.006-5.003c0-1.449-.153-2.673-.46-3.673-.301-1.006-.736-1.767-1.304-2.284a2.85 2.85 0 0 0-2.011-.784c-1.176 0-2.099.579-2.77 1.738s-1.008 2.827-1.014 5.003c0 1.455.151 2.685.452 3.691.307 1 .742 1.758 1.304 2.275s1.239.767 2.028.767zM68.248 386h-5.651v-17.454h5.83c1.71 0 3.179.349 4.406 1.048 1.227.693 2.168 1.69 2.821 2.991.659 1.296.989 2.85.989 4.662 0 1.818-.332 3.381-.997 4.688-.659 1.307-1.614 2.312-2.864 3.017-1.25.699-2.761 1.048-4.534 1.048zm-3.017-2.301h2.872c1.329 0 2.435-.25 3.315-.75.881-.506 1.54-1.236 1.977-2.19.438-.961.656-2.131.656-3.512 0-1.369-.219-2.531-.656-3.486-.432-.954-1.077-1.679-1.935-2.173s-1.923-.741-3.196-.741H65.23v12.852zm18.292 2.591c-.83 0-1.58-.154-2.25-.46a3.8 3.8 0 0 1-1.594-1.355c-.386-.591-.58-1.316-.58-2.174 0-.738.142-1.346.426-1.824s.668-.855 1.151-1.133a5.99 5.99 0 0 1 1.619-.631 16.14 16.14 0 0 1 1.824-.324l1.909-.221c.489-.063.844-.162 1.065-.299s.332-.358.332-.664v-.06c0-.744-.21-1.321-.631-1.73-.415-.409-1.034-.614-1.858-.614-.858 0-1.534.191-2.028.571-.489.375-.827.793-1.014 1.253l-2.395-.545c.284-.796.699-1.438 1.244-1.927a5.04 5.04 0 0 1 1.901-1.073c.716-.228 1.469-.341 2.258-.341.523 0 1.077.062 1.662.187a4.87 4.87 0 0 1 1.653.665c.517.324.94.787 1.27 1.389.33.597.494 1.372.494 2.327V386h-2.489v-1.79h-.102c-.165.33-.412.654-.742.972s-.753.582-1.27.793-1.136.315-1.858.315zm.554-2.046c.705 0 1.307-.139 1.807-.417.506-.279.889-.642 1.151-1.091a2.83 2.83 0 0 0 .4-1.458v-1.687c-.091.091-.267.176-.528.256-.256.074-.548.139-.878.196l-.963.145-.784.102c-.494.062-.946.167-1.355.315-.403.148-.727.361-.972.639-.239.273-.358.637-.358 1.091 0 .631.233 1.108.699 1.432.466.318 1.06.477 1.781.477zm10.442 6.665a5.28 5.28 0 0 1-1.04-.094c-.312-.056-.546-.119-.699-.187l.614-2.088c.466.125.881.179 1.244.162s.685-.154.963-.409c.284-.256.534-.674.75-1.253l.315-.869-4.79-13.262h2.727l3.315 10.159h.136l3.316-10.159h2.735l-5.394 14.838c-.25.682-.568 1.259-.955 1.73a3.69 3.69 0 0 1-1.381 1.074c-.534.238-1.153.358-1.858.358zm21.793-14.804l-2.31.409a2.73 2.73 0 0 0-.46-.843c-.204-.268-.483-.486-.835-.657s-.793-.255-1.321-.255c-.722 0-1.324.162-1.807.485s-.724.731-.724 1.236c0 .438.162.79.485 1.057s.847.486 1.569.656l2.079.478c1.205.278 2.102.707 2.693 1.286s.887 1.333.887 2.259c0 .784-.228 1.483-.682 2.097-.449.608-1.077 1.085-1.884 1.431-.801.347-1.73.52-2.787.52-1.466 0-2.662-.312-3.588-.937-.926-.631-1.494-1.526-1.704-2.685l2.463-.375c.153.642.469 1.128.946 1.458.477.323 1.099.485 1.866.485.836 0 1.503-.173 2.003-.52s.75-.781.75-1.287c0-.409-.153-.752-.46-1.031-.301-.278-.764-.488-1.389-.63l-2.216-.486c-1.222-.279-2.125-.722-2.71-1.33s-.87-1.378-.87-2.309c0-.773.216-1.449.648-2.029s1.028-1.031 1.79-1.355c.761-.33 1.633-.494 2.616-.494 1.415 0 2.529.307 3.341.92s1.35 1.423 1.611 2.446zm14.923 10.159c-1.227 0-2.298-.281-3.213-.843s-1.625-1.35-2.13-2.361-.759-2.193-.759-3.546.253-2.545.759-3.562 1.215-1.807 2.13-2.37 1.986-.843 3.213-.843 2.299.281 3.213.843 1.625 1.353 2.131 2.37.759 2.204.759 3.562-.253 2.534-.759 3.546-1.216 1.798-2.131 2.361-1.985.843-3.213.843zm.009-2.139c.795 0 1.454-.21 1.977-.631s.909-.98 1.159-1.679c.256-.698.384-1.468.384-2.309 0-.835-.128-1.603-.384-2.301-.25-.705-.636-1.27-1.159-1.696s-1.182-.64-1.977-.64c-.801 0-1.466.213-1.995.64-.522.426-.911.991-1.167 1.696-.25.698-.375 1.466-.375 2.301 0 .841.125 1.611.375 2.309.256.699.645 1.259 1.167 1.679.529.421 1.194.631 1.995.631zm15.168-11.216v2.046h-7.398v-2.046h7.398zM141.043 386v-14.608c0-.818.179-1.497.537-2.037.358-.545.832-.952 1.423-1.219a4.55 4.55 0 0 1 1.926-.409c.512 0 .949.043 1.313.128s.633.154.809.222l-.596 2.062-.461-.119c-.187-.051-.414-.077-.681-.077-.62 0-1.063.154-1.33.46-.261.307-.392.75-.392 1.33V386h-2.548zm20.205 0h-5.651v-17.454h5.83c1.71 0 3.179.349 4.406 1.048 1.228.693 2.168 1.69 2.821 2.991.659 1.296.989 2.85.989 4.662 0 1.818-.332 3.381-.997 4.688-.659 1.307-1.614 2.312-2.864 3.017-1.25.699-2.761 1.048-4.534 1.048zm-3.017-2.301h2.872c1.33 0 2.435-.25 3.316-.75.88-.506 1.539-1.236 1.977-2.19.437-.961.656-2.131.656-3.512 0-1.369-.219-2.531-.656-3.486-.432-.954-1.077-1.679-1.935-2.173s-1.923-.741-3.196-.741h-3.034v12.852zm20.124 2.565c-1.289 0-2.4-.275-3.332-.826a5.61 5.61 0 0 1-2.148-2.344c-.5-1.012-.75-2.196-.75-3.554 0-1.341.25-2.523.75-3.546.506-1.022 1.21-1.821 2.114-2.394s1.971-.861 3.187-.861a6.42 6.42 0 0 1 2.148.366 5.22 5.22 0 0 1 1.867 1.151c.551.522.985 1.201 1.303 2.037.319.829.478 1.838.478 3.025v.904h-10.406v-1.909h7.909c0-.671-.137-1.265-.409-1.782a3.1 3.1 0 0 0-1.151-1.235c-.489-.302-1.063-.452-1.722-.452-.716 0-1.341.176-1.875.528a3.55 3.55 0 0 0-1.227 1.364c-.284.557-.426 1.162-.426 1.815v1.492c0 .875.153 1.619.46 2.233.313.613.747 1.082 1.304 1.406.557.318 1.208.477 1.952.477.483 0 .923-.068 1.321-.204.398-.142.741-.353 1.031-.631a2.74 2.74 0 0 0 .665-1.031l2.412.434c-.193.711-.54 1.333-1.04 1.867-.494.528-1.116.94-1.866 1.236-.745.289-1.594.434-2.549.434zm18.254-10.159l-2.31.409a2.73 2.73 0 0 0-.46-.843c-.205-.268-.483-.486-.835-.657s-.793-.255-1.321-.255c-.722 0-1.324.162-1.807.485s-.725.731-.725 1.236a1.3 1.3 0 0 0 .486 1.057c.324.267.847.486 1.568.656l2.08.478c1.205.278 2.102.707 2.693 1.286s.887 1.333.887 2.259c0 .784-.228 1.483-.682 2.097-.449.608-1.077 1.085-1.884 1.431-.801.347-1.73.52-2.787.52-1.466 0-2.662-.312-3.588-.937-.926-.631-1.494-1.526-1.704-2.685l2.463-.375c.153.642.468 1.128.946 1.458.477.323 1.099.485 1.866.485.835 0 1.503-.173 2.003-.52s.75-.781.75-1.287c0-.409-.153-.752-.46-1.031-.301-.278-.764-.488-1.389-.63l-2.216-.486c-1.222-.279-2.125-.722-2.711-1.33-.579-.608-.869-1.378-.869-2.309 0-.773.216-1.449.648-2.029s1.028-1.031 1.79-1.355c.761-.33 1.633-.494 2.616-.494 1.415 0 2.529.307 3.341.92s1.349 1.423 1.611 2.446zm3.057 9.895v-13.091h2.549V386h-2.549zm1.287-15.111c-.443 0-.824-.147-1.142-.443a1.44 1.44 0 0 1-.468-1.074c0-.42.156-.778.468-1.074.318-.301.699-.451 1.142-.451s.821.15 1.134.451c.318.296.477.654.477 1.074s-.159.773-.477 1.074a1.59 1.59 0 0 1-1.134.443zm10.179 20.293c-1.04 0-1.935-.136-2.685-.409-.744-.273-1.352-.634-1.824-1.083a4.53 4.53 0 0 1-1.057-1.474l2.191-.903c.153.25.358.514.613.792.262.284.614.526 1.057.725.449.198 1.026.298 1.73.298.966 0 1.764-.236 2.395-.707s.946-1.211.946-2.233v-2.574h-.162c-.153.278-.375.588-.665.929-.284.341-.676.636-1.176.886s-1.15.375-1.951.375c-1.035 0-1.966-.241-2.796-.724-.824-.489-1.477-1.208-1.96-2.157-.477-.954-.716-2.127-.716-3.52s.236-2.585.707-3.579c.478-.994 1.131-1.756 1.961-2.284.829-.534 1.769-.801 2.821-.801.812 0 1.468.136 1.968.409.5.267.89.579 1.168.937.284.358.503.674.656.946h.188v-2.122h2.497v13.381c0 1.125-.262 2.048-.784 2.77s-1.23 1.255-2.122 1.602-1.887.52-3 .52zm-.026-7.492c.733 0 1.352-.17 1.858-.511.511-.347.898-.841 1.159-1.483.267-.648.401-1.423.401-2.327 0-.88-.131-1.656-.392-2.326s-.645-1.193-1.151-1.568c-.506-.381-1.131-.572-1.875-.572-.767 0-1.406.199-1.918.597-.511.392-.897.926-1.159 1.602-.255.677-.383 1.432-.383 2.267 0 .858.13 1.611.392 2.259s.648 1.153 1.159 1.517c.517.364 1.153.545 1.909.545zm11.898-5.463V386h-2.549v-13.091h2.446v2.131h.162c.302-.693.773-1.25 1.415-1.671.648-.42 1.463-.63 2.446-.63.892 0 1.673.187 2.344.562s1.19.921 1.56 1.654.554 1.639.554 2.718V386h-2.549v-8.02c0-.949-.247-1.69-.741-2.224-.495-.54-1.173-.81-2.037-.81-.591 0-1.117.128-1.577.384-.454.255-.815.63-1.082 1.125-.262.488-.392 1.079-.392 1.772z"/></g><path d="M269.447 50.825c12.821-38.596-34.83-10.538 0 0z" fill="#fd7d94"/><path d="M188.081 167.969C124.179 246.725 352.852 151.225 317.5 198c-38.925 41.339-81.732 71.873-121.353 92.448m-8.066-122.479c53.714-62.365 74.999-97.975 81.366-117.144m-81.366 117.144C349.947-19.963 217.318 35.054 269.447 50.825m21.554 3.266c-9.334-.513-16.361-1.695-21.554-3.266M102.5 203c4.62-11.165 11.018-17.157 17.369-20.048M269.447 50.825c-34.83-10.538 12.821-38.596 0 0zm-73.3 239.623c.964 5.298.817 11.296-.647 18.052-10.79 49.779 61.499-45.5 117.5-57 52.239-11.587 91.699 45.5 24.5 95.5-35.555 26.454-121.068 33.404-193.553-34.323m52.2-22.229c-5.959-32.781-54.387-38.766-95.933-31.421m95.933 31.421c-18.314 9.51-35.947 16.892-52.2 22.229m0 0C108.865 324.197 80.209 326.192 65 319.5c-54.261-23.875-14.439-51.695 35.214-60.473m43.733 53.65c-15.363-14.354-30.14-32.062-43.733-53.65m0 0c-17.393-27.625-32.846-61.603-45.103-103.034m0 0C-38.139 98.93 23.663 19.217 44.5 114.5c3.192 14.596 6.742 28.416 10.611 41.493zm0 0c16.421 10.048 37.65 19.394 64.758 26.959m0 0c18.394-8.375 36.391 9.255 9.631 2.548l-9.631-2.548z" stroke="#443038" stroke-width="2"/></g><defs><clipPath id="A"><path fill="#fff" d="M0 0h375v400H0z"/></clipPath></defs></svg>