<svg xmlns="http://www.w3.org/2000/svg" width="375" height="400" fill="none" xmlns:v="https://vecta.io/nano"><g clip-path="url(#A)"><path fill="#fdfffa" d="M0 0h375v400H0z"/><g fill="#fd7d94"><path d="M141 0h45v400h-45V0zm110 0h28v400h-28V0zm-58 0h55v400h-55V0zm88 0h94v400h-94V0z"/></g><path fill="#fffa98" d="M29.238 8.451l11.747-2.453 81.777 391.551-11.747 2.453z"/><path fill="#443038" d="M0 301h375v99H0z"/><path d="M152.716 322.545V340h-1.065v-16.33h-.103l-3.92 2.6v-1.142l3.886-2.583h1.202zm10.753 17.694c-1.164 0-2.164-.358-3-1.074s-1.477-1.742-1.926-3.077c-.443-1.341-.664-2.946-.664-4.815s.224-3.466.673-4.807 1.088-2.369 1.917-3.085c.836-.716 1.836-1.074 3-1.074s2.162.358 2.992 1.074 1.477 1.744 1.926 3.085.673 2.943.673 4.807-.224 3.474-.673 4.815c-.443 1.335-1.082 2.361-1.918 3.077s-1.835 1.074-3 1.074zm0-.989c1.415 0 2.526-.702 3.333-2.105.807-1.409 1.21-3.367 1.21-5.872 0-1.671-.185-3.103-.554-4.296s-.883-2.105-1.56-2.736-1.485-.954-2.429-.954c-1.414 0-2.525.704-3.332 2.114s-1.21 3.366-1.21 5.872c0 1.67.182 3.102.545 4.295s.884 2.1 1.56 2.736c.682.631 1.494.946 2.437.946zm14.461.989c-1.164 0-2.164-.358-3-1.074s-1.477-1.742-1.926-3.077c-.443-1.341-.665-2.946-.665-4.815s.225-3.466.674-4.807 1.088-2.369 1.917-3.085c.836-.716 1.836-1.074 3-1.074s2.162.358 2.992 1.074c.835.716 1.477 1.744 1.926 3.085s.673 2.943.673 4.807-.224 3.474-.673 4.815c-.443 1.335-1.082 2.361-1.918 3.077s-1.835 1.074-3 1.074zm0-.989c1.415 0 2.526-.702 3.333-2.105.807-1.409 1.21-3.367 1.21-5.872 0-1.671-.185-3.103-.554-4.296s-.883-2.105-1.56-2.736-1.485-.954-2.429-.954c-1.414 0-2.525.704-3.332 2.114s-1.21 3.366-1.21 5.872c0 1.67.182 3.102.545 4.295s.884 2.1 1.56 2.736c.682.631 1.494.946 2.437.946zm21.348.75h-4.841v-17.455h5.216c1.636 0 3.037.347 4.201 1.04s2.057 1.688 2.677 2.983.934 2.838.929 4.645c-.006 1.847-.33 3.426-.972 4.739-.642 1.307-1.571 2.309-2.787 3.008-1.216.693-2.69 1.04-4.423 1.04zm-3.776-.989h3.733c1.557 0 2.869-.309 3.938-.929s1.875-1.52 2.42-2.684c.551-1.165.824-2.56.818-4.185 0-1.602-.264-2.974-.792-4.116-.529-1.148-1.299-2.029-2.31-2.642s-2.239-.921-3.699-.921h-4.108v15.477zm19.217 1.27c-.756 0-1.449-.15-2.08-.451a3.69 3.69 0 0 1-1.508-1.321c-.375-.58-.563-1.285-.563-2.114 0-.546.097-1.026.29-1.44s.491-.773.895-1.074.92-.549 1.551-.742c.631-.199 1.384-.352 2.258-.46l1.782-.23c.522-.08.932-.202 1.227-.367a.8.8 0 0 0 .452-.75v-.545c0-.955-.301-1.713-.904-2.276s-1.431-.843-2.488-.843c-.938 0-1.728.207-2.37.622-.636.409-1.082.937-1.338 1.585l-.98-.366c.25-.625.611-1.145 1.083-1.56s1.022-.725 1.636-.929a6.14 6.14 0 0 1 1.943-.307 5.58 5.58 0 0 1 1.671.247c.534.165 1.008.415 1.423.75a3.52 3.52 0 0 1 .997 1.287c.244.517.366 1.137.366 1.858V340h-1.039v-2.361h-.077a4.75 4.75 0 0 1-.937 1.338c-.393.398-.867.716-1.424.955-.551.233-1.173.349-1.866.349zm.102-.963c.818 0 1.543-.199 2.173-.596a4.16 4.16 0 0 0 1.492-1.654c.358-.699.537-1.491.537-2.378v-1.926c-.131.114-.321.216-.571.307-.245.085-.523.162-.836.23l-.971.171-.98.127c-.955.114-1.733.29-2.335.529-.597.233-1.035.54-1.313.92s-.409.841-.409 1.381c0 .892.307 1.597.92 2.114s1.378.775 2.293.775zm9.967 5.591c-.261 0-.52-.028-.775-.085s-.486-.131-.691-.222l.307-.912c.534.205 1.017.279 1.449.222.438-.057.824-.256 1.159-.597s.62-.841.852-1.5l.597-1.636-4.798-13.27h1.116l4.159 11.753h.086l4.159-11.753h1.116l-5.523 15.315c-.21.591-.474 1.086-.792 1.483s-.682.696-1.091.895c-.404.205-.847.307-1.33.307zm20.304-15.179l-.963.256c-.154-.477-.373-.889-.657-1.236a2.8 2.8 0 0 0-1.074-.801c-.426-.193-.937-.29-1.534-.29-.96 0-1.747.239-2.36.716a2.26 2.26 0 0 0-.912 1.866c0 .625.207 1.143.622 1.552.415.403 1.048.71 1.9.92l2.012.503c1.034.256 1.812.67 2.335 1.244.523.568.784 1.276.784 2.122 0 .722-.196 1.361-.588 1.918s-.935.991-1.628 1.304c-.687.312-1.489.469-2.403.469-1.222 0-2.225-.284-3.009-.853s-1.287-1.394-1.508-2.463l.997-.255c.187.852.577 1.503 1.167 1.951.597.444 1.378.665 2.344.665 1.068 0 1.929-.253 2.583-.758.659-.506.988-1.154.988-1.944 0-.602-.193-1.11-.579-1.525s-.972-.719-1.756-.912l-2.088-.511c-1.068-.262-1.869-.679-2.403-1.253-.535-.58-.802-1.293-.802-2.139 0-.705.185-1.324.554-1.858s.878-.952 1.526-1.253 1.389-.452 2.224-.452c1.108 0 2.012.261 2.711.784s1.204 1.267 1.517 2.233zm15.368 10.543c-1.079 0-2.04-.29-2.88-.87-.841-.585-1.503-1.389-1.986-2.412s-.725-2.187-.725-3.494c0-1.312.242-2.477.725-3.494.483-1.023 1.145-1.827 1.986-2.412s1.801-.878 2.88-.878 2.04.293 2.881.878 1.503 1.389 1.986 2.412.724 2.187.724 3.494-.241 2.472-.724 3.494-1.145 1.827-1.986 2.412c-.841.58-1.801.87-2.881.87zm0-.963c.915 0 1.713-.259 2.395-.776.688-.517 1.219-1.216 1.594-2.096.381-.881.571-1.861.571-2.941s-.19-2.057-.571-2.932-.912-1.579-1.594-2.096c-.682-.523-1.48-.784-2.395-.784s-1.713.261-2.395.784c-.681.517-1.213 1.216-1.593 2.096s-.571 1.853-.571 2.932.187 2.06.562 2.941c.381.88.912 1.579 1.594 2.096s1.488.776 2.403.776zm14.116-12.401v.929h-5.804v-.929h5.804zM270.681 340v-15.128c0-.659.151-1.221.452-1.687s.696-.821 1.184-1.066c.495-.244 1.026-.366 1.594-.366.301 0 .557.025.767.077a3.56 3.56 0 0 1 .563.161l-.307.921a3.73 3.73 0 0 0-.426-.119c-.148-.034-.324-.052-.529-.052-.659 0-1.201.202-1.627.606s-.64.965-.64 1.687L271.704 340h-1.023zm19.089 0h-4.841v-17.455h5.216c1.636 0 3.037.347 4.202 1.04s2.056 1.688 2.676 2.983.934 2.838.929 4.645c-.006 1.847-.33 3.426-.972 4.739-.642 1.307-1.571 2.309-2.787 3.008-1.216.693-2.69 1.04-4.423 1.04zm-3.776-.989h3.733c1.557 0 2.87-.309 3.938-.929s1.875-1.52 2.42-2.684c.551-1.165.824-2.56.818-4.185 0-1.602-.264-2.974-.792-4.116-.529-1.148-1.298-2.029-2.31-2.642-1.006-.614-2.238-.921-3.699-.921h-4.108v15.477zm20.853 1.262c-1.182 0-2.21-.293-3.085-.878s-1.551-1.386-2.028-2.404-.716-2.176-.716-3.477c0-1.307.238-2.471.716-3.494s1.145-1.83 1.985-2.421 1.802-.886 2.881-.886a5 5 0 0 1 2.08.443 5.09 5.09 0 0 1 1.738 1.262c.506.551.901 1.216 1.185 1.994.29.778.435 1.653.435 2.625v.648h-10.364v-.946h9.324c0-.949-.193-1.804-.58-2.566s-.912-1.366-1.576-1.815-1.412-.673-2.242-.673c-.869 0-1.645.244-2.327.733-.676.483-1.213 1.136-1.61 1.96s-.597 1.744-.614 2.761v.426c0 1.091.19 2.071.571 2.941.386.863.938 1.548 1.653 2.054.716.5 1.574.75 2.574.75.716 0 1.327-.12 1.833-.358.511-.245.929-.54 1.253-.887s.568-.681.732-1.005l.947.383c-.199.438-.509.875-.929 1.313-.415.431-.944.792-1.586 1.082-.636.29-1.386.435-2.25.435zm17.088-10.543l-.963.256c-.153-.477-.372-.889-.656-1.236a2.8 2.8 0 0 0-1.074-.801c-.426-.193-.937-.29-1.534-.29-.96 0-1.747.239-2.361.716a2.26 2.26 0 0 0-.912 1.866c0 .625.208 1.143.623 1.552.414.403 1.048.71 1.9.92l2.011.503c1.035.256 1.813.67 2.336 1.244.522.568.784 1.276.784 2.122 0 .722-.196 1.361-.588 1.918s-.935.991-1.628 1.304-1.489.469-2.404.469c-1.221 0-2.224-.284-3.008-.853s-1.287-1.394-1.509-2.463l.998-.255c.187.852.576 1.503 1.167 1.951.597.444 1.378.665 2.344.665 1.068 0 1.929-.253 2.582-.758.659-.506.989-1.154.989-1.944 0-.602-.193-1.11-.58-1.525s-.971-.719-1.755-.912l-2.088-.511c-1.069-.262-1.87-.679-2.404-1.253-.534-.58-.801-1.293-.801-2.139 0-.705.185-1.324.554-1.858s.878-.952 1.526-1.253 1.389-.452 2.224-.452c1.108 0 2.011.261 2.71.784s1.205 1.267 1.517 2.233zm3.804 10.27v-13.091h1.031V340h-1.031zm.52-15.409c-.228 0-.427-.08-.597-.239-.165-.159-.247-.352-.247-.579s.082-.421.247-.58a.83.83 0 0 1 .597-.238c.227 0 .423.079.588.238.17.159.255.352.255.58s-.082.42-.247.579a.83.83 0 0 1-.596.239zm9.588 20.591c-.813 0-1.543-.108-2.191-.324-.647-.21-1.199-.511-1.653-.903a3.95 3.95 0 0 1-1.031-1.398l.869-.512a3.5 3.5 0 0 0 .827 1.125c.358.33.801.589 1.329.776.534.188 1.151.281 1.85.281 1.261 0 2.258-.326 2.991-.98.739-.648 1.108-1.642 1.108-2.983v-3.255h-.102c-.199.568-.495 1.073-.887 1.517a4.08 4.08 0 0 1-1.423 1.031c-.562.25-1.202.375-1.918.375-1.034 0-1.943-.267-2.727-.801s-1.395-1.284-1.832-2.25c-.438-.972-.656-2.114-.656-3.426s.213-2.475.639-3.486c.432-1.017 1.04-1.813 1.824-2.387s1.704-.869 2.761-.869c.756 0 1.409.145 1.96.435a4.2 4.2 0 0 1 1.398 1.133 5.49 5.49 0 0 1 .869 1.551h.12v-2.923h1.005v13.398c0 1.091-.216 1.997-.647 2.719a3.99 3.99 0 0 1-1.799 1.619c-.767.358-1.662.537-2.684.537zm-.137-6.213c.875 0 1.628-.222 2.259-.665.636-.449 1.125-1.085 1.466-1.909.346-.83.52-1.813.52-2.949 0-1.102-.168-2.088-.503-2.957s-.821-1.554-1.458-2.054-1.397-.75-2.284-.75c-.903 0-1.673.255-2.309.767-.637.505-1.125 1.193-1.466 2.062s-.503 1.847-.503 2.932c0 1.091.17 2.051.511 2.881.341.824.83 1.471 1.466 1.943.636.466 1.404.699 2.301.699zm10.681-7.458V340h-1.039v-13.091h1.014v2.071h.102c.307-.676.798-1.219 1.474-1.628s1.481-.613 2.412-.613c.881 0 1.654.187 2.319.562s1.193.909 1.568 1.602c.38.688.571 1.509.571 2.463V340h-1.04v-8.591c0-1.114-.332-2.008-.997-2.685-.659-.681-1.531-1.022-2.617-1.022-.727 0-1.375.159-1.943.477a3.44 3.44 0 0 0-1.338 1.338c-.324.568-.486 1.233-.486 1.994z" fill="#fff"/><path d="M17.5 58h-5.386V40.546h5.625c1.693 0 3.142.349 4.347 1.048 1.205.693 2.128 1.69 2.77 2.991.642 1.295.963 2.847.963 4.653 0 1.818-.324 3.384-.972 4.696a6.92 6.92 0 0 1-2.83 3.017C20.778 57.651 19.273 58 17.5 58zm-3.273-1.875h3.136c1.443 0 2.639-.278 3.588-.835s1.656-1.349 2.122-2.378.699-2.253.699-3.673c0-1.409-.23-2.622-.69-3.639-.46-1.023-1.148-1.807-2.062-2.352-.915-.551-2.054-.827-3.418-.827h-3.375v13.705zm18.716 2.182c-.83 0-1.582-.156-2.258-.469-.676-.318-1.213-.776-1.611-1.372-.398-.602-.597-1.329-.597-2.182 0-.75.148-1.358.443-1.824.295-.472.69-.841 1.185-1.108s1.04-.466 1.636-.597l1.815-.324 1.935-.23c.5-.057.864-.151 1.091-.281.233-.131.349-.358.349-.682v-.068c0-.841-.23-1.494-.69-1.96-.455-.466-1.145-.699-2.071-.699-.96 0-1.713.21-2.259.631s-.929.869-1.151 1.347l-1.909-.682c.341-.795.795-1.415 1.364-1.858a5.11 5.11 0 0 1 1.875-.937 7.78 7.78 0 0 1 2.011-.273c.42 0 .903.051 1.449.153.551.097 1.082.298 1.594.605.517.307.946.77 1.287 1.389s.511 1.449.511 2.489V58h-2.011v-1.773h-.102c-.136.284-.364.588-.682.912s-.741.599-1.27.827-1.173.341-1.935.341zm.307-1.807c.795 0 1.466-.156 2.011-.469.551-.312.966-.716 1.244-1.21.284-.494.426-1.014.426-1.56v-1.841c-.085.102-.273.196-.562.281a9.5 9.5 0 0 1-.989.213l-1.082.153-.844.102a7.68 7.68 0 0 0-1.466.332c-.449.148-.812.372-1.091.673-.273.296-.409.699-.409 1.21 0 .699.259 1.227.776 1.585.523.352 1.185.528 1.986.528zm10.191 6.409c-.341 0-.645-.028-.912-.085-.267-.051-.452-.102-.554-.153l.511-1.773c.489.125.92.17 1.295.136s.707-.202.997-.503c.295-.295.565-.776.81-1.44l.375-1.023-4.841-13.159h2.182l3.614 10.432h.136l3.614-10.432h2.182l-5.557 15c-.25.676-.56 1.236-.929 1.679a3.48 3.48 0 0 1-1.287.997c-.483.216-1.028.324-1.636.324zm24.678-4.671c-1.125 0-2.128-.193-3.008-.579-.875-.386-1.571-.923-2.088-1.611-.511-.693-.79-1.497-.835-2.412h2.148c.045.563.239 1.048.58 1.457.341.403.787.716 1.338.937s1.162.332 1.832.332c.75 0 1.415-.131 1.994-.392s1.034-.625 1.364-1.091.494-1.006.494-1.619c0-.642-.159-1.207-.477-1.696-.318-.494-.784-.881-1.398-1.159s-1.364-.418-2.25-.418h-1.398v-1.875h1.398c.693 0 1.301-.125 1.824-.375.528-.25.94-.602 1.236-1.057.301-.455.452-.989.452-1.602 0-.591-.131-1.105-.392-1.543a2.68 2.68 0 0 0-1.108-1.023c-.472-.244-1.028-.367-1.671-.367-.602 0-1.17.111-1.704.332-.528.216-.96.531-1.296.946-.335.409-.517.903-.545 1.483h-2.045c.034-.915.31-1.716.827-2.403.517-.693 1.193-1.233 2.028-1.619.841-.386 1.764-.58 2.77-.58 1.079 0 2.006.219 2.778.656.773.432 1.367 1.003 1.781 1.713s.622 1.477.622 2.301c0 .983-.258 1.821-.776 2.514-.511.693-1.207 1.173-2.088 1.44v.136c1.102.182 1.963.651 2.582 1.406.619.75.929 1.679.929 2.787 0 .949-.258 1.801-.776 2.557-.511.75-1.21 1.341-2.097 1.773s-1.895.648-3.026.648z" fill="#443038"/></g><defs><clipPath id="A"><path fill="#fff" d="M0 0h375v400H0z"/></clipPath></defs></svg>