<svg xmlns="http://www.w3.org/2000/svg" width="375" height="400" fill="none" xmlns:v="https://vecta.io/nano"><g clip-path="url(#A)"><path fill="#fdfffa" d="M0 0h375v400H0z"/><path d="M57.004 25.002l-.073-2.999-2.943.072.016 2.944 3-.017zm79 3l2.766-1.162-2.987-7.112-2.603 7.261 2.824 1.012zm21 50l-2.659 1.389 5.425-2.551-2.766 1.162zm159.5-48l1.546 2.571 9.259-5.571h-10.805v3zm-259.5-5l-3 .017v.035l.001.106.002.412.008 1.564.027 5.588.065 17.007.013 17.136-.037 5.733-.032 1.62-.016.377c-.002.036-.003.027.002-.009l.021-.138c.006-.034.041-.237.133-.487l5.628 2.079c.097-.262.135-.482.146-.54a3.71 3.71 0 0 0 .033-.226l.025-.286.026-.574.035-1.736.037-5.796-.013-17.169-.065-17.019-.027-5.591-.008-1.565-.002-.412-.001-.106v-.027c0-.009 0-.009-3 .008zM54.19 73.962a3.02 3.02 0 0 0 .313 2.709 3.07 3.07 0 0 0 .908.894 3.41 3.41 0 0 0 .796.37c.288.093.585.151.8.189.474.084 1.097.16 1.811.226l5.839.268c4.723.045 10.994-.261 16.982-1.51 5.883-1.227 12.015-3.468 15.918-7.68 2.008-2.166 3.408-4.839 3.848-8.046.436-3.175-.097-6.672-1.612-10.489l-5.577 2.214c1.235 3.111 1.506 5.551 1.244 7.46-.258 1.877-1.056 3.436-2.305 4.783-2.609 2.815-7.216 4.732-12.742 5.884-5.422 1.131-11.23 1.426-15.7 1.383-2.227-.021-4.08-.126-5.341-.243a17.83 17.83 0 0 1-1.321-.16c-.143-.025-.117-.028-.006.008.019.006.286.087.601.288a2.93 2.93 0 0 1 .865.856c.399.605.705 1.594.307 2.673l-5.628-2.079zm45.603-23.067c-5.882-14.817-16.636-22.079-25.845-25.588-4.584-1.747-8.795-2.57-11.863-2.959a44.64 44.64 0 0 0-3.685-.319 29.86 29.86 0 0 0-1.045-.027c-.124-.001-.223-.001-.294 0l-.086.001h-.027c-.015 0-.017 0 .057 3l.071 2.999.04-.001h.196a23.73 23.73 0 0 1 .833.022 38.65 38.65 0 0 1 3.186.277c2.713.344 6.44 1.074 10.481 2.614 8.04 3.063 17.286 9.301 22.405 22.195l5.577-2.214zm33.446-21.731l21 50 5.532-2.323-21-50-5.532 2.323zm-13.453 49.963l9.5-23.5-5.563-2.249-9.5 23.5 5.563 2.249zm9.543-23.612l9.5-26.5-5.648-2.025-9.5 26.5 5.648 2.025zm30.335 21.098c-5.189-9.929-9.682-16.841-14.873-20.925-5.462-4.296-11.4-5.257-18.733-4.152l.894 5.933c6.188-.932 10.314-.066 14.129 2.935 4.086 3.214 8.082 9.07 13.265 18.988l5.318-2.779zm9.138-46.14c4.726 3.257 7.887 6.065 10.372 9.646 2.503 3.607 4.455 8.193 6.445 15.203l5.772-1.638c-2.07-7.294-4.243-12.599-7.288-16.985-3.062-4.413-6.871-7.702-11.896-11.166l-3.405 4.94zm22.616 24.746c1.718-6.984 3.281-11.722 5.641-15.413 2.291-3.584 5.471-6.38 10.82-9.137l-2.749-5.333c-6.031 3.108-10.126 6.546-13.126 11.238-2.933 4.586-4.679 10.164-6.412 17.212l5.826 1.433zm-5.913-.717v23.5h6v-23.5h-6zm67.5-26.5v50h6v-50h-6zm32 5h31.5v-6h-31.5v6zm29.953-5.571c-12.345 7.428-21.415 13.525-27.443 21.338-6.148 7.968-8.931 17.423-9.508 31.106l5.995.253c.546-12.949 3.132-21.043 8.263-27.694 5.25-6.804 13.37-12.391 25.786-19.862l-3.093-5.141z" fill="#461ca0"/><g stroke-width="6" stroke-linejoin="bevel"><path d="M121.003 226.73c4.728-1.866 7.594-1.24 9.25-27m0 0c1.158-23.286 2.775-31.318 9.25-27 5.496 25.931 22 67.5 17.5 54s-10.857-33.5-26.75-27zm39.75-27c9 0 17.5 2.5 24.5 18.5m0 0c6.779-7.804 11.5-11 6-18.5m-6 18.5c4.5 15.5 2 30.5-10 35.5m68.5-54c-2.59 4.839-2.557 16.938 0 54m30.5-52.5c9 4 14.5.001 25 0s8.068 12.5-1.966 22.5-22.534 17-27.534 29m-222 1c13.11-17.792 14.78-44.893 0-54 0 0 30.458-13.208 40.5 18.5s-40.922 36.583-40.5 35.5z" stroke="#d33c5a"/><path d="M121.003 375.861c4.172-9.465 6.436-15.068 9.591-28.5m0 0c5.632-27.776 6.524-27.094 8.409-28 9.805.093 11.17 32.376 19.5 56.5-6.583-28.536-11.574-40.605-27.909-28.5zm52.909-28c3.879 11.4 8.524 17.71 15.5 22.5m0 0c2.108 11.861 2.001 19.408 0 34m0-34c10.568-8.867 11.116-13.808 15-22.5m39 2c2.56 5.361 1.807 21.975 0 54.5m30.5-52c19.154-1.98 25.479-1.499 35 0-5.624 1.836-9.998-.569-35 52m-223 0v-56.5c27 .001 39.5 4.5 39.5 28s-7.5 28.5-39.5 28.5z" stroke="#edf060"/></g><path fill="#031107" d="M-35 112h445v23H-35z"/><g fill="#fdfffa"><path d="M5.117 121.438V126h-.727v-3.684l-1.293.383v-.617l1.918-.644h.102zm5.233 1.941v.68a3.02 3.02 0 0 1-.117.89c-.075.25-.185.459-.328.625s-.312.287-.516.367a1.79 1.79 0 0 1-.676.121 1.81 1.81 0 0 1-.676-.121c-.201-.08-.374-.203-.52-.367s-.254-.375-.332-.625a3.02 3.02 0 0 1-.117-.89v-.68c0-.341.038-.637.113-.887s.189-.457.332-.621.319-.285.52-.363a1.78 1.78 0 0 1 .672-.121 1.82 1.82 0 0 1 .68.121c.203.078.376.199.52.363s.253.371.328.621a2.99 2.99 0 0 1 .117.887zm-.727.781v-.89a2.43 2.43 0 0 0-.059-.567c-.039-.161-.098-.295-.176-.402s-.171-.186-.285-.239-.247-.082-.398-.082c-.146 0-.276.028-.391.082s-.207.132-.285.239-.134.241-.176.402a2.43 2.43 0 0 0-.059.567v.89c0 .216.02.406.059.57s.102.301.18.411a.79.79 0 0 0 .289.25c.115.054.245.082.391.082a.9.9 0 0 0 .395-.082.76.76 0 0 0 .285-.25c.078-.11.135-.246.172-.411s.059-.354.059-.57zm4.909-.781v.68a3.02 3.02 0 0 1-.117.89c-.076.25-.185.459-.328.625s-.312.287-.516.367a1.79 1.79 0 0 1-.676.121 1.81 1.81 0 0 1-.676-.121c-.201-.08-.374-.203-.52-.367s-.254-.375-.332-.625a3.02 3.02 0 0 1-.117-.89v-.68c0-.341.038-.637.113-.887s.189-.457.332-.621.319-.285.52-.363a1.78 1.78 0 0 1 .672-.121 1.82 1.82 0 0 1 .68.121 1.3 1.3 0 0 1 .52.363c.143.164.253.371.328.621a2.99 2.99 0 0 1 .117.887zm-.727.781v-.89a2.43 2.43 0 0 0-.059-.567c-.039-.161-.098-.295-.176-.402s-.17-.186-.285-.239-.247-.082-.398-.082c-.146 0-.276.028-.391.082a.74.74 0 0 0-.285.239 1.22 1.22 0 0 0-.176.402 2.43 2.43 0 0 0-.059.567v.89c0 .216.019.406.059.57s.102.301.18.411a.79.79 0 0 0 .289.25c.115.054.245.082.391.082a.9.9 0 0 0 .395-.082.76.76 0 0 0 .285-.25c.078-.11.135-.246.172-.411s.059-.354.059-.57zm5.248 1.84h-1.031l.004-.594h1.027c.336 0 .615-.062.836-.187s.391-.304.5-.535.164-.512.164-.832v-.258a2.13 2.13 0 0 0-.094-.66c-.062-.193-.155-.355-.277-.485a1.16 1.16 0 0 0-.457-.301c-.18-.067-.388-.101-.625-.101H18v-.598h1.102c.323 0 .617.051.883.153s.499.243.691.433.341.414.445.68.156.558.156.887v.25c0 .434-.093.813-.277 1.136a1.88 1.88 0 0 1-.773.75c-.331.175-.721.262-1.172.262zm-.637-4.551V126h-.723v-4.551h.723zm5.722.637L22.588 126h-.738l1.871-4.551h.473l-.055.637zm1.34 3.914l-1.539-3.93-.051-.621h.477L26.213 126h-.734zm-.105-1.684v.594H22.67v-.594h2.703zm2.647-.211l1.434-2.656h.813l-1.699 3h-.441l-.105-.344zm-.996-2.656l1.441 2.676-.117.324h-.434l-1.703-3h.813zm1.563 2.43V126h-.719v-2.121h.719zm4.999.957c0-.096-.017-.182-.051-.258s-.086-.148-.164-.211-.186-.125-.324-.179a3.84 3.84 0 0 0-.523-.157c-.253-.062-.48-.134-.684-.215s-.378-.179-.523-.289a1.23 1.23 0 0 1-.332-.386c-.076-.146-.113-.314-.113-.504a1.04 1.04 0 0 1 .121-.5 1.19 1.19 0 0 1 .344-.399c.148-.112.327-.198.535-.258s.44-.093.695-.093c.364 0 .676.064.934.191s.46.293.598.504.207.439.207.691h-.727c0-.153-.038-.29-.113-.41s-.185-.213-.336-.281-.339-.105-.57-.105c-.216 0-.396.028-.539.085s-.25.136-.32.235-.105.211-.105.336a.48.48 0 0 0 .063.242c.042.073.108.139.199.199a1.83 1.83 0 0 0 .356.172 4.88 4.88 0 0 0 .531.16c.253.063.477.137.672.223a1.94 1.94 0 0 1 .492.301c.135.114.237.246.305.394s.105.317.105.504-.042.362-.125.516-.198.28-.352.386-.333.189-.547.247-.445.085-.703.085c-.229 0-.456-.028-.68-.085a2.16 2.16 0 0 1-.605-.266c-.18-.12-.323-.268-.43-.445a1.21 1.21 0 0 1-.16-.629h.727c0 .151.03.28.09.386a.73.73 0 0 0 .25.262 1.24 1.24 0 0 0 .367.145 2.01 2.01 0 0 0 .441.047 1.64 1.64 0 0 0 .547-.079c.148-.054.26-.13.336-.226s.113-.208.113-.336zm7.568-1.238v.257c0 .344-.047.653-.141.926a2 2 0 0 1-.402.696 1.76 1.76 0 0 1-.629.437 2.13 2.13 0 0 1-.812.148c-.294 0-.564-.049-.809-.148s-.453-.247-.633-.437-.314-.425-.41-.696-.145-.582-.145-.926v-.257a2.74 2.74 0 0 1 .145-.922c.096-.274.232-.507.406-.699s.387-.339.629-.438a2.1 2.1 0 0 1 .809-.152c.302 0 .574.051.816.152a1.69 1.69 0 0 1 .629.438c.177.192.313.425.406.699s.141.578.141.922zm-.715.257v-.265c0-.258-.029-.486-.086-.684s-.141-.364-.25-.5-.243-.238-.402-.308-.338-.106-.539-.106a1.25 1.25 0 0 0-.523.106c-.156.07-.29.173-.402.308s-.194.302-.254.5-.09.426-.09.684v.265a2.41 2.41 0 0 0 .09.688 1.46 1.46 0 0 0 .258.504c.112.135.246.238.402.308s.335.106.527.106a1.29 1.29 0 0 0 .539-.106 1.07 1.07 0 0 0 .398-.308 1.4 1.4 0 0 0 .246-.504 2.51 2.51 0 0 0 .086-.688zm2.479-2.406V126h-.723v-4.551h.723zm2.031 2.004v.594h-2.203v-.594h2.203zm.309-2.004v.598h-2.512v-.598h2.512zM49.577 126h-1.031l.004-.594h1.027c.336 0 .615-.062.836-.187s.391-.304.5-.535.164-.512.164-.832v-.258a2.13 2.13 0 0 0-.094-.66c-.062-.193-.155-.355-.277-.485a1.16 1.16 0 0 0-.457-.301c-.18-.067-.388-.101-.625-.101h-1.102v-.598h1.102c.323 0 .617.051.883.153s.499.243.691.433.341.414.445.68.156.558.156.887v.25c0 .434-.093.813-.277 1.136a1.88 1.88 0 0 1-.773.75c-.331.175-.721.262-1.172.262zm-.637-4.551V126h-.723v-4.551h.723zm7.038 3.957V126h-2.594v-.594h2.594zm-2.418-3.957V126h-.723v-4.551h.723zm2.078 1.903v.589h-2.254v-.589h2.254zm.316-1.903v.598h-2.57v-.598h2.57zm3.495 3.387a.63.63 0 0 0-.051-.258c-.031-.078-.086-.148-.164-.211a1.18 1.18 0 0 0-.324-.179 3.84 3.84 0 0 0-.523-.157c-.253-.062-.48-.134-.684-.215s-.378-.179-.523-.289a1.23 1.23 0 0 1-.332-.386 1.08 1.08 0 0 1-.113-.504 1.04 1.04 0 0 1 .121-.5 1.19 1.19 0 0 1 .344-.399c.148-.112.327-.198.535-.258s.44-.093.695-.093c.365 0 .676.064.934.191s.46.293.598.504.207.439.207.691h-.727c0-.153-.038-.29-.113-.41s-.185-.213-.336-.281-.338-.105-.57-.105c-.216 0-.396.028-.539.085s-.25.136-.32.235-.106.211-.106.336a.48.48 0 0 0 .063.242c.042.073.108.139.199.199s.21.117.355.172.323.108.531.16a4.19 4.19 0 0 1 .672.223 1.94 1.94 0 0 1 .492.301c.136.114.237.246.305.394s.105.317.105.504-.042.362-.125.516-.198.28-.352.386-.333.189-.547.247-.445.085-.703.085c-.229 0-.456-.028-.68-.085a2.16 2.16 0 0 1-.605-.266c-.18-.12-.323-.268-.43-.445a1.21 1.21 0 0 1-.16-.629h.727c0 .151.03.28.09.386a.73.73 0 0 0 .25.262 1.24 1.24 0 0 0 .367.145 2.01 2.01 0 0 0 .441.047c.216 0 .398-.026.547-.079s.26-.13.336-.226.113-.208.113-.336zm2.425-3.387V126h-.723v-4.551h.723zm4.929 2.239v1.726c-.065.083-.167.176-.305.277s-.322.189-.559.262-.534.109-.898.109c-.302 0-.579-.048-.832-.144a1.9 1.9 0 0 1-.652-.426 1.96 1.96 0 0 1-.426-.683 2.68 2.68 0 0 1-.148-.922v-.328c0-.342.044-.646.133-.914a1.88 1.88 0 0 1 .387-.684 1.66 1.66 0 0 1 .625-.426c.247-.099.527-.148.84-.148.385 0 .706.062.961.187s.457.292.598.508a1.77 1.77 0 0 1 .273.742h-.715c-.029-.159-.085-.302-.168-.429s-.202-.228-.356-.301-.346-.114-.586-.114c-.214 0-.4.036-.559.106s-.292.173-.398.309-.182.3-.234.496-.074.412-.074.66v.336c0 .252.031.478.094.675s.152.361.27.497.262.238.426.308.353.106.559.106c.323 0 .559-.034.707-.102s.254-.134.317-.191v-.93h-1.098v-.562h1.82zm4.929-2.239V126h-.723l-2.359-3.422V126h-.723v-4.551h.723l2.359 3.422v-3.422h.723z"/><path d="M-12.5 114.5h100v-1h-100v1zm100 18h-100v1h100v-1z" mask="url(#path-4-outside-1_488315_910)"/><path d="M105.117 121.438V126h-.726v-3.684l-1.293.383v-.617l1.918-.644h.101zm5.233 1.941v.68c0 .341-.039.638-.117.89s-.185.459-.328.625a1.29 1.29 0 0 1-.515.367c-.201.081-.426.121-.676.121s-.473-.04-.676-.121-.374-.203-.52-.367-.253-.375-.332-.625-.117-.549-.117-.89v-.68c0-.341.038-.637.113-.887s.189-.457.333-.621a1.33 1.33 0 0 1 .519-.363c.201-.081.425-.121.672-.121s.476.04.68.121.376.199.519.363.253.371.328.621.117.546.117.887zm-.726.781v-.89c0-.217-.02-.405-.059-.567s-.097-.295-.175-.402a.71.71 0 0 0-.286-.239.92.92 0 0 0-.398-.082.91.91 0 0 0-.391.082.74.74 0 0 0-.285.239c-.075.107-.134.241-.176.402s-.058.35-.058.567v.89c0 .216.019.406.058.57s.102.301.18.411.175.192.289.25a.91.91 0 0 0 .391.082c.151 0 .282-.028.394-.082a.75.75 0 0 0 .285-.25c.079-.11.136-.246.172-.411s.059-.354.059-.57zm4.909-.781v.68c0 .341-.039.638-.117.89s-.185.459-.328.625a1.3 1.3 0 0 1-.516.367 1.79 1.79 0 0 1-.676.121c-.247 0-.472-.04-.676-.121a1.37 1.37 0 0 1-.519-.367 1.74 1.74 0 0 1-.332-.625c-.078-.252-.117-.549-.117-.89v-.68a3.07 3.07 0 0 1 .113-.887c.078-.25.189-.457.332-.621s.319-.285.52-.363.424-.121.671-.121.477.04.68.121.376.199.52.363.252.371.328.621.117.546.117.887zm-.727.781v-.89c0-.217-.019-.405-.058-.567s-.098-.295-.176-.402-.171-.186-.285-.239a.93.93 0 0 0-.399-.082c-.145 0-.276.028-.39.082a.74.74 0 0 0-.285.239 1.22 1.22 0 0 0-.176.402c-.039.162-.059.35-.059.567v.89c0 .216.02.406.059.57s.101.301.18.411.174.192.289.25a.9.9 0 0 0 .39.082.9.9 0 0 0 .395-.082c.114-.058.209-.141.285-.25s.135-.246.172-.411.058-.354.058-.57zm5.248 1.84h-1.031l.004-.594h1.027c.336 0 .615-.062.836-.187a1.17 1.17 0 0 0 .5-.535c.11-.235.164-.512.164-.832v-.258c0-.248-.031-.468-.094-.66a1.25 1.25 0 0 0-.277-.485 1.16 1.16 0 0 0-.457-.301c-.18-.067-.388-.101-.625-.101H118v-.598h1.101c.323 0 .617.051.883.153a1.91 1.91 0 0 1 .691.433c.193.188.341.414.446.68s.156.558.156.887v.25c0 .434-.093.813-.277 1.136a1.89 1.89 0 0 1-.774.75c-.331.175-.721.262-1.172.262zm-.637-4.551V126h-.722v-4.551h.722zm5.722.637L122.588 126h-.738l1.871-4.551h.473l-.055.637zm1.34 3.914l-1.539-3.93-.051-.621h.477l1.847 4.551h-.734zm-.106-1.684v.594h-2.703v-.594h2.703zm2.648-.211l1.433-2.656h.813l-1.699 3h-.442l-.105-.344zm-.996-2.656l1.441 2.676-.117.324h-.434l-1.703-3h.813zm1.562 2.43V126h-.719v-2.121h.719zm4.999.957c0-.096-.017-.182-.051-.258a.52.52 0 0 0-.164-.211c-.078-.065-.186-.125-.324-.179s-.312-.107-.523-.157a5.17 5.17 0 0 1-.684-.215c-.203-.083-.378-.179-.523-.289a1.22 1.22 0 0 1-.332-.386c-.076-.146-.114-.314-.114-.504a1.05 1.05 0 0 1 .121-.5c.081-.154.196-.287.344-.399s.327-.198.535-.258.44-.093.696-.093c.364 0 .675.064.933.191a1.43 1.43 0 0 1 .598.504c.138.208.207.439.207.691h-.727a.75.75 0 0 0-.113-.41c-.073-.12-.185-.213-.336-.281s-.338-.105-.57-.105c-.216 0-.396.028-.539.085s-.25.136-.321.235a.57.57 0 0 0-.105.336c0 .088.021.169.062.242s.108.139.2.199.209.117.355.172a4.91 4.91 0 0 0 .531.16c.253.063.477.137.672.223s.36.186.492.301.237.246.305.394a1.17 1.17 0 0 1 .106.504 1.07 1.07 0 0 1-.125.516c-.081.151-.198.28-.352.386a1.71 1.71 0 0 1-.547.247c-.211.057-.445.085-.703.085a2.75 2.75 0 0 1-.68-.085c-.221-.06-.423-.149-.605-.266s-.323-.268-.43-.445-.16-.39-.16-.629h.727c0 .151.03.28.089.386s.144.194.25.262.23.113.368.145a2.01 2.01 0 0 0 .441.047c.216 0 .398-.026.547-.079a.74.74 0 0 0 .336-.226.53.53 0 0 0 .113-.336zm7.568-1.238v.257c0 .344-.047.653-.14.926s-.228.503-.403.696-.384.335-.629.437-.513.148-.812.148a2.14 2.14 0 0 1-.809-.148 1.85 1.85 0 0 1-.633-.437c-.177-.193-.313-.425-.41-.696s-.144-.582-.144-.926v-.257a2.75 2.75 0 0 1 .144-.922c.097-.274.232-.507.407-.699a1.73 1.73 0 0 1 .628-.438c.245-.101.515-.152.809-.152a2.1 2.1 0 0 1 .816.152c.245.099.455.245.629.438a1.95 1.95 0 0 1 .407.699 2.83 2.83 0 0 1 .14.922zm-.715.257v-.265a2.44 2.44 0 0 0-.086-.684c-.057-.198-.14-.364-.25-.5a1.06 1.06 0 0 0-.402-.308c-.159-.071-.338-.106-.539-.106-.193 0-.367.035-.523.106a1.1 1.1 0 0 0-.403.308 1.47 1.47 0 0 0-.254.5c-.06.198-.089.426-.089.684v.265c0 .258.029.487.089.688s.146.366.258.504a1.1 1.1 0 0 0 .403.308c.158.071.334.106.527.106a1.29 1.29 0 0 0 .539-.106 1.07 1.07 0 0 0 .398-.308 1.38 1.38 0 0 0 .246-.504c.058-.201.086-.43.086-.688zm2.48-2.406V126h-.723v-4.551h.723zm2.031 2.004v.594h-2.203v-.594h2.203zm.309-2.004v.598h-2.512v-.598h2.512zm4.318 4.551h-1.032l.004-.594h1.028c.336 0 .614-.062.836-.187s.39-.304.5-.535a1.96 1.96 0 0 0 .164-.832v-.258c0-.248-.032-.468-.094-.66s-.155-.355-.277-.485-.275-.233-.457-.301-.388-.101-.625-.101h-1.102v-.598h1.102c.323 0 .617.051.882.153s.499.243.692.433a1.9 1.9 0 0 1 .445.68c.104.263.156.558.156.887v.25c0 .434-.092.813-.277 1.136a1.88 1.88 0 0 1-.773.75c-.331.175-.722.262-1.172.262zm-.637-4.551V126h-.723v-4.551h.723zm7.038 3.957V126h-2.594v-.594h2.594zm-2.418-3.957V126h-.723v-4.551h.723zm2.078 1.903v.589h-2.254v-.589h2.254zm.317-1.903v.598h-2.571v-.598h2.571zm3.495 3.387c0-.096-.017-.182-.051-.258a.52.52 0 0 0-.164-.211c-.078-.065-.187-.125-.325-.179s-.312-.107-.523-.157a5.22 5.22 0 0 1-.684-.215 2.33 2.33 0 0 1-.523-.289c-.143-.112-.254-.241-.332-.386s-.113-.314-.113-.504a1.04 1.04 0 0 1 .121-.5c.081-.154.195-.287.344-.399s.326-.198.535-.258a2.43 2.43 0 0 1 .695-.093c.365 0 .676.064.934.191s.459.293.597.504.207.439.207.691h-.726a.75.75 0 0 0-.114-.41c-.072-.12-.184-.213-.335-.281s-.339-.105-.571-.105c-.216 0-.396.028-.539.085a.7.7 0 0 0-.32.235.57.57 0 0 0-.106.336c0 .088.021.169.063.242s.108.139.199.199.21.117.356.172.322.108.531.16a4.23 4.23 0 0 1 .672.223c.195.086.359.186.492.301s.237.246.305.394a1.17 1.17 0 0 1 .105.504 1.07 1.07 0 0 1-.125.516c-.081.151-.198.28-.352.386s-.333.189-.546.247a2.7 2.7 0 0 1-.704.085 2.74 2.74 0 0 1-.679-.085c-.222-.06-.423-.149-.606-.266a1.4 1.4 0 0 1-.429-.445c-.107-.18-.161-.39-.161-.629h.727c0 .151.03.28.09.386a.73.73 0 0 0 .25.262 1.24 1.24 0 0 0 .367.145 2.01 2.01 0 0 0 .441.047c.217 0 .399-.026.547-.079s.261-.13.336-.226.114-.208.114-.336zm2.424-3.387V126h-.722v-4.551h.722zm4.929 2.239v1.726c-.065.083-.167.176-.305.277s-.321.189-.558.262-.534.109-.899.109c-.302 0-.579-.048-.832-.144a1.9 1.9 0 0 1-.652-.426 1.94 1.94 0 0 1-.426-.683c-.099-.271-.149-.579-.149-.922v-.328a2.92 2.92 0 0 1 .133-.914 1.89 1.89 0 0 1 .387-.684 1.66 1.66 0 0 1 .625-.426c.247-.099.527-.148.84-.148.385 0 .706.062.961.187s.457.292.597.508a1.76 1.76 0 0 1 .274.742h-.715c-.029-.159-.085-.302-.168-.429s-.202-.228-.355-.301-.347-.114-.586-.114c-.214 0-.4.036-.559.106s-.292.173-.398.309-.183.3-.235.496-.074.412-.074.66v.336a2.22 2.22 0 0 0 .094.675c.062.196.152.361.269.497a1.19 1.19 0 0 0 .426.308c.167.071.353.106.559.106.323 0 .558-.034.707-.102s.254-.134.316-.191v-.93h-1.098v-.562h1.821zm4.928-2.239V126h-.722l-2.36-3.422V126h-.722v-4.551h.722l2.36 3.422v-3.422h.722z"/><path d="M87.5 114.5h100v-1h-100v1zm100 18h-100v1h100v-1z" mask="url(#path-7-outside-2_488315_910)"/><path d="M205.117 121.438V126h-.726v-3.684l-1.293.383v-.617l1.918-.644h.101zm5.233 1.941v.68c0 .341-.039.638-.117.89s-.185.459-.328.625a1.29 1.29 0 0 1-.515.367c-.201.081-.426.121-.676.121s-.473-.04-.676-.121-.374-.203-.52-.367-.253-.375-.332-.625-.117-.549-.117-.89v-.68c0-.341.038-.637.113-.887s.189-.457.333-.621a1.33 1.33 0 0 1 .519-.363c.201-.081.425-.121.672-.121s.476.04.68.121.376.199.519.363.253.371.328.621.117.546.117.887zm-.726.781v-.89c0-.217-.02-.405-.059-.567s-.097-.295-.175-.402a.71.71 0 0 0-.286-.239.92.92 0 0 0-.398-.082.91.91 0 0 0-.391.082.74.74 0 0 0-.285.239c-.075.107-.134.241-.176.402s-.058.35-.058.567v.89c0 .216.019.406.058.57s.102.301.18.411.175.192.289.25a.91.91 0 0 0 .391.082c.151 0 .282-.028.394-.082a.75.75 0 0 0 .285-.25c.079-.11.136-.246.172-.411s.059-.354.059-.57zm4.909-.781v.68c0 .341-.039.638-.117.89s-.185.459-.328.625a1.3 1.3 0 0 1-.516.367 1.79 1.79 0 0 1-.676.121c-.247 0-.472-.04-.676-.121a1.37 1.37 0 0 1-.519-.367 1.74 1.74 0 0 1-.332-.625c-.078-.252-.117-.549-.117-.89v-.68a3.07 3.07 0 0 1 .113-.887c.078-.25.189-.457.332-.621s.319-.285.52-.363.424-.121.671-.121.477.04.68.121.376.199.52.363.252.371.328.621.117.546.117.887zm-.727.781v-.89c0-.217-.019-.405-.058-.567s-.098-.295-.176-.402-.171-.186-.285-.239a.93.93 0 0 0-.399-.082c-.145 0-.276.028-.39.082a.74.74 0 0 0-.285.239 1.22 1.22 0 0 0-.176.402c-.039.162-.059.35-.059.567v.89c0 .216.02.406.059.57s.101.301.18.411.174.192.289.25a.9.9 0 0 0 .39.082.9.9 0 0 0 .395-.082c.114-.058.209-.141.285-.25s.135-.246.172-.411.058-.354.058-.57zm5.248 1.84h-1.031l.004-.594h1.027c.336 0 .615-.062.836-.187a1.17 1.17 0 0 0 .5-.535c.11-.235.164-.512.164-.832v-.258c0-.248-.031-.468-.094-.66a1.25 1.25 0 0 0-.277-.485 1.16 1.16 0 0 0-.457-.301c-.18-.067-.388-.101-.625-.101H218v-.598h1.101c.323 0 .617.051.883.153a1.91 1.91 0 0 1 .691.433c.193.188.341.414.446.68s.156.558.156.887v.25c0 .434-.093.813-.277 1.136a1.89 1.89 0 0 1-.774.75c-.331.175-.721.262-1.172.262zm-.637-4.551V126h-.722v-4.551h.722zm5.722.637L222.588 126h-.738l1.871-4.551h.473l-.055.637zm1.34 3.914l-1.539-3.93-.051-.621h.477l1.847 4.551h-.734zm-.106-1.684v.594h-2.703v-.594h2.703zm2.648-.211l1.433-2.656h.813l-1.699 3h-.442l-.105-.344zm-.996-2.656l1.441 2.676-.117.324h-.434l-1.703-3h.813zm1.562 2.43V126h-.719v-2.121h.719zm4.999.957c0-.096-.017-.182-.051-.258a.52.52 0 0 0-.164-.211c-.078-.065-.186-.125-.324-.179s-.312-.107-.523-.157a5.17 5.17 0 0 1-.684-.215c-.203-.083-.378-.179-.523-.289a1.22 1.22 0 0 1-.332-.386c-.076-.146-.114-.314-.114-.504a1.05 1.05 0 0 1 .121-.5c.081-.154.196-.287.344-.399s.327-.198.535-.258.44-.093.696-.093c.364 0 .675.064.933.191a1.43 1.43 0 0 1 .598.504c.138.208.207.439.207.691h-.727a.75.75 0 0 0-.113-.41c-.073-.12-.185-.213-.336-.281s-.338-.105-.57-.105c-.216 0-.396.028-.539.085s-.25.136-.321.235a.57.57 0 0 0-.105.336c0 .088.021.169.062.242s.108.139.2.199.209.117.355.172a4.91 4.91 0 0 0 .531.16c.253.063.477.137.672.223s.36.186.492.301.237.246.305.394a1.17 1.17 0 0 1 .106.504 1.07 1.07 0 0 1-.125.516c-.081.151-.198.28-.352.386a1.71 1.71 0 0 1-.547.247c-.211.057-.445.085-.703.085a2.75 2.75 0 0 1-.68-.085c-.221-.06-.423-.149-.605-.266s-.323-.268-.43-.445-.16-.39-.16-.629h.727c0 .151.03.28.089.386s.144.194.25.262.23.113.368.145a2.01 2.01 0 0 0 .441.047c.216 0 .398-.026.547-.079a.74.74 0 0 0 .336-.226.53.53 0 0 0 .113-.336zm7.568-1.238v.257c0 .344-.047.653-.14.926s-.228.503-.403.696-.384.335-.629.437-.513.148-.812.148a2.14 2.14 0 0 1-.809-.148 1.85 1.85 0 0 1-.633-.437c-.177-.193-.313-.425-.41-.696s-.144-.582-.144-.926v-.257a2.75 2.75 0 0 1 .144-.922c.097-.274.232-.507.407-.699a1.73 1.73 0 0 1 .628-.438c.245-.101.515-.152.809-.152a2.1 2.1 0 0 1 .816.152c.245.099.455.245.629.438a1.95 1.95 0 0 1 .407.699 2.83 2.83 0 0 1 .14.922zm-.715.257v-.265a2.44 2.44 0 0 0-.086-.684c-.057-.198-.14-.364-.25-.5a1.06 1.06 0 0 0-.402-.308c-.159-.071-.338-.106-.539-.106-.193 0-.367.035-.523.106a1.1 1.1 0 0 0-.403.308 1.47 1.47 0 0 0-.254.5c-.06.198-.089.426-.089.684v.265c0 .258.029.487.089.688s.146.366.258.504a1.1 1.1 0 0 0 .403.308c.158.071.334.106.527.106a1.29 1.29 0 0 0 .539-.106 1.07 1.07 0 0 0 .398-.308 1.38 1.38 0 0 0 .246-.504c.058-.201.086-.43.086-.688zm2.48-2.406V126h-.723v-4.551h.723zm2.031 2.004v.594h-2.203v-.594h2.203zm.309-2.004v.598h-2.512v-.598h2.512zm4.318 4.551h-1.032l.004-.594h1.028c.336 0 .614-.062.836-.187s.39-.304.5-.535a1.96 1.96 0 0 0 .164-.832v-.258c0-.248-.032-.468-.094-.66s-.155-.355-.277-.485-.275-.233-.457-.301-.388-.101-.625-.101h-1.102v-.598h1.102c.323 0 .617.051.882.153s.499.243.692.433a1.9 1.9 0 0 1 .445.68c.104.263.156.558.156.887v.25c0 .434-.092.813-.277 1.136a1.88 1.88 0 0 1-.773.75c-.331.175-.722.262-1.172.262zm-.637-4.551V126h-.723v-4.551h.723zm7.038 3.957V126h-2.594v-.594h2.594zm-2.418-3.957V126h-.723v-4.551h.723zm2.078 1.903v.589h-2.254v-.589h2.254zm.317-1.903v.598h-2.571v-.598h2.571zm3.495 3.387c0-.096-.017-.182-.051-.258a.52.52 0 0 0-.164-.211c-.078-.065-.187-.125-.325-.179s-.312-.107-.523-.157a5.22 5.22 0 0 1-.684-.215 2.33 2.33 0 0 1-.523-.289c-.143-.112-.254-.241-.332-.386s-.113-.314-.113-.504a1.04 1.04 0 0 1 .121-.5c.081-.154.195-.287.344-.399s.326-.198.535-.258a2.43 2.43 0 0 1 .695-.093c.365 0 .676.064.934.191s.459.293.597.504.207.439.207.691h-.726a.75.75 0 0 0-.114-.41c-.072-.12-.184-.213-.335-.281s-.339-.105-.571-.105c-.216 0-.396.028-.539.085a.7.7 0 0 0-.32.235.57.57 0 0 0-.106.336c0 .088.021.169.063.242s.108.139.199.199.21.117.356.172.322.108.531.16a4.23 4.23 0 0 1 .672.223c.195.086.359.186.492.301s.237.246.305.394a1.17 1.17 0 0 1 .105.504 1.07 1.07 0 0 1-.125.516c-.081.151-.198.28-.352.386s-.333.189-.546.247a2.7 2.7 0 0 1-.704.085 2.74 2.74 0 0 1-.679-.085c-.222-.06-.423-.149-.606-.266a1.4 1.4 0 0 1-.429-.445c-.107-.18-.161-.39-.161-.629h.727c0 .151.03.28.09.386a.73.73 0 0 0 .25.262 1.24 1.24 0 0 0 .367.145 2.01 2.01 0 0 0 .441.047c.217 0 .399-.026.547-.079s.261-.13.336-.226.114-.208.114-.336zm2.424-3.387V126h-.722v-4.551h.722zm4.929 2.239v1.726c-.065.083-.167.176-.305.277s-.321.189-.558.262-.534.109-.899.109c-.302 0-.579-.048-.832-.144a1.9 1.9 0 0 1-.652-.426 1.94 1.94 0 0 1-.426-.683c-.099-.271-.149-.579-.149-.922v-.328a2.92 2.92 0 0 1 .133-.914 1.89 1.89 0 0 1 .387-.684 1.66 1.66 0 0 1 .625-.426c.247-.099.527-.148.84-.148.385 0 .706.062.961.187s.457.292.597.508a1.76 1.76 0 0 1 .274.742h-.715c-.029-.159-.085-.302-.168-.429s-.202-.228-.355-.301-.347-.114-.586-.114c-.214 0-.4.036-.559.106s-.292.173-.398.309-.183.3-.235.496-.074.412-.074.66v.336a2.22 2.22 0 0 0 .094.675c.062.196.152.361.269.497a1.19 1.19 0 0 0 .426.308c.167.071.353.106.559.106.323 0 .558-.034.707-.102s.254-.134.316-.191v-.93h-1.098v-.562h1.821zm4.928-2.239V126h-.722l-2.36-3.422V126h-.722v-4.551h.722l2.36 3.422v-3.422h.722z"/><path d="M187.5 114.5h100v-1h-100v1zm100 18h-100v1h100v-1z" mask="url(#path-10-outside-3_488315_910)"/><path d="M305.117 121.438V126h-.726v-3.684l-1.293.383v-.617l1.918-.644h.101zm5.233 1.941v.68c0 .341-.039.638-.117.89s-.185.459-.328.625a1.29 1.29 0 0 1-.515.367c-.201.081-.426.121-.676.121s-.473-.04-.676-.121-.374-.203-.52-.367-.253-.375-.332-.625-.117-.549-.117-.89v-.68c0-.341.038-.637.113-.887s.189-.457.333-.621a1.33 1.33 0 0 1 .519-.363c.201-.081.425-.121.672-.121s.476.04.68.121.376.199.519.363.253.371.328.621.117.546.117.887zm-.726.781v-.89c0-.217-.02-.405-.059-.567s-.097-.295-.175-.402a.71.71 0 0 0-.286-.239.92.92 0 0 0-.398-.082.91.91 0 0 0-.391.082.74.74 0 0 0-.285.239c-.075.107-.134.241-.176.402s-.058.35-.058.567v.89c0 .216.019.406.058.57s.102.301.18.411.175.192.289.25a.91.91 0 0 0 .391.082c.151 0 .282-.028.394-.082a.75.75 0 0 0 .285-.25c.079-.11.136-.246.172-.411s.059-.354.059-.57zm4.909-.781v.68c0 .341-.039.638-.117.89s-.185.459-.328.625a1.3 1.3 0 0 1-.516.367 1.79 1.79 0 0 1-.676.121c-.247 0-.472-.04-.676-.121a1.37 1.37 0 0 1-.519-.367 1.74 1.74 0 0 1-.332-.625c-.078-.252-.117-.549-.117-.89v-.68a3.07 3.07 0 0 1 .113-.887c.078-.25.189-.457.332-.621s.319-.285.52-.363.424-.121.671-.121.477.04.68.121.376.199.52.363.252.371.328.621.117.546.117.887zm-.727.781v-.89c0-.217-.019-.405-.058-.567s-.098-.295-.176-.402-.171-.186-.285-.239a.93.93 0 0 0-.399-.082c-.145 0-.276.028-.39.082a.74.74 0 0 0-.285.239 1.22 1.22 0 0 0-.176.402c-.039.162-.059.35-.059.567v.89c0 .216.02.406.059.57s.101.301.18.411.174.192.289.25a.9.9 0 0 0 .39.082.9.9 0 0 0 .395-.082c.114-.058.209-.141.285-.25s.135-.246.172-.411.058-.354.058-.57zm5.248 1.84h-1.031l.004-.594h1.027c.336 0 .615-.062.836-.187a1.17 1.17 0 0 0 .5-.535c.11-.235.164-.512.164-.832v-.258c0-.248-.031-.468-.094-.66a1.25 1.25 0 0 0-.277-.485 1.16 1.16 0 0 0-.457-.301c-.18-.067-.388-.101-.625-.101H318v-.598h1.101c.323 0 .617.051.883.153a1.91 1.91 0 0 1 .691.433c.193.188.341.414.446.68s.156.558.156.887v.25c0 .434-.093.813-.277 1.136a1.89 1.89 0 0 1-.774.75c-.331.175-.721.262-1.172.262zm-.637-4.551V126h-.722v-4.551h.722zm5.722.637L322.588 126h-.738l1.871-4.551h.473l-.055.637zm1.34 3.914l-1.539-3.93-.051-.621h.477l1.847 4.551h-.734zm-.106-1.684v.594h-2.703v-.594h2.703zm2.648-.211l1.433-2.656h.813l-1.699 3h-.442l-.105-.344zm-.996-2.656l1.441 2.676-.117.324h-.434l-1.703-3h.813zm1.562 2.43V126h-.719v-2.121h.719zm4.999.957c0-.096-.017-.182-.051-.258a.52.52 0 0 0-.164-.211c-.078-.065-.186-.125-.324-.179s-.312-.107-.523-.157a5.17 5.17 0 0 1-.684-.215c-.203-.083-.378-.179-.523-.289a1.22 1.22 0 0 1-.332-.386c-.076-.146-.114-.314-.114-.504a1.05 1.05 0 0 1 .121-.5c.081-.154.196-.287.344-.399s.327-.198.535-.258.44-.093.696-.093c.364 0 .675.064.933.191a1.43 1.43 0 0 1 .598.504c.138.208.207.439.207.691h-.727a.75.75 0 0 0-.113-.41c-.073-.12-.185-.213-.336-.281s-.338-.105-.57-.105c-.216 0-.396.028-.539.085s-.25.136-.321.235a.57.57 0 0 0-.105.336c0 .088.021.169.062.242s.108.139.2.199.209.117.355.172a4.91 4.91 0 0 0 .531.16c.253.063.477.137.672.223s.36.186.492.301.237.246.305.394a1.17 1.17 0 0 1 .106.504 1.07 1.07 0 0 1-.125.516c-.081.151-.198.28-.352.386a1.71 1.71 0 0 1-.547.247c-.211.057-.445.085-.703.085a2.75 2.75 0 0 1-.68-.085c-.221-.06-.423-.149-.605-.266s-.323-.268-.43-.445-.16-.39-.16-.629h.727c0 .151.03.28.089.386s.144.194.25.262.23.113.368.145a2.01 2.01 0 0 0 .441.047c.216 0 .398-.026.547-.079a.74.74 0 0 0 .336-.226.53.53 0 0 0 .113-.336zm7.568-1.238v.257c0 .344-.047.653-.14.926s-.228.503-.403.696-.384.335-.629.437-.513.148-.812.148a2.14 2.14 0 0 1-.809-.148 1.85 1.85 0 0 1-.633-.437c-.177-.193-.313-.425-.41-.696s-.144-.582-.144-.926v-.257a2.75 2.75 0 0 1 .144-.922c.097-.274.232-.507.407-.699a1.73 1.73 0 0 1 .628-.438c.245-.101.515-.152.809-.152a2.1 2.1 0 0 1 .816.152c.245.099.455.245.629.438a1.95 1.95 0 0 1 .407.699 2.83 2.83 0 0 1 .14.922zm-.715.257v-.265a2.44 2.44 0 0 0-.086-.684c-.057-.198-.14-.364-.25-.5a1.06 1.06 0 0 0-.402-.308c-.159-.071-.338-.106-.539-.106-.193 0-.367.035-.523.106a1.1 1.1 0 0 0-.403.308 1.47 1.47 0 0 0-.254.5c-.06.198-.089.426-.089.684v.265c0 .258.029.487.089.688s.146.366.258.504a1.1 1.1 0 0 0 .403.308c.158.071.334.106.527.106a1.29 1.29 0 0 0 .539-.106 1.07 1.07 0 0 0 .398-.308 1.38 1.38 0 0 0 .246-.504c.058-.201.086-.43.086-.688zm2.48-2.406V126h-.723v-4.551h.723zm2.031 2.004v.594h-2.203v-.594h2.203zm.309-2.004v.598h-2.512v-.598h2.512zm4.318 4.551h-1.032l.004-.594h1.028c.336 0 .614-.062.836-.187s.39-.304.5-.535a1.96 1.96 0 0 0 .164-.832v-.258c0-.248-.032-.468-.094-.66s-.155-.355-.277-.485-.275-.233-.457-.301-.388-.101-.625-.101h-1.102v-.598h1.102c.323 0 .617.051.882.153s.499.243.692.433a1.9 1.9 0 0 1 .445.68c.104.263.156.558.156.887v.25c0 .434-.092.813-.277 1.136a1.88 1.88 0 0 1-.773.75c-.331.175-.722.262-1.172.262zm-.637-4.551V126h-.723v-4.551h.723zm7.038 3.957V126h-2.594v-.594h2.594zm-2.418-3.957V126h-.723v-4.551h.723zm2.078 1.903v.589h-2.254v-.589h2.254zm.317-1.903v.598h-2.571v-.598h2.571zm3.495 3.387c0-.096-.017-.182-.051-.258a.52.52 0 0 0-.164-.211c-.078-.065-.187-.125-.325-.179s-.312-.107-.523-.157a5.22 5.22 0 0 1-.684-.215 2.33 2.33 0 0 1-.523-.289c-.143-.112-.254-.241-.332-.386s-.113-.314-.113-.504a1.04 1.04 0 0 1 .121-.5c.081-.154.195-.287.344-.399s.326-.198.535-.258a2.43 2.43 0 0 1 .695-.093c.365 0 .676.064.934.191s.459.293.597.504.207.439.207.691h-.726a.75.75 0 0 0-.114-.41c-.072-.12-.184-.213-.335-.281s-.339-.105-.571-.105c-.216 0-.396.028-.539.085a.7.7 0 0 0-.32.235.57.57 0 0 0-.106.336c0 .088.021.169.063.242s.108.139.199.199.21.117.356.172.322.108.531.16a4.23 4.23 0 0 1 .672.223c.195.086.359.186.492.301s.237.246.305.394a1.17 1.17 0 0 1 .105.504 1.07 1.07 0 0 1-.125.516c-.081.151-.198.28-.352.386s-.333.189-.546.247a2.7 2.7 0 0 1-.704.085 2.74 2.74 0 0 1-.679-.085c-.222-.06-.423-.149-.606-.266a1.4 1.4 0 0 1-.429-.445c-.107-.18-.161-.39-.161-.629h.727c0 .151.03.28.09.386a.73.73 0 0 0 .25.262 1.24 1.24 0 0 0 .367.145 2.01 2.01 0 0 0 .441.047c.217 0 .399-.026.547-.079s.261-.13.336-.226.114-.208.114-.336zm2.424-3.387V126h-.722v-4.551h.722zm4.929 2.239v1.726c-.065.083-.167.176-.305.277s-.321.189-.558.262-.534.109-.899.109c-.302 0-.579-.048-.832-.144a1.9 1.9 0 0 1-.652-.426 1.94 1.94 0 0 1-.426-.683c-.099-.271-.149-.579-.149-.922v-.328a2.92 2.92 0 0 1 .133-.914 1.89 1.89 0 0 1 .387-.684 1.66 1.66 0 0 1 .625-.426c.247-.099.527-.148.84-.148.385 0 .706.062.961.187s.457.292.597.508a1.76 1.76 0 0 1 .274.742h-.715c-.029-.159-.085-.302-.168-.429s-.202-.228-.355-.301-.347-.114-.586-.114c-.214 0-.4.036-.559.106s-.292.173-.398.309-.183.3-.235.496-.074.412-.074.66v.336a2.22 2.22 0 0 0 .094.675c.062.196.152.361.269.497a1.19 1.19 0 0 0 .426.308c.167.071.353.106.559.106.323 0 .558-.034.707-.102s.254-.134.316-.191v-.93h-1.098v-.562h1.821zm4.928-2.239V126h-.722l-2.36-3.422V126h-.722v-4.551h.722l2.36 3.422v-3.422h.722z"/><path d="M287.5 114.5h100v-1h-100v1zm100 18h-100v1h100v-1z" mask="url(#path-13-outside-4_488315_910)"/></g><path fill="#031107" d="M-35 266h446v23H-35z"/><g fill="#fdfffa"><path d="M5.617 275.438V280h-.727v-3.684l-1.293.383v-.617l1.918-.644h.102zm5.233 1.941v.68a3.02 3.02 0 0 1-.117.89c-.075.25-.185.459-.328.625s-.312.287-.516.367a1.79 1.79 0 0 1-.676.121 1.81 1.81 0 0 1-.676-.121c-.201-.08-.374-.203-.52-.367s-.254-.375-.332-.625a3.02 3.02 0 0 1-.117-.89v-.68c0-.341.038-.637.113-.887s.189-.457.332-.621.319-.285.52-.363a1.78 1.78 0 0 1 .672-.121 1.82 1.82 0 0 1 .68.121 1.3 1.3 0 0 1 .52.363c.143.164.253.371.328.621a2.99 2.99 0 0 1 .117.887zm-.727.781v-.89a2.43 2.43 0 0 0-.059-.567c-.039-.161-.098-.295-.176-.402s-.171-.186-.285-.239-.247-.082-.398-.082c-.146 0-.276.028-.391.082s-.207.132-.285.239-.134.241-.176.402a2.43 2.43 0 0 0-.059.567v.89c0 .216.02.406.059.57s.102.301.18.411a.79.79 0 0 0 .289.25c.115.054.245.082.391.082a.9.9 0 0 0 .395-.082.76.76 0 0 0 .285-.25c.078-.11.135-.246.172-.411s.059-.354.059-.57zm4.909-.781v.68a3.02 3.02 0 0 1-.117.89c-.076.25-.185.459-.328.625s-.312.287-.516.367a1.79 1.79 0 0 1-.676.121 1.81 1.81 0 0 1-.676-.121c-.201-.08-.374-.203-.52-.367s-.254-.375-.332-.625a3.02 3.02 0 0 1-.117-.89v-.68c0-.341.038-.637.113-.887s.189-.457.332-.621.319-.285.52-.363a1.78 1.78 0 0 1 .672-.121 1.82 1.82 0 0 1 .68.121 1.3 1.3 0 0 1 .52.363c.143.164.253.371.328.621a2.99 2.99 0 0 1 .117.887zm-.727.781v-.89a2.43 2.43 0 0 0-.059-.567c-.039-.161-.098-.295-.176-.402s-.17-.186-.285-.239-.247-.082-.398-.082c-.146 0-.276.028-.391.082a.74.74 0 0 0-.285.239 1.22 1.22 0 0 0-.176.402 2.43 2.43 0 0 0-.059.567v.89c0 .216.019.406.059.57s.102.301.18.411a.79.79 0 0 0 .289.25c.115.054.245.082.391.082a.9.9 0 0 0 .395-.082.76.76 0 0 0 .285-.25c.078-.11.135-.246.172-.411s.059-.354.059-.57zm5.248 1.84h-1.031l.004-.594h1.027c.336 0 .615-.062.836-.187s.391-.304.5-.535.164-.512.164-.832v-.258a2.13 2.13 0 0 0-.094-.66c-.062-.193-.155-.355-.277-.485a1.16 1.16 0 0 0-.457-.301c-.18-.067-.388-.101-.625-.101H18.5v-.598h1.102c.323 0 .617.051.883.153s.499.243.691.433.341.414.445.68.156.558.156.887v.25c0 .434-.093.813-.277 1.136a1.88 1.88 0 0 1-.773.75c-.331.175-.721.262-1.172.262zm-.637-4.551V280h-.723v-4.551h.723zm5.722.637L23.088 280h-.738l1.871-4.551h.473l-.055.637zm1.34 3.914l-1.539-3.93-.051-.621h.477L26.713 280h-.734zm-.105-1.684v.594H23.17v-.594h2.703zm2.647-.211l1.434-2.656h.813l-1.699 3h-.441l-.105-.344zm-.996-2.656l1.441 2.676-.117.324h-.434l-1.703-3h.813zm1.563 2.43V280h-.719v-2.121h.719zm4.999.957c0-.096-.017-.182-.051-.258s-.086-.148-.164-.211-.186-.125-.324-.179a3.84 3.84 0 0 0-.523-.157c-.253-.062-.48-.134-.684-.215s-.378-.179-.523-.289a1.23 1.23 0 0 1-.332-.386c-.076-.146-.113-.314-.113-.504a1.04 1.04 0 0 1 .121-.5 1.19 1.19 0 0 1 .344-.399c.148-.112.327-.198.535-.258s.44-.093.695-.093c.364 0 .676.064.934.191s.46.293.598.504.207.439.207.691h-.727c0-.153-.038-.29-.113-.41s-.185-.213-.336-.281-.339-.105-.57-.105c-.216 0-.396.028-.539.085s-.25.136-.32.235-.105.211-.105.336a.48.48 0 0 0 .063.242c.042.073.108.139.199.199a1.83 1.83 0 0 0 .355.172 4.88 4.88 0 0 0 .531.16c.253.063.477.137.672.223a1.94 1.94 0 0 1 .492.301c.135.114.237.246.305.394s.105.317.105.504-.042.362-.125.516-.198.28-.352.386-.333.189-.547.247-.445.085-.703.085c-.229 0-.456-.028-.68-.085a2.16 2.16 0 0 1-.605-.266c-.18-.12-.323-.268-.43-.445a1.21 1.21 0 0 1-.16-.629h.727c0 .151.03.28.09.386a.73.73 0 0 0 .25.262 1.24 1.24 0 0 0 .367.145 2.01 2.01 0 0 0 .441.047 1.64 1.64 0 0 0 .547-.079c.148-.054.26-.13.336-.226s.113-.208.113-.336zm7.568-1.238v.257c0 .344-.047.653-.141.926a2 2 0 0 1-.402.696 1.76 1.76 0 0 1-.629.437 2.13 2.13 0 0 1-.812.148c-.294 0-.564-.049-.809-.148s-.453-.247-.633-.437-.314-.425-.41-.696-.145-.582-.145-.926v-.257a2.74 2.74 0 0 1 .145-.922c.096-.274.232-.507.406-.699s.387-.339.629-.438a2.1 2.1 0 0 1 .809-.152c.302 0 .574.051.816.152a1.69 1.69 0 0 1 .629.438c.177.192.313.425.406.699s.141.578.141.922zm-.715.257v-.265c0-.258-.029-.486-.086-.684s-.141-.364-.25-.5-.243-.238-.402-.308-.338-.106-.539-.106a1.25 1.25 0 0 0-.523.106c-.156.07-.29.173-.402.308s-.194.302-.254.5-.09.426-.09.684v.265a2.41 2.41 0 0 0 .09.688 1.46 1.46 0 0 0 .258.504c.112.135.246.238.402.308s.335.106.527.106a1.29 1.29 0 0 0 .539-.106 1.07 1.07 0 0 0 .398-.308 1.4 1.4 0 0 0 .246-.504 2.51 2.51 0 0 0 .086-.688zm2.479-2.406V280h-.723v-4.551h.723zm2.031 2.004v.594h-2.203v-.594h2.203zm.309-2.004v.598h-2.512v-.598h2.512zM50.077 280h-1.031l.004-.594h1.027c.336 0 .615-.062.836-.187s.391-.304.5-.535.164-.512.164-.832v-.258a2.13 2.13 0 0 0-.094-.66c-.062-.193-.155-.355-.277-.485a1.16 1.16 0 0 0-.457-.301c-.18-.067-.388-.101-.625-.101h-1.102v-.598h1.102c.323 0 .617.051.883.153s.499.243.691.433.341.414.445.68.156.558.156.887v.25c0 .434-.093.813-.277 1.136a1.88 1.88 0 0 1-.773.75c-.331.175-.721.262-1.172.262zm-.637-4.551V280h-.723v-4.551h.723zm7.038 3.957V280h-2.594v-.594h2.594zm-2.418-3.957V280h-.723v-4.551h.723zm2.078 1.903v.589h-2.254v-.589h2.254zm.316-1.903v.598h-2.57v-.598h2.57zm3.495 3.387a.63.63 0 0 0-.051-.258c-.031-.078-.086-.148-.164-.211a1.18 1.18 0 0 0-.324-.179 3.84 3.84 0 0 0-.523-.157c-.253-.062-.48-.134-.684-.215s-.378-.179-.523-.289a1.23 1.23 0 0 1-.332-.386 1.08 1.08 0 0 1-.113-.504 1.04 1.04 0 0 1 .121-.5 1.19 1.19 0 0 1 .344-.399c.148-.112.327-.198.535-.258s.44-.093.695-.093c.365 0 .676.064.934.191s.46.293.598.504.207.439.207.691h-.727c0-.153-.038-.29-.113-.41s-.185-.213-.336-.281-.338-.105-.57-.105c-.216 0-.396.028-.539.085s-.25.136-.32.235-.106.211-.106.336a.48.48 0 0 0 .063.242c.042.073.108.139.199.199s.21.117.355.172.323.108.531.16a4.19 4.19 0 0 1 .672.223 1.94 1.94 0 0 1 .492.301c.136.114.237.246.305.394s.105.317.105.504-.042.362-.125.516-.198.28-.352.386-.333.189-.547.247-.445.085-.703.085c-.229 0-.456-.028-.68-.085a2.16 2.16 0 0 1-.605-.266c-.18-.12-.323-.268-.43-.445a1.21 1.21 0 0 1-.16-.629h.727c0 .151.03.28.09.386a.73.73 0 0 0 .25.262 1.24 1.24 0 0 0 .367.145 2.01 2.01 0 0 0 .441.047c.216 0 .398-.026.547-.079s.26-.13.336-.226.113-.208.113-.336zm2.425-3.387V280h-.723v-4.551h.723zm4.929 2.239v1.726c-.065.083-.167.176-.305.277s-.322.189-.559.262-.534.109-.898.109c-.302 0-.579-.048-.832-.144a1.9 1.9 0 0 1-.652-.426 1.96 1.96 0 0 1-.426-.683 2.68 2.68 0 0 1-.148-.922v-.328c0-.342.044-.646.133-.914a1.88 1.88 0 0 1 .387-.684 1.66 1.66 0 0 1 .625-.426c.247-.099.527-.148.84-.148.385 0 .706.062.961.187s.457.292.598.508a1.77 1.77 0 0 1 .273.742h-.715c-.029-.159-.085-.302-.168-.429s-.202-.228-.356-.301-.346-.114-.586-.114c-.214 0-.4.036-.559.106s-.292.173-.398.309-.182.3-.234.496-.074.412-.074.66v.336c0 .252.031.478.094.675s.152.361.269.497.262.238.426.308.353.106.559.106c.323 0 .559-.034.707-.102s.254-.134.317-.191v-.93h-1.098v-.562h1.82zm4.929-2.239V280h-.723l-2.359-3.422V280h-.723v-4.551h.723l2.359 3.422v-3.422h.723z"/><path d="M-12 268.5H88v-1H-12v1zm100 18H-12v1H88v-1z" mask="url(#path-16-outside-5_488315_910)"/><path d="M105.617 275.438V280h-.726v-3.684l-1.293.383v-.617l1.918-.644h.101zm5.233 1.941v.68c0 .341-.039.638-.117.89s-.185.459-.328.625a1.29 1.29 0 0 1-.515.367c-.201.081-.426.121-.676.121s-.473-.04-.676-.121-.374-.203-.52-.367-.253-.375-.332-.625-.117-.549-.117-.89v-.68c0-.341.038-.637.113-.887s.189-.457.333-.621a1.33 1.33 0 0 1 .519-.363c.201-.081.425-.121.672-.121s.476.04.68.121.376.199.519.363.253.371.328.621.117.546.117.887zm-.726.781v-.89c0-.217-.02-.405-.059-.567s-.097-.295-.175-.402a.71.71 0 0 0-.286-.239.92.92 0 0 0-.398-.082.91.91 0 0 0-.391.082.74.74 0 0 0-.285.239c-.075.107-.134.241-.176.402s-.058.35-.058.567v.89c0 .216.019.406.058.57s.102.301.18.411.175.192.289.25a.91.91 0 0 0 .391.082c.151 0 .282-.028.394-.082a.75.75 0 0 0 .285-.25c.079-.11.136-.246.172-.411s.059-.354.059-.57zm4.909-.781v.68c0 .341-.039.638-.117.89s-.185.459-.328.625a1.3 1.3 0 0 1-.516.367 1.79 1.79 0 0 1-.676.121c-.247 0-.472-.04-.676-.121a1.37 1.37 0 0 1-.519-.367 1.74 1.74 0 0 1-.332-.625c-.078-.252-.117-.549-.117-.89v-.68a3.07 3.07 0 0 1 .113-.887c.078-.25.189-.457.332-.621s.319-.285.52-.363.424-.121.671-.121.477.04.68.121.376.199.52.363.252.371.328.621.117.546.117.887zm-.727.781v-.89c0-.217-.019-.405-.058-.567s-.098-.295-.176-.402-.171-.186-.285-.239a.93.93 0 0 0-.399-.082c-.145 0-.276.028-.39.082a.74.74 0 0 0-.285.239 1.22 1.22 0 0 0-.176.402c-.039.162-.059.35-.059.567v.89c0 .216.02.406.059.57s.101.301.18.411.174.192.289.25a.9.9 0 0 0 .39.082.9.9 0 0 0 .395-.082c.114-.058.209-.141.285-.25s.135-.246.172-.411.058-.354.058-.57zm5.248 1.84h-1.031l.004-.594h1.027c.336 0 .615-.062.836-.187a1.17 1.17 0 0 0 .5-.535c.11-.235.164-.512.164-.832v-.258c0-.248-.031-.468-.094-.66a1.25 1.25 0 0 0-.277-.485 1.16 1.16 0 0 0-.457-.301c-.18-.067-.388-.101-.625-.101H118.5v-.598h1.101c.323 0 .617.051.883.153a1.91 1.91 0 0 1 .691.433c.193.188.341.414.446.68s.156.558.156.887v.25c0 .434-.093.813-.277 1.136a1.89 1.89 0 0 1-.774.75c-.331.175-.721.262-1.172.262zm-.637-4.551V280h-.722v-4.551h.722zm5.722.637L123.088 280h-.738l1.871-4.551h.473l-.055.637zm1.34 3.914l-1.539-3.93-.051-.621h.477l1.847 4.551h-.734zm-.106-1.684v.594h-2.703v-.594h2.703zm2.648-.211l1.433-2.656h.813l-1.699 3h-.442l-.105-.344zm-.996-2.656l1.441 2.676-.117.324h-.434l-1.703-3h.813zm1.562 2.43V280h-.719v-2.121h.719zm4.999.957c0-.096-.017-.182-.051-.258a.52.52 0 0 0-.164-.211c-.078-.065-.186-.125-.324-.179s-.312-.107-.523-.157a5.17 5.17 0 0 1-.684-.215c-.203-.083-.378-.179-.523-.289a1.22 1.22 0 0 1-.332-.386c-.076-.146-.114-.314-.114-.504a1.05 1.05 0 0 1 .121-.5c.081-.154.196-.287.344-.399s.327-.198.535-.258.44-.093.696-.093c.364 0 .675.064.933.191a1.43 1.43 0 0 1 .598.504c.138.208.207.439.207.691h-.727a.75.75 0 0 0-.113-.41c-.073-.12-.185-.213-.336-.281s-.338-.105-.57-.105c-.216 0-.396.028-.539.085s-.25.136-.321.235a.57.57 0 0 0-.105.336c0 .088.021.169.062.242s.108.139.2.199.209.117.355.172a4.91 4.91 0 0 0 .531.16c.253.063.477.137.672.223s.36.186.492.301.237.246.305.394a1.17 1.17 0 0 1 .106.504 1.07 1.07 0 0 1-.125.516c-.081.151-.198.28-.352.386a1.71 1.71 0 0 1-.547.247c-.211.057-.445.085-.703.085a2.75 2.75 0 0 1-.68-.085c-.221-.06-.423-.149-.605-.266s-.323-.268-.43-.445-.16-.39-.16-.629h.727c0 .151.03.28.089.386s.144.194.25.262.23.113.368.145a2.01 2.01 0 0 0 .441.047c.216 0 .398-.026.547-.079a.74.74 0 0 0 .336-.226.53.53 0 0 0 .113-.336zm7.568-1.238v.257c0 .344-.047.653-.14.926s-.228.503-.403.696-.384.335-.629.437-.513.148-.812.148a2.14 2.14 0 0 1-.809-.148 1.85 1.85 0 0 1-.633-.437c-.177-.193-.313-.425-.41-.696s-.144-.582-.144-.926v-.257a2.75 2.75 0 0 1 .144-.922c.097-.274.232-.507.407-.699a1.73 1.73 0 0 1 .628-.438c.245-.101.515-.152.809-.152a2.1 2.1 0 0 1 .816.152c.245.099.455.245.629.438a1.95 1.95 0 0 1 .407.699 2.83 2.83 0 0 1 .14.922zm-.715.257v-.265a2.44 2.44 0 0 0-.086-.684c-.057-.198-.14-.364-.25-.5a1.06 1.06 0 0 0-.402-.308c-.159-.071-.338-.106-.539-.106-.193 0-.367.035-.523.106a1.1 1.1 0 0 0-.403.308 1.47 1.47 0 0 0-.254.5c-.06.198-.089.426-.089.684v.265c0 .258.029.487.089.688s.146.366.258.504a1.1 1.1 0 0 0 .403.308c.158.071.334.106.527.106a1.29 1.29 0 0 0 .539-.106 1.07 1.07 0 0 0 .398-.308 1.38 1.38 0 0 0 .246-.504c.058-.201.086-.43.086-.688zm2.48-2.406V280h-.723v-4.551h.723zm2.031 2.004v.594h-2.203v-.594h2.203zm.309-2.004v.598h-2.512v-.598h2.512zm4.318 4.551h-1.032l.004-.594h1.028c.336 0 .614-.062.836-.187s.39-.304.5-.535a1.96 1.96 0 0 0 .164-.832v-.258c0-.248-.032-.468-.094-.66s-.155-.355-.277-.485-.275-.233-.457-.301-.388-.101-.625-.101h-1.102v-.598h1.102c.323 0 .617.051.882.153s.499.243.692.433a1.9 1.9 0 0 1 .445.68c.104.263.156.558.156.887v.25c0 .434-.092.813-.277 1.136a1.88 1.88 0 0 1-.773.75c-.331.175-.722.262-1.172.262zm-.637-4.551V280h-.723v-4.551h.723zm7.038 3.957V280h-2.594v-.594h2.594zm-2.418-3.957V280h-.723v-4.551h.723zm2.078 1.903v.589h-2.254v-.589h2.254zm.317-1.903v.598h-2.571v-.598h2.571zm3.495 3.387c0-.096-.017-.182-.051-.258a.52.52 0 0 0-.164-.211c-.078-.065-.187-.125-.325-.179s-.312-.107-.523-.157a5.22 5.22 0 0 1-.684-.215 2.33 2.33 0 0 1-.523-.289c-.143-.112-.254-.241-.332-.386s-.113-.314-.113-.504a1.04 1.04 0 0 1 .121-.5c.081-.154.195-.287.344-.399s.326-.198.535-.258a2.43 2.43 0 0 1 .695-.093c.365 0 .676.064.934.191s.459.293.597.504.207.439.207.691h-.726a.75.75 0 0 0-.114-.41c-.072-.12-.184-.213-.335-.281s-.339-.105-.571-.105c-.216 0-.396.028-.539.085a.7.7 0 0 0-.32.235.57.57 0 0 0-.106.336c0 .088.021.169.063.242s.108.139.199.199.21.117.356.172.322.108.531.16a4.23 4.23 0 0 1 .672.223c.195.086.359.186.492.301s.237.246.305.394a1.17 1.17 0 0 1 .105.504 1.07 1.07 0 0 1-.125.516c-.081.151-.198.28-.352.386s-.333.189-.546.247a2.7 2.7 0 0 1-.704.085 2.74 2.74 0 0 1-.679-.085c-.222-.06-.423-.149-.606-.266a1.4 1.4 0 0 1-.429-.445c-.107-.18-.161-.39-.161-.629h.727c0 .151.03.28.09.386a.73.73 0 0 0 .25.262 1.24 1.24 0 0 0 .367.145 2.01 2.01 0 0 0 .441.047c.217 0 .399-.026.547-.079s.261-.13.336-.226.114-.208.114-.336zm2.424-3.387V280h-.722v-4.551h.722zm4.929 2.239v1.726c-.065.083-.167.176-.305.277s-.321.189-.558.262-.534.109-.899.109c-.302 0-.579-.048-.832-.144a1.9 1.9 0 0 1-.652-.426 1.94 1.94 0 0 1-.426-.683c-.099-.271-.149-.579-.149-.922v-.328a2.92 2.92 0 0 1 .133-.914 1.89 1.89 0 0 1 .387-.684 1.66 1.66 0 0 1 .625-.426c.247-.099.527-.148.84-.148.385 0 .706.062.961.187s.457.292.597.508a1.76 1.76 0 0 1 .274.742h-.715c-.029-.159-.085-.302-.168-.429s-.202-.228-.355-.301-.347-.114-.586-.114c-.214 0-.4.036-.559.106s-.292.173-.398.309-.183.3-.235.496-.074.412-.074.66v.336a2.22 2.22 0 0 0 .094.675c.062.196.152.361.269.497a1.19 1.19 0 0 0 .426.308c.167.071.353.106.559.106.323 0 .558-.034.707-.102s.254-.134.316-.191v-.93h-1.098v-.562h1.821zm4.928-2.239V280h-.722l-2.36-3.422V280h-.722v-4.551h.722l2.36 3.422v-3.422h.722z"/><path d="M88 268.5h100v-1H88v1zm100 18H88v1h100v-1z" mask="url(#path-19-outside-6_488315_910)"/><path d="M205.617 275.438V280h-.726v-3.684l-1.293.383v-.617l1.918-.644h.101zm5.233 1.941v.68c0 .341-.039.638-.117.89s-.185.459-.328.625a1.29 1.29 0 0 1-.515.367c-.201.081-.426.121-.676.121s-.473-.04-.676-.121-.374-.203-.52-.367-.253-.375-.332-.625-.117-.549-.117-.89v-.68c0-.341.038-.637.113-.887s.189-.457.333-.621a1.33 1.33 0 0 1 .519-.363c.201-.081.425-.121.672-.121s.476.04.68.121.376.199.519.363.253.371.328.621.117.546.117.887zm-.726.781v-.89c0-.217-.02-.405-.059-.567s-.097-.295-.175-.402a.71.71 0 0 0-.286-.239.92.92 0 0 0-.398-.082.91.91 0 0 0-.391.082.74.74 0 0 0-.285.239c-.075.107-.134.241-.176.402s-.058.35-.058.567v.89c0 .216.019.406.058.57s.102.301.18.411.175.192.289.25a.91.91 0 0 0 .391.082c.151 0 .282-.028.394-.082a.75.75 0 0 0 .285-.25c.079-.11.136-.246.172-.411s.059-.354.059-.57zm4.909-.781v.68c0 .341-.039.638-.117.89s-.185.459-.328.625a1.3 1.3 0 0 1-.516.367 1.79 1.79 0 0 1-.676.121c-.247 0-.472-.04-.676-.121a1.37 1.37 0 0 1-.519-.367 1.74 1.74 0 0 1-.332-.625c-.078-.252-.117-.549-.117-.89v-.68a3.07 3.07 0 0 1 .113-.887c.078-.25.189-.457.332-.621s.319-.285.52-.363.424-.121.671-.121.477.04.68.121.376.199.52.363.252.371.328.621.117.546.117.887zm-.727.781v-.89c0-.217-.019-.405-.058-.567s-.098-.295-.176-.402-.171-.186-.285-.239a.93.93 0 0 0-.399-.082c-.145 0-.276.028-.39.082a.74.74 0 0 0-.285.239 1.22 1.22 0 0 0-.176.402c-.039.162-.059.35-.059.567v.89c0 .216.02.406.059.57s.101.301.18.411.174.192.289.25a.9.9 0 0 0 .39.082.9.9 0 0 0 .395-.082c.114-.058.209-.141.285-.25s.135-.246.172-.411.058-.354.058-.57zm5.248 1.84h-1.031l.004-.594h1.027c.336 0 .615-.062.836-.187a1.17 1.17 0 0 0 .5-.535c.11-.235.164-.512.164-.832v-.258c0-.248-.031-.468-.094-.66a1.25 1.25 0 0 0-.277-.485 1.16 1.16 0 0 0-.457-.301c-.18-.067-.388-.101-.625-.101H218.5v-.598h1.101c.323 0 .617.051.883.153a1.91 1.91 0 0 1 .691.433c.193.188.341.414.446.68s.156.558.156.887v.25c0 .434-.093.813-.277 1.136a1.89 1.89 0 0 1-.774.75c-.331.175-.721.262-1.172.262zm-.637-4.551V280h-.722v-4.551h.722zm5.722.637L223.088 280h-.738l1.871-4.551h.473l-.055.637zm1.34 3.914l-1.539-3.93-.051-.621h.477l1.847 4.551h-.734zm-.106-1.684v.594h-2.703v-.594h2.703zm2.648-.211l1.433-2.656h.813l-1.699 3h-.442l-.105-.344zm-.996-2.656l1.441 2.676-.117.324h-.434l-1.703-3h.813zm1.562 2.43V280h-.719v-2.121h.719zm4.999.957c0-.096-.017-.182-.051-.258a.52.52 0 0 0-.164-.211c-.078-.065-.186-.125-.324-.179s-.312-.107-.523-.157a5.17 5.17 0 0 1-.684-.215c-.203-.083-.378-.179-.523-.289a1.22 1.22 0 0 1-.332-.386c-.076-.146-.114-.314-.114-.504a1.05 1.05 0 0 1 .121-.5c.081-.154.196-.287.344-.399s.327-.198.535-.258.44-.093.696-.093c.364 0 .675.064.933.191a1.43 1.43 0 0 1 .598.504c.138.208.207.439.207.691h-.727a.75.75 0 0 0-.113-.41c-.073-.12-.185-.213-.336-.281s-.338-.105-.57-.105c-.216 0-.396.028-.539.085s-.25.136-.321.235a.57.57 0 0 0-.105.336c0 .088.021.169.062.242s.108.139.2.199.209.117.355.172a4.91 4.91 0 0 0 .531.16c.253.063.477.137.672.223s.36.186.492.301.237.246.305.394a1.17 1.17 0 0 1 .106.504 1.07 1.07 0 0 1-.125.516c-.081.151-.198.28-.352.386a1.71 1.71 0 0 1-.547.247c-.211.057-.445.085-.703.085a2.75 2.75 0 0 1-.68-.085c-.221-.06-.423-.149-.605-.266s-.323-.268-.43-.445-.16-.39-.16-.629h.727c0 .151.03.28.089.386s.144.194.25.262.23.113.368.145a2.01 2.01 0 0 0 .441.047c.216 0 .398-.026.547-.079a.74.74 0 0 0 .336-.226.53.53 0 0 0 .113-.336zm7.568-1.238v.257c0 .344-.047.653-.14.926s-.228.503-.403.696-.384.335-.629.437-.513.148-.812.148a2.14 2.14 0 0 1-.809-.148 1.85 1.85 0 0 1-.633-.437c-.177-.193-.313-.425-.41-.696s-.144-.582-.144-.926v-.257a2.75 2.75 0 0 1 .144-.922c.097-.274.232-.507.407-.699a1.73 1.73 0 0 1 .628-.438c.245-.101.515-.152.809-.152a2.1 2.1 0 0 1 .816.152c.245.099.455.245.629.438a1.95 1.95 0 0 1 .407.699 2.83 2.83 0 0 1 .14.922zm-.715.257v-.265a2.44 2.44 0 0 0-.086-.684c-.057-.198-.14-.364-.25-.5a1.06 1.06 0 0 0-.402-.308c-.159-.071-.338-.106-.539-.106-.193 0-.367.035-.523.106a1.1 1.1 0 0 0-.403.308 1.47 1.47 0 0 0-.254.5c-.06.198-.089.426-.089.684v.265c0 .258.029.487.089.688s.146.366.258.504a1.1 1.1 0 0 0 .403.308c.158.071.334.106.527.106a1.29 1.29 0 0 0 .539-.106 1.07 1.07 0 0 0 .398-.308 1.38 1.38 0 0 0 .246-.504c.058-.201.086-.43.086-.688zm2.48-2.406V280h-.723v-4.551h.723zm2.031 2.004v.594h-2.203v-.594h2.203zm.309-2.004v.598h-2.512v-.598h2.512zm4.318 4.551h-1.032l.004-.594h1.028c.336 0 .614-.062.836-.187s.39-.304.5-.535a1.96 1.96 0 0 0 .164-.832v-.258c0-.248-.032-.468-.094-.66s-.155-.355-.277-.485-.275-.233-.457-.301-.388-.101-.625-.101h-1.102v-.598h1.102c.323 0 .617.051.882.153s.499.243.692.433a1.9 1.9 0 0 1 .445.68c.104.263.156.558.156.887v.25c0 .434-.092.813-.277 1.136a1.88 1.88 0 0 1-.773.75c-.331.175-.722.262-1.172.262zm-.637-4.551V280h-.723v-4.551h.723zm7.038 3.957V280h-2.594v-.594h2.594zm-2.418-3.957V280h-.723v-4.551h.723zm2.078 1.903v.589h-2.254v-.589h2.254zm.317-1.903v.598h-2.571v-.598h2.571zm3.495 3.387c0-.096-.017-.182-.051-.258a.52.52 0 0 0-.164-.211c-.078-.065-.187-.125-.325-.179s-.312-.107-.523-.157a5.22 5.22 0 0 1-.684-.215 2.33 2.33 0 0 1-.523-.289c-.143-.112-.254-.241-.332-.386s-.113-.314-.113-.504a1.04 1.04 0 0 1 .121-.5c.081-.154.195-.287.344-.399s.326-.198.535-.258a2.43 2.43 0 0 1 .695-.093c.365 0 .676.064.934.191s.459.293.597.504.207.439.207.691h-.726a.75.75 0 0 0-.114-.41c-.072-.12-.184-.213-.335-.281s-.339-.105-.571-.105c-.216 0-.396.028-.539.085a.7.7 0 0 0-.32.235.57.57 0 0 0-.106.336c0 .088.021.169.063.242s.108.139.199.199.21.117.356.172.322.108.531.16a4.23 4.23 0 0 1 .672.223c.195.086.359.186.492.301s.237.246.305.394a1.17 1.17 0 0 1 .105.504 1.07 1.07 0 0 1-.125.516c-.081.151-.198.28-.352.386s-.333.189-.546.247a2.7 2.7 0 0 1-.704.085 2.74 2.74 0 0 1-.679-.085c-.222-.06-.423-.149-.606-.266a1.4 1.4 0 0 1-.429-.445c-.107-.18-.161-.39-.161-.629h.727c0 .151.03.28.09.386a.73.73 0 0 0 .25.262 1.24 1.24 0 0 0 .367.145 2.01 2.01 0 0 0 .441.047c.217 0 .399-.026.547-.079s.261-.13.336-.226.114-.208.114-.336zm2.424-3.387V280h-.722v-4.551h.722zm4.929 2.239v1.726c-.065.083-.167.176-.305.277s-.321.189-.558.262-.534.109-.899.109c-.302 0-.579-.048-.832-.144a1.9 1.9 0 0 1-.652-.426 1.94 1.94 0 0 1-.426-.683c-.099-.271-.149-.579-.149-.922v-.328a2.92 2.92 0 0 1 .133-.914 1.89 1.89 0 0 1 .387-.684 1.66 1.66 0 0 1 .625-.426c.247-.099.527-.148.84-.148.385 0 .706.062.961.187s.457.292.597.508a1.76 1.76 0 0 1 .274.742h-.715c-.029-.159-.085-.302-.168-.429s-.202-.228-.355-.301-.347-.114-.586-.114c-.214 0-.4.036-.559.106s-.292.173-.398.309-.183.3-.235.496-.074.412-.074.66v.336a2.22 2.22 0 0 0 .094.675c.062.196.152.361.269.497a1.19 1.19 0 0 0 .426.308c.167.071.353.106.559.106.323 0 .558-.034.707-.102s.254-.134.316-.191v-.93h-1.098v-.562h1.821zm4.928-2.239V280h-.722l-2.36-3.422V280h-.722v-4.551h.722l2.36 3.422v-3.422h.722z"/><path d="M188 268.5h100v-1H188v1zm100 18H188v1h100v-1z" mask="url(#path-22-outside-7_488315_910)"/><path d="M305.617 275.438V280h-.726v-3.684l-1.293.383v-.617l1.918-.644h.101zm5.233 1.941v.68c0 .341-.039.638-.117.89s-.185.459-.328.625a1.29 1.29 0 0 1-.515.367c-.201.081-.426.121-.676.121s-.473-.04-.676-.121-.374-.203-.52-.367-.253-.375-.332-.625-.117-.549-.117-.89v-.68c0-.341.038-.637.113-.887s.189-.457.333-.621a1.33 1.33 0 0 1 .519-.363c.201-.081.425-.121.672-.121s.476.04.68.121.376.199.519.363.253.371.328.621.117.546.117.887zm-.726.781v-.89c0-.217-.02-.405-.059-.567s-.097-.295-.175-.402a.71.71 0 0 0-.286-.239.92.92 0 0 0-.398-.082.91.91 0 0 0-.391.082.74.74 0 0 0-.285.239c-.075.107-.134.241-.176.402s-.058.35-.058.567v.89c0 .216.019.406.058.57s.102.301.18.411.175.192.289.25a.91.91 0 0 0 .391.082c.151 0 .282-.028.394-.082a.75.75 0 0 0 .285-.25c.079-.11.136-.246.172-.411s.059-.354.059-.57zm4.909-.781v.68c0 .341-.039.638-.117.89s-.185.459-.328.625a1.3 1.3 0 0 1-.516.367 1.79 1.79 0 0 1-.676.121c-.247 0-.472-.04-.676-.121a1.37 1.37 0 0 1-.519-.367 1.74 1.74 0 0 1-.332-.625c-.078-.252-.117-.549-.117-.89v-.68a3.07 3.07 0 0 1 .113-.887c.078-.25.189-.457.332-.621s.319-.285.52-.363.424-.121.671-.121.477.04.68.121.376.199.52.363.252.371.328.621.117.546.117.887zm-.727.781v-.89c0-.217-.019-.405-.058-.567s-.098-.295-.176-.402-.171-.186-.285-.239a.93.93 0 0 0-.399-.082c-.145 0-.276.028-.39.082a.74.74 0 0 0-.285.239 1.22 1.22 0 0 0-.176.402c-.039.162-.059.35-.059.567v.89c0 .216.02.406.059.57s.101.301.18.411.174.192.289.25a.9.9 0 0 0 .39.082.9.9 0 0 0 .395-.082c.114-.058.209-.141.285-.25s.135-.246.172-.411.058-.354.058-.57zm5.248 1.84h-1.031l.004-.594h1.027c.336 0 .615-.062.836-.187a1.17 1.17 0 0 0 .5-.535c.11-.235.164-.512.164-.832v-.258c0-.248-.031-.468-.094-.66a1.25 1.25 0 0 0-.277-.485 1.16 1.16 0 0 0-.457-.301c-.18-.067-.388-.101-.625-.101H318.5v-.598h1.101c.323 0 .617.051.883.153a1.91 1.91 0 0 1 .691.433c.193.188.341.414.446.68s.156.558.156.887v.25c0 .434-.093.813-.277 1.136a1.89 1.89 0 0 1-.774.75c-.331.175-.721.262-1.172.262zm-.637-4.551V280h-.722v-4.551h.722zm5.722.637L323.088 280h-.738l1.871-4.551h.473l-.055.637zm1.34 3.914l-1.539-3.93-.051-.621h.477l1.847 4.551h-.734zm-.106-1.684v.594h-2.703v-.594h2.703zm2.648-.211l1.433-2.656h.813l-1.699 3h-.442l-.105-.344zm-.996-2.656l1.441 2.676-.117.324h-.434l-1.703-3h.813zm1.562 2.43V280h-.719v-2.121h.719zm4.999.957c0-.096-.017-.182-.051-.258a.52.52 0 0 0-.164-.211c-.078-.065-.186-.125-.324-.179s-.312-.107-.523-.157a5.17 5.17 0 0 1-.684-.215c-.203-.083-.378-.179-.523-.289a1.22 1.22 0 0 1-.332-.386c-.076-.146-.114-.314-.114-.504a1.05 1.05 0 0 1 .121-.5c.081-.154.196-.287.344-.399s.327-.198.535-.258.44-.093.696-.093c.364 0 .675.064.933.191a1.43 1.43 0 0 1 .598.504c.138.208.207.439.207.691h-.727a.75.75 0 0 0-.113-.41c-.073-.12-.185-.213-.336-.281s-.338-.105-.57-.105c-.216 0-.396.028-.539.085s-.25.136-.321.235a.57.57 0 0 0-.105.336c0 .088.021.169.062.242s.108.139.2.199.209.117.355.172a4.91 4.91 0 0 0 .531.16c.253.063.477.137.672.223s.36.186.492.301.237.246.305.394a1.17 1.17 0 0 1 .106.504 1.07 1.07 0 0 1-.125.516c-.081.151-.198.28-.352.386a1.71 1.71 0 0 1-.547.247c-.211.057-.445.085-.703.085a2.75 2.75 0 0 1-.68-.085c-.221-.06-.423-.149-.605-.266s-.323-.268-.43-.445-.16-.39-.16-.629h.727c0 .151.03.28.089.386s.144.194.25.262.23.113.368.145a2.01 2.01 0 0 0 .441.047c.216 0 .398-.026.547-.079a.74.74 0 0 0 .336-.226.53.53 0 0 0 .113-.336zm7.568-1.238v.257c0 .344-.047.653-.14.926s-.228.503-.403.696-.384.335-.629.437-.513.148-.812.148a2.14 2.14 0 0 1-.809-.148 1.85 1.85 0 0 1-.633-.437c-.177-.193-.313-.425-.41-.696s-.144-.582-.144-.926v-.257a2.75 2.75 0 0 1 .144-.922c.097-.274.232-.507.407-.699a1.73 1.73 0 0 1 .628-.438c.245-.101.515-.152.809-.152a2.1 2.1 0 0 1 .816.152c.245.099.455.245.629.438a1.95 1.95 0 0 1 .407.699 2.83 2.83 0 0 1 .14.922zm-.715.257v-.265a2.44 2.44 0 0 0-.086-.684c-.057-.198-.14-.364-.25-.5a1.06 1.06 0 0 0-.402-.308c-.159-.071-.338-.106-.539-.106-.193 0-.367.035-.523.106a1.1 1.1 0 0 0-.403.308 1.47 1.47 0 0 0-.254.5c-.06.198-.089.426-.089.684v.265c0 .258.029.487.089.688s.146.366.258.504a1.1 1.1 0 0 0 .403.308c.158.071.334.106.527.106a1.29 1.29 0 0 0 .539-.106 1.07 1.07 0 0 0 .398-.308 1.38 1.38 0 0 0 .246-.504c.058-.201.086-.43.086-.688zm2.48-2.406V280h-.723v-4.551h.723zm2.031 2.004v.594h-2.203v-.594h2.203zm.309-2.004v.598h-2.512v-.598h2.512zm4.318 4.551h-1.032l.004-.594h1.028c.336 0 .614-.062.836-.187s.39-.304.5-.535a1.96 1.96 0 0 0 .164-.832v-.258c0-.248-.032-.468-.094-.66s-.155-.355-.277-.485-.275-.233-.457-.301-.388-.101-.625-.101h-1.102v-.598h1.102c.323 0 .617.051.882.153s.499.243.692.433a1.9 1.9 0 0 1 .445.68c.104.263.156.558.156.887v.25c0 .434-.092.813-.277 1.136a1.88 1.88 0 0 1-.773.75c-.331.175-.722.262-1.172.262zm-.637-4.551V280h-.723v-4.551h.723zm7.038 3.957V280h-2.594v-.594h2.594zm-2.418-3.957V280h-.723v-4.551h.723zm2.078 1.903v.589h-2.254v-.589h2.254zm.317-1.903v.598h-2.571v-.598h2.571zm3.495 3.387c0-.096-.017-.182-.051-.258a.52.52 0 0 0-.164-.211c-.078-.065-.187-.125-.325-.179s-.312-.107-.523-.157a5.22 5.22 0 0 1-.684-.215 2.33 2.33 0 0 1-.523-.289c-.143-.112-.254-.241-.332-.386s-.113-.314-.113-.504a1.04 1.04 0 0 1 .121-.5c.081-.154.195-.287.344-.399s.326-.198.535-.258a2.43 2.43 0 0 1 .695-.093c.365 0 .676.064.934.191s.459.293.597.504.207.439.207.691h-.726a.75.75 0 0 0-.114-.41c-.072-.12-.184-.213-.335-.281s-.339-.105-.571-.105c-.216 0-.396.028-.539.085a.7.7 0 0 0-.32.235.57.57 0 0 0-.106.336c0 .088.021.169.063.242s.108.139.199.199.21.117.356.172.322.108.531.16a4.23 4.23 0 0 1 .672.223c.195.086.359.186.492.301s.237.246.305.394a1.17 1.17 0 0 1 .105.504 1.07 1.07 0 0 1-.125.516c-.081.151-.198.28-.352.386s-.333.189-.546.247a2.7 2.7 0 0 1-.704.085 2.74 2.74 0 0 1-.679-.085c-.222-.06-.423-.149-.606-.266a1.4 1.4 0 0 1-.429-.445c-.107-.18-.161-.39-.161-.629h.727c0 .151.03.28.09.386a.73.73 0 0 0 .25.262 1.24 1.24 0 0 0 .367.145 2.01 2.01 0 0 0 .441.047c.217 0 .399-.026.547-.079s.261-.13.336-.226.114-.208.114-.336zm2.424-3.387V280h-.722v-4.551h.722zm4.929 2.239v1.726c-.065.083-.167.176-.305.277s-.321.189-.558.262-.534.109-.899.109c-.302 0-.579-.048-.832-.144a1.9 1.9 0 0 1-.652-.426 1.94 1.94 0 0 1-.426-.683c-.099-.271-.149-.579-.149-.922v-.328a2.92 2.92 0 0 1 .133-.914 1.89 1.89 0 0 1 .387-.684 1.66 1.66 0 0 1 .625-.426c.247-.099.527-.148.84-.148.385 0 .706.062.961.187s.457.292.597.508a1.76 1.76 0 0 1 .274.742h-.715c-.029-.159-.085-.302-.168-.429s-.202-.228-.355-.301-.347-.114-.586-.114c-.214 0-.4.036-.559.106s-.292.173-.398.309-.183.3-.235.496-.074.412-.074.66v.336a2.22 2.22 0 0 0 .094.675c.062.196.152.361.269.497a1.19 1.19 0 0 0 .426.308c.167.071.353.106.559.106.323 0 .558-.034.707-.102s.254-.134.316-.191v-.93h-1.098v-.562h1.821zm4.928-2.239V280h-.722l-2.36-3.422V280h-.722v-4.551h.722l2.36 3.422v-3.422h.722z"/><path d="M288 268.5h100v-1H288v1zm100 18H288v1h100v-1z" mask="url(#path-25-outside-8_488315_910)"/></g></g><defs><clipPath id="A"><path fill="#fff" d="M0 0h375v400H0z"/></clipPath></defs></svg>