<svg xmlns="http://www.w3.org/2000/svg" width="375" height="400" fill="none" xmlns:v="https://vecta.io/nano"><path fill="#fdfffa" d="M.5.5h374v399H.5z"/><path fill-rule="evenodd" d="M263 182H112v6H27v38h6v85h-6v29h85v-9h151v9h85v-29h-6v-85h6v-38h-85v-6z" fill="#031107"/><path d="M121.592 326v-1.056h2.304v-7.888l-2.464.304v-1.12l3.744-.48v9.184h1.952V326h-5.536zm7.073-4.992l.128-2.752c.096-.693.277-1.221.544-1.584s.656-.603 1.168-.72c.512-.128 1.194-.192 2.048-.192.842 0 1.52.064 2.032.192.512.117.901.357 1.168.72.266.352.442.88.528 1.584.096.693.144 1.611.144 2.752l-.08 2.336c-.054.629-.155 1.136-.304 1.52-.139.384-.352.677-.64.88-.278.192-.651.32-1.12.384-.459.075-1.035.112-1.728.112a11.32 11.32 0 0 1-1.744-.112c-.459-.064-.832-.192-1.12-.384-.288-.203-.507-.496-.656-.88-.15-.395-.251-.901-.304-1.52l-.064-2.336zm1.36-4.16v7.456c0 .341.101.571.304.688.213.107.645.16 1.296.16h3.424v-7.456c0-.341-.112-.565-.336-.672-.224-.117-.672-.176-1.344-.176h-3.344zm8.452 4.16l.128-2.752c.096-.693.277-1.221.544-1.584s.656-.603 1.168-.72c.512-.128 1.195-.192 2.048-.192.843 0 1.52.064 2.032.192.512.117.901.357 1.168.72.267.352.443.88.528 1.584.096.693.144 1.611.144 2.752l-.08 2.336c-.053.629-.155 1.136-.304 1.52-.139.384-.352.677-.64.88-.277.192-.651.32-1.12.384-.459.075-1.035.112-1.728.112s-1.275-.037-1.744-.112c-.459-.064-.832-.192-1.12-.384-.288-.203-.507-.496-.656-.88-.149-.395-.251-.901-.304-1.52l-.064-2.336zm1.36-4.16v7.456c0 .341.101.571.304.688.213.107.645.16 1.296.16h3.424v-7.456c0-.341-.112-.565-.336-.672-.224-.117-.672-.176-1.344-.176h-3.344zM152.99 316h3.408c.789 0 1.429.064 1.92.192s.869.373 1.136.736c.277.352.464.859.56 1.52.096.651.144 1.504.144 2.56 0 1.045-.048 1.899-.144 2.56-.096.651-.283 1.157-.56 1.52-.267.352-.645.592-1.136.72s-1.131.192-1.92.192h-3.408v-10zm1.28 1.088v7.824h3.248c.469 0 .795-.085.976-.256.181-.181.272-.496.272-.944v-5.424c0-.448-.091-.757-.272-.928-.181-.181-.507-.272-.976-.272h-3.248zm10.403 9.056c-.864 0-1.478-.176-1.84-.528s-.544-.955-.544-1.808c0-.565.048-1.019.144-1.36.106-.341.314-.592.624-.752.309-.171.778-.283 1.408-.336s1.477-.08 2.544-.08h.672v.928h-2.896c-.523 0-.88.069-1.072.208-.182.128-.272.389-.272.784v1.904h2.448c.512 0 .858-.069 1.04-.208s.272-.4.272-.784v-5.008c-.448-.139-1.04-.208-1.777-.208-.405 0-.831.032-1.279.096-.438.064-.886.16-1.344.288l-.16-.96c.234-.085.522-.165.864-.24s.704-.128 1.088-.16c.384-.043.746-.064 1.088-.064.704 0 1.258.069 1.664.208.405.128.693.347.864.656.181.309.272.731.272 1.264V326h-.56l-.368-.8c-.374.331-.795.571-1.264.72s-1.008.224-1.616.224zm7.792-.56L170.081 318h1.264l2.032 6.512h.16l2.016-6.512h1.28l-2.4 7.584h-1.968zm-1.168 3.2a4.86 4.86 0 0 1-.656-.048l-.624-.112.048-.688.944-.128c.416-.053.746-.133.992-.24s.442-.272.592-.496.288-.539.416-.944l.16-.544h1.264c-.256.8-.528 1.435-.816 1.904-.278.469-.603.8-.976.992-.363.203-.811.304-1.344.304zm6.601-8.704c0-.8.235-1.387.704-1.76.48-.373 1.216-.56 2.208-.56a8.01 8.01 0 0 1 1.28.096 8.23 8.23 0 0 1 1.216.256l-.192.96c-.267-.075-.587-.139-.96-.192-.363-.053-.699-.08-1.008-.08l-1.04.048-.88.096v2.16l2.32.4c.597.139 1.051.304 1.36.496.309.181.517.416.624.704.117.277.176.64.176 1.088 0 .587-.107 1.061-.32 1.424-.203.363-.539.624-1.008.784s-1.099.24-1.888.24a8.42 8.42 0 0 1-1.36-.112 11.92 11.92 0 0 1-1.424-.336l.224-1.072a7.29 7.29 0 0 0 2.64.48c.352 0 .656-.016.912-.048a6.22 6.22 0 0 0 .896-.192v-2.144l-2.432-.432c-.597-.128-1.045-.283-1.344-.464s-.491-.416-.576-.704-.128-.667-.128-1.136zm15.127 6.064c-.694 0-1.259-.053-1.696-.16-.427-.117-.763-.325-1.008-.624-.235-.299-.4-.72-.496-1.264-.086-.544-.128-1.243-.128-2.096s.042-1.552.128-2.096c.096-.544.261-.965.496-1.264.245-.299.581-.501 1.008-.608.437-.117 1.002-.176 1.696-.176s1.258.059 1.696.176c.437.107.773.309 1.008.608s.394.72.48 1.264c.085.533.128 1.232.128 2.096 0 .853-.048 1.552-.144 2.096-.086.544-.246.965-.48 1.264s-.571.507-1.008.624c-.438.107-.998.16-1.68.16zm-2.016-1.088h3.216c.32 0 .533-.027.64-.08s.16-.16.16-.32v-5.712h-3.216c-.32 0-.534.027-.64.08s-.16.16-.16.32v5.712zm9.71.944h-1.28v-7.888c.042-.757.117-1.344.224-1.76.117-.427.293-.725.528-.896.245-.171.57-.256.976-.256a5.33 5.33 0 0 1 .72.048 4.86 4.86 0 0 1 .704.112l-.08.992-1.792-.144V326zm1.344-8v.912h-3.808V318h3.808zm6.302-2h3.408c.789 0 1.429.064 1.92.192s.869.373 1.136.736c.277.352.464.859.56 1.52.096.651.144 1.504.144 2.56 0 1.045-.048 1.899-.144 2.56-.096.651-.283 1.157-.56 1.52-.267.352-.645.592-1.136.72s-1.131.192-1.92.192h-3.408v-10zm1.28 1.088v7.824h3.248c.469 0 .795-.085.976-.256.181-.181.272-.496.272-.944v-5.424c0-.448-.091-.757-.272-.928-.181-.181-.507-.272-.976-.272h-3.248zm10.979 9.056c-.587 0-1.072-.059-1.456-.176a1.65 1.65 0 0 1-.88-.624c-.203-.309-.347-.731-.432-1.264-.075-.544-.113-1.237-.113-2.08 0-1.077.091-1.915.273-2.512.192-.608.517-1.029.976-1.264.469-.245 1.12-.368 1.952-.368.821 0 1.456.069 1.904.208.448.128.757.363.928.704.17.331.256.805.256 1.424 0 .565-.054 1.019-.16 1.36-.096.341-.31.597-.64.768-.331.16-.827.267-1.488.32s-1.552.08-2.672.08h-.48v-.928h2.896c.544 0 .912-.069 1.104-.208s.288-.4.288-.784v-1.824h-2.432c-.534 0-.896.069-1.088.208-.192.128-.288.389-.288.784v4.928l.8.16c.288.032.629.048 1.024.048.426 0 .842-.027 1.248-.08l1.504-.304.176.96c-.363.139-.838.251-1.424.336a12.15 12.15 0 0 1-1.776.128zm5.602-6.064c0-.8.235-1.387.704-1.76.48-.373 1.216-.56 2.208-.56a8.01 8.01 0 0 1 1.28.096 8.23 8.23 0 0 1 1.216.256l-.192.96c-.267-.075-.587-.139-.96-.192-.363-.053-.699-.08-1.008-.08l-1.04.048-.88.096v2.16l2.32.4c.597.139 1.051.304 1.36.496.309.181.517.416.624.704.117.277.176.64.176 1.088 0 .587-.107 1.061-.32 1.424-.203.363-.539.624-1.008.784s-1.099.24-1.888.24a8.42 8.42 0 0 1-1.36-.112 11.92 11.92 0 0 1-1.424-.336l.224-1.072a7.29 7.29 0 0 0 2.64.48c.352 0 .656-.016.912-.048a6.22 6.22 0 0 0 .896-.192v-2.144l-2.432-.432c-.597-.128-1.045-.283-1.344-.464s-.491-.416-.576-.704-.128-.667-.128-1.136zm8.155-2.016l1.28-.224V326h-1.28v-7.936zm.672-1.6c-.342 0-.571-.053-.688-.16-.107-.117-.16-.336-.16-.656 0-.331.058-.555.176-.672s.341-.176.672-.176c.32 0 .533.059.64.176.117.117.176.341.176.672 0 .32-.054.539-.16.656-.107.107-.326.16-.656.16zm5.989 7.184c-.778 0-1.386-.085-1.824-.256a1.6 1.6 0 0 1-.928-.896c-.181-.427-.272-1.019-.272-1.776s.091-1.349.272-1.776a1.66 1.66 0 0 1 .928-.912c.438-.181 1.046-.272 1.824-.272s1.387.091 1.824.272a1.65 1.65 0 0 1 .944.912c.182.427.272 1.019.272 1.776 0 .747-.09 1.339-.272 1.776-.181.427-.496.725-.944.896-.437.171-1.045.256-1.824.256zm-1.728-.928h2.176c.491 0 .827-.08 1.008-.24.192-.16.288-.443.288-.848v-2.928h-2.176c-.48 0-.816.08-1.008.24-.192.149-.288.432-.288.848v2.928zm4.864 3.968c0 .48-.096.859-.288 1.136-.192.288-.512.491-.96.608s-1.061.176-1.84.176c-.565 0-1.114-.043-1.648-.128-.522-.085-.96-.197-1.312-.336l.176-1.024 1.392.288a7.1 7.1 0 0 0 1.168.096l1.216-.048c.331-.032.651-.08.96-.144V326l-2.352-.24c-.469-.107-.704-.251-.704-.432l.464-1.856h.816l-.096 1.488 1.568.224c.395.075.694.171.896.288a.89.89 0 0 1 .432.48c.075.192.112.437.112.736zm-.608-7.504l-.816-.944 1.328-.992.64.656-1.152 1.28zm3.186 6.816v-8h.56l.368.8c.384-.32.81-.555 1.28-.704.469-.16 1.018-.24 1.648-.24.746 0 1.306.107 1.68.32a1 1 0 0 1 .56.944V326h-1.28v-7.088h-2.032c-.587 0-.987.069-1.2.208-.203.128-.304.395-.304.8V326h-1.28z" fill="#fff"/><mask id="A" maskUnits="userSpaceOnUse" x="13" y="201" width="351" height="96" mask-type="alpha"><path d="M13.8 203.5h32.364c6.728 0 12.296.58 16.704 1.74s7.888 3.093 10.44 5.8c2.629 2.707 4.485 6.419 5.568 11.136 1.083 4.64 1.624 10.517 1.624 17.632 0 7.037-.541 12.915-1.624 17.632-1.083 4.64-2.939 8.352-5.568 11.136-2.552 2.707-6.032 4.64-10.44 5.8C58.46 275.459 52.892 276 46.164 276H13.8v-72.5zM37 221.596v36.308h9.512c3.403 0 5.761-.503 7.076-1.508 1.315-1.083 1.972-3.016 1.972-5.8v-21.692c0-2.784-.657-4.679-1.972-5.684-1.315-1.083-3.673-1.624-7.076-1.624H37zm70.212 56.144c-7.038 0-12.18-1.585-15.428-4.756s-4.872-8.159-4.872-14.964c0-3.48.541-6.419 1.624-8.816 1.16-2.475 2.939-4.447 5.336-5.916 2.397-1.547 5.529-2.668 9.396-3.364 3.944-.696 8.738-1.044 14.384-1.044h6.96v11.6h-8.352c-3.016 0-5.104.348-6.264 1.044s-1.74 1.972-1.74 3.828v6.728h4.872c3.016 0 5.104-.309 6.264-.928s1.74-1.779 1.74-3.48V233.66c-1.16-.309-3.094-.464-5.8-.464-3.48 0-7.115.232-10.904.696s-7.811 1.237-12.064 2.32l-2.784-16.008c2.939-.928 5.916-1.663 8.932-2.204a76.16 76.16 0 0 1 9.396-1.276 102.83 102.83 0 0 1 9.744-.464c6.186 0 11.213.735 15.08 2.204 3.944 1.392 6.844 3.596 8.7 6.612 1.933 2.939 2.9 6.767 2.9 11.484V276h-11.6l-5.8-5.8c-2.862 2.397-5.994 4.253-9.396 5.568s-6.844 1.972-10.324 1.972zm55.382-7.54L149.95 218h22.62l6.844 31.9h1.16l6.844-31.9h22.62l-12.644 52.2h-34.8zm3.364 26.68c-2.398 0-4.834-.193-7.308-.58-2.475-.309-4.679-.735-6.612-1.276l1.044-12.18 13.92-1.74c2.165-.309 3.789-.773 4.872-1.392 1.082-.541 1.894-1.469 2.436-2.784.618-1.315 1.16-3.171 1.624-5.568l.232-1.16h21.228c-1.547 6.651-3.596 11.909-6.148 15.776-2.475 3.944-5.723 6.728-9.744 8.352-4.022 1.701-9.203 2.552-15.544 2.552zM236.556 276v-19.14h19.488v-32.364l-20.648 1.624v-20.88l43.848-3.48v55.1h14.152V276h-56.84zm101.518-29.812h-8.584c-1.933 0-3.209.309-3.828.928s-.928 1.933-.928 3.944v8.468h8.584c1.934 0 3.21-.309 3.828-.928.619-.696.928-2.011.928-3.944v-8.468zm24.94 6.612c0 5.877-1.082 10.633-3.248 14.268s-5.606 6.341-10.324 8.12c-4.64 1.701-10.672 2.552-18.096 2.552-5.722 0-10.594-.696-14.616-2.088s-7.269-3.557-9.744-6.496c-2.474-3.016-4.292-6.921-5.452-11.716-1.16-4.872-1.74-10.749-1.74-17.632 0-7.115.658-13.069 1.972-17.864 1.315-4.872 3.403-8.777 6.264-11.716 2.939-3.016 6.806-5.181 11.6-6.496s10.672-1.972 17.632-1.972c2.011 0 4.524.193 7.54.58s5.955.851 8.816 1.392 5.066 1.121 6.612 1.74l-3.132 18.328c-2.938-.619-6.186-1.121-9.744-1.508-3.48-.464-6.457-.696-8.932-.696-3.325 0-6.148.077-8.468.232-2.242.155-3.982.425-5.22.812v7.076h6.264c11.291 0 19.45 1.817 24.476 5.452s7.54 9.512 7.54 17.632z" fill="#edf060"/><path d="M13.8 203.5v-1h-1v1h1zm49.068 1.74l-.255.967.255-.967zm10.44 5.8l-.728.686.005.005.005.006.717-.697zm5.568 11.136l-.975.224.001.003.974-.227zm0 35.264l.974.227.001-.003-.975-.224zm-5.568 11.136l-.727-.687-.001.001.728.686zm-10.44 5.8l.238.971.008-.002.008-.002-.255-.967zM13.8 276h-1v1h1v-1zM37 221.596v-1h-1v1h1zm0 36.308h-1v1h1v-1zm16.588-1.508l.608.794.014-.011.014-.011-.636-.772zm0-33.176l-.636.772.014.011.014.011.607-.794zM13.8 204.5h32.364v-2H13.8v2zm32.364 0c6.679 0 12.154.577 16.45 1.707l.509-1.934c-4.52-1.19-10.181-1.773-16.958-1.773v2zm16.45 1.707c4.268 1.123 7.569 2.976 9.967 5.519l1.455-1.372c-2.707-2.871-6.365-4.884-10.913-6.081l-.509 1.934zm9.977 5.53c2.471 2.543 4.258 6.074 5.311 10.663l1.949-.448c-1.112-4.846-3.037-8.739-5.825-11.609l-1.435 1.394zm5.311 10.666c1.059 4.539 1.598 10.333 1.598 17.405h2c0-7.158-.544-13.118-1.65-17.859l-1.948.454zm1.598 17.405c0 6.993-.538 12.789-1.599 17.408l1.949.448c1.105-4.816 1.649-10.774 1.649-17.856h-2zm-1.598 17.405c-1.052 4.509-2.84 8.049-5.321 10.676l1.454 1.374c2.777-2.941 4.702-6.825 5.815-11.596l-1.948-.454zM72.58 267.89c-2.397 2.543-5.699 4.396-9.967 5.519l.509 1.934c4.548-1.197 8.207-3.21 10.913-6.081l-1.455-1.372zm-9.951 5.515C58.327 274.462 52.846 275 46.164 275v2c6.774 0 12.429-.544 16.942-1.653l-.477-1.942zM46.164 275H13.8v2h32.364v-2zM14.8 276v-72.5h-2V276h2zM36 221.596v36.308h2v-36.308h-2zm1 37.308h9.512v-2H37v2zm9.512 0c3.431 0 6.087-.493 7.684-1.714l-1.215-1.588c-1.033.789-3.094 1.302-6.469 1.302v2zm7.712-1.736c1.658-1.366 2.336-3.676 2.336-6.572h-2c0 2.672-.637 4.229-1.608 5.028l1.271 1.544zm2.336-6.572v-21.692h-2v21.692h2zm0-21.692c0-2.887-.674-5.185-2.365-6.478l-1.215 1.588c.938.718 1.579 2.209 1.579 4.89h2zm-2.336-6.456c-1.602-1.319-4.273-1.852-7.712-1.852v2c3.367 0 5.413.55 6.44 1.396l1.271-1.544zm-7.712-1.852H37v2h9.512v-2zm45.272 52.388l-.698.716.698-.716zm-3.248-23.78l-.906-.424-.006.012.911.412zm5.336-5.916l.523.853.01-.006.01-.007-.542-.84zm9.396-3.364l-.174-.985-.003.001.177.984zm21.344-1.044h1v-1h-1v1zm0 11.6v1h1v-1h-1zm-16.356 11.6h-1v1h1v-1zm11.136-.928l-.471-.882h0l.471.882zm1.74-27.492h1v-.768l-.743-.198-.257.966zm-16.704.232l.121.993h0l-.121-.993zm-12.064 2.32l-.985.171.185 1.065 1.047-.267-.247-.969zm-2.784-16.008l-.301-.954-.834.264.15.861.985-.171zM98.512 218l.177.984.01-.001.01-.002-.196-.981zm9.396-1.276l.073.997h.011l.011-.002-.095-.995zm24.824 1.74l-.355.935.011.004.011.004.333-.943zm8.7 6.612l-.852.524.008.013.008.013.836-.55zm2.9 50.924v1h1v-1h-1zm-11.6 0l-.707.707.293.293h.414v-1zm-5.8-5.8l.707-.707-.648-.648-.702.588.643.767zm-9.396 5.568l.36.933-.36-.933zm-10.324.972c-6.916 0-11.749-1.562-14.73-4.472l-1.397 1.432c3.515 3.431 8.968 5.04 16.127 5.04v-2zm-14.73-4.472c-2.977-2.906-4.571-7.579-4.571-14.248h-2c0 6.941 1.654 12.244 5.174 15.68l1.397-1.432zm-4.571-14.248c0-3.382.527-6.171 1.535-8.404l-1.823-.824c-1.157 2.562-1.713 5.65-1.713 9.228h2zm1.529-8.392c1.075-2.292 2.717-4.117 4.953-5.487l-1.045-1.706c-2.559 1.569-4.473 3.687-5.719 6.345l1.811.848zm4.973-5.5c2.253-1.453 5.249-2.539 9.031-3.22l-.354-1.968c-3.951.711-7.22 1.868-9.761 3.508l1.084 1.68zm9.028-3.219c3.868-.683 8.601-1.029 14.21-1.029v-2c-5.682 0-10.539.35-14.558 1.059l.348 1.97zm14.21-1.029h6.96v-2h-6.96v2zm5.96-1v11.6h2v-11.6h-2zm1 10.6h-8.352v2h8.352v-2zm-8.352 0c-3.025 0-5.363.337-6.779 1.187l1.029 1.714c.904-.542 2.742-.901 5.75-.901v-2zm-6.779 1.187c-1.568.94-2.225 2.624-2.225 4.685h2c0-1.651.503-2.519 1.254-2.971l-1.029-1.714zm-2.225 4.685v6.728h2v-6.728h-2zm1 7.728h4.872v-2h-4.872v2zm4.872 0c3.019 0 5.334-.299 6.734-1.046l-.941-1.764c-.92.49-2.781.81-5.793.81v2zm6.734-1.046c1.585-.845 2.27-2.418 2.27-4.362h-2c0 1.459-.475 2.205-1.211 2.598l.941 1.764zm2.27-4.362V233.66h-2v24.012h2zm-.743-24.978c-1.297-.346-3.345-.498-6.057-.498v2c2.7 0 4.519.157 5.542.43l.515-1.932zm-6.057-.498c-3.525 0-7.2.235-11.026.703l.243 1.986c3.753-.46 7.347-.689 10.783-.689v-2zm-11.026.703c-3.837.47-7.9 1.252-12.189 2.344l.493 1.938c4.218-1.074 8.198-1.838 11.939-2.296l-.243-1.986zm-10.957 3.142l-2.784-16.008-1.97.342 2.784 16.008 1.97-.342zm-3.468-14.883c2.898-.916 5.834-1.64 8.808-2.174l-.353-1.968a72.84 72.84 0 0 0-9.056 2.234l.602 1.908zm8.827-2.177a75.12 75.12 0 0 1 9.273-1.26l-.146-1.994a77.39 77.39 0 0 0-9.519 1.292l.392 1.962zm9.295-1.262a101.82 101.82 0 0 1 9.649-.459v-2a103.49 103.49 0 0 0-9.839.469l.19 1.99zm9.649-.459c6.119 0 11.013.728 14.725 2.139l.71-1.87c-4.022-1.528-9.182-2.269-15.435-2.269v2zm14.747 2.147c3.769 1.33 6.466 3.406 8.181 6.193l1.703-1.048c-1.996-3.245-5.099-5.577-9.218-7.031l-.666 1.886zm8.197 6.219c1.795 2.728 2.736 6.347 2.736 10.934h2c0-4.848-.993-8.885-3.065-12.034l-1.671 1.1zm2.736 10.934V276h2v-39.44h-2zm1 38.44h-11.6v2h11.6v-2zm-10.893.293l-5.8-5.8-1.414 1.414 5.8 5.8 1.414-1.414zm-7.15-5.86c-2.779 2.329-5.816 4.128-9.114 5.402l.721 1.866c3.508-1.355 6.734-3.268 9.678-5.734l-1.285-1.534zm-9.114 5.402c-3.293 1.273-6.612 1.905-9.963 1.905v2c3.609 0 7.172-.682 10.684-2.039l-.721-1.866zm45.419-4.635l-.972.235.185.765h.787v-1zM149.95 218v-1h-1.272l.3 1.235.972-.235zm22.62 0l.977-.21-.169-.79h-.808v1zm6.844 31.9l-.978.21.169.79h.809v-1zm1.16 0v1h.808l.169-.79-.977-.21zm6.844-31.9v-1h-.809l-.169.79.978.21zm22.62 0l.971.235.3-1.235h-1.271v1zm-12.644 52.2v1h.786l.185-.765-.971-.235zm-38.744 26.1l.154-.988-.015-.002-.015-.002-.124.992zm-6.612-1.276l-.997-.085-.071.825.798.223.27-.963zm1.044-12.18l-.124-.992-.804.1-.069.807.997.085zm13.92-1.74l.124.992.008-.001.009-.001-.141-.99zm4.872-1.392l-.448-.894-.024.012-.025.014.497.868zm2.436-2.784l-.905-.426-.011.022-.009.023.925.381zm1.624-5.568l-.981-.196-.001.006.982.19zm.232-1.16v-1h-.82l-.161.804.981.196zm21.228 0l.974.227.285-1.227h-1.259v1zm-6.148 15.776l-.835-.551-.006.01-.006.01.847.531zm-9.744 8.352l-.375-.927-.008.003-.007.003.39.921zm-17.937-24.363l-12.644-52.2-1.943.47 12.644 52.2 1.943-.47zM149.95 219h22.62v-2h-22.62v2zm21.642-.79l6.844 31.9 1.955-.42-6.844-31.9-1.955.42zm7.822 32.69h1.16v-2h-1.16v2zm2.137-.79l6.844-31.9-1.955-.42-6.844 31.9 1.955.42zm5.867-31.11h22.62v-2h-22.62v2zm21.648-1.235l-12.644 52.2 1.943.47 12.644-52.2-1.943-.47zM197.394 269.2h-34.8v2h34.8v-2zm-31.436 26.68c-2.344 0-4.728-.189-7.154-.568l-.309 1.976c2.524.394 5.011.592 7.463.592v-2zm-7.184-.572c-2.437-.305-4.591-.722-6.467-1.247l-.539 1.926c1.991.557 4.245.991 6.758 1.305l.248-1.984zm-5.74-.199l1.044-12.18-1.993-.17-1.044 12.18 1.993.17zm.172-11.273l13.92-1.74-.248-1.984-13.92 1.74.248 1.984zm13.937-1.742c2.21-.316 3.981-.802 5.227-1.514l-.993-1.736c-.92.526-2.397.967-4.517 1.27l.283 1.98zm5.178-1.488c1.335-.667 2.297-1.8 2.913-3.297l-1.849-.762c-.466 1.133-1.129 1.856-1.959 2.271l.895 1.788zm2.893-3.252c.67-1.424 1.231-3.372 1.701-5.804l-1.963-.38c-.458 2.363-.98 4.126-1.547 5.332l1.809.852zm1.7-5.798l.232-1.16-1.961-.392-.232 1.16 1.961.392zm-.748-.356h21.228v-2h-21.228v2zm20.254-1.227c-1.532 6.585-3.546 11.72-6.009 15.452l1.669 1.102c2.641-4.001 4.726-9.384 6.288-16.1l-1.948-.454zm-6.021 15.472c-2.372 3.779-5.461 6.417-9.272 7.956l.749 1.854c4.231-1.709 7.639-4.639 10.217-8.748l-1.694-1.062zm-9.287 7.962c-3.856 1.631-8.891 2.473-15.154 2.473v2c6.419 0 11.746-.86 15.933-2.631l-.779-1.842zM236.556 276h-1v1h1v-1zm0-19.14v-1h-1v1h1zm19.488 0v1h1v-1h-1zm0-32.364h1v-1.082l-1.078.085.078.997zm-20.648 1.624h-1v1.082l1.079-.085-.079-.997zm0-20.88l-.079-.997-.921.073v.924h1zm43.848-3.48h1v-1.083l-1.079.086.079.997zm0 55.1h-1v1h1v-1zm14.152 0h1v-1h-1v1zm0 19.14v1h1v-1h-1zm-55.84 0v-19.14h-2V276h2zm-1-18.14h19.488v-2h-19.488v2zm20.488-1v-32.364h-2v32.364h2zm-1.078-33.361l-20.648 1.624.157 1.994 20.648-1.624-.157-1.994zm-19.57 2.621v-20.88h-2v20.88h2zm-.921-19.883l43.848-3.48-.158-1.994-43.848 3.48.158 1.994zm42.769-4.477v55.1h2v-55.1h-2zm1 56.1h14.152v-2h-14.152v2zm13.152-1V276h2v-19.14h-2zm1 18.14h-56.84v2h56.84v-2zm44.678-28.812h1v-1h-1v1zm-12.412.928l.707.707h0l-.707-.707zm-.928 12.412h-1v1h1v-1zm12.412-.928l.707.707.021-.021.02-.022-.748-.664zm22.62 8.468l-.859-.512h0l.859.512zm-10.324 8.12l.345.939.008-.003-.353-.936zm-32.712.464l-.327.945.327-.945zm-9.744-6.496l-.773.634.008.01.765-.644zm-5.452-11.716l-.972.232v.003l.972-.235zm.232-35.496l.965.264.001-.003-.966-.261zm6.264-11.716l-.716-.698h0l.716.698zm11.6-6.496l.265.964h0l-.265-.964zm33.988 0l-.186.983h0l.186-.983zm6.612 1.74l.986.168.136-.796-.75-.3-.372.928zm-3.132 18.328l-.206.979 1.017.214.175-1.025-.986-.168zm-9.744-1.508l-.132.991.012.002.012.001.108-.994zm-17.4-.464l-.066-.998h-.002l.068.998zm-5.22.812l-.298-.954-.702.219v.735h1zm0 7.076h-1v1h1v-1zm30.74 5.452l.586-.81h0l-.586.81zm-17.4 10.02h-8.584v2h8.584v-2zm-8.584 0c-1.012 0-1.9.08-2.642.26-.734.178-1.404.472-1.893.961l1.414 1.414c.13-.13.407-.3.95-.431.534-.13 1.25-.204 2.171-.204v-2zm-4.535 1.221c-.494.494-.786 1.18-.962 1.928-.179.759-.259 1.674-.259 2.723h2c0-.962.075-1.71.206-2.265.133-.567.305-.847.429-.972l-1.414-1.414zm-1.221 4.651v8.468h2v-8.468h-2zm1 9.468h8.584v-2h-8.584v2zm8.584 0c1.013 0 1.901-.08 2.643-.26.733-.178 1.404-.472 1.892-.961l-1.414-1.414c-.13.13-.407.3-.949.431-.534.13-1.251.204-2.172.204v2zm4.576-1.264c.884-.995 1.18-2.651 1.18-4.608h-2c0 1.909-.322 2.883-.675 3.28l1.495 1.328zm1.18-4.608v-8.468h-2v8.468h2zm22.94-1.856c0 5.764-1.063 10.325-3.107 13.756l1.718 1.024c2.287-3.839 3.389-8.789 3.389-14.78h-2zm-3.107 13.756c-2.028 3.405-5.27 5.982-9.817 7.696l.705 1.872c4.887-1.843 8.528-4.68 10.83-8.544l-1.718-1.024zm-9.809 7.693c-4.489 1.646-10.392 2.491-17.752 2.491v2c7.489 0 13.65-.856 18.441-2.613l-.689-1.878zm-17.752 2.491c-5.647 0-10.402-.688-14.289-2.033l-.654 1.89c4.156 1.439 9.145 2.143 14.943 2.143v-2zm-14.289-2.033c-3.869-1.34-6.959-3.409-9.306-6.195l-1.53 1.288c2.603 3.091 6.009 5.353 10.182 6.797l.654-1.89zm-9.298-6.185c-2.357-2.873-4.119-6.631-5.253-11.317l-1.944.47c1.187 4.904 3.059 8.956 5.651 12.115l1.546-1.268zm-5.252-11.314c-1.136-4.773-1.713-10.569-1.713-17.4h-2c0 6.934.584 12.893 1.768 17.864l1.945-.464zm-1.713-17.4c0-7.06.653-12.919 1.937-17.6l-1.929-.528c-1.346 4.909-2.008 10.959-2.008 18.128h2zm1.938-17.603c1.28-4.745 3.297-8.488 6.015-11.279l-1.433-1.396c-3.005 3.086-5.164 7.154-6.513 12.153l1.931.522zm6.015-11.279c2.793-2.867 6.494-4.953 11.148-6.23l-.529-1.928c-4.935 1.353-8.968 3.597-12.052 6.762l1.433 1.396zm11.148-6.23c4.682-1.283 10.464-1.936 17.367-1.936v-2c-7.016 0-12.989.662-17.896 2.008l.529 1.928zm17.367-1.936c1.953 0 4.42.188 7.413.572l.255-1.984c-3.04-.39-5.599-.588-7.668-.588v2zm7.413.572c2.997.384 5.916.845 8.757 1.383l.372-1.966a151.2 151.2 0 0 0-8.874-1.401l-.255 1.984zm8.757 1.383c2.838.536 4.969 1.102 6.427 1.685l.743-1.856c-1.635-.654-3.912-1.249-6.798-1.795l-.372 1.966zm5.813.589l-3.132 18.328 1.971.336 3.132-18.328-1.971-.336zm-1.941 17.517c-2.976-.626-6.257-1.134-9.842-1.523l-.216 1.988c3.531.384 6.745.882 9.646 1.493l.412-1.958zm-9.817-1.52c-3.508-.468-6.532-.705-9.065-.705v2c2.417 0 5.347.227 8.8.687l.265-1.982zm-9.065-.705c-3.339 0-6.185.078-8.534.234l.133 1.996c2.291-.153 5.09-.23 8.401-.23v-2zm-8.536.234c-2.273.157-4.103.435-5.45.856l.597 1.908c1.127-.352 2.778-.616 4.99-.768l-.137-1.996zm-6.152 1.81v7.076h2v-7.076h-2zm1 8.076h6.264v-2h-6.264v2zm6.264 0c11.231 0 19.125 1.817 23.89 5.262l1.172-1.62c-5.288-3.824-13.711-5.642-25.062-5.642v2zm23.89 5.262c4.69 3.391 7.126 8.914 7.126 16.822h2c0-8.332-2.59-14.564-7.954-18.442l-1.172 1.62z" fill="#031107"/></mask><g mask="url(#A)"><path transform="matrix(-1 0 0 -1 385 301)" fill="#edf060" d="M0 0h65.667v103H0z"/><path transform="matrix(-1 0 0 -1 319.333 301)" fill="#461ca0" d="M0 0h65.667v103H0z"/><path transform="matrix(-1 0 0 -1 253.667 301)" fill="#d33c5a" d="M0 0h65.667v103H0z"/><path transform="matrix(-1 0 0 -1 188 301)" fill="#461ca0" d="M0 0h65.667v103H0z"/><path transform="matrix(-1 0 0 -1 122.333 301)" fill="#edf060" d="M0 0h65.667v103H0z"/><path transform="matrix(-1 0 0 -1 56.6667 301)" fill="#d33c5a" d="M0 0h65.667v103H0z"/></g><path stroke="#031107" d="M.5.5h374v399H.5z"/></svg>